<?xml version="1.0" encoding="utf-8"?>
<!-- Generator: Adobe Illustrator 16.0.0, SVG Export Plug-In . SVG Version: 6.00 Build 0)  -->
<!DOCTYPE svg PUBLIC "-//W3C//DTD SVG 1.1//EN" "http://www.w3.org/Graphics/SVG/1.1/DTD/svg11.dtd">
<svg version="1.1" id="Ebene_1" xmlns="http://www.w3.org/2000/svg" xmlns:xlink="http://www.w3.org/1999/xlink" x="0px" y="0px"
	 width="186px" height="48px" viewBox="0 0 186 48" enable-background="new 0 0 186 48" xml:space="preserve">
<g>
	<g>
		<path fill="#010202" d="M9.987,22.083l1.71-0.045c1.199-0.029,2.324-0.217,3.375-0.562c1.05-0.344,1.972-0.877,2.768-1.597
			c0.794-0.72,1.424-1.649,1.89-2.79c0.465-1.14,0.698-2.52,0.698-4.14c0-1.29-0.278-2.467-0.833-3.532
			c-0.556-1.064-1.283-1.98-2.183-2.745c-0.9-0.765-1.943-1.35-3.127-1.755c-1.186-0.405-2.408-0.608-3.667-0.608H3.282
			c-0.75,0-1.291,0.21-1.62,0.63c-0.331,0.42-0.495,0.93-0.495,1.53v28.036c0,0.66,0.18,1.178,0.54,1.552
			c0.36,0.375,0.84,0.562,1.44,0.562s1.08-0.188,1.44-0.562c0.36-0.374,0.54-0.892,0.54-1.552V22.308l12.24,13.411
			c0.24,0.24,0.495,0.449,0.765,0.629c0.27,0.181,0.614,0.271,1.035,0.271c0.51,0,0.938-0.15,1.283-0.45
			c0.345-0.299,0.518-0.659,0.518-1.08c0-0.659-0.255-1.26-0.765-1.8L9.987,22.083z M5.126,7.729h5.31c0.93,0,1.762,0.15,2.498,0.45
			c0.735,0.3,1.365,0.698,1.89,1.192c0.524,0.495,0.93,1.073,1.215,1.733c0.285,0.66,0.428,1.365,0.428,2.115
			c0,2.07-0.473,3.571-1.417,4.5c-0.945,0.93-2.453,1.395-4.522,1.395h-5.4V7.729z M41.441,15.806
			c-0.871-1.095-1.95-1.98-3.24-2.655c-1.291-0.675-2.745-1.013-4.365-1.013c-1.68,0-3.188,0.337-4.522,1.013
			c-1.335,0.675-2.46,1.575-3.375,2.7c-0.916,1.125-1.62,2.423-2.115,3.893c-0.495,1.47-0.743,3.015-0.743,4.635
			c0,1.59,0.209,3.121,0.63,4.59c0.42,1.47,1.08,2.775,1.98,3.914c0.9,1.141,2.04,2.048,3.42,2.723
			c1.38,0.676,3.03,1.013,4.95,1.013c1.17,0,2.325-0.165,3.465-0.495s2.167-0.742,3.083-1.237c0.915-0.495,1.649-1.027,2.205-1.598
			c0.555-0.569,0.833-1.095,0.833-1.575c0-0.569-0.15-1.004-0.45-1.305c-0.3-0.299-0.63-0.449-0.99-0.449s-0.743,0.172-1.147,0.517
			c-0.405,0.345-0.9,0.72-1.485,1.125s-1.313,0.772-2.183,1.103c-0.871,0.33-1.965,0.495-3.285,0.495c-1.11,0-2.1-0.187-2.97-0.562
			c-0.871-0.375-1.613-0.892-2.228-1.552c-0.615-0.66-1.08-1.434-1.395-2.318s-0.473-1.837-0.473-2.857h14.895
			c0.87,0,1.455-0.18,1.755-0.54c0.3-0.36,0.45-0.884,0.45-1.575c0-1.44-0.233-2.858-0.698-4.252
			C42.979,18.146,42.312,16.901,41.441,15.806z M27.042,22.938c0.029-0.9,0.172-1.8,0.428-2.7c0.254-0.9,0.652-1.702,1.192-2.407
			c0.54-0.705,1.229-1.267,2.07-1.688c0.839-0.42,1.875-0.615,3.105-0.585c1.08,0,2.025,0.225,2.835,0.675
			c0.81,0.45,1.47,1.028,1.98,1.732c0.51,0.705,0.893,1.5,1.147,2.385c0.255,0.885,0.383,1.748,0.383,2.588H27.042z M52.421,18.461
			c0.54-0.855,1.245-1.553,2.115-2.093c0.87-0.54,1.919-0.81,3.15-0.81c0.66,0,1.215,0.068,1.665,0.203
			c0.45,0.135,0.839,0.278,1.17,0.428c0.33,0.15,0.645,0.292,0.945,0.427c0.3,0.135,0.645,0.203,1.035,0.203
			c0.479,0,0.87-0.172,1.17-0.518c0.3-0.345,0.45-0.727,0.45-1.147c0-0.81-0.562-1.515-1.688-2.115c-1.125-0.6-2.708-0.9-4.748-0.9
			c-1.83,0-3.42,0.337-4.77,1.013c-1.35,0.675-2.475,1.583-3.375,2.722c-0.9,1.141-1.568,2.446-2.002,3.915
			c-0.435,1.47-0.652,3-0.652,4.59c0,1.59,0.217,3.121,0.652,4.59c0.435,1.47,1.103,2.775,2.002,3.914
			c0.9,1.141,2.025,2.048,3.375,2.723c1.35,0.676,2.94,1.013,4.77,1.013c2.07,0,3.637-0.329,4.703-0.989
			c1.064-0.66,1.597-1.365,1.597-2.115c0-0.541-0.143-0.952-0.427-1.238c-0.286-0.284-0.652-0.428-1.103-0.428
			c-0.331,0-0.63,0.068-0.9,0.203s-0.578,0.293-0.923,0.473s-0.75,0.338-1.215,0.473c-0.465,0.135-1.042,0.202-1.732,0.202
			c-1.23,0-2.28-0.271-3.15-0.81c-0.871-0.541-1.575-1.238-2.115-2.093s-0.938-1.8-1.192-2.835
			c-0.255-1.035-0.382-2.062-0.382-3.083c0-1.02,0.127-2.047,0.382-3.083C51.483,20.261,51.881,19.316,52.421,18.461z M84.1,14.163
			c-0.81-0.72-1.703-1.237-2.677-1.552c-0.975-0.315-1.928-0.473-2.857-0.473c-1.2,0-2.385,0.241-3.555,0.72
			c-1.17,0.48-2.19,1.29-3.06,2.43l-0.09-0.09V3.723c0-0.659-0.18-1.177-0.54-1.552c-0.36-0.375-0.84-0.562-1.44-0.562
			c-0.601,0-1.08,0.188-1.44,0.562c-0.36,0.375-0.54,0.893-0.54,1.552v30.781c0,0.66,0.18,1.178,0.54,1.552
			c0.36,0.375,0.839,0.562,1.44,0.562c0.6,0,1.08-0.188,1.44-0.562c0.36-0.374,0.54-0.892,0.54-1.552V21.453
			c0-1.05,0.165-1.95,0.495-2.7c0.33-0.75,0.757-1.357,1.282-1.823c0.525-0.465,1.118-0.81,1.778-1.035
			c0.659-0.225,1.32-0.338,1.98-0.338c0.66,0,1.32,0.113,1.98,0.338c0.66,0.225,1.252,0.57,1.777,1.035
			c0.524,0.466,0.952,1.073,1.283,1.823c0.33,0.75,0.495,1.65,0.495,2.7v13.051c0,0.66,0.18,1.178,0.54,1.552
			c0.36,0.375,0.84,0.562,1.44,0.562s1.08-0.188,1.44-0.562c0.36-0.374,0.54-0.892,0.54-1.552V21.229
			c0-1.68-0.263-3.098-0.787-4.253C85.578,15.821,84.91,14.883,84.1,14.163z M108.311,14.163c-0.811-0.72-1.703-1.237-2.678-1.552
			s-1.928-0.473-2.857-0.473c-1.201,0-2.385,0.241-3.555,0.72c-1.17,0.48-2.191,1.29-3.061,2.43l-0.09-0.09v-0.945
			c0-0.66-0.18-1.177-0.539-1.553c-0.361-0.375-0.841-0.562-1.441-0.562c-0.601,0-1.08,0.188-1.44,0.562
			c-0.36,0.375-0.54,0.893-0.54,1.553v20.25c0,0.66,0.18,1.178,0.54,1.552c0.36,0.375,0.84,0.562,1.44,0.562
			c0.6,0,1.08-0.188,1.441-0.562c0.359-0.374,0.539-0.892,0.539-1.552V21.453c0-1.05,0.164-1.95,0.494-2.7
			c0.33-0.75,0.758-1.357,1.283-1.823c0.525-0.465,1.117-0.81,1.777-1.035c0.66-0.225,1.32-0.338,1.98-0.338s1.32,0.113,1.98,0.338
			c0.658,0.225,1.252,0.57,1.777,1.035c0.523,0.466,0.951,1.073,1.281,1.823c0.33,0.75,0.496,1.65,0.496,2.7v13.051
			c0,0.66,0.18,1.178,0.539,1.552c0.361,0.375,0.84,0.562,1.441,0.562c0.6,0,1.08-0.188,1.439-0.562
			c0.359-0.374,0.539-0.892,0.539-1.552V21.229c0-1.68-0.262-3.098-0.787-4.253C109.787,15.821,109.121,14.883,108.311,14.163z
			 M133.33,12.138c-0.6,0-1.08,0.188-1.439,0.562c-0.361,0.375-0.541,0.893-0.541,1.553v12.69c0,4.17-1.844,6.255-5.535,6.255
			c-3.689,0-5.535-2.085-5.535-6.255v-12.69c0-0.66-0.18-1.177-0.539-1.553c-0.359-0.375-0.84-0.562-1.439-0.562
			c-0.602,0-1.08,0.188-1.441,0.562c-0.359,0.375-0.539,0.893-0.539,1.553v12.825c0,1.771,0.27,3.256,0.811,4.455
			c0.539,1.2,1.252,2.183,2.137,2.947c0.885,0.766,1.896,1.312,3.037,1.643s2.311,0.495,3.51,0.495c1.201,0,2.371-0.165,3.51-0.495
			c1.141-0.33,2.152-0.877,3.039-1.643c0.885-0.765,1.598-1.747,2.137-2.947c0.541-1.199,0.811-2.685,0.811-4.455V14.253
			c0-0.66-0.18-1.177-0.541-1.553C134.41,12.326,133.93,12.138,133.33,12.138z M156.73,14.163c-0.811-0.72-1.703-1.237-2.678-1.552
			c-0.977-0.315-1.928-0.473-2.857-0.473c-1.201,0-2.385,0.241-3.555,0.72c-1.17,0.48-2.191,1.29-3.061,2.43l-0.09-0.09v-0.945
			c0-0.66-0.18-1.177-0.541-1.553c-0.359-0.375-0.84-0.562-1.439-0.562s-1.08,0.188-1.439,0.562
			c-0.361,0.375-0.541,0.893-0.541,1.553v20.25c0,0.66,0.18,1.178,0.541,1.552c0.359,0.375,0.84,0.562,1.439,0.562
			s1.08-0.188,1.439-0.562c0.361-0.374,0.541-0.892,0.541-1.552V21.453c0-1.05,0.164-1.95,0.494-2.7
			c0.33-0.75,0.758-1.357,1.283-1.823c0.523-0.465,1.117-0.81,1.777-1.035c0.66-0.225,1.32-0.338,1.98-0.338
			c0.658,0,1.318,0.113,1.979,0.338c0.66,0.225,1.254,0.57,1.779,1.035c0.523,0.466,0.951,1.073,1.281,1.823
			c0.33,0.75,0.496,1.65,0.496,2.7v13.051c0,0.66,0.18,1.178,0.539,1.552c0.359,0.375,0.84,0.562,1.439,0.562
			s1.08-0.188,1.441-0.562c0.359-0.374,0.539-0.892,0.539-1.552V21.229c0-1.68-0.262-3.098-0.787-4.253
			C158.207,15.821,157.539,14.883,156.73,14.163z M183.73,12.588c-0.422-0.299-0.826-0.45-1.217-0.45
			c-0.539,0-1.027,0.151-1.461,0.45c-0.436,0.3-0.652,0.795-0.652,1.485v1.08h-0.09c-0.271-0.36-0.615-0.72-1.035-1.08
			c-0.422-0.36-0.9-0.682-1.441-0.967c-0.539-0.285-1.117-0.518-1.732-0.698c-0.615-0.18-1.236-0.27-1.867-0.27
			c-1.68,0-3.172,0.337-4.477,1.013c-1.307,0.675-2.408,1.583-3.309,2.722c-0.9,1.141-1.582,2.446-2.047,3.915
			c-0.465,1.47-0.697,3-0.697,4.59c0,1.59,0.232,3.121,0.697,4.59s1.146,2.775,2.047,3.914c0.9,1.141,2.002,2.048,3.309,2.723
			c1.305,0.676,2.797,1.013,4.477,1.013c1.35,0,2.549-0.308,3.6-0.923c1.051-0.614,1.875-1.446,2.477-2.497h0.09v2.07
			c0,0.87-0.105,1.739-0.316,2.61c-0.209,0.869-0.562,1.656-1.057,2.361c-0.496,0.705-1.164,1.283-2.002,1.732
			c-0.842,0.451-1.891,0.676-3.15,0.676c-1.08,0-2.01-0.143-2.791-0.428c-0.779-0.285-1.469-0.607-2.07-0.967
			c-0.6-0.36-1.131-0.684-1.596-0.969c-0.467-0.285-0.924-0.427-1.373-0.427c-0.631,0-1.066,0.202-1.305,0.607
			c-0.24,0.405-0.361,0.817-0.361,1.237c0,0.51,0.285,1.02,0.855,1.53c0.57,0.51,1.305,0.975,2.205,1.396
			c0.9,0.419,1.891,0.765,2.971,1.034c1.08,0.271,2.129,0.405,3.15,0.405c1.619,0,3.088-0.264,4.408-0.787
			c1.32-0.525,2.453-1.283,3.398-2.273c0.945-0.989,1.68-2.189,2.205-3.6c0.523-1.41,0.787-3,0.787-4.77V14.073
			C184.359,13.383,184.148,12.889,183.73,12.588z M180.078,27.461c-0.219,1.035-0.582,1.98-1.09,2.835
			c-0.51,0.854-1.172,1.552-1.986,2.093c-0.814,0.539-1.803,0.81-2.967,0.81c-1.193,0-2.189-0.271-2.988-0.81
			c-0.801-0.541-1.455-1.238-1.965-2.093c-0.508-0.854-0.873-1.8-1.09-2.835c-0.219-1.035-0.328-2.062-0.328-3.083
			c0-1.02,0.109-2.047,0.328-3.083c0.217-1.035,0.582-1.98,1.09-2.835c0.51-0.855,1.164-1.553,1.965-2.093
			c0.799-0.54,1.795-0.81,2.988-0.81c1.164,0,2.152,0.27,2.967,0.81s1.477,1.238,1.986,2.093c0.508,0.855,0.871,1.8,1.09,2.835
			s0.328,2.063,0.328,3.083C180.406,25.398,180.297,26.426,180.078,27.461z"/>
	</g>
</g>
</svg>
