<?xml version="1.0" encoding="utf-8"?>
<!-- Generator: Adobe Illustrator 16.0.0, SVG Export Plug-In . SVG Version: 6.00 Build 0)  -->
<!DOCTYPE svg PUBLIC "-//W3C//DTD SVG 1.1//EN" "http://www.w3.org/Graphics/SVG/1.1/DTD/svg11.dtd">
<svg version="1.1" id="Ebene_1" xmlns="http://www.w3.org/2000/svg" xmlns:xlink="http://www.w3.org/1999/xlink" x="0px" y="0px"
	 width="239.333px" height="48px" viewBox="0 0 239.333 48" enable-background="new 0 0 239.333 48" xml:space="preserve">
<g>
	<g>
		<path fill="#010202" d="M19.59,22.088c-0.63-0.69-1.365-1.26-2.205-1.71c-0.84-0.45-1.74-0.72-2.7-0.81v-0.09
			c1.32-0.42,2.392-1.252,3.218-2.498c0.825-1.245,1.237-2.752,1.237-4.522c0-0.9-0.188-1.807-0.562-2.723
			c-0.375-0.915-0.922-1.74-1.643-2.475c-0.72-0.735-1.62-1.328-2.7-1.777c-1.08-0.45-2.325-0.675-3.735-0.675H3.525
			c-0.75,0-1.291,0.21-1.62,0.63c-0.331,0.42-0.495,0.93-0.495,1.53v27.72c0,0.601,0.165,1.11,0.495,1.53
			c0.33,0.42,0.87,0.629,1.62,0.629h7.605c1.68,0,3.172-0.247,4.478-0.742c1.305-0.494,2.4-1.17,3.285-2.024
			c0.885-0.855,1.56-1.853,2.025-2.993c0.465-1.14,0.697-2.34,0.697-3.6c0-1.05-0.18-2.04-0.54-2.97S20.22,22.779,19.59,22.088z
			 M5.37,8.229h4.635c1.77,0,3.075,0.465,3.915,1.395c0.839,0.931,1.26,2.115,1.26,3.555c0,1.47-0.458,2.7-1.373,3.69
			c-0.915,0.99-2.228,1.485-3.938,1.485h-4.5V8.229z M15.765,31.809c-1.26,1.08-2.865,1.619-4.815,1.619H5.37V21.593h5.76
			c1.02,0,1.935,0.15,2.745,0.45c0.81,0.3,1.5,0.72,2.07,1.26c0.569,0.54,0.997,1.17,1.283,1.89c0.285,0.72,0.427,1.484,0.427,2.295
			C17.655,29.288,17.025,30.729,15.765,31.809z M42.494,16.306c-0.87-1.095-1.95-1.98-3.24-2.655
			c-1.291-0.675-2.745-1.013-4.365-1.013c-1.68,0-3.188,0.337-4.522,1.013c-1.335,0.675-2.46,1.575-3.375,2.7
			c-0.916,1.125-1.62,2.423-2.115,3.893c-0.495,1.47-0.743,3.015-0.743,4.635c0,1.59,0.209,3.121,0.63,4.59
			c0.42,1.47,1.08,2.775,1.98,3.914c0.9,1.141,2.04,2.048,3.42,2.723c1.38,0.676,3.03,1.013,4.95,1.013
			c1.17,0,2.325-0.165,3.465-0.495s2.167-0.742,3.083-1.237c0.915-0.495,1.65-1.027,2.205-1.598
			c0.555-0.569,0.833-1.095,0.833-1.575c0-0.569-0.15-1.004-0.45-1.305c-0.3-0.299-0.63-0.449-0.99-0.449s-0.743,0.172-1.147,0.517
			s-0.9,0.72-1.485,1.125s-1.313,0.772-2.183,1.103c-0.871,0.33-1.965,0.495-3.285,0.495c-1.11,0-2.1-0.187-2.97-0.562
			c-0.871-0.375-1.613-0.892-2.228-1.552c-0.615-0.66-1.08-1.434-1.395-2.318s-0.473-1.837-0.473-2.857h14.895
			c0.87,0,1.455-0.18,1.755-0.54c0.3-0.36,0.45-0.884,0.45-1.575c0-1.44-0.233-2.858-0.698-4.252
			C44.031,18.646,43.364,17.401,42.494,16.306z M28.094,23.438c0.03-0.9,0.172-1.8,0.428-2.7c0.254-0.9,0.652-1.702,1.192-2.407
			c0.54-0.705,1.229-1.267,2.07-1.688c0.84-0.42,1.875-0.615,3.105-0.585c1.08,0,2.025,0.225,2.835,0.675
			c0.81,0.45,1.47,1.028,1.98,1.732c0.51,0.705,0.893,1.5,1.147,2.385c0.255,0.885,0.383,1.748,0.383,2.588H28.094z M61.866,24.811
			c-0.945-0.555-1.973-1.035-3.083-1.44c-1.11-0.405-2.137-0.81-3.083-1.215c-0.945-0.405-1.732-0.847-2.362-1.328
			c-0.63-0.479-0.945-1.064-0.945-1.755c0-1.02,0.412-1.777,1.237-2.272c0.825-0.495,1.807-0.743,2.947-0.743
			c0.93,0,1.695,0.128,2.295,0.383c0.6,0.255,1.117,0.533,1.552,0.833c0.435,0.3,0.825,0.578,1.17,0.833
			c0.345,0.255,0.727,0.382,1.147,0.382c0.6,0,1.05-0.165,1.35-0.495c0.299-0.33,0.45-0.704,0.45-1.125
			c0-0.63-0.263-1.199-0.788-1.71c-0.525-0.51-1.178-0.952-1.958-1.327c-0.781-0.375-1.643-0.667-2.587-0.878
			c-0.945-0.209-1.823-0.315-2.633-0.315c-0.99,0-1.973,0.143-2.947,0.428c-0.976,0.286-1.845,0.713-2.61,1.282
			c-0.765,0.57-1.388,1.276-1.868,2.115c-0.48,0.84-0.72,1.815-0.72,2.925c0,1.11,0.315,2.047,0.945,2.812s1.417,1.425,2.362,1.98
			c0.945,0.556,1.972,1.051,3.083,1.485c1.109,0.436,2.138,0.877,3.083,1.327s1.732,0.945,2.363,1.485
			c0.63,0.54,0.945,1.2,0.945,1.98c0,0.81-0.413,1.552-1.238,2.227c-0.825,0.676-1.957,1.013-3.397,1.013
			c-1.08,0-1.995-0.149-2.745-0.45c-0.75-0.299-1.411-0.637-1.98-1.012c-0.57-0.375-1.065-0.713-1.485-1.014
			c-0.42-0.299-0.855-0.449-1.305-0.449c-0.421,0-0.795,0.165-1.125,0.495c-0.331,0.33-0.495,0.765-0.495,1.305
			c0,0.511,0.232,1.035,0.697,1.575c0.465,0.54,1.103,1.027,1.913,1.463c0.81,0.435,1.762,0.795,2.857,1.08
			c1.095,0.284,2.272,0.427,3.533,0.427c1.109,0,2.189-0.15,3.24-0.45c1.05-0.299,1.98-0.757,2.79-1.372
			c0.81-0.614,1.463-1.38,1.958-2.295c0.495-0.915,0.743-2.003,0.743-3.263c0-1.14-0.315-2.107-0.945-2.902
			C63.599,26.041,62.812,25.366,61.866,24.811z M75.793,12.908h-1.62V7.733c0-0.66-0.18-1.177-0.54-1.553
			c-0.36-0.375-0.84-0.562-1.44-0.562s-1.08,0.188-1.44,0.562c-0.36,0.375-0.54,0.893-0.54,1.553v5.175h-1.62
			c-1.321,0-1.98,0.57-1.98,1.71c0,1.141,0.659,1.71,1.98,1.71h1.62v18.676c0,0.66,0.18,1.178,0.54,1.552
			c0.36,0.375,0.84,0.562,1.44,0.562s1.08-0.188,1.44-0.562c0.36-0.374,0.54-0.892,0.54-1.552V16.328h1.62
			c1.32,0,1.98-0.569,1.98-1.71C77.773,13.479,77.113,12.908,75.793,12.908z M97.573,16.306c-0.87-1.095-1.95-1.98-3.24-2.655
			c-1.291-0.675-2.745-1.013-4.365-1.013c-1.68,0-3.188,0.337-4.522,1.013c-1.335,0.675-2.46,1.575-3.375,2.7
			c-0.916,1.125-1.62,2.423-2.115,3.893c-0.495,1.47-0.742,3.015-0.742,4.635c0,1.59,0.209,3.121,0.63,4.59
			c0.42,1.47,1.08,2.775,1.98,3.914c0.9,1.141,2.04,2.048,3.42,2.723c1.38,0.676,3.03,1.013,4.95,1.013
			c1.17,0,2.325-0.165,3.465-0.495c1.14-0.33,2.167-0.742,3.083-1.237c0.915-0.495,1.65-1.027,2.205-1.598
			c0.555-0.569,0.833-1.095,0.833-1.575c0-0.569-0.15-1.004-0.45-1.305c-0.3-0.299-0.63-0.449-0.99-0.449s-0.743,0.172-1.147,0.517
			c-0.405,0.345-0.9,0.72-1.485,1.125c-0.585,0.405-1.312,0.772-2.182,1.103c-0.871,0.33-1.965,0.495-3.285,0.495
			c-1.11,0-2.1-0.187-2.97-0.562c-0.87-0.375-1.613-0.892-2.227-1.552c-0.615-0.66-1.08-1.434-1.395-2.318
			c-0.315-0.885-0.473-1.837-0.473-2.857h14.895c0.87,0,1.455-0.18,1.755-0.54c0.3-0.36,0.45-0.884,0.45-1.575
			c0-1.44-0.233-2.858-0.698-4.252C99.11,18.646,98.442,17.401,97.573,16.306z M83.173,23.438c0.03-0.9,0.172-1.8,0.427-2.7
			s0.653-1.702,1.193-2.407c0.54-0.705,1.229-1.267,2.07-1.688c0.84-0.42,1.875-0.615,3.105-0.585c1.08,0,2.025,0.225,2.835,0.675
			c0.81,0.45,1.47,1.028,1.98,1.732c0.51,0.705,0.893,1.5,1.147,2.385c0.255,0.885,0.383,1.748,0.383,2.588H83.173z M106.032,2.108
			c-0.6,0-1.08,0.188-1.44,0.562c-0.36,0.375-0.54,0.893-0.54,1.552v30.781c0,0.66,0.18,1.178,0.54,1.552
			c0.36,0.375,0.84,0.562,1.44,0.562s1.08-0.188,1.44-0.562c0.36-0.374,0.54-0.892,0.54-1.552V4.223c0-0.659-0.18-1.177-0.54-1.552
			C107.112,2.296,106.632,2.108,106.032,2.108z M115.212,2.108c-0.6,0-1.08,0.188-1.44,0.562c-0.36,0.375-0.54,0.893-0.54,1.552
			v30.781c0,0.66,0.18,1.178,0.54,1.552c0.36,0.375,0.84,0.562,1.44,0.562s1.08-0.188,1.44-0.562c0.36-0.374,0.54-0.892,0.54-1.552
			V4.223c0-0.659-0.18-1.177-0.54-1.552C116.292,2.296,115.812,2.108,115.212,2.108z M139.422,12.638
			c-0.602,0-1.08,0.188-1.44,0.562c-0.36,0.375-0.54,0.893-0.54,1.553v12.69c0,4.17-1.846,6.255-5.535,6.255
			s-5.535-2.085-5.535-6.255v-12.69c0-0.66-0.18-1.177-0.539-1.553c-0.361-0.375-0.841-0.562-1.44-0.562
			c-0.601,0-1.08,0.188-1.44,0.562c-0.359,0.375-0.539,0.893-0.539,1.553v12.825c0,1.771,0.27,3.256,0.809,4.455
			c0.541,1.2,1.253,2.183,2.139,2.947c0.884,0.766,1.896,1.312,3.037,1.643c1.14,0.33,2.31,0.495,3.51,0.495
			c1.199,0,2.369-0.165,3.51-0.495s2.152-0.877,3.038-1.643c0.884-0.765,1.597-1.747,2.138-2.947c0.539-1.199,0.81-2.685,0.81-4.455
			V14.753c0-0.66-0.181-1.177-0.54-1.553C140.502,12.826,140.022,12.638,139.422,12.638z M162.822,14.663
			c-0.81-0.72-1.703-1.237-2.678-1.552c-0.976-0.315-1.928-0.473-2.857-0.473c-1.2,0-2.386,0.241-3.556,0.72
			c-1.17,0.48-2.189,1.29-3.06,2.43l-0.09-0.09v-0.945c0-0.66-0.181-1.177-0.54-1.553c-0.359-0.375-0.84-0.562-1.439-0.562
			c-0.602,0-1.08,0.188-1.44,0.562c-0.36,0.375-0.54,0.893-0.54,1.553v20.25c0,0.66,0.18,1.178,0.54,1.552
			c0.36,0.375,0.839,0.562,1.44,0.562c0.6,0,1.08-0.188,1.439-0.562c0.359-0.374,0.54-0.892,0.54-1.552V21.953
			c0-1.05,0.165-1.95,0.495-2.7c0.33-0.75,0.758-1.357,1.282-1.823c0.524-0.465,1.118-0.81,1.778-1.035
			c0.659-0.225,1.319-0.338,1.979-0.338c0.659,0,1.319,0.113,1.979,0.338c0.66,0.225,1.253,0.57,1.777,1.035
			c0.525,0.466,0.953,1.073,1.283,1.823c0.33,0.75,0.494,1.65,0.494,2.7v13.051c0,0.66,0.181,1.178,0.541,1.552
			c0.359,0.375,0.84,0.562,1.439,0.562s1.08-0.188,1.44-0.562c0.36-0.374,0.54-0.892,0.54-1.552V21.729
			c0-1.68-0.264-3.098-0.787-4.253C164.299,16.321,163.631,15.383,162.822,14.663z M189.821,13.088
			c-0.42-0.299-0.824-0.45-1.215-0.45c-0.539,0-1.027,0.151-1.462,0.45c-0.436,0.3-0.653,0.795-0.653,1.485v1.08h-0.09
			c-0.27-0.36-0.615-0.72-1.035-1.08s-0.899-0.682-1.439-0.967s-1.117-0.518-1.732-0.698c-0.615-0.18-1.237-0.27-1.867-0.27
			c-1.681,0-3.173,0.337-4.478,1.013c-1.306,0.675-2.407,1.583-3.308,2.722c-0.9,1.141-1.583,2.446-2.048,3.915
			c-0.466,1.47-0.697,3-0.697,4.59c0,1.59,0.231,3.121,0.697,4.59c0.465,1.47,1.147,2.775,2.048,3.914
			c0.9,1.141,2.002,2.048,3.308,2.723c1.305,0.676,2.797,1.013,4.478,1.013c1.35,0,2.549-0.308,3.6-0.923
			c1.05-0.614,1.875-1.446,2.475-2.497h0.09v2.07c0,0.87-0.105,1.739-0.314,2.61c-0.21,0.869-0.562,1.656-1.058,2.361
			s-1.163,1.283-2.003,1.732c-0.84,0.451-1.889,0.676-3.149,0.676c-1.08,0-2.011-0.143-2.79-0.428
			c-0.78-0.285-1.471-0.607-2.07-0.967c-0.6-0.36-1.133-0.684-1.598-0.969s-0.922-0.427-1.372-0.427
			c-0.63,0-1.065,0.202-1.305,0.607c-0.241,0.405-0.36,0.817-0.36,1.237c0,0.51,0.285,1.02,0.855,1.53
			c0.569,0.51,1.305,0.975,2.205,1.396c0.899,0.419,1.89,0.765,2.97,1.034c1.08,0.271,2.13,0.405,3.149,0.405
			c1.621,0,3.09-0.264,4.41-0.787c1.32-0.525,2.453-1.283,3.398-2.273c0.944-0.989,1.68-2.189,2.205-3.6
			c0.523-1.41,0.787-3,0.787-4.77V14.573C190.452,13.883,190.241,13.389,189.821,13.088z M186.17,27.961
			c-0.219,1.035-0.582,1.98-1.091,2.835s-1.171,1.552-1.985,2.093c-0.814,0.539-1.804,0.81-2.967,0.81
			c-1.193,0-2.189-0.271-2.99-0.81c-0.8-0.541-1.453-1.238-1.963-2.093c-0.509-0.854-0.873-1.8-1.091-2.835
			s-0.327-2.062-0.327-3.083c0-1.02,0.109-2.047,0.327-3.083s0.582-1.98,1.091-2.835c0.51-0.855,1.163-1.553,1.963-2.093
			c0.801-0.54,1.797-0.81,2.99-0.81c1.163,0,2.152,0.27,2.967,0.81s1.477,1.238,1.985,2.093s0.872,1.8,1.091,2.835
			c0.218,1.035,0.327,2.063,0.327,3.083C186.498,25.898,186.388,26.926,186.17,27.961z M212.772,16.306
			c-0.871-1.095-1.951-1.98-3.24-2.655c-1.291-0.675-2.745-1.013-4.365-1.013c-1.681,0-3.188,0.337-4.522,1.013
			c-1.335,0.675-2.46,1.575-3.375,2.7s-1.62,2.423-2.115,3.893c-0.495,1.47-0.742,3.015-0.742,4.635c0,1.59,0.21,3.121,0.63,4.59
			s1.08,2.775,1.98,3.914c0.899,1.141,2.039,2.048,3.42,2.723c1.379,0.676,3.029,1.013,4.949,1.013c1.17,0,2.324-0.165,3.465-0.495
			s2.168-0.742,3.083-1.237s1.649-1.027,2.205-1.598c0.555-0.569,0.833-1.095,0.833-1.575c0-0.569-0.151-1.004-0.451-1.305
			c-0.3-0.299-0.629-0.449-0.989-0.449s-0.743,0.172-1.147,0.517c-0.405,0.345-0.9,0.72-1.485,1.125s-1.312,0.772-2.183,1.103
			s-1.965,0.495-3.285,0.495c-1.109,0-2.1-0.187-2.97-0.562c-0.87-0.375-1.612-0.892-2.228-1.552s-1.08-1.434-1.395-2.318
			c-0.315-0.885-0.473-1.837-0.473-2.857h14.895c0.87,0,1.455-0.18,1.756-0.54c0.299-0.36,0.449-0.884,0.449-1.575
			c0-1.44-0.232-2.858-0.697-4.252C214.309,18.646,213.641,17.401,212.772,16.306z M198.372,23.438c0.029-0.9,0.172-1.8,0.428-2.7
			c0.254-0.9,0.652-1.702,1.191-2.407c0.541-0.705,1.23-1.267,2.07-1.688c0.84-0.42,1.875-0.615,3.105-0.585
			c1.08,0,2.025,0.225,2.835,0.675c0.81,0.45,1.47,1.028,1.979,1.732c0.51,0.705,0.893,1.5,1.148,2.385
			c0.254,0.885,0.382,1.748,0.382,2.588H198.372z M237.454,17.476c-0.525-1.154-1.193-2.092-2.003-2.812
			c-0.81-0.72-1.702-1.237-2.677-1.552c-0.976-0.315-1.929-0.473-2.857-0.473c-1.201,0-2.386,0.241-3.556,0.72
			c-1.17,0.48-2.19,1.29-3.06,2.43l-0.09-0.09v-0.945c0-0.66-0.181-1.177-0.541-1.553c-0.359-0.375-0.84-0.562-1.439-0.562
			c-0.601,0-1.08,0.188-1.439,0.562c-0.36,0.375-0.541,0.893-0.541,1.553v20.25c0,0.66,0.181,1.178,0.541,1.552
			c0.359,0.375,0.839,0.562,1.439,0.562c0.6,0,1.08-0.188,1.439-0.562c0.36-0.374,0.541-0.892,0.541-1.552V21.953
			c0-1.05,0.164-1.95,0.494-2.7c0.33-0.75,0.758-1.357,1.283-1.823c0.523-0.465,1.117-0.81,1.777-1.035
			c0.659-0.225,1.319-0.338,1.98-0.338c0.658,0,1.318,0.113,1.979,0.338c0.659,0.225,1.252,0.57,1.777,1.035
			c0.524,0.466,0.952,1.073,1.282,1.823c0.33,0.75,0.495,1.65,0.495,2.7v13.051c0,0.66,0.181,1.178,0.54,1.552
			c0.36,0.375,0.84,0.562,1.439,0.562c0.601,0,1.08-0.188,1.44-0.562c0.36-0.374,0.54-0.892,0.54-1.552V21.729
			C238.241,20.048,237.978,18.631,237.454,17.476z"/>
	</g>
</g>
</svg>
