<?xml version="1.0" standalone="no"?>
<!DOCTYPE svg PUBLIC "-//W3C//DTD SVG 1.1//EN" "http://www.w3.org/Graphics/SVG/1.1/DTD/svg11.dtd" >
<svg>
<metadata>
Created by FontForge 20110222 at Thu Mar  7 15:16:03 2013
 By Orthosie Webmaster
Copyright (c) 2013 by Mans Greba:ck. All rights reserved.
</metadata>
<defs>
<font id="HemmetPersonalUseOnly" horiz-adv-x="687" >
  <font-face 
    font-family="Hemmet Personal Use Only"
    font-weight="400"
    font-stretch="normal"
    units-per-em="1000"
    panose-1="2 0 0 0 0 0 0 0 0 0"
    ascent="750"
    descent="-250"
    x-height="289.5"
    cap-height="750"
    bbox="-4111.64 -414.895 1662.23 1002"
    underline-thickness="50"
    underline-position="-50"
    unicode-range="U+0020-FB02"
  />
<missing-glyph horiz-adv-x="500" 
 />
    <glyph glyph-name="fi" unicode="fi" horiz-adv-x="428" 
d="M416 114q19 12 28 13t9 -6t-9 -18.5t-28 -23.5q-19 -11 -44.5 -25t-53 -26t-54 -20t-46.5 -8q-26 0 -43.5 17.5t-6.5 46.5q4 12 23 34.5t45 48.5t54 52t51 47h-118q-27 -30 -59.5 -68.5t-67.5 -78.5t-69.5 -79t-64.5 -71.5t-54 -56t-37 -31.5q-22 -13 -48.5 -21.5
t-48.5 -11t-34.5 1t-4.5 14.5q12 17 41.5 46t74 73.5t102 106t126.5 142.5q8 8 14.5 17t13.5 17h-10q-9 0 -12 4.5t-1 10t8.5 10t17.5 4.5h22q59 69 112 124.5t103.5 88t98.5 37t98 -28.5q31 -21 42 -45t7 -44.5t-20.5 -33.5t-38.5 -11q-23 1 -36.5 15.5t-15 32.5t9 36
t35.5 27q-20 16 -52 3t-69.5 -43.5t-78 -73t-78.5 -84.5h139q51 0 68 -9.5t3 -25.5q-14 -15 -39 -36.5t-52.5 -44.5t-54.5 -45.5t-46 -40t-27 -28.5t2 -11q11 0 32 7.5t46 19t50.5 25.5t45.5 28z" />
    <glyph glyph-name="fl" unicode="fl" horiz-adv-x="434" 
d="M200 346q49 49 93.5 85.5t83.5 57t73 23t61 -15.5q20 -14 22 -28.5t-6 -26t-22.5 -17t-27.5 -0.5q-9 3 -13 9t-2.5 13.5t9.5 15t24 13.5q-10 8 -28.5 0.5t-42.5 -26t-52 -45.5t-58 -58h75q10 0 13 -4.5t0.5 -10t-10 -10t-18.5 -4.5h-87l-62 -69q-26 -30 -59 -68.5
t-68 -78.5t-70 -79.5t-65.5 -72.5t-54.5 -56.5t-37 -31.5q-22 -13 -48.5 -21.5t-48.5 -11t-34.5 1t-4.5 14.5q12 17 41.5 46t74 73.5t102 106t126.5 142.5q48 57 93 105h-53q-9 0 -12 4.5t-1 10t8.5 10t17.5 4.5h68zM423 114q19 12 28 13t9 -6t-9 -18.5t-28 -23.5
q-19 -11 -44.5 -25t-53 -26t-54 -20t-47.5 -8q-31 0 -47.5 17.5t-1.5 46.5q13 27 50 69t85 90t102.5 98t102.5 93t84 75t49 44q9 8 30.5 8.5t42.5 -4t34 -13t4 -18.5q-13 -14 -50.5 -47t-88 -76t-108 -92t-110 -94.5t-94 -84t-59.5 -59.5q-6 -8 -5 -13.5t13 -3.5
q14 2 34.5 9.5t43.5 19t46 24.5t42 25z" />
    <glyph glyph-name=".notdef" horiz-adv-x="500" 
 />
    <glyph glyph-name=".null" horiz-adv-x="0" 
 />
    <glyph glyph-name="nonmarkingreturn" horiz-adv-x="500" 
 />
    <glyph glyph-name="space" unicode=" " horiz-adv-x="296" 
 />
    <glyph glyph-name="space" unicode="&#xa0;" horiz-adv-x="296" 
 />
    <glyph glyph-name="z" unicode="z" horiz-adv-x="411" 
d="M 244.047,411.516c-6.213-0.07 -12.411-1.937 -17.594-4.657c 2.486-14.469 0.242-35.961 -1.078-46.032c-0.297-2.269 -0.646-4.942 -1.047-7.969c-5.012-37.877 -17.849-134.819 -18.282-180.203
c 8.181-0.143 17.006-0.215 26.407-0.219c 1.24-0.001 2.454-0.015 3.688-0.015c 3.155,30.573 11.717,61.937 20.015,92.344c 9.841,36.065 19.129,70.133 18.969,100.094c-0.122,22.903 -6.55,38.113 -18.61,43.984
c-3.947,1.921 -8.217,2.72 -12.469,2.672zM 187.375,411.203c-4.064-0.025 -8.204-0.814 -12.172-2.406c-15.741-6.319 -25.712-23.489 -27.36-47.109c-1.546-22.151 -2.869-84.261 17.453-187.547
c 5.869-0.362 12.609-0.689 20.157-0.953c 0.557,47.242 13.40,144.308 18.438,182.375c 0.40,3.018 0.766,5.691 1.063,7.953c 2.502,19.077 2.484,35.934 0.953,41.625c-5.198,4.024 -11.758,6.104 -18.532,6.063zM 307.969,409.719
c-7.406,0.035 -14.395-2.007 -20.00-5.688c 5.066-10.518 7.683-23.648 7.766-39.063c 0.175-32.777 -9.481-68.148 -19.703-105.609c-7.886-28.895 -16.011-58.691 -19.172-87.00
c 1.821-0.009 3.639-0.007 5.438-0.015c 9.455-0.043 18.378-0.094 26.985-0.094l 2.64,0.00 c 4.199,21.386 10.152,41.621 16.438,62.922c 7.752,26.27 15.775,53.43 22.11,87.453l 0.469,2.547
c 2.146,11.471 5.091,27.18 6.125,41.797c 1.44,20.375 -1.607,28.073 -3.547,30.844c-4.979,7.109 -13.748,11.421 -24.063,11.86c-0.497,0.021 -0.991,0.044 -1.484,0.047zM 139.672,404.219
c-3.928-0.386 -8.549-1.464 -13.36-3.688c-9.908-4.581 -22.108-14.78 -23.922-37.359c-2.72-33.84 0.094-66.366 8.578-99.438c 7.529-29.349 18.41-55.322 28.938-80.438
c 0.982-2.341 1.954-4.651 2.922-6.969c 0.347-0.06 0.711-0.128 1.094-0.188c-9.03,47.218 -20.98,124.77 -16.64,186.969c 1.264,18.106 6.212,31.399 12.39,41.109zM 365.703,398.641
c-3.385-0.086 -6.696-0.764 -9.719-1.984c 4.806-19.399 0.391-47.553 -4.797-75.281l-0.469-2.515c-6.527-35.066 -15.063-63.992 -22.594-89.516c-5.729-19.413 -11.183-37.919 -15.156-56.938
c 18.776,0.287 33.782,1.03 44.078,2.719c 33.605,92.976 47.227,160.809 39.407,196.266c-2.877,13.041 -10.188,22.172 -20.594,25.703c-3.313,1.125 -6.771,1.633 -10.156,1.547zM 140.078,159.11
c-0.515-6.224 -0.669-15.649 -0.797-23.172c-0.097-5.694 -0.191-11.588 -0.391-17.61c-0.304-9.167 -0.861-18.00 -1.344-25.797c-0.418-6.768 -0.881-14.20 -0.906-18.625
c-0.004-0.632 0.046-1.762 1.188-2.406c 4.215-2.377 12.973-5.38 31.14-7.407c 15.93-1.777 37.029-2.608 66.406-2.61c 4.855,0.00 10.021,0.018 15.781,0.063c 27.814,0.207 54.354,1.388 74.75,3.297
c 21.366,2.001 31.11,4.264 35.375,5.766c 1.677,0.591 1.827,1.848 1.875,2.672c 0.426,7.513 0.12,28.115 -5.141,84.469c-15.594-2.364 -38.685-2.89 -69.188-2.89c-8.646,0.00 -17.603,0.035 -27.078,0.078
c-9.635,0.044 -19.589,0.09 -29.765,0.094c-24.956,0.009 -48.282,0.57 -65.688,1.578c-12.594,0.73 -20.769,1.581 -26.219,2.50z" />
    <glyph glyph-name="y" unicode="y" horiz-adv-x="382" 
d="M375 116q18 12 30.5 15.5t16.5 -0.5t-3 -14.5t-29 -25.5q-19 -14 -63.5 -44.5t-99 -71.5t-111.5 -88.5t-100 -95.5h-1q-26 -29 -48 -48.5t-37 -27.5q-26 -11 -50 -13.5t-39.5 1t-20 11.5t7.5 19q15 12 44 38.5t67 63t82.5 80.5t91 91t91.5 94.5t84 90.5
q-38 -31 -79.5 -65t-80 -62t-71.5 -46t-52 -18q-40 0 -48.5 17.5t3.5 44.5t39.5 59.5t59 63.5t61 56t47.5 37q17 12 42 15.5t45.5 1t30 -9.5t-5.5 -17q-20 -13 -47.5 -34t-56 -45.5t-55 -49.5t-45 -45t-25.5 -33t3 -13q6 0 25 12.5t46.5 32.5t60 45.5t65.5 52t63.5 50.5
t53.5 42h1q12 10 30.5 11t34.5 -3t25 -12.5t0 -17.5q-26 -28 -64.5 -66t-81 -79.5t-85 -82.5t-78.5 -75q33 25 67 49t64.5 45t55.5 37.5t39 26.5z" />
    <glyph glyph-name="x" unicode="x" horiz-adv-x="373" 
d="M-11 81q-17 -10 -27 -11t-10.5 4.5t8 16t29.5 23.5q14 9 32 21t36.5 25.5t37.5 27.5t34 25q3 14 7 26t9 21q9 18 29 24.5t39.5 5t32.5 -8t8 -13.5q-14 -20 -24.5 -47.5t-17.5 -57.5q42 27 81.5 56.5t74.5 58.5q9 8 20 9t18.5 -2t10 -9t-5.5 -13q-5 -4 -24.5 -17
t-48 -32.5t-63 -42.5t-69.5 -46q-5 -38 0.5 -64.5t25.5 -26.5q10 0 26 8.5t34.5 21t39 28t41.5 29.5q19 12 29 13.5t11 -4t-7 -16.5t-26 -23q-22 -15 -44 -31t-42.5 -29.5t-39 -22t-33.5 -8.5q-37 0 -58.5 21.5t-31.5 54.5l-84 -55q-24 -15 -44.5 -17.5t-34 1t-17 10.5
t7.5 11q23 8 67.5 30t98.5 54q-4 30 -1 64q-34 -26 -72 -52.5t-63 -40.5z" />
    <glyph glyph-name="w" unicode="w" horiz-adv-x="538" 
d="M531 116q10 9 20 10.5t13 -3t-3.5 -15t-29.5 -26.5q-35 -25 -68.5 -19t-48.5 34q-24 -19 -48 -36.5t-47 -31t-44 -21.5t-37 -8q-27 0 -41 8.5t-19 23t-2 33.5t12 40q-22 -21 -44 -40t-42 -33.5t-38 -23t-31 -8.5q-38 0 -50 17t-7 43.5t22.5 58.5t39.5 62t44 54.5t35 35.5
q14 10 37.5 14t44 1.5t31 -9.5t-2.5 -17q-15 -12 -36.5 -33t-44 -45.5t-43.5 -50t-34.5 -46t-17.5 -33.5t7 -13q12 0 36.5 20.5t53 49.5t58 59.5t51.5 51.5q13 17 24.5 30t19.5 21q12 10 35.5 14t44 1.5t31 -9.5t-1.5 -17q-14 -12 -34 -33.5t-40.5 -46.5t-40 -51.5
t-32 -47.5t-15.5 -34.5t8 -13.5q10 0 27.5 9t37.5 23.5t41.5 32t41.5 34.5q-5 24 4 52.5t26.5 53t41.5 41.5t50 17q24 0 31.5 -10.5t3 -27.5t-20 -38t-37.5 -43q-14 -13 -28.5 -27t-31.5 -28q8 -24 33.5 -27t54.5 21z" />
    <glyph glyph-name="v" unicode="v" horiz-adv-x="343" 
d="M336 116q10 9 20 10.5t13 -3t-3.5 -15t-29.5 -26.5q-35 -25 -69 -19t-49 35q-23 -20 -47 -37.5t-47 -31t-43.5 -21.5t-37.5 -8q-38 0 -51.5 17t-11 43.5t18 58.5t35 62t39.5 54.5t33 35.5q12 10 35.5 14t44 1.5t31 -9.5t-1.5 -17q-14 -12 -34 -33.5t-41 -46.5t-40 -51.5
t-31.5 -47.5t-15.5 -34.5t8 -13.5q10 0 27 9t37 23t41.5 32t41.5 35q-5 24 4 52.5t26.5 53t42 41.5t50.5 17t33 -12.5t-0.5 -32t-27 -43.5t-46.5 -47l-43 -38q8 -25 33.5 -28t55.5 21z" />
    <glyph glyph-name="q" unicode="q" horiz-adv-x="356" 
d="M-6 -83q43 43 89 88t89 90q-30 -23 -60.5 -43t-57 -33t-47.5 -16.5t-32 7.5q-18 16 -12.5 40.5t22.5 50.5t40 50t41 39q54 46 114 76t114 30q30 0 56.5 -9t42.5 -24q9 -9 6.5 -14.5t-10.5 -7t-18 0.5t-16 9q-4 4 -14.5 10.5t-23.5 6.5q-17 0 -46 -16t-61.5 -40.5t-65 -53
t-56.5 -53t-36.5 -40.5t-4.5 -16q9 0 33.5 16.5t57.5 41t70 53t69 53.5q11 14 26.5 18t27.5 0t16.5 -13t-5.5 -20q-19 -20 -48.5 -52t-64.5 -70t-72.5 -79t-73.5 -80h57q9 0 12 -4.5t0.5 -9.5t-10 -9.5t-17.5 -4.5h-68q-44 -48 -76.5 -84t-44.5 -50q-16 -19 -40 -29.5
t-45 -13t-32.5 2.5t-2.5 18q18 25 58 65l91 91h-70q-9 0 -12 4.5t-1 9.5t8 9.5t17 4.5h87z" />
    <glyph glyph-name="t" unicode="t" horiz-adv-x="220" 
d="M228 346l34 31q17 16 43.5 22.5t49 5.5t35 -8.5t2.5 -17.5q-6 -7 -14.5 -15t-19.5 -18h64q10 0 13 -4.5t0 -10t-10.5 -10t-17.5 -4.5h-82q-34 -30 -75.5 -66t-82.5 -72t-76 -69t-56 -57q-8 -8 -6 -13.5t14 -3.5q14 2 34.5 9.5t43.5 19t46 24.5t42 25q18 12 27.5 13
t9.5 -6t-9.5 -18.5t-27.5 -23.5q-19 -11 -44.5 -25t-53 -26t-54 -20t-47.5 -8q-31 0 -47.5 17.5t-2.5 46.5q13 25 40 57.5t60.5 67t69 68t65.5 60.5h-43q-9 0 -12 4.5t-1 10t8 10t17 4.5h64z" />
    <glyph glyph-name="s" unicode="s" horiz-adv-x="363" 
d="M-11 81q-17 -10 -27 -11t-10.5 4.5t8.5 16t29 23.5q16 10 37.5 25t43.5 30.5t42.5 30.5t34.5 26l-2 2q-8 7 -5 20t13.5 25t27 21t35.5 9q13 0 17 -7t2 -16.5t-8.5 -19t-13.5 -15.5l-5 -4q55 -2 77 -23.5t18.5 -52.5t-27.5 -65t-59 -61q39 16 78.5 39.5t67.5 42.5
q19 12 28.5 13.5t10.5 -4t-7.5 -16.5t-26.5 -23q-22 -15 -52 -32.5t-65.5 -32.5t-75.5 -25t-82 -10q-3 0 -4.5 0.5t-3.5 0.5q-10 1 -20 2.5t-20 5.5q-15 6 -23 17.5t-8 25t8 28t23 26.5q9 7 21 12t23.5 5.5t22 -3.5t16.5 -15t-1 -23t-19 -18.5t-25.5 -4.5t-22.5 18
q-11 -5 -12 -17.5t14 -17.5q21 -8 43.5 0.5t42.5 27t35 42t21.5 47t1 42t-26.5 25.5q-12 -10 -36.5 -28.5t-52 -39t-55 -39.5t-46.5 -29z" />
    <glyph glyph-name="k" unicode="k" horiz-adv-x="365" 
d="M-19 13q-10 -8 -23.5 -9t-25 2.5t-16 11.5t3.5 18q5 5 27 28.5t55 58.5t74 78.5t83.5 88t83.5 87t74 76.5t55.5 55.5t27.5 24.5q14 7 34 7.5t38 -3t30.5 -10.5t11.5 -14q-1 -4 -21.5 -24t-53.5 -50t-74 -66.5l-82 -73t-78 -68.5t-61 -53l199 115q8 5 13 -5t3.5 -25.5
t-11 -31.5t-28.5 -24q-14 -7 -44.5 -9.5t-80.5 -20.5q23 -3 38 -13q16 -11 16.5 -25t-7 -28.5t-20 -28.5t-23 -24.5t-15.5 -17t2 -6.5q14 0 35.5 8.5t46 21.5t49.5 28.5t48 28.5q22 13 31 13t7.5 -7t-11.5 -18.5t-25 -21.5t-40 -24.5t-54 -28.5t-59.5 -24t-55.5 -10
q-21 0 -35 7t-17.5 19.5t4.5 31t32 41.5q33 33 36.5 46t-11.5 11.5t-42.5 -16t-55.5 -36.5q-12 -13 -25 -27t-25 -26.5t-22 -22.5t-16 -15z" />
    <glyph glyph-name="j" unicode="j" horiz-adv-x="164" 
d="M156 116q18 12 30.5 15.5t16.5 -0.5t-3 -14.5t-29 -25.5q-19 -14 -63.5 -44.5t-99 -71.5t-111.5 -88.5t-101 -95.5q-28 -3 -42.5 -9.5t-15 -7t11.5 10.5t36 43q20 27 59 61.5t87 69.5q-41 -38 -67 -64q-2 -2 1.5 -1.5t8.5 1.5t9 1t3 -2q-59 -69 -104.5 -117.5
t-71.5 -61.5q-26 -11 -50.5 -13.5t-41 1t-21.5 11.5t7 19q17 14 53 47t82 77.5t98.5 97t104.5 106.5t98.5 105.5t80.5 93.5q10 12 30 14.5t38 -2t28 -13.5t1 -19q-26 -28 -61.5 -63.5t-74.5 -73t-78.5 -75t-72.5 -69.5q33 25 66.5 48.5t64 44.5t55 37.5t38.5 26.5zM236 362
q2 7 8.5 17.5t16 21.5t20.5 20t21 12q15 5 33.5 5t32.5 -5t20.5 -13.5t-3.5 -19.5q-6 -6 -20 -17t-30.5 -21.5t-32.5 -19.5t-25 -10q-23 -2 -33.5 8.5t-7.5 21.5z" />
    <glyph glyph-name="g" unicode="g" horiz-adv-x="368" 
d="M360 116q19 12 31.5 15.5t16.5 -0.5t-3.5 -14.5t-29.5 -25.5q-18 -13 -59 -41.5t-92 -66t-105.5 -82t-99.5 -90.5q-32 -37 -58.5 -62t-45.5 -34q-26 -11 -49 -13.5t-38 1t-19.5 11.5t7.5 19q21 17 61.5 55.5t91 89.5t106.5 109.5t108 115.5q-32 -24 -63.5 -46t-60 -36
t-50.5 -18t-34 7q-18 16 -12.5 40.5t22.5 50.5t40 50t41 39q54 46 114 76t114 30q30 0 56.5 -9t42.5 -24q9 -9 6.5 -14.5t-11 -7t-18.5 0.5t-15 9q-4 4 -14.5 10.5t-24.5 6.5q-17 0 -45.5 -16t-61 -40.5t-65 -53t-56.5 -53t-36 -40.5t-4 -16q9 0 33.5 16.5t57.5 41t70 53
t69 53.5q11 14 28.5 18t32 0t21 -13t-4.5 -20q-27 -28 -56.5 -60t-60 -65t-60.5 -65t-57 -60q34 26 70.5 51.5t68.5 48t58.5 40t41.5 28.5z" />
    <glyph glyph-name="f" unicode="f" horiz-adv-x="215" 
d="M200 346q49 49 93.5 85.5t83.5 57t73 23t61 -15.5q20 -14 27 -29t4.5 -28t-13 -21.5t-24.5 -7.5q-15 1 -24.5 9t-11.5 18.5t4 21t22 16.5q-10 8 -28.5 0.5t-42.5 -26t-52 -45.5t-58 -58h75q10 0 13 -4.5t0.5 -10t-10 -10t-18.5 -4.5h-87l-62 -69q-26 -30 -59 -68.5
t-68 -78.5t-70 -79.5t-65.5 -72.5t-54.5 -56.5t-37 -31.5q-22 -13 -48.5 -21.5t-48.5 -11t-34.5 1t-4.5 14.5q12 17 41.5 46t74 73.5t102 106t126.5 142.5q48 57 93 105h-53q-9 0 -12 4.5t-1 10t8.5 10t17.5 4.5h68z" />
    <glyph glyph-name="d" unicode="d" horiz-adv-x="426" 
d="M414 114q19 12 28 13t9 -6t-9 -18.5t-28 -23.5q-18 -11 -44 -25t-53.5 -26t-54 -20t-46.5 -8q-32 0 -48.5 17.5t-1.5 46.5l8 14q-43 -32 -83.5 -54.5t-68.5 -22.5q-25 0 -37 15.5t-9 42t22.5 60.5t58.5 71q48 48 106.5 77t116.5 29q42 0 80 -16q45 42 90 83t83.5 75
t66.5 59t39 36q9 8 31.5 8.5t43.5 -4t33.5 -13t2.5 -18.5q-13 -14 -50.5 -47t-88 -76t-108 -92t-110 -94.5t-93.5 -84t-59 -59.5q-7 -8 -6 -13.5t14 -3.5t34 9.5t44 19t46 24.5t41 25zM337 257q-16 4 -32 1q-17 -2 -45.5 -18.5t-60 -40t-62.5 -50.5t-53 -50t-32 -38t0 -15
q11 0 40.5 18t67 45t76 58t67.5 57z" />
    <glyph glyph-name="o" unicode="o" horiz-adv-x="344" 
d="M337 116q10 9 20 10.5t13 -3t-3.5 -15t-29.5 -26.5q-17 -12 -36 -19t-37.5 -9t-35.5 0t-29 8q-42 -29 -82.5 -45.5t-74.5 -16.5q-26 0 -44 11t-22 32t9.5 52t51.5 72q14 15 43 38.5t65 44t75 33.5t74 8q16 -3 25 -19t7 -34q11 -7 9.5 -21.5t-12 -32.5t-28.5 -39t-42 -40
l-12 -10l-12 -10q18 -7 48.5 0.5t59.5 30.5zM62 33q20 0 52 14t64 37q-6 15 -3.5 33.5t10.5 36.5t21.5 35t29.5 30q-14 -3 -30.5 -12t-34 -21t-34.5 -25.5t-30 -25.5q-22 -20 -36 -38.5t-20 -32.5t-3.5 -22.5t14.5 -8.5z" />
    <glyph glyph-name="h" unicode="h" horiz-adv-x="383" 
d="M383 121q19 13 29 14.5t10.5 -5t-9 -18.5t-28.5 -25t-46 -28t-56.5 -28t-57.5 -22t-49 -9q-12 0 -23.5 4.5t-18.5 13t-8 20t7 26.5q6 10 22.5 28.5t37.5 40.5t43.5 44t40.5 40q17 16 15 18.5t-18 -5.5q-32 -17 -77 -48.5t-89 -65t-79.5 -62.5t-47.5 -41q-9 -9 -23 -10
t-25 3t-16 12t3 18q4 5 26 28.5t55 58.5t74 78.5t83.5 88t84 87t74.5 76.5t55.5 55.5t27.5 24.5q14 7 34 7.5t38.5 -3t31 -10.5t11.5 -14q-1 -3 -16.5 -18t-41.5 -38t-59.5 -52t-69.5 -59.5l-72 -61t-67 -57t-54.5 -47.5t-34.5 -31q-14 -13 -9.5 -13t19.5 13q46 35 83.5 62
t72.5 49q45 26 79 31t50 -6.5t10 -38t-42 -63.5q-26 -26 -57 -52.5t-56.5 -48t-40 -35t-5.5 -13.5q12 0 33 7.5t46 20t51 28t49 31.5z" />
    <glyph glyph-name="c" unicode="c" horiz-adv-x="272" 
d="M299 260q17 -15 21 -31.5t-1.5 -29.5t-18.5 -20.5t-29 -3.5t-21 13t-3 18.5t9 17.5t16 12q-14 14 -52.5 -8t-82.5 -66q-23 -22 -41 -44.5t-28 -41t-10.5 -30.5t11.5 -12q20 0 48 9t57 22.5t55.5 28.5t42.5 27q17 12 26.5 13t11 -4.5t-6 -16t-24.5 -22.5
q-16 -12 -42 -27.5t-56.5 -30t-63.5 -24t-63 -9.5q-24 0 -47 9t-29.5 31t10 59.5t71.5 95.5q22 22 53 42.5t64 31.5t65.5 10.5t57.5 -19.5z" />
    <glyph glyph-name="i" unicode="i" horiz-adv-x="213" 
d="M201 114q19 12 28 13t9 -6t-9 -18.5t-28 -23.5q-19 -11 -44.5 -25t-53 -26t-54 -20t-46.5 -8q-26 0 -43.5 17.5t-6.5 46.5q5 14 30.5 40.5t58 56.5t65 58.5t51.5 46.5q9 8 29 9t38 -3.5t28 -13t1 -18.5q-14 -15 -39.5 -36.5t-54 -44.5t-57 -45.5t-49 -40t-29 -28.5
t1.5 -11q11 0 32 7.5t46 19t50.5 25.5t45.5 28zM264 362q2 7 9 17.5t16.5 21.5t20 20t20.5 12q15 5 33.5 5t32.5 -5t20.5 -13.5t-3.5 -19.5q-6 -6 -20 -17t-30.5 -21.5t-32.5 -19.5t-25 -10q-22 -2 -32.5 8.5t-8.5 21.5z" />
    <glyph glyph-name="e" unicode="e" horiz-adv-x="303" 
d="M249 294q34 0 51.5 -13.5t21 -30.5t-4.5 -32t-24 -18q-15 -3 -24 2.5t-12 14t-0.5 18.5t10.5 18q-20 7 -38.5 -4t-29 -27t-11 -30.5t15.5 -14.5q12 0 15 -5t-1 -12t-15 -13t-27 -7q-32 -2 -60.5 -18.5t-45.5 -35t-20 -34.5t15 -18q19 -2 50 5t65 19.5t67 29t56 33.5
q16 12 25.5 13.5t10.5 -4t-6 -16.5t-23 -23q-20 -15 -51.5 -32t-67 -31t-72 -22t-67.5 -6q-52 4 -73 25.5t-13.5 48.5t41.5 54.5t91 43.5q-3 22 5.5 44t28 39t49 28t68.5 11z" />
    <glyph glyph-name="n" unicode="n" horiz-adv-x="390" 
d="M390 121q19 13 29 14.5t10.5 -5t-8.5 -18.5t-27 -25q-20 -13 -47 -28t-56.5 -28t-58 -22t-49.5 -9q-12 0 -23 4.5t-18 13t-8.5 20t6.5 26.5q6 10 22.5 28.5t38 40.5t44 44t39.5 40q32 30 -3 13q-32 -17 -76.5 -48.5t-88.5 -65t-79.5 -62.5t-48.5 -41q-9 -9 -23 -10t-25 3
t-16 12t3 18q6 7 23.5 27.5t40 47t47.5 56t47.5 54.5t40 42.5t24.5 20.5q11 4 26.5 5t29.5 -1t23.5 -7t8.5 -12t-13 -18.5t-31 -27t-42 -34.5t-45 -40q-14 -13 -9.5 -13t21.5 13q45 35 82 62t72 49q45 26 79.5 31t50.5 -6.5t10 -38t-43 -63.5q-25 -26 -56.5 -52.5t-57 -48
t-39.5 -35t-5 -13.5q12 0 33 7.5t45.5 20t51 28t48.5 31.5z" />
    <glyph glyph-name="l" unicode="l" horiz-adv-x="219" 
d="M208 114q19 12 28 13t9 -6t-9 -18.5t-28 -23.5q-19 -11 -44.5 -25t-53 -26t-54 -20t-47.5 -8q-31 0 -47.5 17.5t-1.5 46.5q13 27 50 69t85 90t102.5 98t102.5 93t84 75t49 44q9 8 30.5 8.5t42.5 -4t34 -13t4 -18.5q-13 -14 -50.5 -47t-88 -76t-108 -92t-110 -94.5
t-94 -84t-59.5 -59.5q-6 -8 -5 -13.5t13 -3.5q14 2 34.5 9.5t43.5 19t46 24.5t42 25z" />
    <glyph glyph-name="r" unicode="r" horiz-adv-x="307" 
d="M-11 81q-17 -10 -27 -11t-10.5 4.5t8.5 16t29 23.5q15 10 35.5 24t42 29t41.5 30t35 26q-2 1 -6 5q-8 7 -5.5 20t13 25t27 21t36.5 9q13 0 16 -7.5t0 -17.5t-9 -19.5t-12 -13.5q11 0 35 3t48 5q31 1 39.5 -17.5t-15.5 -43.5q-14 -15 -37 -33t-49 -36.5t-50.5 -36
t-42.5 -31t-25 -21.5t3 -8q11 0 34 8.5t50 22t54.5 28.5t48.5 29q18 12 27.5 13t9.5 -5.5t-9.5 -18t-27.5 -22.5q-19 -12 -44.5 -26t-53 -26.5t-54 -20.5t-47.5 -8q-12 0 -24 6t-18.5 16.5t-4.5 24.5t17 31q10 10 27.5 26t37.5 34t41.5 37t39.5 37q5 4 3 6.5t-8 2.5
q-8 -2 -15 -3t-14 -1q-13 -10 -37 -29t-52 -39t-55 -39t-46 -29z" />
    <glyph glyph-name="m" unicode="m" horiz-adv-x="522" 
d="M163 26q-8 -9 -21 -11.5t-24.5 0.5t-18 9.5t-1.5 14.5q6 10 26.5 33.5t46 50t50.5 51.5t39 38q17 14 14.5 17t-19.5 -6q-31 -17 -69.5 -47.5t-75 -63t-66 -60t-42.5 -39.5q-9 -9 -25.5 -10t-30 3t-20.5 12t2 18q6 7 23 27.5t39.5 47t47.5 56t47.5 54.5t39.5 42.5t24 20.5
q10 4 25.5 5t29.5 -1t24 -7t9 -12t-14.5 -18.5t-34 -26.5t-44.5 -33t-46 -39q-14 -14 -9.5 -14t21.5 14q11 9 28.5 23.5t38 29.5t40.5 29.5t35 23.5q36 21 65.5 28t43.5 -0.5t8.5 -29.5t-39.5 -58q20 17 39.5 32t39.5 26q45 27 78.5 33t48.5 -5t8.5 -37.5t-42.5 -63.5
q-26 -26 -58 -52.5t-59 -48.5t-41.5 -35.5t-5.5 -13.5q11 0 33 8t48 20.5t53 28t50 31.5q19 13 29 14.5t10 -5t-9.5 -18.5t-28.5 -25q-18 -13 -45.5 -28t-56.5 -28t-57.5 -22t-48.5 -9q-12 0 -23.5 4.5t-18.5 13t-8 20t7 26.5q6 10 23 29.5t39 41.5t45 43.5t40 36.5t16 20
t-16 -5q-24 -14 -58.5 -39.5t-69.5 -54t-66 -54.5t-47 -41q-5 -4 -8.5 -8t-6.5 -7z" />
    <glyph glyph-name="u" unicode="u" horiz-adv-x="414" 
d="M348 269q10 9 19.5 11.5t13 -0.5t-1 -10.5t-20.5 -19.5q-27 -21 -69 -58t-88 -75q16 22 36.5 47t42.5 48t44.5 42t41.5 30q14 7 36.5 8.5t39.5 -2.5t22 -14t-16 -25q-17 -11 -40 -31t-47.5 -43t-47 -46.5t-38 -43t-21 -31.5t4.5 -12q11 0 29 7t39 18t43 24.5t43 27.5
q18 12 28 13.5t11 -4t-7 -16.5t-26 -23q-22 -15 -48.5 -31t-54.5 -29.5t-54 -22t-46 -8.5q-12 0 -23.5 4.5t-18.5 13t-8.5 20t4.5 26.5q8 19 31 53q-27 -23 -54.5 -44t-52 -37.5t-46 -26t-36.5 -9.5q-40 0 -50 16.5t-0.5 42.5t33 57.5t51.5 61t56 54t45 36.5
q16 12 41.5 15.5t46 1t30 -9.5t-6.5 -17q-20 -13 -45 -33.5t-50 -43.5t-48 -47t-38.5 -43t-21 -31t4.5 -12q6 0 24 12t42.5 31t54.5 43.5t59.5 49t57.5 47t49 38.5z" />
    <glyph glyph-name="p" unicode="p" horiz-adv-x="370" 
d="M370 121q19 12 28.5 13.5t10.5 -4t-7.5 -16.5t-26.5 -23q-21 -15 -50 -31t-65.5 -29.5t-81.5 -22.5t-98 -10h-6h-5q-6 0 -12.5 0.5t-12.5 1.5q-9 2 -12 8t-1.5 12t6 11t12.5 5q19 -1 47.5 15t59 40t60 52.5t49.5 53t27.5 40.5t-5.5 16q-10 0 -43 -23t-76 -58t-89.5 -77
t-82.5 -79q-48 -54 -95.5 -106.5t-86.5 -94.5t-66.5 -69.5t-35.5 -30.5q-23 -10 -43.5 -11t-34.5 3.5t-20 11.5t2 14q17 14 53 48.5t83 81.5t101 103t106.5 112t100 109.5t82.5 95.5q7 9 22.5 9.5t29 -3.5t22 -11.5t2.5 -14.5q-20 -20 -63 -59.5t-91 -88.5q35 31 73 63
t73 57.5t65 41.5t49 16q25 0 40.5 -13t15.5 -38t-19.5 -60t-64.5 -78q-20 -19 -40.5 -34.5t-41.5 -28.5q48 14 88 37.5t68 42.5z" />
    <glyph glyph-name="a_alt" horiz-adv-x="417" 
d="M30 0q-22 -4 -38 9t-17 39.5t19.5 64.5t71.5 85q29 27 66.5 49.5t74.5 36.5t69 16.5t50 -12.5q12 -11 12 -28q14 6 32 5.5t32 -5.5t20 -13t-3 -17q-17 -16 -37 -36t-40 -40.5t-37 -40t-29 -35t-16 -25t3 -9.5q11 0 29 7t39 18t43 24.5t43 27.5q19 12 29 13.5t11 -4
t-7 -16.5t-26 -23q-22 -15 -48.5 -31t-54.5 -29.5t-54 -22t-47 -8.5q-12 0 -23.5 4.5t-18.5 13t-8.5 20t4.5 26.5q5 16 30 47q-26 -20 -51 -39.5t-48 -34.5t-42.5 -25t-32.5 -12zM310 261q-6 7 -30.5 -5.5t-57 -36t-67 -52.5t-60.5 -55.5t-38.5 -44.5t-0.5 -18q8 0 32 15.5
t56.5 39.5t68.5 52t68 54q15 11 25.5 26t3.5 25z" />
    <glyph glyph-name="e_alt" horiz-adv-x="272" 
d="M299 260q18 -17 14 -36.5t-22 -39.5t-47 -39t-61 -34.5t-63.5 -25.5t-54.5 -12q-9 -17 -9 -28t11 -11q20 0 48.5 9t57.5 22.5t55.5 28.5t43.5 27t26.5 13t11 -4.5t-6 -16t-24.5 -22.5q-16 -12 -42 -27.5t-57 -30t-63.5 -24t-62.5 -9.5q-25 0 -48 9t-29.5 31t10.5 59.5
t72 95.5q22 22 53.5 43t65.5 33t66 11t55 -22zM137 162q-29 -27 -51 -56q26 6 62 23.5t66.5 38t48.5 39.5t9 29q-14 14 -52.5 -8t-82.5 -66z" />
    <glyph glyph-name="f_alt" horiz-adv-x="304" 
d="M297 116q10 9 20 10.5t13 -3t-3.5 -15t-29.5 -26.5q-20 -14 -42.5 -21t-43.5 -8t-38.5 4t-26.5 15q-47 -11 -80 5q-46 -48 -89 -94t-78.5 -84.5t-61 -67t-36.5 -40.5q-9 -9 -28.5 -10t-38 3.5t-29.5 12.5t-2 19q15 18 55 60t93 96.5t113.5 114.5t115.5 113l12 12
q81 77 156.5 141t139.5 105.5t114 55t81 -9.5q17 -13 20.5 -28t-1.5 -28t-17 -21.5t-26 -8.5q-15 0 -22.5 8t-7.5 19t8 21.5t25 16.5q-9 9 -33 -2t-57.5 -35t-73.5 -58.5t-81.5 -72.5t-82 -76t-74.5 -70q-12 -11 -22.5 -20.5t-18.5 -17.5l-27 -27q17 -13 45 -9
q0 15 10.5 33.5t26 33.5t34.5 24.5t36 8.5q16 -2 24.5 -12t4 -25t-24.5 -33.5t-62 -37.5q17 -9 48.5 -2t62.5 31z" />
    <glyph glyph-name="o_alt" horiz-adv-x="343" 
d="M336 116q10 9 20 10.5t13 -3t-3.5 -15t-29.5 -26.5q-17 -12 -35.5 -19t-37.5 -9t-35.5 0t-28.5 8q-41 -29 -81 -45.5t-75 -16.5q-27 0 -45.5 11t-22 32t10 52t51.5 72q14 15 43.5 39.5t65.5 46t75 34t72 4.5q21 -5 29.5 -21t6.5 -33q10 -9 7 -24.5t-15 -35t-32.5 -40.5
t-45.5 -41l-13 -11q18 -7 48 0.5t58 30.5zM95 58q19 0 39.5 5.5t43.5 20.5q-7 18 -2.5 40t16.5 43.5t30 39.5t39 28q-7 6 -20 8t-31 -2.5t-41 -17t-50 -35.5q-35 -30 -47.5 -54t-11 -41t12.5 -26t22 -9z" />
    <glyph glyph-name="p_alt" horiz-adv-x="346" 
d="M277 288q33 -19 37 -53.5t-12 -72.5t-46.5 -75t-67.5 -62t-75 -32.5t-68 12.5q-21 13 -24 33q-48 -54 -98.5 -109.5t-93 -101.5t-73 -77t-38.5 -35q-26 -11 -51.5 -13.5t-42.5 1t-23 11.5t6 19q17 14 51.5 46t79.5 75.5t96 95t102 104t97 103.5t80 93q7 9 23.5 10
t31.5 -3t24 -11.5t2 -14.5l-173 -193q-2 16 6 35t22.5 39.5t33.5 42t38 42.5q25 27 40 35.5t19 4t-4 -20.5t-28 -39q-21 -23 -40.5 -45.5t-32.5 -41.5t-18 -33t3 -19q7 -5 27.5 8t45 36.5t50.5 53t44.5 57t26 48.5t-3.5 28q-8 5 -16.5 0.5t-19.5 -13.5q-8 -6 -19.5 -2.5
t-21 11t-12.5 16t8 13.5q9 4 21.5 7t27 2.5t30 -4t29.5 -11.5z" />
    <glyph glyph-name="r_alt" horiz-adv-x="335" 
d="M-11 79q-17 -9 -26.5 -10t-10.5 5t8 16.5t29 23.5q15 10 35 23.5t41 28.5t41 30t35 26q-5 2 -8 6q-8 7 -5 20t13.5 25t27 21t35.5 9q13 0 16.5 -7.5t1 -18t-8.5 -20.5t-12 -14q11 0 35 4t48 6q31 2 39 -17t-14 -44q-15 -15 -35 -32.5t-41 -35t-40.5 -34t-32 -29
t-16.5 -20t6 -7.5q12 0 32.5 7.5t45 19t50 25.5t45.5 28q19 12 28.5 13t9.5 -6t-9.5 -18.5t-28.5 -23.5q-18 -11 -44 -25t-53.5 -26t-54 -20t-46.5 -8q-12 0 -24.5 4.5t-21.5 13t-12.5 20t2.5 26.5q5 14 24.5 34t44 41.5t50.5 43.5t44 40q-13 -2 -26.5 -3.5t-26.5 -2.5
q-13 -10 -37 -29t-52 -39.5t-55 -39.5t-46 -30z" />
    <glyph glyph-name="s_alt" horiz-adv-x="296" 
d="M296 121q19 12 28.5 13.5t10.5 -4t-7.5 -16.5t-26.5 -23q-21 -15 -44.5 -32.5t-52 -32.5t-62.5 -25t-77 -10q-5 0 -7 1q-24 0 -49 11q-28 11 -41.5 35t-13 48.5t14.5 45t42 25.5q14 3 23.5 -3t10.5 -16.5t-9 -24.5t-35 -27q-4 -10 0.5 -23.5t28.5 -24.5q16 -7 35.5 -5
t32.5 14t14.5 34.5t-19.5 55.5q-15 25 -10 52.5t25 50.5t52.5 38.5t71.5 15.5q35 0 52 -13.5t20.5 -30.5t-4.5 -32t-23 -18q-16 -3 -25 2.5t-12 14t-0.5 18.5t10.5 18q-19 10 -37 6t-29.5 -17.5t-12 -34t15.5 -43.5q21 -30 15 -64t-30 -60q33 15 64.5 38.5t59.5 42.5z" />
    <glyph glyph-name="t_alt" horiz-adv-x="220" 
d="M163 346h32t33 1q21 18 33 30q17 16 43.5 22.5t49 5.5t35.5 -8.5t3 -17.5q-5 -5 -11.5 -11t-14.5 -14q66 5 128.5 11t114.5 11.5t89 9.5t53 4q13 0 4 -11.5t-30.5 -25t-51.5 -25t-58 -11.5h-290q-34 -30 -76 -66t-83 -72t-76 -69t-56 -57q-6 -8 -5 -13.5t14 -3.5
t33.5 9.5t43.5 19t46 24.5t42 25t28 13t9 -6t-9 -18.5t-28 -23.5q-19 -11 -44.5 -25t-53 -26t-54 -20t-47.5 -8q-31 0 -47.5 17.5t-1.5 46.5q13 25 40 57.5t60.5 67t69 68t65.5 60.5h-43q-9 0 -12 4.5t-1.5 10t7.5 10t17 4.5z" />
    <glyph glyph-name="u_alt" horiz-adv-x="430" 
d="M430 121q19 12 28.5 13.5t10.5 -4t-7.5 -16.5t-26.5 -23q-21 -15 -48 -31t-54.5 -29.5t-53.5 -22t-47 -8.5q-25 0 -41 17.5t-5 46.5q5 12 16.5 30.5t27.5 39.5q-29 -23 -58.5 -46.5t-56.5 -42t-49.5 -31t-37.5 -14.5q-22 -4 -37 1.5t-22 17.5t-6 28.5t11 34.5
q12 22 36 51.5t52.5 58t57 52t49.5 35.5q13 7 36 10t43 1.5t30.5 -7t-0.5 -14.5q-23 -19 -51 -43t-55.5 -48.5t-52.5 -47.5t-42 -41t-23.5 -29t1.5 -11t29.5 14t51 36t63 48t65 51t57.5 44.5t40 28.5q8 5 17 9l6 4q13 7 35 8.5t39 -2.5t22.5 -14t-15.5 -25
q-17 -11 -40.5 -31t-48 -43t-47 -46.5t-38 -43t-21 -31.5t4.5 -12q12 0 30 7t39 18t43.5 24.5t42.5 27.5z" />
    <glyph glyph-name="a" unicode="a" horiz-adv-x="409" 
d="M409 121q18 12 28 13.5t11 -4t-7.5 -16.5t-27.5 -23q-21 -15 -47.5 -31t-54 -29.5t-54 -22t-47.5 -8.5q-12 0 -22.5 4.5t-17.5 13t-9 20t4 26.5q6 16 28 46q-32 -25 -66 -48t-64 -38.5t-53.5 -20.5t-36.5 7q-17 16 -11 40.5t23 50.5t40 50t41 39q54 46 114 76t114 30
q30 0 56.5 -9t43.5 -24q9 -9 6 -14.5t-11 -7t-18 0.5t-15 9q-4 4 -15 10.5t-25 6.5q-18 0 -46.5 -16t-61 -40.5t-64.5 -53t-56 -53t-36 -40.5t-4 -16q9 0 33.5 16.5t57.5 41t70 53t69 53.5q12 13 33.5 16.5t40 0t28.5 -12.5t-1 -19q-26 -24 -52.5 -51t-46 -50t-28 -38
t2.5 -15t28.5 7t38.5 18t43.5 24.5t43.5 27.5z" />
    <glyph glyph-name="b" unicode="b" horiz-adv-x="343" 
d="M336 116q10 9 20 10.5t13 -3t-3.5 -15t-29.5 -26.5q-17 -12 -35.5 -19t-37.5 -9t-35.5 0t-28.5 8q-42 -29 -82.5 -45.5t-75.5 -16.5q-26 0 -44 11t-22 32t9.5 52t51.5 72q32 34 71 72t79.5 75.5t79.5 73t72 64.5t57 50.5t34 30.5q9 8 31 8.5t42.5 -4t33 -13t3.5 -18.5
q-10 -11 -37 -34.5t-64 -55.5t-81 -69.5t-89 -76.5t-87.5 -76.5t-76.5 -68.5q-45 -41 -55.5 -66.5t12.5 -25.5q20 0 52 14t64 37q-8 22 0.5 50t27 52.5t44 41.5t50.5 17q24 0 32 -10.5t3 -27.5t-20.5 -38.5t-38.5 -43.5q-11 -11 -22.5 -21t-23.5 -19q18 -7 48 0.5t59 30.5z
" />
    <glyph glyph-name="A" unicode="A" 
d="M14 -15q12 21 53.5 75t101.5 125q-56 -2 -97.5 -4.5t-52.5 -6.5q-15 -4 -15 2.5t10 16t27 19.5t36 13q20 3 54.5 4t76.5 0q51 58 109.5 119.5t119.5 117.5t121 103t115 76t101.5 36.5t80.5 -14.5q32 -22 38 -53.5t-7.5 -70t-43 -83.5t-68 -92.5t-83 -97.5t-88.5 -99
t-83.5 -96t-67.5 -90q-21 -32 -26 -49.5t2 -22.5t22 1t34 20q7 6 14 6t10 -4.5t1.5 -11.5t-9.5 -13q-44 -34 -76.5 -38.5t-48.5 14t-12 56.5t33 89q22 38 50.5 80t60.5 86q-22 -2 -52.5 -3t-65.5 -2.5t-74 -3t-77 -2.5q-42 -55 -77 -109.5t-58 -105.5q-7 -15 -25.5 -22.5
t-36 -6t-28 11.5t0.5 30zM800 652q-18 7 -51 -5.5t-76 -39.5t-93 -68t-103 -90t-106 -105.5t-101 -115.5q36 -1 71.5 -2t68 -1.5t59.5 0t45 2.5q4 0 7.5 0.5t6.5 0.5q37 50 75 99.5t72.5 95t63 85t46 70t22.5 50t-7 24.5z" />
    <glyph glyph-name="N" unicode="N" horiz-adv-x="1082" 
d="M85 -58q-12 -9 -21.5 -16.5t-17.5 -14.5q-9 -8 -18.5 -7t-15 7.5t-5.5 16.5t11 21q38 38 96.5 87.5t127.5 105t143.5 114t145 115.5t131.5 109t104 94t62 71.5t5 41.5q-15 12 -52.5 15.5t-88 -0.5t-111 -14t-122.5 -23.5t-121 -29.5t-106.5 -32.5t-80.5 -32t-42 -27.5
q-13 -15 -1 -23t29 -8q21 0 25 -10t-15 -12q-20 0 -37 4t-28.5 13t-14 22.5t6.5 31.5t42.5 38.5t82.5 40.5t109.5 38.5t125.5 33t130 23.5t122 9.5t102 -8t70 -29.5q35 -29 34.5 -66t-27.5 -80t-75.5 -90t-108.5 -95q96 59 186.5 108t168 79.5t137.5 39t96 -14.5
q32 -21 31.5 -52t-23.5 -69t-65 -81t-93 -87.5t-106.5 -88.5t-106 -84.5t-92 -75t-64.5 -60t-22.5 -40t33.5 -14.5q20 0 29.5 -5t8 -11t-14 -11t-35.5 -5q-50 0 -65 18.5t-4.5 50t43 73.5t76.5 89.5t95.5 97t101 97t92.5 89.5t71 73.5t35 50t-15 18.5q-33 0 -89.5 -21
t-127.5 -56.5t-153 -82.5t-167 -99t-169 -105.5t-158.5 -103t-136 -91t-101.5 -68.5z" />
    <glyph glyph-name="P" unicode="P" horiz-adv-x="662" 
d="M270 414q-8 -14 -16 -19.5t-13.5 -3t-6.5 11.5t7 24q21 36 63.5 72t98.5 67t121.5 55.5t132.5 37.5t131.5 13.5t118.5 -16.5q45 -14 65 -49.5t7.5 -80.5t-59.5 -95t-135 -93.5t-220 -75t-313 -40.5q-45 -40 -83.5 -77t-63 -66t-31.5 -46.5t12 -17.5q10 0 28 7q6 2 11.5 0
t7 -5.5t-1.5 -8.5t-12 -8q-14 -6 -29.5 -8.5t-30.5 -2.5q-38 0 -46 19.5t6.5 51.5t46.5 73.5t73 85.5h-17q-28 0 -39.5 4.5t-9 9.5t17.5 9.5t41 4.5h35q33 33 68 64.5t68.5 59t63 48.5t52.5 33q21 11 49 15t50.5 2.5t33 -6.5t-2.5 -11q-14 -6 -41 -24.5t-61.5 -45t-74.5 -59
t-80 -66.5q112 14 208 44t172 68t130 80t82 80t28 68t-32 44q-35 15 -90.5 10t-119.5 -23t-130 -45.5t-122.5 -57.5t-96.5 -59.5t-51 -51.5z" />
    <glyph glyph-name="O" unicode="O" horiz-adv-x="807" 
d="M847 535q-8 -8 -16 -12q29 -41 27 -92t-25 -106t-62.5 -112t-85.5 -110q-31 -35 -72.5 -71.5t-89 -68t-99 -56.5t-104.5 -38.5t-105 -13t-99 20.5q-51 21 -75.5 58.5t-27.5 86t14.5 105t50.5 115.5t79.5 117.5t102.5 110.5q50 46 100.5 85t104.5 69q-24 1 -49 2t-52 1
q-17 0 -25.5 4.5t-8.5 10.5t8.5 10.5t25.5 4.5q42 0 79.5 -1.5t70.5 -5.5q64 31 127.5 48t126.5 17q49 0 75.5 -19.5t35 -47.5t-0.5 -59t-31 -53zM789 669q-23 0 -56 -13t-75 -32q54 -14 92.5 -34t61.5 -45q3 2 4.5 4t5.5 4q12 11 19.5 30.5t6 38.5t-15 33t-43.5 14z
M627 163q34 41 68 84.5t59 87t35.5 85t-2 77t-53 63t-117.5 44.5q-69 -35 -142.5 -86.5t-137.5 -116.5q-44 -46 -85 -95.5t-74 -98.5t-56 -95t-32.5 -84.5t-2.5 -68t34 -45.5q31 -19 71 -19.5t85 14t92.5 40.5t93.5 60t88 73.5t76 80.5z" />
    <glyph glyph-name="M" unicode="M" horiz-adv-x="1526" 
d="M74 561q9 18 42 38.5t82 40.5t109.5 38.5t125.5 33t130 23.5t122 9.5t102.5 -8t70.5 -29.5q33 -27 34.5 -61.5t-20.5 -73.5t-64.5 -82t-96.5 -88q97 61 189.5 112.5t170.5 85t138.5 43.5t95.5 -12q27 -17 29.5 -43t-13 -58.5t-46.5 -69.5t-71 -77q73 52 138.5 94
t120.5 66.5t98 27.5t70 -21q36 -32 30.5 -75t-37 -92t-81 -101.5t-102 -102t-100.5 -94t-76.5 -77.5t-30 -52.5t39.5 -19.5q20 0 29.5 -5t8 -11t-14 -11t-35.5 -5q-50 0 -69.5 16t-16 44t25.5 66t55 80.5t73 88t78.5 89.5t72.5 84t54.5 72t24 53.5t-17.5 27.5
q-13 4 -45 -9.5t-77 -39.5t-101 -62t-116.5 -78t-122 -86.5t-119 -88t-108 -83.5t-87.5 -71q-17 -17 -34.5 -25t-28 -5t-9 19t23.5 46q26 36 65.5 79.5t86 89.5t95 93t93.5 91t83 82t61 66t28 44.5t-14 16.5q-33 0 -91 -23t-131.5 -61.5t-159 -89t-174.5 -106.5t-176 -113.5
t-164.5 -110t-140 -96t-102.5 -70.5l13 12q-14 -10 -25.5 -18.5t-20.5 -16.5t-18.5 -7t-15 7.5t-5.5 16.5t11 21q39 38 97.5 87.5t128 105t144 114t144.5 115.5t131.5 109t104 94t61.5 71.5t5 41.5q-15 12 -52 15.5t-88 -0.5t-111.5 -14t-122 -23.5t-120.5 -29.5
t-107.5 -32.5t-81 -32t-42.5 -27.5q-11 -15 0.5 -23t27.5 -8q21 0 25 -10t-15 -12q-18 0 -35 4t-28.5 13t-14.5 22.5t7 31.5z" />
    <glyph glyph-name="Q" unicode="Q" horiz-adv-x="773" 
d="M806 535q-9 -9 -17 -12q29 -41 27.5 -92t-24 -106t-62 -112t-86.5 -110q-51 -59 -116 -101q61 -25 124.5 -50.5t125.5 -45.5t120.5 -33t110.5 -13q14 0 11.5 -10t-18.5 -21.5t-44.5 -21.5t-65.5 -10q-51 0 -106.5 15t-111.5 38.5t-112 52.5t-109 58q-74 -33 -155 -38.5
t-164 28.5q-77 31 -104.5 86.5t-13.5 125t66 149t136 157.5q50 46 100.5 85t104.5 69q-23 1 -48 2t-52 1q-17 0 -25.5 4.5t-8.5 10.5t8.5 10.5t25.5 4.5q42 0 79 -1.5t71 -5.5q64 31 128 48t127 17q48 0 74.5 -19.5t35 -47.5t-0.5 -59t-31 -53zM586 163q34 41 68 84.5t59 87
t35.5 85t-2 77t-53 63t-117.5 44.5q-69 -35 -143 -86.5t-137 -116.5q-48 -50 -86.5 -97.5t-65 -90.5t-40 -81t-11.5 -69q19 28 54 36.5t81 2t101.5 -24.5t116.5 -42q74 50 140 128zM114 40q-3 -5 -5.5 -8.5t-5.5 -6.5q13 -22 36 -36q53 -32 115.5 -27.5t128.5 36.5
q-47 25 -89.5 43.5t-77 26.5t-61 2t-41.5 -30zM748 669q-23 0 -56 -13t-75 -32q54 -14 92.5 -34t61.5 -45l4 4t6 4q12 11 20 30.5t6.5 38.5t-15.5 33t-44 14z" />
    <glyph glyph-name="L" unicode="L" horiz-adv-x="802" 
d="M262 561q9 18 37.5 38.5t69 41t91 40t104.5 34.5t108.5 24.5t103.5 10.5t89 -7t66 -29q38 -32 43 -71.5t-14.5 -84t-59 -92.5t-91 -97t-110.5 -97.5t-117.5 -93t-112 -84t-93.5 -70.5q69 -27 142.5 -58t146 -57.5t142 -43.5t130.5 -17q14 0 11.5 -12t-18.5 -26t-44 -26
t-65 -12q-73 0 -153 27.5t-160 66.5t-155 81t-137.5 70.5t-108 36t-65.5 -23.5q-8 -12 -15.5 -15t-12 0t-5 12t7.5 21q17 29 48 39t73 6.5t92.5 -18.5t106.5 -36q39 39 87 85t99.5 95.5t104 100.5t99.5 99.5t85.5 93t63.5 80.5t33.5 62.5t-5.5 38.5q-15 12 -47 15t-75 -1.5
t-93 -15t-100.5 -24.5t-99 -30.5t-88.5 -33.5t-67.5 -33t-36.5 -28q-6 -8 -5.5 -13.5t5 -9.5t12.5 -6t16 -2q21 0 25 -10t-15 -12q-19 0 -36.5 4t-28.5 13t-14 22.5t6 31.5z" />
    <glyph glyph-name="K" unicode="K" horiz-adv-x="874" 
d="M17 561q9 18 41.5 38.5t81.5 40.5t110 38.5t126 33t130 23.5t122 9.5t102 -8t71 -29.5q35 -29 36.5 -66t-23 -80t-70.5 -89.5t-104.5 -94.5t-126 -96.5t-134.5 -93.5q28 4 82 23t122 48t144.5 66t150.5 76t140.5 78t114 73t70.5 59.5t10 38.5q-9 9 -9 17t5.5 12.5t14 3.5
t17.5 -10q26 -27 21.5 -59t-33 -67.5t-78 -73t-112 -74t-135 -71t-148 -64t-150.5 -52.5t-142 -38q45 -23 96.5 -61.5t106.5 -83.5t112.5 -93t115 -91t115 -77t112.5 -51q13 -5 7 -15.5t-25.5 -19.5t-50 -11.5t-65.5 8.5q-55 17 -112 59.5t-113 96.5t-109.5 112.5
t-102.5 106t-93 77.5t-79 28q-13 -2 -25.5 -3t-24.5 -2q-88 -59 -163 -109t-118 -85q-9 -8 -18.5 -6.5t-15 7.5t-5.5 16t11 21q38 38 94 85.5t121 99.5t134 106.5t133.5 106.5t120.5 100t94 86.5t54.5 66t2.5 39.5q-20 16 -77.5 16.5t-134 -10t-161 -29t-158.5 -40
t-127 -43.5t-66 -38q-11 -15 0 -23t28 -8q21 0 25.5 -10t-15.5 -12q-19 0 -36 4t-28.5 13t-14 22.5t7.5 31.5z" />
    <glyph glyph-name="J" unicode="J" horiz-adv-x="850" 
d="M729 295q65 69 125 134.5t102.5 119t61 92t0.5 53.5q-20 16 -69 16t-112 -11t-133 -31t-130.5 -42t-105 -44.5t-57.5 -38.5q-11 -15 0.5 -23t27.5 -8q21 0 25 -10t-15 -12q-18 0 -35 4t-28.5 13t-14.5 22.5t7 31.5q12 24 56.5 52.5t107.5 54.5t136.5 47t143.5 30
t129.5 2.5t93.5 -33.5q31 -26 39 -58t-1.5 -69t-35 -77.5t-61.5 -83.5t-80 -87.5t-91 -88.5q-87 -82 -172 -154.5t-169 -127t-168 -86t-170 -31.5q-29 0 -50.5 9t-36.5 21q-33 28 -37.5 66.5t11 79t49 78t77 64t93.5 37t100 -3.5q36 -10 58 -27t30 -31t2.5 -19t-23.5 9
q-34 26 -73.5 24t-78.5 -21.5t-74 -51.5t-60 -65.5t-36 -64.5t-2 -49q5 -9 18.5 -14.5t29.5 -5.5q37 0 83.5 17.5t98.5 47.5t107 70.5t109 86t104.5 93.5t93.5 94z" />
    <glyph glyph-name="I" unicode="I" horiz-adv-x="507" 
d="M17 561q9 18 37.5 38.5t69 41t91 40t104.5 34.5t108.5 24.5t103 10.5t89 -7t65.5 -29q40 -33 43.5 -76t-19.5 -93t-67 -104.5t-100.5 -109.5t-119.5 -109t-123.5 -102.5t-114 -89.5t-89.5 -71q-9 -8 -18.5 -6.5t-15 7.5t-5.5 16t11 21q51 51 120.5 118t141.5 139
t139.5 143.5t116.5 132t71 104.5t3 60q-15 12 -47 15t-75 -1.5t-93 -15t-100.5 -24.5t-99 -30.5t-88.5 -33.5t-67.5 -33t-36.5 -28q-6 -8 -5.5 -13.5t5 -9.5t12.5 -6t16 -2q21 0 25 -10t-15 -12q-19 0 -36 4t-28.5 13t-14.5 22.5t6 31.5z" />
    <glyph glyph-name="H" unicode="H" horiz-adv-x="884" 
d="M18 561q9 18 42 38.5t82 40.5t110 38.5t125.5 33t130 23.5t122.5 9.5t102 -8t71 -29.5q35 -29 35.5 -67t-25 -81t-72 -90.5t-106.5 -96.5q45 -1 83.5 -1h69.5q49 46 101 92t101 89t93 82.5t77 72.5q10 10 21 3.5t16 -24t2 -41t-21 -47.5q-45 -57 -109 -118t-133 -120.5
t-136 -115t-117 -103t-76.5 -83.5t-15.5 -56q7 -12 28.5 -7.5t48.5 19.5t54.5 37.5t47.5 48.5q11 15 22.5 20t18.5 1.5t5.5 -15t-17.5 -30.5q-22 -27 -53.5 -54.5t-65.5 -44.5t-68 -19t-61 24q-27 25 -20.5 63t37 85t80 101t108.5 110q-35 -1 -77.5 -1.5t-88.5 -2.5
q-72 -56 -151.5 -110.5t-153.5 -104t-136 -91.5t-99 -72q-9 -8 -19 -6.5t-15.5 7.5t-5 16t11.5 21q33 33 79 72.5t99.5 83t111.5 89.5l116 92q-50 -1 -94.5 -2.5t-79.5 -3t-58.5 -3.5t-29.5 -4q-15 -4 -15 2.5t9.5 16t26.5 20t36 13.5q13 2 38.5 3t59.5 1h75t85 -1
q69 55 129 106t102 92.5t60.5 71t3.5 41.5t-52 15.5t-88 -0.5t-111.5 -14t-122 -23.5t-120.5 -29.5t-107 -32.5t-81 -32t-43 -27.5q-5 -8 -4.5 -13.5t5.5 -9.5t12.5 -6t15.5 -2q21 0 24.5 -10t-15.5 -12q-18 0 -35 4t-28.5 13t-14.5 22.5t7 31.5z" />
    <glyph glyph-name="G" unicode="G" horiz-adv-x="613" 
d="M432 153q3 4 7 7q20 23 39 42t35 33q21 18 51.5 28t56 13t38 -1.5t-1.5 -14.5t-41 -37t-60.5 -64.5t-70.5 -81.5t-71.5 -88t-63.5 -84.5t-46.5 -70.5t-20 -47t15.5 -13q10 0 25 11q6 3 11.5 2t8 -4.5t0.5 -8.5t-10 -10q-12 -8 -26.5 -14.5t-29.5 -8.5q-39 -8 -51.5 9.5
t-6 51t28.5 79t53 95.5q-30 -23 -60.5 -39.5t-59 -25.5t-54.5 -8.5t-47 13.5q-58 35 -69 97.5t14 137.5t80.5 155t130.5 149q56 52 114.5 94.5t118.5 72.5t120 46t120 16q45 0 70 -18t32.5 -44t-1 -54.5t-28.5 -49.5q-11 -11 -20 -13.5t-13.5 1t-3 11.5t12.5 18t18.5 27
t6 33.5t-14.5 28.5t-41 12q-29 0 -78 -17.5t-107 -49.5t-119.5 -77t-114.5 -99q-59 -61 -108.5 -127t-80 -125.5t-37 -108t22.5 -75.5q24 -22 63.5 -11t85 41.5t92 75.5t85.5 90z" />
    <glyph glyph-name="C" unicode="C" 
d="M645 183q9 13 18 19t14.5 4.5t5.5 -10t-8 -23.5q-19 -34 -54.5 -73t-81.5 -75.5t-100 -67.5t-111 -49.5t-114 -21t-108 18.5q-47 19 -70 54t-25.5 80.5t13.5 98t46.5 107t74 109t95.5 102.5q56 52 114.5 94.5t118.5 72.5t120 46t120 16q45 0 70 -18t32.5 -44t-0.5 -54.5
t-29 -49.5q-11 -11 -20 -13.5t-14 1t-3.5 11.5t12.5 18q12 10 19.5 27t6.5 33.5t-14 28.5t-41 12q-29 0 -78 -17.5t-107.5 -49.5t-119.5 -77t-114 -100q-62 -64 -113.5 -132.5t-82 -130t-33 -110t34.5 -70.5q33 -20 78.5 -19t96.5 16t104 41.5t100.5 59t86 67.5t60.5 68z
" />
    <glyph glyph-name="D" unicode="D" horiz-adv-x="1057" 
d="M284 1q-15 -6 -30.5 -8.5t-29.5 -2.5q-35 0 -44.5 16.5t0.5 44.5t36 64.5t62 76.5t77.5 80t83 75.5t79.5 63t65 42.5q21 11 49 15t50.5 2.5t33.5 -6.5t-2 -11q-16 -7 -48.5 -29.5t-73.5 -54.5t-87.5 -71t-90.5 -78t-82 -76t-62.5 -65.5t-31 -45.5t11.5 -17q10 0 27 7
q7 2 12 0t7 -5.5t-0.5 -8.5t-11.5 -8zM434 415q-8 -14 -16.5 -19.5t-14 -3t-6.5 11.5t7 24q18 31 64 68.5t109.5 73.5t138.5 66t150 45.5t145 13t123 -32.5q64 -36 78 -93.5t-13 -125.5t-89.5 -142t-150.5 -143t-197 -128t-228.5 -97t-244 -49.5t-245.5 13.5q-31 6 -40 13
t-4 12t20.5 6.5t33.5 -3.5q63 -18 138 -13t155.5 28t163.5 60t162.5 84t152.5 100.5t134 108t106.5 107t70 98.5t24.5 82t-30 57q-27 19 -69.5 22.5t-94.5 -4t-109.5 -24.5t-114.5 -39t-109.5 -47t-94.5 -49t-70 -45.5t-35 -35.5z" />
    <glyph glyph-name="E" unicode="E" horiz-adv-x="864" 
d="M636 304q26 1 53 1.5t56 0.5q28 0 39.5 -4t9.5 -8.5t-17.5 -8.5t-41.5 -4q-135 0 -240.5 -24.5t-183 -62t-126 -83t-68.5 -87t-11.5 -74.5t45.5 -46q40 -15 93.5 -14.5t112 12.5t118 33.5t113.5 49.5t98.5 61t71.5 68q10 13 19 18t14 3t4.5 -10.5t-9.5 -22.5
q-20 -36 -62.5 -72.5t-98 -68.5t-120.5 -57t-132 -38.5t-131.5 -13t-118.5 19.5q-41 15 -70.5 46t-37.5 71t8.5 85t67.5 86t139 75t223 53q-65 16 -93 49t-24.5 73.5t35.5 83.5t86.5 79.5t129.5 61t164 28.5t134.5 -6t61.5 -24t9 -28t-23.5 -18t-36 6.5t-27.5 44.5
q-62 7 -122.5 -4.5t-114 -34.5t-97.5 -55t-71 -66t-35 -67t9.5 -58t64 -39t128.5 -10h5z" />
    <glyph glyph-name="F" unicode="F" horiz-adv-x="613" 
d="M264 350q32 3 88 5.5t118 4.5q82 56 157.5 109t130 97t81 76t11.5 46q-13 12 -49.5 15.5t-88 -0.5t-113.5 -14t-126 -23.5t-125.5 -29.5t-112.5 -32.5t-86.5 -32t-46.5 -27.5q-15 -15 -4 -23t27 -8q22 0 24 -10t-17 -12q-19 -1 -35.5 3t-26.5 13t-10.5 23t11.5 32t48 38
t88 40t116 38.5t131 32.5t133.5 23t124 10t101.5 -7.5t67 -28.5q32 -29 24 -67.5t-45 -83t-97.5 -93.5t-132.5 -98q48 2 83 4.5t46 6.5q15 4 14.5 -2.5t-10 -16.5t-26.5 -20t-36 -12q-21 -4 -57 -5t-80 0q-64 -42 -130 -82.5t-126 -77.5t-111.5 -69.5t-86.5 -57.5
q-25 -17 -35.5 -32t-6 -23.5t25 -7.5t57.5 15q28 11 55.5 27t50.5 30q19 12 28 12.5t9 -6t-9 -17.5t-28 -22q-20 -11 -44.5 -26t-53.5 -26q-68 -24 -103 -20.5t-42.5 24t11 53t58.5 66.5q31 26 70 55.5t82.5 60.5t90.5 63.5t94 64.5q-48 2 -89.5 2t-65.5 -3q-33 -5 -48.5 -2
t-15.5 8.5t16 11.5t48 8z" />
    <glyph glyph-name="B" unicode="B" horiz-adv-x="833" 
d="M410 561q12 24 64.5 50.5t127 50.5t162 42t169.5 24.5t149 -1t101 -35.5q41 -34 43 -71.5t-27.5 -77.5t-85.5 -80.5t-131.5 -80t-166 -77t-187.5 -70.5q66 -19 92 -55t17.5 -78t-47.5 -86t-102.5 -80t-147.5 -58.5t-182 -22.5q-70 0 -129 19.5t-91 50.5t-31 69t51 74
q11 7 20.5 8.5t13.5 -2t1.5 -10.5t-14.5 -17q-27 -22 -33 -43t9 -38t50.5 -27.5t91.5 -10.5q86 0 165 18t141.5 46.5t105 62.5t55.5 66t-7 58t-83 38q-57 -18 -113 -34t-112 -30q-30 -29 -53.5 -54t-36.5 -44t-14.5 -29.5t13.5 -10.5q4 0 11 1.5t15 5.5q14 4 19 -5.5
t-12 -16.5q-15 -6 -30.5 -8.5t-29.5 -2.5q-47 0 -49 29t26 74t77 99.5t105 106t110 93t91 61.5q21 11 48.5 15t50 2.5t33 -6.5t-1.5 -11q-18 -8 -54.5 -33.5t-82.5 -61.5t-96.5 -79t-96.5 -85q77 28 168.5 70.5t182 91t173 99t142 94.5t88.5 77t13 47q-15 12 -52 16t-87 1
t-109.5 -11.5t-120.5 -20.5t-119 -26.5t-105.5 -30t-80 -30.5t-41.5 -27q-11 -15 0.5 -23t27.5 -8q22 0 25.5 -10t-15.5 -12q-18 0 -35 4t-28.5 13t-14.5 22.5t7 31.5z" />
    <glyph glyph-name="A_alt" horiz-adv-x="680" 
d="M17 -15q11 21 51.5 75t100.5 125q-56 -2 -97 -4.5t-52 -6.5q-15 -5 -15 1.5t10 16.5t27 20t36 13q20 3 53.5 4t75.5 0q47 54 101 110.5t110 109t112.5 98.5t109 78t99.5 47t84 7q47 -11 61.5 -36.5t5.5 -63t-38 -83.5t-69 -98t-87 -106.5t-92 -108t-85 -104.5t-65 -94
q-20 -33 -24.5 -50.5t1.5 -22.5t20.5 1.5t33.5 20.5q8 6 14.5 6t9.5 -4.5t1.5 -11.5t-9.5 -13q-44 -34 -76.5 -38.5t-48.5 14t-12 56.5t33 89q22 38 52 80.5t65 86.5q-37 -4 -101.5 -6.5t-135.5 -4.5q-30 -35 -55 -65.5t-44 -54.5t-31.5 -39.5t-15.5 -19.5
q-16 -21 -38.5 -31t-41 -12t-29.5 3t-5 16zM831 649q-25 9 -62 -5.5t-80.5 -44.5t-92 -73.5t-98 -93t-97.5 -102.5t-91 -103q62 -2 118 -3t87 3l23 2q40 49 82 98t80 94t69 84.5t50 69.5t23.5 49.5t-11.5 24.5z" />
    <glyph glyph-name="B_alt" horiz-adv-x="848" 
d="M442 414q-8 -14 -16.5 -19.5t-14 -3t-6.5 11.5t7 24q21 36 63.5 72t98.5 67t121.5 55.5t132.5 37.5t131.5 13.5t118.5 -16.5q42 -13 62.5 -43.5t15 -70t-39.5 -84t-100.5 -86t-168 -76.5t-241.5 -54q75 -17 106.5 -52t26.5 -78t-43 -88.5t-101.5 -83t-149 -61.5
t-185.5 -24q-47 0 -89.5 9t-76 24.5t-56 36.5t-29 44.5t4.5 49t44 49.5q11 7 20.5 8.5t14 -2t2.5 -10.5t-14 -17q-27 -22 -33 -43t9 -38t50.5 -27.5t91.5 -10.5q98 0 186 23t153.5 57.5t101.5 74.5t29.5 73t-62 53.5t-173.5 16.5q-2 0 -3 -0.5t-3 -0.5q-45 -40 -84 -77.5
t-64.5 -67t-33 -47.5t11.5 -18q9 0 29 7q12 4 17 -5.5t-12 -16.5q-15 -6 -30.5 -8.5t-29.5 -2.5q-39 0 -47 20t7 52.5t47.5 74.5t74.5 86h-19q-28 0 -40 4t-9.5 8.5t17 8.5t40.5 4h36q33 33 68 64.5t68.5 59t63 48.5t52.5 33q21 11 49 15t50.5 2.5t33.5 -6.5t-2 -11
q-14 -6 -41 -24.5t-62 -45t-74.5 -59t-79.5 -66.5q112 14 208 44t172 68t130 80t81.5 80t27.5 68t-33 44q-35 15 -90.5 10t-119.5 -23t-130 -45.5t-122 -57.5t-96 -59.5t-51 -51.5z" />
    <glyph glyph-name="C_alt" horiz-adv-x="521" 
d="M164 586q-18 -39 -6 -74.5t46 -63.5l18 19q82 82 173.5 143.5t178 91.5t160 25t119.5 -55q27 -29 20.5 -77.5t-46.5 -98.5t-114 -94t-181 -64q-75 -14 -145 -3.5t-127 37.5q-54 -60 -93 -124t-59.5 -120.5t-18.5 -100.5t31 -63q31 -23 73 -16.5t80 31.5t64.5 62.5
t26.5 76.5q0 16 5.5 23t12 6.5t12 -8.5t5.5 -21q0 -29 -14.5 -61.5t-39.5 -61t-58.5 -50.5t-71.5 -30.5t-78.5 -1t-79.5 38.5q-38 30 -45.5 82t10.5 116t59 135t101 139q-37 35 -50.5 76t4.5 83q5 12 11.5 18t12 6.5t7.5 -5t-3 -16.5zM828 666q-20 20 -54.5 22t-78.5 -11.5
t-95 -39.5t-103.5 -62t-105 -79t-99.5 -90l-3 -3q57 -19 128 -20.5t146 19.5q82 24 142 60t94 74t42 73.5t-13 56.5z" />
    <glyph glyph-name="E_alt" horiz-adv-x="721" 
d="M661 182q9 13 18 19t14 4.5t5.5 -10t-7.5 -23.5q-19 -34 -54.5 -73t-81.5 -75.5t-100 -67.5t-111 -49.5t-114 -21t-108 18.5q-49 21 -78 58.5t-35.5 84t11.5 98.5t63 100q25 27 53 45.5t56.5 30.5t56.5 18.5t53 9.5q59 6 117 -4q-30 19 -44 50.5t-9.5 68t29 74.5t69.5 71
q54 38 108.5 55t103 17.5t86 -13t57 -36t17.5 -52.5t-34 -62q-11 -11 -20.5 -13.5t-14 1t-3 11.5t12.5 18q23 20 26 38.5t-9.5 32t-38 19.5t-58.5 2t-72 -21t-78 -50q-41 -33 -61.5 -70t-24 -71t10 -62t42.5 -42q12 -5 13 -12t-4.5 -12t-15.5 -6.5t-21 4.5q-23 12 -61 17
t-81 -2t-85.5 -26.5t-75.5 -56.5q-39 -43 -61 -84.5t-28 -77t4.5 -63.5t36.5 -43q32 -20 77.5 -19t96.5 16t103.5 41.5t100.5 59t86.5 67.5t61.5 68z" />
    <glyph glyph-name="G_alt" horiz-adv-x="622" 
d="M327 -236q-12 -8 -26.5 -14.5t-29.5 -8.5q-35 -7 -48.5 7t-10.5 41.5t19.5 66.5t41.5 83q-24 -13 -50 -20.5t-53.5 -7t-55 10t-54.5 30.5q-38 30 -45.5 82t10.5 116t59 135t101 139q-37 35 -50.5 76t4.5 83q5 12 11.5 18t12 6.5t7.5 -5t-3 -16.5q-18 -39 -6 -74.5
t46 -63.5l18 19q82 82 173.5 143.5t178 91.5t160 25t119.5 -55q27 -29 20.5 -77.5t-46.5 -98.5t-114 -94t-181 -64q-75 -14 -145 -3.5t-127 37.5q-54 -60 -93 -124t-59.5 -120.5t-18.5 -100.5t31 -63q21 -15 47.5 -16t54 8.5t54.5 27.5t48 40q22 33 46.5 64t47.5 59t45 50.5
t40 37.5q21 18 51.5 28t56 13t38 -1.5t-1.5 -14.5t-41 -37t-60.5 -64.5t-70.5 -81.5t-71.5 -88t-63.5 -84.5t-46.5 -70.5t-20 -47t15.5 -13q10 0 25 11q6 3 11.5 2t8 -4.5t0.5 -8.5t-10 -10zM831 666q-20 20 -54.5 22t-78.5 -11.5t-95 -39.5t-103.5 -62t-105 -79t-99.5 -90
l-3 -3q57 -19 128 -20.5t146 19.5q82 24 142 60t94 74t42 73.5t-13 56.5z" />
    <glyph glyph-name="R_alt" horiz-adv-x="709" 
d="M267 414q-8 -14 -16.5 -19.5t-14 -3t-6 11.5t8.5 24q20 36 62 72t98 67t121.5 55.5t132.5 37.5t131.5 13.5t118.5 -16.5q41 -13 61.5 -42t16.5 -67t-34.5 -81.5t-91 -85t-153.5 -77t-222 -57.5q15 -51 38.5 -112.5t53 -117t64 -98t73.5 -55.5q32 -11 69 -8t71.5 13.5
t62.5 25t42 25.5t20.5 8.5t7 -13t-3.5 -26t-11 -28.5q-8 -16 -32.5 -36.5t-59.5 -36t-76.5 -22.5t-81.5 4q-32 8 -62 37.5t-57 70.5t-51.5 90.5t-44.5 99t-36 95t-27 78.5q-87 -14 -189 -18q-45 -40 -83.5 -77t-63 -66t-31.5 -46.5t11 -17.5q9 0 29 7q6 2 11 0t6.5 -5.5
t-1 -8.5t-11.5 -8q-28 -11 -60 -11q-38 0 -46 19.5t6 51.5t46 73.5t73 85.5h-16q-28 0 -40 4.5t-9.5 9.5t18 9.5t41.5 4.5h34q33 33 68 64.5t68.5 59t63 48.5t52.5 33q21 11 49 15t50.5 2.5t33.5 -6.5t-2 -11q-14 -6 -41 -24.5t-62 -45t-74.5 -59t-79.5 -66.5q112 14 208 44
t172 68t130 80t82 80t27.5 68t-33.5 44q-35 15 -90.5 10t-119.5 -23t-130 -45.5t-122 -57.5t-96 -59.5t-51 -51.5z" />
    <glyph glyph-name="Z" unicode="Z" horiz-adv-x="898" 
d="M1253 690q25 -27 -6 -77.5t-103.5 -115t-179.5 -137.5t-233.5 -146.5t-265.5 -141.5t-276 -121q53 1 114.5 -7.5t128 -22t136 -28t139 -24.5t137.5 -12.5t131 8.5q15 3 9 -9t-26.5 -29t-53 -34t-72.5 -24q-79 -14 -160.5 -2.5t-160.5 33.5t-151.5 48t-134.5 42
t-109.5 14.5t-75.5 -34.5q-11 -13 -20 -18t-13.5 -2.5t-2.5 11t13 22.5q17 22 40 35.5t50 21.5q56 19 136.5 59t173.5 92t192 112.5t192.5 121.5t175.5 119t140.5 104.5t87.5 78t16 40.5q-14 9 -52.5 6.5t-93.5 -14t-120.5 -29t-133.5 -39t-134 -45t-120 -46t-92 -42
t-51 -32.5q-9 -8 -12.5 -21t7.5 -21q8 -6 5 -15t-17 -5q-12 3 -23.5 15t-17.5 29t-3.5 38t18.5 43q21 30 66.5 57t107 51t134 43t146.5 33.5t144 23.5t127 11.5t96 -2t51 -16.5z" />
    <glyph glyph-name="Y" unicode="Y" horiz-adv-x="833" 
d="M404 239q42 -6 94.5 14t110.5 56.5t117 85t114 100t102 100.5t81 86l13 19q7 10 23 9t31 -9t23.5 -22t0.5 -29q-12 -21 -31.5 -52.5t-44 -67.5t-53 -75t-58 -76t-58.5 -70.5t-55 -57.5q-87 -82 -172 -154.5t-169 -127t-168 -86t-169 -31.5q-30 0 -52 9t-36 21
q-33 28 -39.5 65.5t7 76t44 74.5t72 60.5t90 34t98.5 -4.5q36 -10 58.5 -26.5t30.5 -29.5t3 -17.5t-23 9.5q-34 26 -72.5 25t-75.5 -19t-69.5 -48.5t-55 -63.5t-32 -63t0.5 -48q4 -9 16.5 -14.5t29.5 -5.5q56 0 132 38t158 97.5t162 132t145 141.5q21 23 45 51.5t48.5 60
t49.5 65t49 65.5q-42 -45 -92.5 -92t-104 -89t-108.5 -76t-106 -53.5t-95.5 -21.5t-77.5 20q-32 22 -36 52t10 64.5t43 72t63 74t69 70.5t62 60.5t41.5 44.5t7.5 24q-20 16 -65 18t-101.5 -6t-118.5 -23.5t-116.5 -34.5t-94.5 -39.5t-53 -36.5q-11 -15 0 -23.5t28 -8.5
q21 0 24.5 -10t-14.5 -11q-19 -1 -36 3t-28.5 13t-14.5 22.5t7 32.5q12 24 52 50t96 48.5t122 39.5t130 23t119 -2t90 -35q39 -30 41.5 -65t-18.5 -71.5t-58 -73.5t-77 -71.5t-77 -66t-56.5 -56t-16 -41.5t43.5 -23z" />
    <glyph glyph-name="X" unicode="X" horiz-adv-x="850" 
d="M674 -102q-19 31 -26.5 71t-7 86t8 96.5t18.5 101.5q-81 -53 -164 -103.5t-163 -95.5t-154.5 -82.5t-138.5 -63.5q-21 -8 -31.5 -5.5t-10.5 10t9.5 17.5t27.5 17q63 26 139 64.5t158.5 84.5t168.5 98.5t170 107.5q15 66 30.5 128t24 113.5t6.5 89t-21 54.5q-16 14 -48 17
t-73 -2.5t-89 -17.5t-96 -28.5t-93 -35.5t-82 -37.5t-61.5 -35.5t-31.5 -29q-8 -15 5 -23t30 -8q20 0 26 -10t-13 -12q-18 0 -36 4t-31 13t-19 22.5t0 31.5q7 24 46 53.5t96.5 57.5t126.5 51t137 34t129 6.5t101 -31.5q38 -26 57.5 -61.5t25 -76.5t-0.5 -87t-19 -94
q88 62 163.5 120.5t132.5 110.5q29 27 46.5 35t22 2.5t-5 -22.5t-35.5 -40q-63 -56 -150.5 -122t-189.5 -137q-20 -64 -43.5 -126.5t-39.5 -118t-18.5 -101t19.5 -73.5q8 -11 6.5 -20.5t-7.5 -13t-15 -0.5t-17 16z" />
    <glyph glyph-name="W" unicode="W" horiz-adv-x="1260" 
d="M731 -46q33 -5 89 22t126 76.5t150.5 116.5t162.5 142.5t161.5 155t148.5 152.5q24 27 40 35t21 2.5t-1.5 -22.5t-28.5 -40q-68 -70 -151 -153.5t-171 -166t-176.5 -156.5t-168 -125.5t-145 -73t-106.5 1.5q-25 14 -40 35.5t-17 50.5t10.5 67t42.5 86
q-48 -35 -101.5 -70.5t-108 -67t-107 -57t-98 -40.5t-82 -17t-58.5 13q-26 18 -28.5 48t23.5 74t83.5 103t151.5 136q90 73 171 141.5t139.5 123t88 92t16.5 48.5q-15 12 -52.5 15.5t-88 -0.5t-111 -14t-122.5 -23.5t-121.5 -29.5t-107.5 -32.5t-81 -32t-43 -27.5
q-11 -15 1 -23t29 -8q10 0 16.5 -3t8 -7t-2 -7.5t-12.5 -4.5q-19 0 -36 4t-28.5 13t-14.5 22.5t6 31.5t42 38t82 40t109.5 38.5t125.5 32.5t130 23t122 10t102.5 -7.5t71.5 -28.5q33 -26 31 -62t-29 -79.5t-73.5 -91.5t-103.5 -98t-119 -100t-119 -95.5t-105 -86t-77 -71.5
t-33.5 -51t25.5 -25q18 -3 56 11t88.5 39.5t109.5 61t120 77t120 85.5t109 87q32 35 68 71.5t71 71t67 65.5t55.5 56t35.5 42.5t9 24.5q-9 15 -2 23t19.5 7t26.5 -11.5t20 -31.5q9 -34 -13.5 -79t-64.5 -96.5t-96.5 -107t-107.5 -108.5t-99 -101t-71.5 -86t-23.5 -63t44 -31
z" />
    <glyph glyph-name="V" unicode="V" horiz-adv-x="942" 
d="M412 -46q33 -5 89 22t126 76.5t150.5 116.5t162.5 142.5t161.5 155t147.5 152.5q24 27 40.5 35t22 2.5t-1.5 -22.5t-29 -40q-68 -70 -151 -153.5t-171 -166t-177 -156.5t-168 -125.5t-144.5 -73t-107.5 1.5q-32 18 -47 48t-7 74t42 103t100 136q64 73 120 141.5t95 123
t54.5 92t-1.5 48.5q-20 12 -58 15.5t-87.5 -0.5t-106.5 -14t-114 -23.5t-110 -29.5t-95.5 -32.5t-69.5 -32t-32 -27.5q-3 -8 -0.5 -13.5t8.5 -9.5t14.5 -6t16.5 -2q10 0 18 -3t11 -7t1 -7.5t-11 -4.5q-19 0 -37.5 4t-33 13t-22.5 22.5t-5 31.5q4 24 47 51.5t109.5 52.5
t148.5 45t162 28t150.5 2t115.5 -33q52 -32 57.5 -80t-20 -105.5t-73 -120t-101 -123.5t-104.5 -117t-83 -100t-36.5 -72.5t34.5 -34.5z" />
    <glyph glyph-name="U" unicode="U" horiz-adv-x="1053" 
d="M192 -53q29 -5 76 11t105.5 47t126 73t139 91t143.5 100.5t139 101t126 93.5t105 77q53 47 100 89t82 77q10 10 20.5 3.5t16 -24t2.5 -41t-21 -47.5q-45 -57 -109 -118t-133 -120.5t-136 -115t-117 -103t-76.5 -83.5t-15.5 -56q7 -12 28.5 -7.5t48.5 19.5t54.5 37.5
t46.5 48.5q11 15 23 20t19 1.5t5.5 -15t-17.5 -30.5q-22 -27 -53 -54t-65 -44t-68 -18.5t-62 22.5q-30 26 -22 64t41 85t86 100.5t114 109.5q-84 -59 -168 -120t-164 -115t-154 -98.5t-137 -71t-113.5 -32.5t-83.5 17q-26 18 -28.5 48t24 74t83.5 103t151 136
q90 73 171 141.5t139.5 123t87.5 92t16 48.5q-20 16 -77.5 16.5t-134 -10t-161.5 -29t-159 -40t-127 -43.5t-66 -38q-11 -15 0.5 -23t27.5 -8q21 0 25 -10t-15 -12q-18 0 -35 4t-28.5 13t-14.5 22.5t7 31.5q9 18 42 38t81.5 40t109 38.5t125.5 32.5t129.5 23t122 10
t103 -7.5t71.5 -28.5q33 -26 31 -62t-28.5 -79.5t-73.5 -92t-103.5 -98.5t-118.5 -100t-119.5 -96t-105.5 -86t-76.5 -71t-33 -50.5t25.5 -24.5z" />
    <glyph glyph-name="T" unicode="T" horiz-adv-x="620" 
d="M98 561q12 18 48.5 38t88.5 40t115.5 38.5t130.5 32.5t133.5 23t124 10t102 -7.5t67.5 -28.5q35 -32 30.5 -70.5t-38 -81.5t-90.5 -89.5t-126.5 -93.5t-147 -93.5t-151 -90.5t-138.5 -83t-110 -72q-25 -17 -35.5 -32t-6 -23.5t25 -7.5t57.5 15q27 11 54 27t50 30
q19 12 28.5 12.5t9.5 -6t-9.5 -17.5t-28.5 -22t-43.5 -26t-53.5 -26q-67 -24 -102 -20.5t-42.5 24t11 53t58.5 66.5q42 35 99 78t122 89.5t133 94.5t132 94t119.5 87.5t95 75t58 56.5t9.5 32q-13 12 -49.5 15.5t-88 -0.5t-113.5 -14t-126 -23.5t-126 -29.5t-112.5 -32.5
t-86 -32t-46.5 -27.5q-15 -15 -4 -23t27 -8q21 0 23.5 -10t-16.5 -12q-20 0 -36.5 4t-26.5 13t-10.5 22.5t11.5 31.5z" />
    <glyph glyph-name="S" unicode="S" horiz-adv-x="690" 
d="M643 416q47 16 89 41t73 51t48 48.5t15 34.5q-5 19 -45 16t-100 -22t-133.5 -50.5t-146 -69t-137 -78t-107 -76.5t-56.5 -65t16 -44q15 -7 48 -7.5t75.5 2.5t90.5 7.5t92.5 6.5t81.5 -0.5t58 -13.5q28 -15 24.5 -43.5t-29.5 -64t-70 -74.5t-96.5 -74.5t-110 -65
t-110 -45.5t-95.5 -15t-68 25q-17 16 -27 34t-10.5 40t10.5 50t36 64q10 15 19 21.5t14.5 5.5t5 -10t-9.5 -25q-23 -41 -35 -69.5t-1 -49.5q6 -11 33.5 -7t68.5 18t91 36t100 48t96 53t78.5 52t48 45t5.5 31q-9 9 -42 9t-79 -3.5t-99 -8t-101 -6t-85 3t-52 19.5
q-34 33 -19.5 79.5t62 97.5t119.5 102t153 94.5t162.5 75t148.5 43t111.5 -2t49.5 -59.5q6 -20 -4 -46t-39 -56t-77.5 -63t-117.5 -67q-27 -12 -45.5 -13.5t-23.5 3.5t5.5 15.5t42.5 21.5z" />
    <glyph glyph-name="R" unicode="R" horiz-adv-x="707" 
d="M261 561q13 24 65.5 50.5t127.5 50.5t162.5 42t169.5 24.5t149 -1t101 -35.5q49 -40 42.5 -86t-55 -94.5t-131 -96.5t-186.5 -93.5t-222 -85.5t-236 -71q45 -25 96 -63.5t105 -83t110 -91t112.5 -88t112 -74.5t108.5 -49q13 -5 7 -15.5t-25.5 -19.5t-50 -11.5t-65.5 8.5
q-54 17 -110.5 58.5t-111.5 94t-107 109t-98.5 103t-86 76t-68.5 28.5q-2 0 -8 -2q-28 -27 -49.5 -51t-33.5 -41.5t-12.5 -27.5t13.5 -10q10 0 27 7q7 2 12 0t6.5 -5.5t-1.5 -8.5t-12 -8q-14 -6 -29 -8.5t-29 -2.5q-36 0 -45.5 16.5t0.5 44.5t36 64.5t61.5 76.5t77.5 80
t83.5 75.5t79.5 63t66 42.5q20 11 47.5 15t50 2.5t34 -6.5t-1.5 -11q-18 -8 -57 -35.5t-87 -65.5t-101 -83t-99 -88q57 19 124.5 47.5t138.5 63t142.5 73t136 77.5t118.5 75.5t90.5 67.5t51.5 54t2 34q-15 12 -51.5 16t-86.5 1t-109.5 -11.5t-120 -20.5t-118.5 -26.5
t-105.5 -30t-80 -30.5t-41.5 -27q-12 -15 0 -23t28 -8q22 0 25.5 -10t-15.5 -12q-18 0 -35.5 4t-28.5 13t-14.5 22.5t5.5 31.5z" />
    <glyph glyph-name="zero.001" horiz-adv-x="332" 
d="M48 55q-10 20 -6.5 48.5t17 60t35 64.5t47.5 61.5t54.5 50.5t56 32.5t52 6t43.5 -27.5q22 -28 13.5 -70.5t-36 -87.5t-67.5 -86t-81 -64.5t-76 -23.5t-52 36zM75 73q1 -10 20 3t47 39t60.5 60t60 65.5t45.5 55.5t18 30q0 11 -19 -2t-47 -39.5t-61 -61t-61 -66t-46 -55.5
t-17 -29z" />
    <glyph glyph-name="one.001" horiz-adv-x="286" 
d="M373 357q-11 -15 -34 -42t-52.5 -59.5t-62.5 -67t-63 -64.5t-53.5 -52t-34.5 -30q-10 -8 -24 -8.5t-23.5 5t-10.5 17t16 28.5q5 5 21.5 23.5t40 44.5t52.5 57.5t59 62.5q-21 -15 -37.5 -19.5t-26 -1.5t-10 10.5t11.5 15.5q6 4 20 12.5t33 21.5t41.5 30t45.5 37
q28 28 37 33q7 2 19 -2.5t22 -13t15 -18.5t-2 -20z" />
    <glyph glyph-name="two.001" horiz-adv-x="320" 
d="M47 115q20 10 49 26.5t61 37t64 42.5t57 43.5t40 40.5t14 32t-25.5 5.5t-60 -28.5t-74 -50t-67.5 -59q-6 -6 -8.5 5.5t3.5 33.5t22 50.5t48 57.5q29 26 60.5 43t60 21t50 -6.5t30.5 -39.5q11 -37 -2 -69.5t-41 -61.5t-66 -53.5t-78.5 -45.5t-78 -38t-63.5 -31
q22 -14 46 -14.5t48 10t47.5 30.5t46.5 47q5 6 8.5 -1t4 -21t-3.5 -32.5t-15 -36t-30 -31t-49 -18.5q-25 -3 -43.5 5.5t-36 19t-35.5 17t-41 -1.5q-13 -5 -13.5 2.5t8.5 19.5t25.5 26t37.5 23z" />
    <glyph glyph-name="three.001" horiz-adv-x="320" 
d="M234 270q20 10 39.5 20t34.5 19t24.5 16.5t9.5 11.5q2 10 -18.5 4.5t-52 -21.5t-67.5 -41t-65 -54q-7 -8 -13 -0.5t-4 25.5t15 44.5t43 56.5q22 22 51.5 34t58 13.5t50.5 -8.5t30 -32q10 -29 4.5 -51.5t-21.5 -40t-39 -31t-46 -24.5q23 -45 4 -82t-60 -67
q-42 -31 -82 -43t-66.5 -1.5t-32.5 45t21 95.5q11 25 18 32t10.5 4.5t4 -11t-2.5 -15.5q-17 -40 -18 -60.5t7.5 -26.5t24 -1.5t31.5 13.5t31 19.5t22 16.5q29 23 35 42.5t-1 47.5q-2 4 -6 9t-4.5 11t6 13.5t24.5 17.5z" />
    <glyph glyph-name="four.001" horiz-adv-x="321" 
d="M443 355q-10 -15 -35 -43t-56.5 -61.5t-67 -69t-67.5 -66.5t-57 -54t-36 -31q-11 -9 -25.5 -10.5t-24 4t-10.5 17t16 29.5l74 85q-33 -9 -50.5 0t-21 27.5t4.5 42.5t25 46q23 32 48 63.5t68 66.5q12 10 29.5 9t31.5 -8t20 -18.5t-5 -21.5q-25 -23 -55 -50t-56 -52
t-45.5 -46t-24 -32t9 -10t52.5 19q23 25 55 60t63.5 68t56.5 58t33 31q7 6 18 2t20 -13t13.5 -21t-1.5 -21z" />
    <glyph glyph-name="five.001" horiz-adv-x="321" 
d="M179 155q24 27 29.5 44t-0.5 27.5t-18.5 16.5t-24.5 11.5t-18.5 12.5t-0.5 20q4 13 18.5 32t32.5 38t37.5 33.5t35.5 17.5q15 4 36.5 0.5t43 -9.5t39.5 -12.5t27 -10.5q13 -5 5 -20t-26.5 -23.5t-40.5 -2t-36 43.5q-13 -8 -27 -20.5t-27.5 -28t-26 -32t-22.5 -31.5
q44 -15 57 -40t5 -53.5t-32 -57.5t-53 -52.5t-58.5 -38.5t-48.5 -15q-21 0 -33 17.5t-16 42.5t-2 51t10 44q11 24 17 30t7.5 2t0.5 -13.5t-3 -16.5q-8 -38 -6.5 -57.5t9.5 -25t22 0.5t29 18t30.5 27.5t28.5 29.5z" />
    <glyph glyph-name="six.001" horiz-adv-x="320" 
d="M32 119q18 43 51 92.5t74 92.5t86.5 73t88.5 34q23 2 33 -11t10.5 -29t-7 -30t-18.5 -14q-14 0 -43 -9.5t-65.5 -29.5t-75.5 -52t-71 -77q24 22 53.5 44.5t59 41t56.5 30.5t47.5 14t31 -9.5t7.5 -39.5q-6 -49 -33.5 -87t-67.5 -66.5t-87 -47.5t-90 -28q-24 -2 -36 10
t-15 29.5t0.5 36.5t10.5 32zM70 99q1 -8 20 -3t46.5 17.5t59 30t58 34.5t44 31t16.5 20q-1 8 -20 5t-47 -13.5t-60 -26.5t-58.5 -33.5t-43.5 -34t-15 -27.5z" />
    <glyph glyph-name="seven.001" horiz-adv-x="321" 
d="M428 356q-10 -15 -38 -41.5t-64.5 -59t-77.5 -66.5t-77.5 -64t-64.5 -52.5t-38 -30.5q-14 -11 -31 -13t-28.5 2.5t-12.5 14.5t19 24q9 6 33 22.5t56.5 40t70.5 51t76 56.5t72.5 57t60.5 51q-16 -5 -48 -9.5t-65.5 -7.5t-61.5 -5t-37 -2q-16 0 -15 12.5t10.5 27.5
t23.5 26.5t25 10.5q9 -1 31 1t48 4.5t52 4.5t41 0q9 -1 17.5 -7t15 -14t9 -17.5t-1.5 -16.5z" />
    <glyph glyph-name="eight.001" horiz-adv-x="320" 
d="M183 270q-6 20 1 42t22 41t36 34t44 21.5t44.5 2.5t38.5 -21q24 -27 22.5 -57.5t-18.5 -58.5t-45 -50t-56 -32q6 -24 -2.5 -49.5t-25.5 -48t-41.5 -40.5t-51 -26.5t-53.5 -5t-49 23.5t-27 43t3 46t26 45t40.5 40t46.5 31t45 19zM70 69q4 -12 18 -8t32.5 18.5t38 35.5
t35.5 41.5t24.5 37t4.5 22.5q-4 5 -18 -2.5t-31.5 -21.5t-36.5 -32.5t-34.5 -36.5t-25 -32.5t-7.5 -21.5zM223 248q3 -12 15 -8.5t27.5 16t32.5 30.5t30.5 35.5t20.5 31.5t3 19q-5 6 -17 1t-26.5 -16.5t-30.5 -27.5t-29 -32t-20.5 -29.5t-5.5 -19.5z" />
    <glyph glyph-name="nine.001" horiz-adv-x="317" 
d="M374 303q-10 -15 -29.5 -39t-43 -51.5t-49.5 -56.5t-50 -54.5t-44 -44.5t-31 -27t-25 -9.5t-23.5 3.5t-10 16t15.5 29q3 3 14 15.5t26 28t31 32.5t27 30q-49 -3 -65.5 13t-10 42t32 57.5t60.5 60.5t76 50.5t78 27.5q28 4 38.5 -6t10 -24t-7.5 -26.5t-13 -12.5
q-5 0 -12.5 -1.5t-13.5 -3.5q13 -5 20.5 -20t-1.5 -29zM125 214q-1 -3 6 -6t20.5 -3t32 4t39.5 14q11 11 27.5 30t33 38.5t29.5 35.5t18 19q-31 -10 -67.5 -29t-67.5 -39t-51.5 -38t-19.5 -26z" />
    <glyph glyph-name="bar" unicode="|" horiz-adv-x="339" 
d="M-85 -87q0 4 26 37t68 85.5t96 118t110.5 133.5t111.5 133.5t99.5 117t73 84t33.5 34.5q14 8 29 13.5t26 6t15 -4t-4 -17.5q-2 -3 -30.5 -37t-74 -86.5t-103 -118.5t-118 -135t-118.5 -135t-104.5 -117.5t-77 -84t-34.5 -33.5q-21 -6 -22.5 -5.5t-1.5 11.5z" />
    <glyph glyph-name="dotlessi" unicode="&#x131;" horiz-adv-x="213" 
d="M201 114q19 12 28 13t9 -6t-9 -18.5t-28 -23.5q-19 -11 -44.5 -25t-53 -26t-54 -20t-46.5 -8q-26 0 -43.5 17.5t-6.5 46.5q5 14 30.5 40.5t58 56.5t65 58.5t51.5 46.5q9 8 29 9t38 -3.5t28 -13t1 -18.5q-14 -15 -39.5 -36.5t-54 -44.5t-57 -45.5t-49 -40t-29 -28.5
t1.5 -11q11 0 32 7.5t46 19t50.5 25.5t45.5 28z" />
    <glyph glyph-name="grave" unicode="`" horiz-adv-x="286" 
d="M228 458q15 -6 13 -13.5t-25 -7.5q-9 0 -26.5 1.5t-37 4.5t-38 7.5t-30.5 11.5q-13 7 -26.5 20.5t-21.5 27t-7 23t17 9.5q10 0 36.5 -11.5t56 -26.5t55 -29t34.5 -17z" />
    <glyph glyph-name="ring" unicode="&#x2da;" horiz-adv-x="257" 
d="M39 470q0 34 24 58t58 24t58 -24t24 -58t-24 -58t-58 -24t-58 24t-24 58zM64 470q0 -24 16.5 -40.5t40.5 -16.5t40.5 16.5t16.5 40.5t-16.5 40.5t-40.5 16.5t-40.5 -16.5t-16.5 -40.5z" />
    <glyph glyph-name="dieresis" unicode="&#xa8;" horiz-adv-x="366" 
d="M50 470q13 22 37 37t46 15t28 -15t-7 -37q-14 -22 -38 -37t-46 -15t-28 15t8 37zM177 470q13 22 37 37t46 15t28 -15t-7 -37q-14 -22 -38 -37t-46 -15t-28 15t8 37z" />
    <glyph glyph-name="dotaccent" unicode="&#x2d9;" horiz-adv-x="221" 
d="M50 470q13 22 37 37t46 15t28 -15t-7 -37q-14 -22 -38 -37t-46 -15t-28 15t8 37z" />
    <glyph glyph-name="acute" unicode="&#xb4;" horiz-adv-x="282" 
d="M48 458q9 3 34.5 17t55 29t56 26.5t36.5 11.5q16 0 17 -9.5t-7 -23t-21.5 -27t-26.5 -20.5q-12 -7 -30.5 -11.5t-38 -7.5t-37 -4.5t-26.5 -1.5q-23 0 -25 7.5t13 13.5z" />
    <glyph glyph-name="tilde" unicode="&#x2dc;" horiz-adv-x="322" 
d="M36 470q46 54 83.5 60.5t55.5 -27.5t33.5 -30t45.5 33q12 12 21.5 15t12.5 -1t-2 -14t-21 -25q-35 -32 -59.5 -46.5t-42.5 -16.5t-29.5 7.5t-19.5 26.5q-12 26 -26.5 22t-34.5 -24q-5 -5 -14.5 -9.5t-15 -4t-4.5 8t17 25.5z" />
    <glyph glyph-name="caron" unicode="&#x2c7;" horiz-adv-x="286" 
d="M60 489q-6 0 -4.5 7t9.5 15.5t21.5 15.5t31.5 7t28 -8t14 -19t3 -22.5t-7 -19.5q7 6 18 14t22.5 16.5t22.5 16.5t19 13q23 15 25.5 7t-14.5 -21q-12 -9 -28.5 -21.5t-34.5 -26t-36 -27.5t-33 -25q-8 -9 -23 -11t-27.5 0t-19.5 8t1 13q17 16 24 28.5t7 21.5t-6 13.5
t-13 4.5z" />
    <glyph glyph-name="circumflex" unicode="&#x2c6;" horiz-adv-x="311" 
d="M245 443q6 0 4.5 -7t-9.5 -15.5t-21.5 -15.5t-31.5 -7t-28 8t-14 19t-3 22.5t7 19.5q-8 -6 -18.5 -14t-22 -16.5t-22.5 -16.5t-19 -13q-23 -15 -25.5 -7t14.5 21q12 9 28.5 21.5t34.5 26t36 27.5t33 25q8 9 23 11t27.5 0t19.5 -8t-1 -13q-17 -16 -24 -28.5t-7 -21.5
t5.5 -13.5t13.5 -4.5z" />
    <glyph glyph-name="asciicircum" unicode="^" horiz-adv-x="272" 
d="M290 272q6 0 4.5 -7t-9.5 -15.5t-21.5 -15.5t-31.5 -7t-28 8t-14 19t-3 22.5t7 19.5q-8 -6 -18.5 -14t-22 -16.5t-22.5 -16.5t-19 -13q-23 -15 -25.5 -7t14.5 21q12 9 28.5 21.5t34.5 26t36 27.5t33 25q8 9 23 11t27.5 0t19.5 -8t-1 -13q-17 -16 -24 -28.5t-7 -21.5
t5.5 -13.5t13.5 -4.5z" />
    <glyph glyph-name="breve" unicode="&#x2d8;" horiz-adv-x="322" 
d="M56 488q12 24 24 32.5t20.5 6t10.5 -14.5t-7 -28q-13 -25 -10 -41t26 -16q12 0 26.5 4.5t28 12t25 18t17.5 22.5q9 17 21.5 26t22 9.5t13 -7t-5.5 -24.5q-12 -22 -32 -41t-44 -33.5t-49.5 -23t-47.5 -8.5q-44 0 -53 31t14 75z" />
    <glyph glyph-name="hungarumlaut" unicode="&#x2dd;" horiz-adv-x="464" 
d="M48 458q9 3 34.5 17t55 29t56 26.5t36.5 11.5q16 0 17 -9.5t-7 -23t-21.5 -27t-26.5 -20.5q-12 -7 -30.5 -11.5t-38 -7.5t-37 -4.5t-26.5 -1.5q-23 0 -25 7.5t13 13.5zM229 458q9 3 34.5 17t55 29t56 26.5t36.5 11.5q16 0 17 -9.5t-7 -23t-21.5 -27t-26.5 -20.5
q-12 -7 -30.5 -11.5t-38 -7.5t-37 -4.5t-26.5 -1.5q-23 0 -25 7.5t13 13.5z" />
    <glyph glyph-name="cedilla" unicode="&#xb8;" horiz-adv-x="208" 
d="M114 152q8 9 15.5 9.5t12.5 -3.5t6.5 -10.5t-1.5 -11.5q-7 -10 -19 -17t-14 -17q0 -5 13.5 -10.5t27.5 -14.5t21 -24t-8 -39q-14 -24 -39 -26.5t-49.5 6.5t-44.5 24t-23 26t-0.5 18t8 9t12 0t9.5 -9q3 -8 10 -13t14 -7.5t13.5 -0.5t9.5 9t0.5 11.5t-8 8.5t-11.5 7.5
t-10 8.5q-3 5 2 13t14 17t20 18t19 18z" />
    <glyph glyph-name="ogonek" unicode="&#x2db;" horiz-adv-x="197" 
d="M154 137q-10 -6 -29.5 -16.5t-38.5 -22.5t-32 -25t-8 -25q4 -8 10 -7.5t12.5 5.5t12 12.5t8.5 12.5q4 6 12.5 3t17 -10.5t13 -18t0.5 -19.5q-3 -10 -16 -21.5t-30.5 -16t-37 2.5t-36.5 35q-14 24 1 45.5t41 39.5t53 30t37 16q20 7 25.5 -1t-15.5 -19z" />
    <glyph glyph-name="quotesingle" unicode="'" horiz-adv-x="3" 
d="M189 405q3 5 11 18.5t18.5 31t22 36.5t22.5 36t20.5 29.5t15.5 15.5q13 9 19 1t6 -23t-4 -34t-11 -32q-6 -12 -19.5 -25.5t-29 -26.5t-29.5 -23.5t-22 -15.5q-20 -13 -25 -7t5 19z" />
    <glyph glyph-name="quotedbl" unicode="&#x22;" horiz-adv-x="206" 
d="M159 405q3 5 11 18.5t18.5 31t22 36.5t22.5 36t20.5 29.5t15.5 15.5q13 9 19 1t6 -23t-4 -34t-11 -32q-6 -12 -19.5 -25.5t-29 -26.5t-29.5 -23.5t-22 -15.5q-20 -13 -25 -7t5 19zM249 405q3 5 11 18.5t18.5 31t22 36.5t22.5 36t20.5 29.5t15.5 15.5q13 9 19 1t6 -23
t-4 -34t-11 -32q-6 -12 -19.5 -25.5t-29 -26.5t-29.5 -23.5t-22 -15.5q-20 -13 -25 -7t5 19z" />
    <glyph glyph-name="quotedblright" unicode="&#x201d;" horiz-adv-x="206" 
d="M159 405q3 5 11 18.5t18.5 31t22 36.5t22.5 36t20.5 29.5t15.5 15.5q13 9 19 1t6 -23t-4 -34t-11 -32q-6 -12 -19.5 -25.5t-29 -26.5t-29.5 -23.5t-22 -15.5q-20 -13 -25 -7t5 19zM249 405q3 5 11 18.5t18.5 31t22 36.5t22.5 36t20.5 29.5t15.5 15.5q13 9 19 1t6 -23
t-4 -34t-11 -32q-6 -12 -19.5 -25.5t-29 -26.5t-29.5 -23.5t-22 -15.5q-20 -13 -25 -7t5 19z" />
    <glyph glyph-name="quotedblleft" unicode="&#x201c;" horiz-adv-x="206" 
d="M381 566q-5 -8 -19.5 -33t-31.5 -53t-33.5 -52t-25.5 -29q-13 -9 -19 -1t-6 23t4 33.5t11 32.5q6 12 19.5 25.5t29 26.5t29.5 23.5t22 15.5q20 13 25 7t-5 -19zM291 566q-5 -8 -19.5 -33t-31.5 -53t-33.5 -52t-25.5 -29q-13 -9 -19 -1t-6 23t4 33.5t11 32.5
q6 12 19.5 25.5t29 26.5t29.5 23.5t22 15.5q20 13 25 7t-5 -19z" />
    <glyph glyph-name="quoteleft" unicode="&#x2018;" horiz-adv-x="118" 
d="M291 566q-5 -8 -19.5 -33t-31.5 -53t-33.5 -52t-25.5 -29q-13 -9 -19 -1t-6 23t4 33.5t11 32.5q6 12 19.5 25.5t29 26.5t29.5 23.5t22 15.5q20 13 25 7t-5 -19z" />
    <glyph glyph-name="quoteright" unicode="&#x2019;" horiz-adv-x="118" 
d="M163 415q3 5 11 18.5t18.5 31t22 36.5t22.5 36t20.5 29.5t15.5 15.5q13 9 19 1t6 -23t-4 -34t-11 -32q-6 -12 -19.5 -25.5t-29 -26.5t-29.5 -23.5t-22 -15.5q-20 -13 -25 -7t5 19z" />
    <glyph glyph-name="comma" unicode="," horiz-adv-x="169" 
d="M-47 -32q4 5 11.5 18.5t18 31t22 36.5t22.5 36t20.5 29.5t15.5 15.5q13 9 22 3t13 -19t3 -30t-8 -30q-6 -12 -23 -27.5t-35.5 -30.5t-36 -27.5t-25.5 -17.5q-20 -13 -25 -7t5 19z" />
    <glyph glyph-name="period" unicode="." horiz-adv-x="200" 
d="M2 55q2 7 9 17.5t16.5 21.5t20 20t20.5 12q37 7 54.5 3t20 -14t-6.5 -23.5t-24.5 -27t-34 -24.5t-34.5 -15q-22 -2 -32.5 8.5t-8.5 21.5z" />
    <glyph glyph-name="hyphen" unicode="-" horiz-adv-x="337" 
d="M117 163q9 1 35.5 1.5t56 0.5t55.5 -0.5t36 -1.5t11.5 -6.5t-4 -12t-16.5 -13t-26 -10.5q-13 -3 -37.5 -4.5t-50 -1.5t-48 1.5t-31.5 4.5q-11 3 -12.5 9.5t3 13.5t12.5 12.5t16 6.5z" />
    <glyph glyph-name="macron" unicode="&#xaf;" horiz-adv-x="296" 
d="M44 495q9 1 35.5 1.5t56 0.5t55.5 -0.5t36 -1.5q21 -2 19 -13t-31 -19q-13 -3 -37.5 -4.5t-50 -1.5t-48 1.5t-31.5 4.5q-23 7 -21.5 18.5t17.5 13.5z" />
    <glyph glyph-name="slash" unicode="/" horiz-adv-x="493" 
d="M-9 -19q1 3 24 20t59 42.5t82.5 56.5t95 63.5t96 63.5t85.5 55t63.5 39t30.5 16q16 3 32 3.5t26.5 -2t13 -8.5t-9.5 -16q-3 -2 -28.5 -18.5t-65.5 -41t-89.5 -55.5t-102 -63t-102.5 -62.5t-90.5 -54t-67 -38t-31.5 -14.5q-22 1 -24 2t3 12z" />
    <glyph glyph-name="fraction" unicode="&#x2044;" horiz-adv-x="500" 
d="M-60 -3q1 3 24 20t59 42.5t82.5 56.5t95 63.5t96 63.5t85.5 55t63.5 39t30.5 16q16 3 32 3.5t26.5 -2t13 -8.5t-9.5 -16q-3 -2 -28.5 -18.5t-65.5 -41t-89.5 -55.5t-102 -63t-102.5 -62.5t-90.5 -54t-67 -38t-31.5 -14.5q-22 1 -24 2t3 12z" />
    <glyph glyph-name="percent" unicode="%" horiz-adv-x="500" 
d="M82 266q0 34 24 58t58 24t58 -24t24 -58t-24 -58t-58 -24t-58 24t-24 58zM107 266q0 -24 16.5 -40.5t40.5 -16.5t40.5 16.5t16.5 40.5t-16.5 40.5t-40.5 16.5t-40.5 -16.5t-16.5 -40.5zM224 72q0 34 24 58t58 24t58 -24t24 -58t-24 -58t-58 -24t-58 24t-24 58zM249 72
q0 -24 16.5 -40.5t40.5 -16.5t40.5 16.5t16.5 40.5t-16.5 40.5t-40.5 16.5t-40.5 -16.5t-16.5 -40.5zM-60 -3q1 3 24 20t59 42.5t82.5 56.5t95 63.5t96 63.5t85.5 55t63.5 39t30.5 16q16 3 32 3.5t26.5 -2t13 -8.5t-9.5 -16q-3 -2 -28.5 -18.5t-65.5 -41t-89.5 -55.5
t-102 -63t-102.5 -62.5t-90.5 -54t-67 -38t-31.5 -14.5q-22 1 -24 2t3 12z" />
    <glyph glyph-name="perthousand" unicode="&#x2030;" horiz-adv-x="500" 
d="M-60 -3q1 3 24 20t59 42.5t82.5 56.5t95 63.5t96 63.5t85.5 55t63.5 39t30.5 16q16 3 32 3.5t26.5 -2t13 -8.5t-9.5 -16q-3 -2 -28.5 -18.5t-65.5 -41t-89.5 -55.5t-102 -63t-102.5 -62.5t-90.5 -54t-67 -38t-31.5 -14.5q-22 1 -24 2t3 12zM224 72q0 34 24 58t58 24
q10 0 19.5 -2.5t17.5 -6.5q8 4 17 6.5t20 2.5q34 0 58 -24t24 -58t-24 -58t-58 -24q-11 0 -20 2.5t-17 6.5q-8 -4 -17.5 -6.5t-19.5 -2.5q-34 0 -58 24t-24 58zM82 266q0 34 24 58t58 24t58 -24t24 -58t-24 -58t-58 -24t-58 24t-24 58zM107 266q0 -24 16.5 -40.5t40.5 -16.5
t40.5 16.5t16.5 40.5t-16.5 40.5t-40.5 16.5t-40.5 -16.5t-16.5 -40.5zM388 72q0 -17 -6 -31t-16 -25q4 -1 14 -1q24 0 40.5 16.5t16.5 40.5t-16.5 40.5t-40.5 16.5q-6 0 -14 -2q10 -11 16 -25t6 -30zM298 72q0 33 22 55q-4 1 -7 1.5t-7 0.5q-24 0 -40.5 -16.5t-16.5 -40.5
t16.5 -40.5t40.5 -16.5q9 0 14 1q-22 24 -22 56zM323 72q0 -29 20 -44q20 17 20 44q0 26 -20 44q-20 -17 -20 -44z" />
    <glyph glyph-name="ampersand" unicode="&#x26;" horiz-adv-x="461" 
d="M296 186q9 2 27.5 9.5t42 18t49.5 22t51 22t46.5 19t35.5 12.5q10 3 13.5 -7t2 -23t-8 -25t-16.5 -15l-107 -27q-19 -31 -59 -66t-89 -61.5t-102 -38.5t-98 4q-24 8 -39.5 26.5t-20 42t4.5 50.5t34 51.5t68.5 45.5t109.5 33q-36 20 -34.5 54t31 67t82 58t119.5 28
q40 2 75 -7t56 -26t23.5 -40t-22.5 -48q-10 -10 -18.5 -12t-14 1t-5.5 9.5t7 13.5q15 14 7 31t-41 17q-31 0 -68.5 -9.5t-72 -24.5t-60.5 -32t-34.5 -32t6 -25.5t62.5 -11.5q14 1 29 1.5t31 0.5t22.5 -4.5t5.5 -10t-9.5 -10t-23.5 -4.5h-4q-1 -1 -3 -1q-14 -2 -25.5 -2
h-22.5q-52 -6 -90 -20.5t-63.5 -33.5t-39 -40t-16.5 -40t3.5 -33t21.5 -19q22 -8 50.5 -1.5t57.5 22t56 37t48 42.5l-75 -19q-8 -2 -12.5 1.5t-4 9t5.5 11.5t15 9z" />
    <glyph glyph-name="OE" unicode="&#x152;" horiz-adv-x="1305" 
d="M1191 114q10 13 19 18t14 3t4.5 -10.5t-9.5 -22.5q-20 -36 -62.5 -72.5t-98 -68.5t-120.5 -57t-132 -38.5t-131.5 -13t-118.5 19.5q-26 9 -47 25t-36 36q-43 -25 -88.5 -43.5t-91.5 -27t-90.5 -6t-86.5 19.5q-51 21 -75.5 58.5t-27.5 86t14.5 105t50.5 115.5t79.5 117.5
t102.5 110.5q50 46 100.5 85t104.5 69q-24 1 -49 2t-52 1q-17 0 -25.5 4.5t-8.5 10.5t8.5 10.5t25.5 4.5q42 0 79.5 -1.5t70.5 -5.5q64 31 127.5 48t126.5 17q44 0 70 -16t36.5 -40t7 -52t-18.5 -52q56 44 137.5 74t183.5 35q89 4 134.5 -6t61.5 -24t9 -28t-23.5 -18
t-36 6.5t-27.5 44.5q-62 7 -122.5 -4.5t-114 -34.5t-97.5 -55t-71 -66t-35 -67t9.5 -58t64 -39t128.5 -10h5q26 1 53 1.5t56 0.5q28 0 39.5 -4t9.5 -8.5t-17.5 -8.5t-41.5 -4q-135 0 -240.5 -24.5t-183 -62t-126 -83t-68.5 -87t-11.5 -74.5t45.5 -46q40 -15 93.5 -14.5
t112 12.5t118 33.5t113.5 49.5t98.5 61t71.5 68zM121 -86q30 -18 67.5 -19t80 11t88 36t89.5 55q-5 31 5.5 65t40 67t79.5 63.5t125 54.5q28 36 50.5 72.5t35 71.5t12.5 67.5t-18 60.5t-56.5 49.5t-102.5 35.5q-69 -35 -142.5 -86.5t-137.5 -116.5q-44 -46 -85 -95.5
t-74 -98.5t-56 -95t-32.5 -84.5t-2.5 -68t34 -45.5zM789 669q-23 0 -56 -13t-75 -32q54 -14 92.5 -34t61.5 -45q3 2 4.5 4t5.5 4q12 11 19.5 30.5t6 38.5t-15 33t-43.5 14zM827 311q-5 -9 -9 -18t-9 -18q19 4 38.5 7t39.5 6q-18 5 -33 10t-27 13z" />
    <glyph glyph-name="oe" unicode="&#x153;" horiz-adv-x="440" 
d="M419 294q34 0 51.5 -13.5t21 -30.5t-4.5 -32t-24 -18q-15 -3 -24 2.5t-12 14t-0.5 18.5t10.5 18q-20 7 -38.5 -4t-29 -27t-11 -30.5t15.5 -14.5q12 0 15 -5t-1 -12t-15 -13t-27 -7q-32 -2 -60.5 -18.5t-45.5 -35t-20 -34.5t15 -18q19 -2 50 5t65 19.5t67 29t56 33.5
q16 12 25.5 13.5t10.5 -4t-6 -16.5t-23 -23q-20 -15 -51.5 -32t-67 -31t-72 -22t-67.5 -6q-29 2 -48 10t-29 19q-56 -29 -103 -29q-26 0 -44 11t-22 32t9.5 52t51.5 72q14 15 43 38.5t65 44t75 33.5t74 8q16 -3 26 -22q19 11 43.5 18t55.5 7zM62 33q13 0 31.5 6.5t40.5 17.5
q-2 30 33 63t101 52q-6 40 23 72q-12 2 -31.5 -4t-44.5 -20t-52.5 -35.5t-55.5 -49.5q-42 -43 -55 -72.5t10 -29.5z" />
    <glyph glyph-name="parenright" unicode=")" horiz-adv-x="413" 
d="M-73 -106q-19 0 -24.5 3.5t-3.5 8t9 8.5t14 4q32 0 67.5 21.5t72 59t73 87t71.5 106.5q34 57 62.5 107t42.5 87.5t10 59t-36 21.5q-15 0 -19.5 3.5t-0.5 8t14 8t25 3.5q43 0 65 -17t22 -53t-23 -92.5t-71 -135.5q-37 -62 -83.5 -116t-96 -94.5t-98.5 -64t-92 -23.5z" />
    <glyph glyph-name="parenleft" unicode="(" horiz-adv-x="334" 
d="M466 490q19 0 24.5 -4t3.5 -8.5t-9 -8t-14 -3.5q-32 0 -67.5 -21.5t-72 -59t-73.5 -87t-71 -106.5t-62.5 -107t-42.5 -87.5t-10 -59t36 -21.5q15 0 19.5 -3.5t0.5 -8t-14 -8t-25 -3.5q-43 0 -65 16.5t-22 52.5t23 92.5t71 136.5q37 61 83.5 115.5t96 95t98.5 64t92 23.5z
" />
    <glyph glyph-name="bracketleft" unicode="[" horiz-adv-x="334" 
d="M466 490q19 0 24.5 -4t3.5 -8.5t-9 -8t-14 -3.5q-38 0 -64.5 -5t-47 -17.5t-37 -33t-35.5 -51t-42.5 -72t-57.5 -95.5q-49 -85 -79.5 -138.5t-41 -84t-0.5 -41.5t42 -11q15 0 19.5 -3.5t0.5 -8t-14 -8t-25 -3.5q-57 0 -85 6.5t-27.5 36t30.5 89t89 166.5q44 78 74.5 131
t56 86t48 50t49 23.5t60.5 7t82 0.5z" />
    <glyph glyph-name="bracketright" unicode="]" horiz-adv-x="410" 
d="M-70 -106q-19 0 -24.5 3.5t-3.5 8t9 8.5t14 4q38 0 64.5 5t47 17.5t37 33t35.5 51t42.5 71.5t57.5 96q49 85 79.5 138.5t41 84t0.5 41.5t-42 11q-15 0 -19.5 3.5t-0.5 8t14 8t25 3.5q57 0 85 -6.5t27.5 -36t-30.5 -89.5t-89 -166q-44 -78 -74.5 -131t-56 -86t-48 -50
t-49 -23.5t-60.5 -7t-82 -0.5z" />
    <glyph glyph-name="backslash" unicode="\" horiz-adv-x="261" 
d="M294 -151q-3 1 -19 24.5t-40.5 60.5t-54 84.5t-60 97.5t-60 98t-52 87t-36.5 65t-15 31q-2 16 -2 32t3 26.5t9 12.5t15 -10q2 -3 17.5 -29t39 -66.5t52.5 -91.5t59 -104t59 -104.5t51 -93t35.5 -68.5t13.5 -32q-2 -21 -3 -23t-12 3z" />
    <glyph glyph-name="plus" unicode="+" horiz-adv-x="431" 
d="M154 115q-19 1 -34 2.5t-22 3.5q-11 3 -12.5 9.5t3 13.5t12.5 12.5t16 6.5t25.5 1t40.5 1q14 24 27 45t19 29q6 9 11 7.5t8 -9.5t3 -21t-4 -28l-9 -23q21 0 37.5 -0.5t24.5 -1.5q10 -1 11.5 -6.5t-4 -12t-16.5 -13t-26 -10.5q-9 -2 -22.5 -3t-30.5 -2q-14 -24 -28 -44.5
t-21 -27.5q-9 -8 -15 -6t-10 9t-4.5 17t2.5 17z" />
    <glyph glyph-name="asterisk" unicode="*" horiz-adv-x="244" 
d="M137 255q2 2 5.5 5t8.5 8q-24 2 -34 5q-11 3 -12.5 9.5t3 13.5t12.5 12.5t16 6.5q5 0 17 0.5t28 0.5q-6 11 -10.5 18.5t-8.5 11.5q-15 14 -3.5 18t39.5 -9q14 -9 24 -26q18 15 33.5 26.5t22.5 16.5q9 6 13 3t4 -11.5t-4.5 -21t-13.5 -25.5q14 -1 25.5 -1t16.5 -1
q10 -1 11.5 -6.5t-4 -12t-16.5 -13t-26 -10.5q-6 -2 -14.5 -2.5t-19.5 -1.5q10 -28 17 -38q6 -10 6 -16t-4.5 -8.5t-11.5 -1.5t-13 6q-6 4 -14.5 16t-17.5 29q-20 -17 -37.5 -29t-25.5 -16q-11 -5 -16.5 -0.5t-6 12.5t2 17t8.5 15z" />
    <glyph glyph-name="dollar" unicode="$" horiz-adv-x="890" 
d="M69 481l127 27l-5 17l19 6l-4 19l19 4l-2 20l19 2v19h17l2 17l19 -2l3 19l21 -3l4 18l19 -5l7 18l19 -8l10 18l17 -9l10 17l17 -12l13 16l15 -12l13 13l13 -12l12 11l12 -14l17 11l11 -18l18 10l9 -16l17 7l8 -19l20 6l6 -18l18 4l4 -20l21 2v-12l190 41v-233l-87 -19
l2 -2l-11 -12l11 -13l-15 -13l11 -16l-18 -11l11 -17l-17 -10l7 -17l-19 -8l7 -20l-18 -6l3 -18l-20 -4l2 -21l-19 -1v-19h-16l-3 -18l-18 2l-4 -18l-20 3l-6 -19l-18 6l-6 -19l-20 8l-9 -18l-17 9l-11 -16l-17 11l-12 -15l-15 12l-14 -13l-12 12l-13 -12l-12 15l-16 -11
l-12 17l-17 -9l-9 16l-18 -7l-8 19l-19 -6l-6 18l-19 -4l-4 19l-20 -1l-2 19h-19v17l-17 2l2 19l-19 3l4 20l-20 5l6 19l-13 4l-116 -24v233zM575 425q2 1 4.5 2.5t4.5 3.5l11 10q-1 -1 -1 -2q0 -4 2 -8t7 -4q4 0 9 2.5t9 5.5l10 7q4 3 7 7l6 5q-1 0 -1 -2v-3v-3
q-1 -1 -1 -2q0 -9 8 -9q2 0 4 1l3 2l10 6l23 20l-2 -6q-2 -3 -2 -9v-2q3 -3 5 -3q1 0 4.5 1.5t5.5 3.5l10 9q3 2 6.5 5.5l7.5 7.5l8 10q1 0 1 1q-1 1 -2 1t-3 -2l-2 -2l-10 -12l-3 -3l-3 -3l-7 -6l-7 -4l-1 -1q-1 0 -2 1l5 7q0 2 4 6l3 5q2 2 2 2.5t1 2.5l30 44q5 5 6 8
l25 27q5 5 8.5 10t7.5 10l5 8v4q-1 1 -4 1q-2 0 -7.5 -2t-8.5 -5l-4 -4q-6 -4 -10 -8l-8 -9q-7 -6 -14.5 -17t-13.5 -22l-13 -21l-12 -23q-1 0 -1 -1l-6 -6q-2 -3 -4.5 -5t-4.5 -5l-9 -8l-8 -6h-2l-4 -2l-1 -1l-1 1l5 9q2 6 7.5 13.5t10.5 14.5l10 16q1 1 3 5h1q-2 0 1 1.5
t3 3.5q0 3 -3 3l-5 -2l-13 -8l-3.5 -3.5l-3.5 -3.5q0 9 -9 9t-19 -5.5t-19 -13.5t-16 -17.5t-9 -16.5q-1 0 -4 -3.5t-7 -7.5t-9 -7.5t-10 -3.5h-2v1l6 9l16 19q2 3 4.5 6.5t4.5 7.5l4 8q1 1 1 5q0 7 -4 7q-3 0 -4 -1l-12 -6q-3 -3 -7.5 -6.5t-7.5 -5.5l-10 -10
q-2 -2 -4.5 -4t-4.5 -5l-10 -10l2 2l24 34q0 1 1 3t1 3l-2 3q-1 0 -1.5 0.5t-1.5 0.5t-2 -0.5t-2 -0.5l-8 -5l-2 -2v-1l-39 -66q-1 -1 -1 -4h3h4l4 3q0 4 3 4l3 2q0 2 1 3l18 20l18 19l14 14q1 0 5 4l10 5h1l-3 -3q-2 -2 -4 -3l-8 -10q-4 -4 -7 -8t-5 -9l-7 -10
q-4 -6 -4 -13t5 -7q8 0 19 7zM393 384q20 5 30 20l4 8q2 4 2 9v8q0 5 -1 7l-6 11q0 2 -1 3t-2 3v2q1 1 1 2h-5q-2 -2 -3.5 -3t-3.5 -3l-3 -7l-18 -23l-4 -8l-1 -1q-1 0 -2 -1l-5 -8l-17 -18q-2 -2 -5.5 -3.5t-6.5 -1.5h-1l1 1l4 5l6 9q3 1 3 4l5 7l6 14q1 2 1 6q-1 1 -1 4
l-1 2q0 2 -1 3v10l3 5v3q0 4 -5 4q-10 0 -14.5 -6t-4.5 -10q0 -3 1 -5l2 -1q0 -1 1 -2l-5 -6l-20 -25q-1 0 -3 -2l-1 -2l-5 -7q-7 -6 -19 -16.5t-26 -10.5q-6 0 -6 6v1q0 2 1 3l7 12q4 -2 6 -2q15 0 32 14l7 7q3 3 5 7l3 7q0 8 -4.5 9.5t-9.5 1.5q-19 -6 -38 -18.5
t-24 -35.5v-8q2 -9 11 -9q11 1 23 5t23 15l19 18q0 4 3 4l1 3l15 17q3 3 5 5.5t4 4.5l4 -4q1 -1 1 -3q0 -3 -3 -4l-7 -8l-13 -19l-2 -8q-1 -1 -1 -4v-3q1 -4 6 -4q2 0 4 0.5t4 0.5l7 5q5 4 12.5 10.5t10.5 11.5l4 5l4 5q1 0 1 2l16 21q0 -4 1.5 -7t1.5 -6l1 -3q-3 -2 -6 -3
t-5 -3l-9 -7q-5 -5 -6.5 -9.5t-1.5 -7.5q2 -4 5.5 -4.5t8.5 -0.5zM442 416q-1 -1 -1 -5q0 -13 11 -13h1h6l6 2l6 2l13 7l19 17l12 18l2 8q0 2 0.5 2.5t0.5 1.5q0 3 -2 6q-2 2 -4.5 4t-8.5 2q-7 0 -14 -3l-18 -10q-3 -2 -5.5 -4t-4.5 -4l-9 -9l-5 -9q-3 -4 -5 -13zM131 -11
q-5 5 -7.5 12.5t-2.5 15.5q0 4 1.5 10.5t5 12.5t10.5 10.5t18 4.5h3q7 0 17.5 -6t10.5 -18h-15q0 4 -5 8t-10 4q-2 0 -4 -1h-3l-7 -5q-7 -7 -7 -20t5 -18t13 -7h2q5 0 11.5 3.5t6.5 11.5h-17v14h30v-40h-9l-2 9q-5 -8 -11.5 -9.5t-12.5 -1.5t-12 3t-9 7zM857 -94q3 -2 3 -8
v-37h-14v32q0 11 -8 11q-9 0 -9 -11v-32h-14v32q0 4 -1.5 7.5t-7.5 3.5q-9 0 -9 -10v-33h-14v53h13v-8q7 10 16 10q11 0 15 -9q4 9 15 9q13 0 15 -10zM369 -87q2 -2 4.5 -5.5t2.5 -9.5v-37h-13v32q0 11 -8 11q-10 0 -10 -11v-32h-14v37q0 6 -9 6q-3 0 -6 -2.5t-3 -7.5v-33
h-13v53h13v-8q6 10 16 10t15 -9q3 9 14 9q5 0 11 -3zM767 -91q6 -6 6 -22q0 -11 -6.5 -19t-20.5 -8q-13 0 -20 8t-7 19q0 7 4.5 18t22.5 11q11 0 21 -7zM568 29q3 -4 5 -8t2 -14t-6 -18.5t-21 -8.5q-14 0 -20.5 8.5t-6.5 18.5q0 9 5 18.5t22 9.5q5 0 11 -0.5t9 -5.5z
M103 -86h14l-15 -53h-15l-8 39l-8 -39h-15l-15 53h15l8 -38l7 38h15l8 -38zM272 -86l-15 -53h-14l-9 39l-9 -39h-14l-14 53h14l9 -38l7 38h15l7 -38l8 38h15zM180 -86h15l-16 -53h-14l-9 39l-8 -39h-15l-14 53h14l9 -38l8 38h14l8 -38zM501 -86h14l-15 -53h-15l-8 39l-8 -39
h-15l-15 53h15l8 -38l8 38h14l8 -38zM130 314l5 5l8 10q1 2 4 5l30 41q2 4 4.5 7t4.5 7l10 15q4 6 11 16t7 15l-2 2q-1 0 -1 1q-4 0 -5 -1l-4 -2l-15 -19q-3 -3 -7 -9l-7 -9l-39 -58q-3 -5 -5.5 -10t-5.5 -10l-1 -2q0 -1 -0.5 -1.5t-0.5 -1.5v-1q0 -1 1 -2h4zM727 -19
q-3 -1 -7 -1q-17 0 -17 16q0 14 16 16l12 2q5 1 5 4q0 7 -8 7t-10 -8h-13q2 7 5 12.5t12 5.5h6q13 0 17.5 -4.5t4.5 -9.5v-35q0 -2 4 -2v-3h-16q-1 0 -1 1v1v1q0 1 -0.5 2t-0.5 2q-1 -3 -4 -5t-5 -2zM433 -134q0 -3 2 -3v-2h-15v2q-1 2 -1 5l-5 -5l-5 -2q-2 -1 -7 -1
q-6 0 -11.5 3t-5.5 12q0 15 16 17l13 2q4 2 4 4q0 7 -8 7q-9 0 -9 -8h-14q0 19 23 19q14 0 18 -5t4 -10v-29q0 -4 1 -6zM247 3h-37q0 -4 3 -8t10 -4q4 0 6.5 2t2.5 4h15q-5 -11 -12 -14t-12 -3q-26 0 -26 29q0 26 25 26q16 0 20.5 -9.5t4.5 -18.5v-4zM486 287q4 5 4 12
t-6.5 15t-20.5 8q-13 0 -19.5 -7.5t-6.5 -15.5q0 -11 8 -17t18 -6q14 0 23 11zM141 408q-1 -1 -1 -5q0 -5 6 -9l8 -2q2 0 9 0.5t5 2.5q0 1 -1 1h-3q-1 0 -2.5 -1t-3.5 -1q-6 0 -10.5 3t-4.5 8q0 3 1 6l3 6l8 9q11 11 23.5 15t23.5 9l13 3q5 1 13 1q5 0 10.5 -1t7.5 -4l4 -5
q1 -3 1 -9q0 -1 -2 -9l-5 -9q-4 -8 -10.5 -14t-14.5 -14l-11 -6l-18 -8q-4 0 -6 -1h-2q-1 0 -3.5 -1t-2.5 -3h1h2h3l15 5l24 10l23 15l18 18l6.5 13t2.5 10q0 7 -3.5 10.5t-8.5 5.5t-10.5 2.5t-9.5 0.5q-3 0 -14.5 -1.5t-26 -6.5t-29.5 -13.5t-24 -21.5zM624 -112
q5 -2 5 -10t-5.5 -13t-17.5 -5h-5q-11 0 -16 5.5t-5 12.5h14q0 -7 12 -7q3 0 6 0.5t3 4.5q0 2 -6 4l-13 3q-14 3 -14 15q0 5 3.5 11.5t17.5 6.5q20 0 22 -10l2 -8h-14q0 2 -0.5 4.5t-8.5 2.5t-8 -5q0 -3 5 -4l12 -3q6 -2 11 -5zM562 -86q5 -2 6.5 -6.5t1.5 -9.5v-37h-14v32
q0 6 -1.5 8.5t-7.5 2.5q-11 0 -11 -13v-30h-14v53h14v-8q6 10 16 10q4 0 10 -2zM631 28q3 -5 3 -10v-37h-14v32q0 11 -10 11t-10 -12v-31h-15v54h13v-8q5 8 17 8q7 0 9 -1zM385 -11q-2 -5 -7.5 -7t-8.5 -2q-8 0 -13.5 4.5t-5.5 14.5v36h14v-33q0 -10 9 -10q4 0 8 1.5t4 9.5
v32h13v-54h-13v8zM689 -96q-5 0 -8 -4.5t-3 -10.5q0 -17 11 -17q3 0 6 1.5t3 7.5h15q0 -21 -25 -21q-24 0 -24 27q0 11 5.5 20t18.5 9q8 0 16.5 -4.5t8.5 -15.5h-15q0 8 -9 8zM335 42q-2 0 -2 -2v-5h9v-10h-9v-44h-14v44h-7v10h7v4q0 15 16 15h7v-11h-4q-2 0 -3 -1zM507 35
h10v-10h-10v-44h-14v44h-8v10h8v4q0 15 15 15h7v-11h-3q-4 0 -5 -3v-5zM787 -19h-9q-5 0 -9.5 1.5t-4.5 9.5v33h-7v10h7v14h14v-14h9v-10h-9v-29q0 -5 5 -5l4 1v-11zM455 402q-3 1 -3 5q0 5 5 11t7 11l5 6l11 14l5 5t5 4l9 6q1 1 4 1l1 -1q2 -2 2 -4q0 -1 -2 -5l-5 -9
q0 -2 -3 -5l-3 -5q-2 -2 -3.5 -4.5t-3.5 -4.5l-16 -18q-2 -2 -6 -4.5t-9 -2.5zM272 49v-14h8v-10h-8v-29q0 -2 0.5 -3.5t5.5 -1.5l2 1v-11h-8q-14 0 -14 11v33h-7v10h7v14h14zM608 438q1 2 1.5 2.5t1.5 2.5l4 5q1 4 7 10l8 12l16 19l7 6q2 0 4 0.5t4 0.5l3 -1q0 -1 0.5 -1.5
t0.5 -2.5q-1 -2 -1 -3q-3 -3 -2 -3l-14 -21l-14 -15q-3 -2 -5 -5l-6 -4q-3 -2 -7 -5t-6 -3q-1 0 -2 1h-1q-1 1 -1 2q1 0 1 1t1 2zM671 -19h-10q-11 0 -13 5v39h-8v10h8v14h13v-14h10v-10h-10v-29q0 -5 6 -5l4 1v-11zM475 314q1 -3 2.5 -5t1.5 -10q0 -22 -16 -22q-8 0 -11 6
l-3 7q-1 2 -1 9v7l3 6q1 2 4 5.5t9 3.5q1 0 1.5 -0.5t1.5 -0.5zM425 -19h-14v73h14v-73zM449 -19h-13v73h13v-73zM407 321h-48v-2h2q8 0 8 -7v-26q0 -9 -8 -9h-2h48v18q-1 -2 -1 -3t-1 -3l-5 -7l-4 -2l-4 -2q-3 -1 -6 -1h-8l1 20q6 0 9 -3l2 -3q0 -1 1 -3t1 -4v29v-4l-3 -5
q-3 -5 -8 -5h-3v20h9h10l4 -4l5 -11h1v17zM557 321h-22v-2h4q1 -2 3 -4q1 -2 2 -3.5t1 -3.5v-19l-31 32h-17l1 -2q8 0 8 -6v-26q0 -10 -10 -10h23q-2 0 -4 1t-4 1l-3 4v6v26l37 -38h2v31q0 5 1.5 8t8.5 3v2zM352 297q-3 3 -6 3l-8 4l-6 1q-4 0 -9 1.5t-5 6.5q0 -2 -0.5 3
t10.5 5q10 0 14 -4.5t8 -11.5h2v15h-2q0 -3 -3 -3q-5 0 -9.5 2.5t-9.5 2.5q-3 0 -9 -2l-6 -4q-2 -4 -2 -7q0 -2 1.5 -4.5t3.5 -4.5l6 -2q0 -1 3 -1.5t6 -1.5l4 -1q4 -2 9 -3t5 -6q0 -4 -6 -8h-5q-5 0 -7 1l-9 4l-4 4q-2 3 -3.5 5t-1.5 5h-1v-20h1q0 5 6 5q1 0 2.5 -1t3.5 -1
l6 -2q2 -1 7 -1q8 0 17 9v9zM558 -3q3 3 3 10q0 17 -13 17t-13 -17q0 -15 13 -15q7 0 10 5zM756 -123q3 3 3 10t-2 12t-11 5q-8 0 -10 -5t-2 -12q0 -6 2 -10.5t10 -4.5q7 0 10 5zM660 317q0 2 3 2h3v2h-22v-2h3q5 0 5.5 -1t0.5 -3q0 1 -2 -5l-9 -12l-12 15q-1 1 -1 3v1
q0 2 3 2h4v2h-29l1 -2q9 0 11 -5l14 -18v-10q0 -9 -9 -9h-2h31h-3q-8 0 -8 9v10l14 19q2 2 4 2zM610 296h-1q0 1 -0.5 -2t-2.5 -7t-6 -7t-10 -3h-12v35q0 7 9 7h3v2h-31v-2h3q7 0 7 -7v-26q0 -9 -7 -9h-3h51v19zM305 321h-22v-2h5q7 0 7 -11v-16q0 -7 -4 -10l-6 -5h-7
q-4 0 -9.5 1.5t-5.5 11.5v22q0 5 2.5 6t5.5 1h4v2h-31l1 -2q9 0 9 -7v-22q0 -6 5 -11l7 -2q3 -1 10 -1q20 0 20 15v23l4 5h2h3v2zM289 392l-3 -1.5t-3 -0.5t-6 2l8 10l11 14q3 1 4 4l11 6q2 0 2 0.5t2 0.5q3 0 3 -3v-3l-3 -4q-2 -1 -5.5 -9t-15.5 -13zM408 416q0 -1 0.5 -2
t0.5 -2q-2 -6 -2 -10l-1 -4l-5 -5l-3 -2q-2 -3 -10 -3q-3 0 -5 2v4l5 9q4 5 9 9zM717 -4q0 -5 2.5 -5.5t4.5 -0.5h3q3 1 6 3t3 8v6q-2 -2 -5 -2l-7 -2q-2 0 -4.5 -1t-2.5 -6zM418 -113q-1 0 -2 -1t-3 -1l-7 -1l-5 -2q-2 -4 -2 -6q0 -6 7 -6h3q1 0 1 0.5t1 0.5l5 3q2 2 2 6v7
zM639 -124h15v-15h-15v15zM272 -124h15v-15h-15v15zM233 13q-2 5 -4 8.5t-7 3.5q-10 0 -11 -12h22zM752 536q-1 -2 -4 -5l13 18l19 27q-1 0 0.5 1.5t3.5 2.5v-1q0 -1 -2 -5l-6 -9q-1 -1 -1.5 -2t-1.5 -2l-16 -19z" />
    <glyph glyph-name="equal" unicode="=" horiz-adv-x="475" 
d="M68 127q6 1 27.5 1t51 0.5t62.5 0.5h62.5t51 -0.5t28.5 -1.5q10 -1 11.5 -6.5t-4 -12t-16.5 -13t-26 -10.5q-9 -2 -30.5 -3.5t-49 -2t-58 -0.5t-57.5 1t-46.5 2t-25.5 3q-11 3 -12.5 9.5t3 13.5t12.5 12.5t16 6.5zM129 219q6 0 27.5 0.5t51 1t62.5 0.5h62.5t51 -0.5
t28.5 -1.5q10 -1 11.5 -6.5t-4 -12t-16.5 -13t-26 -10.5q-9 -2 -30.5 -3.5t-49 -2t-58 -0.5t-57.5 1t-46.5 2t-25.5 3q-11 3 -12.5 9.5t3 13.5t12.5 12.5t16 6.5z" />
    <glyph glyph-name="numbersign" unicode="#" horiz-adv-x="451" 
d="M38 -26q2 5 19 34.5t42 71.5q-40 2 -50 5q-11 3 -12.5 9.5t3 13.5t12.5 12.5t16 6.5q5 0 21.5 0.5t39.5 0.5q7 11 13.5 22t14.5 22q-37 2 -47 5q-11 3 -12.5 9.5t3 13.5t12.5 12.5t16 6.5q5 0 21 0.5t38 0.5q26 38 45 64t26 28q15 5 27.5 8t19.5 2.5t7 -6t-10 -16.5
q-4 -4 -19.5 -25.5t-37.5 -53.5h43q26 38 45 63.5t26 27.5q15 5 27.5 8t19.5 2.5t7 -6t-10 -16.5q-4 -4 -19.5 -25.5t-37.5 -53.5q24 -1 41.5 -1t23.5 -1q10 -1 11.5 -6.5t-4 -12t-16.5 -13t-26 -10.5q-8 -2 -24.5 -3t-39.5 -2l-31 -43q26 -1 44.5 -1t24.5 -1
q10 -1 11.5 -6.5t-4 -12t-16.5 -13t-26 -10.5q-8 -2 -26.5 -3t-42.5 -2q-16 -23 -31 -42.5t-27.5 -35t-21.5 -25.5t-13 -13q-9 -6 -13 -7t-5 1t0.5 6t2.5 10q2 5 19 34.5t42 70.5h-54q-16 -22 -31 -42t-27.5 -35t-21.5 -25t-13 -13q-9 -6 -13 -7t-5 1t0.5 6t2.5 10zM181 129
h49l27 42h-46z" />
    <glyph glyph-name="exclam" unicode="!" horiz-adv-x="205" 
d="M142 152q2 3 15.5 19t34.5 40.5t48 55t55 61.5t56 61t50.5 53.5t38.5 38.5t21 17q15 5 33 3.5t32 -7.5t20 -15.5t-4 -20.5q-4 -4 -31.5 -28.5t-67 -59t-85.5 -74t-86 -73.5t-69 -58t-34 -27q-14 -8 -23.5 -2.5t-3.5 16.5zM129 46q-2 -7 -9 -17.5t-16.5 -21.5t-20 -20
t-20.5 -12q-37 -7 -54.5 -3t-20 14t6.5 23.5t24.5 27t34 24.5t34.5 15q22 2 32.5 -8.5t8.5 -21.5z" />
    <glyph glyph-name="colon" unicode=":" horiz-adv-x="307" 
d="M2 55q2 7 9 17.5t16.5 21.5t20 20t20.5 12q37 7 54.5 3t20 -14t-6.5 -23.5t-24.5 -27t-34 -24.5t-34.5 -15q-22 -2 -32.5 8.5t-8.5 21.5zM139 234q2 7 9 17.5t16.5 21.5t20 20t20.5 12q37 6 54.5 2.5t20 -13.5t-6.5 -23.5t-24.5 -27t-34 -24.5t-34.5 -15
q-22 -2 -32.5 8.5t-8.5 21.5z" />
    <glyph glyph-name="semicolon" unicode=";" horiz-adv-x="310" 
d="M139 234q2 7 9 17.5t16.5 21.5t20 20t20.5 12q37 6 54.5 2.5t20 -13.5t-6.5 -23.5t-24.5 -27t-34 -24.5t-34.5 -15q-22 -2 -32.5 8.5t-8.5 21.5zM-47 -32q4 5 11.5 18.5t18 31t22 36.5t22.5 36t20.5 29.5t15.5 15.5q13 9 27.5 7t25 -10.5t15 -21.5t-2.5 -26
q-6 -12 -28.5 -31.5t-48 -39.5t-48 -36t-30.5 -21q-20 -13 -25 -7t5 19z" />
    <glyph glyph-name="question" unicode="?" horiz-adv-x="250" 
d="M129 46q-2 -7 -9 -17.5t-16.5 -21.5t-20 -20t-20.5 -12q-37 -7 -54.5 -3t-20 14t6.5 23.5t24.5 27t34 24.5t34.5 15q22 2 32.5 -8.5t8.5 -21.5zM204 462q12 24 45.5 48.5t79 44.5t98.5 33.5t105.5 16.5t100 -7t81.5 -38q53 -44 66 -77.5t-8 -62.5t-73.5 -56t-131 -58
t-179 -68.5t-218.5 -86.5q-11 -5 -20 -3t-12.5 6.5t-0.5 11t17 11.5q63 24 132.5 56t135 67t122.5 71t95 68t52.5 58.5t-4.5 42.5q-20 16 -57.5 20t-83 -1t-94.5 -17.5t-92 -28.5t-76 -34.5t-45 -34.5q-12 -15 0 -23t28 -8q22 0 25.5 -10t-15.5 -12q-18 0 -35.5 4t-28.5 13
t-14.5 22.5t5.5 31.5z" />
    <glyph glyph-name="less" unicode="&#x3c;" horiz-adv-x="328" 
d="M137 71q4 6 3.5 13.5t-7.5 12.5t-21.5 6.5t-37.5 -4.5q-10 -2 -11 6.5t4 20.5t15.5 23t22.5 13q18 6 39 13.5t42.5 14.5t41 14t33.5 12q20 7 25.5 0.5t-19.5 -17.5q-9 -4 -22 -8.5t-26.5 -9.5t-26 -9.5t-21.5 -7.5q10 0 20.5 -5t17 -15t7.5 -22.5t-9 -27.5t-23.5 -22
t-24.5 -9t-18 0.5t-4 7.5z" />
    <glyph glyph-name="greater" unicode="&#x3e;" horiz-adv-x="338" 
d="M200 209q-5 -6 -4 -13.5t8 -12.5t21.5 -6.5t37.5 4.5q10 2 11 -6.5t-4 -20.5t-15.5 -23t-22.5 -13q-18 -6 -39 -13.5t-42.5 -14.5t-41 -14t-33.5 -12q-20 -7 -25.5 -0.5t19.5 17.5q9 4 21.5 8.5t26 9.5t26.5 9.5t22 7.5q-10 0 -20.5 5t-17 15t-7.5 22.5t9 27.5t23.5 22
t24.5 9t18 -1t4 -7z" />
    <glyph glyph-name="guilsinglleft" unicode="&#x2039;" horiz-adv-x="328" 
d="M137 71q4 6 3.5 13.5t-7.5 12.5t-21.5 6.5t-37.5 -4.5q-10 -2 -11 6.5t4 20.5t15.5 23t22.5 13q18 6 39 13.5t42.5 14.5t41 14t33.5 12q20 7 25.5 0.5t-19.5 -17.5q-9 -4 -22 -8.5t-26.5 -9.5t-26 -9.5t-21.5 -7.5q10 0 20.5 -5t17 -15t7.5 -22.5t-9 -27.5t-23.5 -22
t-24.5 -9t-18 0.5t-4 7.5z" />
    <glyph glyph-name="guilsinglright" unicode="&#x203a;" horiz-adv-x="338" 
d="M200 209q-5 -6 -4 -13.5t8 -12.5t21.5 -6.5t37.5 4.5q10 2 11 -6.5t-4 -20.5t-15.5 -23t-22.5 -13q-18 -6 -39 -13.5t-42.5 -14.5t-41 -14t-33.5 -12q-20 -7 -25.5 -0.5t19.5 17.5q9 4 21.5 8.5t26 9.5t26.5 9.5t22 7.5q-10 0 -20.5 5t-17 15t-7.5 22.5t9 27.5t23.5 22
t24.5 9t18 -1t4 -7z" />
    <glyph glyph-name="guillemotleft" unicode="&#xab;" horiz-adv-x="437" 
d="M237 71q7 9 2 19.5t-27 12.5q-1 -3 -5 -9q-10 -15 -23.5 -22t-24.5 -9t-18 0.5t-4 7.5q4 6 3.5 13.5t-7.5 12.5t-21.5 6.5t-37.5 -4.5q-10 -2 -11 6.5t4 20.5t15.5 23t22.5 13q18 6 39 13.5t42.5 14.5t41 14t33.5 12q20 7 25.5 0.5t-19.5 -17.5q-9 -4 -22 -8.5
t-26.5 -9.5t-26 -9.5t-21.5 -7.5q11 0 22 -6q4 2 12 4q18 6 39 13.5t42.5 14.5t41 14t33.5 12q20 7 25.5 0.5t-19.5 -17.5q-9 -4 -22 -8.5t-26.5 -9.5t-26 -9.5t-21.5 -7.5q10 0 20.5 -5t17 -15t7.5 -22.5t-9 -27.5t-23.5 -22t-24.5 -9t-18 0.5t-4 7.5z" />
    <glyph glyph-name="guillemotright" unicode="&#xbb;" horiz-adv-x="457" 
d="M300 209q-5 -6 -4 -13.5t8 -12.5t21.5 -6.5t37.5 4.5q10 2 11 -6.5t-4 -20.5t-15.5 -23t-22.5 -13q-18 -6 -39 -13.5t-42.5 -14.5t-41 -14t-33.5 -12q-20 -7 -25.5 -0.5t19.5 17.5q9 4 21.5 8.5t26 9.5t26.5 9.5t22 7.5q-6 -1 -11.5 1t-11.5 5q-6 -4 -11 -4
q-18 -6 -39 -13.5t-42.5 -14.5t-41 -14t-33.5 -12q-20 -7 -25.5 -0.5t19.5 17.5q9 4 21.5 8.5t26 9.5t26.5 9.5t22 7.5q-10 0 -20.5 5t-17 15t-7.5 22.5t9 27.5t23.5 22t24.5 9t18 -1t4 -7q-7 -10 -2 -20.5t26 -12.5l6 10q10 15 23.5 22t24.5 9t18 -1t4 -7z" />
    <glyph glyph-name="plusminus" unicode="&#xb1;" horiz-adv-x="390" 
d="M154 115q-19 1 -34 2.5t-22 3.5q-11 3 -12.5 9.5t3 13.5t12.5 12.5t16 6.5t25.5 1t40.5 1q14 24 27 45t19 29q6 9 11 7.5t8 -9.5t3 -21t-4 -28l-9 -23q21 0 37.5 -0.5t24.5 -1.5q10 -1 11.5 -6.5t-4 -12t-16.5 -13t-26 -10.5q-9 -2 -22.5 -3t-30.5 -2q-14 -24 -28 -44.5
t-21 -27.5q-9 -8 -15 -6t-10 9t-4.5 17t2.5 17zM50 6q9 1 35.5 1.5t56 0.5t55.5 -0.5t36 -1.5t11.5 -6.5t-4 -12t-16.5 -13t-26 -10.5q-13 -3 -37.5 -4.5t-50 -1.5t-48 1.5t-31.5 4.5q-11 3 -12.5 9.5t3 13.5t12.5 12.5t16 6.5z" />
    <glyph glyph-name="degree" unicode="&#xb0;" horiz-adv-x="291" 
d="M122 330q0 34 24 58t58 24t58 -24t24 -58t-24 -58t-58 -24t-58 24t-24 58zM147 330q0 -24 16.5 -40.5t40.5 -16.5t40.5 16.5t16.5 40.5t-16.5 40.5t-40.5 16.5t-40.5 -16.5t-16.5 -40.5z" />
    <glyph glyph-name="Lslash" unicode="&#x141;" horiz-adv-x="802" 
d="M17 48q17 29 48 39t73 6.5t92.5 -18.5t106.5 -36q43 43 96 93q-24 -7 -41 -11.5t-22 -3.5q-12 0 -14 3t1.5 7t10.5 8.5t14 7.5q6 2 32 10t61 19q54 52 111 107.5t110 109t97.5 103t74.5 90t40.5 70t-4.5 42.5q-15 12 -47 15t-75 -1.5t-93 -15t-100.5 -24.5t-99 -30.5
t-88.5 -33.5t-67.5 -33t-36.5 -28q-6 -8 -5.5 -13.5t5 -9.5t12.5 -6t16 -2q21 0 25 -10t-15 -12q-19 0 -36.5 4t-28.5 13t-14 22.5t6 31.5t37.5 38.5t69 41t91 40t104.5 34.5t108.5 24.5t103.5 10.5t89 -7t66 -29q52 -44 43.5 -102t-56.5 -123.5t-123.5 -134t-157.5 -132.5
q33 10 57 16.5t30 7.5q10 2 12.5 -1t-2 -8.5t-14.5 -11.5t-24 -10q-11 -3 -42.5 -13t-71.5 -23q-59 -45 -112 -84t-94 -71q69 -27 142.5 -58t146 -57.5t142 -43.5t130.5 -17q14 0 11.5 -12t-18.5 -26t-44 -26t-65 -12q-73 0 -153 27.5t-160 66.5t-155 81t-137.5 70.5
t-108 36t-65.5 -23.5q-8 -12 -15.5 -15t-12 0t-5 12t7.5 21z" />
    <glyph glyph-name="lslash" unicode="&#x142;" horiz-adv-x="219" 
d="M208 114q19 12 28 13t9 -6t-9 -18.5t-28 -23.5q-19 -11 -44.5 -25t-53 -26t-54 -20t-47.5 -8q-31 0 -47.5 17.5t-1.5 46.5q12 24 43 60.5t72.5 78.5t89 87t93.5 86q-48 -9 -84 -15.5t-44 -5.5q-12 0 -14 3t1.5 7t10.5 8.5t14 7.5q4 1 18.5 4.5t36 8t48.5 10t56 11.5
q48 43 83.5 74.5t48.5 43.5q9 8 30.5 8.5t42.5 -4t34 -13t4 -18.5q-8 -8 -23 -22t-37 -34l30 6q10 2 12.5 -1t-2 -8.5t-14.5 -11.5t-24 -10q-5 -2 -16.5 -4.5t-27.5 -5.5q-34 -29 -73.5 -62.5t-80 -68.5t-80.5 -69.5t-74.5 -65t-60.5 -55.5t-39 -41q-6 -8 -5 -13.5t13 -3.5
q14 2 34.5 9.5t43.5 19t46 24.5t42 25z" />
    <glyph glyph-name="Zcaron" unicode="&#x17d;" horiz-adv-x="898" 
d="M1253 690q25 -27 -6 -77.5t-103.5 -115t-179.5 -137.5t-233.5 -146.5t-265.5 -141.5t-276 -121q53 1 114.5 -7.5t128 -22t136 -28t139 -24.5t137.5 -12.5t131 8.5q15 3 9 -9t-26.5 -29t-53 -34t-72.5 -24q-79 -14 -160.5 -2.5t-160.5 33.5t-151.5 48t-134.5 42
t-109.5 14.5t-75.5 -34.5q-11 -13 -20 -18t-13.5 -2.5t-2.5 11t13 22.5q17 22 40 35.5t50 21.5q56 19 136.5 59t173.5 92t192 112.5t192.5 121.5t175.5 119t140.5 104.5t87.5 78t16 40.5q-14 9 -52.5 6.5t-93.5 -14t-120.5 -29t-133.5 -39t-134 -45t-120 -46t-92 -42
t-51 -32.5q-9 -8 -12.5 -21t7.5 -21q8 -6 5 -15t-17 -5q-12 3 -23.5 15t-17.5 29t-3.5 38t18.5 43q21 30 66.5 57t107 51t134 43t146.5 33.5t144 23.5t127 11.5t96 -2t51 -16.5zM952 819q-6 0 -4.5 7t9.5 15.5t21.5 15.5t31.5 7t28 -8t14 -19t3 -22.5t-7 -19.5q7 6 18 14
t22.5 16.5t22.5 16.5t19 13q23 15 25.5 7t-14.5 -21q-12 -9 -28.5 -21.5t-34.5 -26t-36 -27.5t-33 -25q-8 -9 -23 -11t-27.5 0t-19.5 8t1 13q17 16 24 28.5t7 21.5t-6 13.5t-13 4.5z" />
    <glyph glyph-name="zcaron" unicode="&#x17e;" horiz-adv-x="411" 
d="M140 119q19 12 53.5 35t68.5 46.5t58.5 42t24.5 20.5q-1 2 -17.5 -6t-41 -18t-53 -18.5t-52.5 -8.5q-17 -13 -43 -31.5t-53 -37.5t-51 -35t-37 -24q-14 -9 -25.5 -11.5t-15.5 1t1 12.5t25 23t48 33t53 37q29 21 60 44q-9 14 -9.5 28t6 25.5t18.5 19t26 7.5t23 -7
t12.5 -17t1.5 -20.5t-9 -17.5q13 3 33 11.5t42.5 18t44.5 17.5t38 10q13 2 27.5 0.5t26.5 -5.5t19 -10.5t4 -14.5q-5 -16 -33 -41.5t-65.5 -53t-77.5 -55t-68 -47.5l-13 -9q6 -18 26 -22t49 4t66 27t77 48q16 11 26 13t12.5 -2t-2 -12.5t-16.5 -18.5q-45 -36 -88.5 -60
t-80 -33t-63.5 -1t-39 36q-47 -27 -84.5 -39t-51.5 3q-17 19 -1 47t58 55q18 11 36 15.5t26 -3.5zM344 489q-6 0 -4.5 7t9.5 15.5t21.5 15.5t31.5 7t28 -8t14 -19t3 -22.5t-7 -19.5q7 6 18 14t22.5 16.5t22.5 16.5t19 13q23 15 25.5 7t-14.5 -21q-12 -9 -28.5 -21.5
t-34.5 -26t-36 -27.5t-33 -25q-8 -9 -23 -11t-27.5 0t-19.5 8t1 13q17 16 24 28.5t7 21.5t-6 13.5t-13 4.5z" />
    <glyph glyph-name="at" unicode="@" horiz-adv-x="787" 
d="M452 495q50 16 99 23.5t90.5 7.5t71.5 -8.5t41.5 -25t2 -41.5t-46.5 -58q23 -33 30 -74.5t-2 -86.5t-32.5 -91t-61.5 -89q-38 -44 -101.5 -87t-136.5 -72.5t-146 -39.5t-131 14q-62 25 -84.5 80t-11.5 123t54 141.5t111 137.5q20 19 42 38t48 36t56.5 30t67.5 21
q-20 1 -39.5 2t-42.5 1q-14 0 -20.5 3.5t-6.5 8t6.5 8.5t20.5 4q68 0 122 -6zM463 44q10 0 27 6.5t37 16.5t41.5 23t41.5 26q39 49 66 101t26 99.5t-38.5 85t-127.5 57.5q-33 -6 -71 -22.5t-74.5 -39.5t-70.5 -50t-60 -53q-54 -56 -92.5 -118t-57.5 -117.5t-14.5 -98.5
t37.5 -62q32 -20 81 -15.5t105 25.5t112.5 55.5t103.5 74.5q-32 -17 -62.5 -27.5t-54.5 -10.5q-12 0 -22.5 4.5t-17.5 13t-9 20t4 26.5q6 16 28 46q-32 -25 -66 -48t-64 -38.5t-53.5 -20.5t-36.5 7q-17 16 -11 40.5t23 50.5t40 50t41 39q54 46 114 76t114 30q30 0 56.5 -9
t43.5 -24q9 -9 6 -14.5t-11 -7t-18 0.5t-15 9q-4 4 -15 10.5t-25 6.5q-17 0 -46 -16t-61.5 -40.5t-64.5 -53t-56 -53t-36 -40.5t-4 -16q9 0 33.5 16.5t57.5 41t70 53t69 53.5q12 13 33.5 16.5t40 0t28.5 -12.5t-1 -19q-26 -24 -52.5 -51t-46 -50t-28 -38t2.5 -15zM694 411
q25 22 32.5 37t2 24.5t-21 13t-37 3.5t-45.5 -4.5t-46 -10.5q45 -11 70.5 -27t44.5 -36z" />
    <glyph glyph-name="copyright" unicode="&#xa9;" horiz-adv-x="787" 
d="M452 495q50 16 99 23.5t90.5 7.5t71.5 -8.5t41.5 -25t2 -41.5t-46.5 -58q23 -33 30 -74.5t-2 -86.5t-32.5 -91t-61.5 -89q-38 -44 -101.5 -87t-136.5 -72.5t-146 -39.5t-131 14q-62 25 -84.5 80t-11.5 123t54 141.5t111 137.5q20 19 42 38t48 36t56.5 30t67.5 21
q-20 1 -39.5 2t-42.5 1q-14 0 -20.5 3.5t-6.5 8t6.5 8.5t20.5 4q68 0 122 -6zM694 411q25 22 32.5 37t2 24.5t-21 13t-37 3.5t-45.5 -4.5t-46 -10.5q45 -11 70.5 -27t44.5 -36zM597 100q28 33 51.5 68.5t37.5 71t16 69t-14 62.5t-52.5 51.5t-99.5 36.5q-33 -6 -71 -22.5
t-74.5 -39.5t-70.5 -50t-60 -53q-54 -56 -92.5 -118t-57.5 -117.5t-14.5 -98.5t37.5 -62q25 -15 61.5 -15.5t79 11t88 33t88.5 49t81 59.5t66 65zM529 260q17 -15 21 -31.5t-1.5 -29.5t-18.5 -20.5t-29 -3.5t-21 13t-3 18.5t9 17.5t16 12q-14 14 -52.5 -8t-82.5 -66
q-23 -22 -41 -44.5t-28 -41t-10.5 -30.5t11.5 -12q20 0 48 9t57 22.5t55.5 28.5t42.5 27q17 12 26.5 13t11 -4.5t-6 -16t-24.5 -22.5q-16 -12 -42 -27.5t-56.5 -30t-63.5 -24t-63 -9.5q-24 0 -47 9t-29.5 31t10 59.5t71.5 95.5q22 22 53 42.5t64 31.5t65.5 10.5t57.5 -19.5z
" />
    <glyph glyph-name="registered" unicode="&#xae;" horiz-adv-x="787" 
d="M452 495q50 16 99 23.5t90.5 7.5t71.5 -8.5t41.5 -25t2 -41.5t-46.5 -58q23 -33 30 -74.5t-2 -86.5t-32.5 -91t-61.5 -89q-38 -44 -101.5 -87t-136.5 -72.5t-146 -39.5t-131 14q-62 25 -84.5 80t-11.5 123t54 141.5t111 137.5q20 19 42 38t48 36t56.5 30t67.5 21
q-20 1 -39.5 2t-42.5 1q-14 0 -20.5 3.5t-6.5 8t6.5 8.5t20.5 4q68 0 122 -6zM597 100q28 33 51.5 68.5t37.5 71t16 69t-14 62.5t-52.5 51.5t-99.5 36.5q-33 -6 -71 -22.5t-74.5 -39.5t-70.5 -50t-60 -53q-54 -56 -92.5 -118t-57.5 -117.5t-14.5 -98.5t37.5 -62
q25 -15 61.5 -15.5t79 11t88 33t88.5 49t81 59.5t66 65zM220 81q-17 -10 -27 -11t-10.5 4.5t8.5 16t29 23.5q15 10 35.5 24t42 29t41.5 30t35 26q-2 1 -6 5q-8 7 -5.5 20t13 25t27 21t36.5 9q13 0 16 -7.5t0 -17.5t-9 -19.5t-12 -13.5q11 0 35 3t48 5q31 1 39.5 -17.5
t-15.5 -43.5q-14 -15 -37 -33t-49 -36.5t-50.5 -36t-42.5 -31t-25 -21.5t3 -8q11 0 34 8.5t50 22t54.5 28.5t48.5 29q18 12 27.5 13t9.5 -5.5t-9.5 -18t-27.5 -22.5q-19 -12 -44.5 -26t-53 -26.5t-54 -20.5t-47.5 -8q-12 0 -24 6t-18.5 16.5t-4.5 24.5t17 31q10 10 27.5 26
t37.5 34t41.5 37t39.5 37q5 4 3 6.5t-8 2.5q-8 -2 -15 -3t-14 -1q-13 -10 -37 -29t-52 -39t-55 -39t-46 -29zM694 411q25 22 32.5 37t2 24.5t-21 13t-37 3.5t-45.5 -4.5t-46 -10.5q45 -11 70.5 -27t44.5 -36z" />
    <glyph glyph-name="braceleft" unicode="{" horiz-adv-x="332" 
d="M433 490q19 0 24.5 -4t3.5 -8.5t-9 -8t-14 -3.5q-21 0 -39.5 -20.5t-36.5 -50.5t-38 -66t-44.5 -66t-55 -50.5t-70.5 -20.5q20 0 23.5 -12t-3 -31t-21 -44t-31 -50.5t-32 -50.5t-24 -44t-8 -31t16.5 -12q15 0 19.5 -3.5t0.5 -8t-14 -8t-25 -3.5q-45 0 -58 17t-7 43.5
t24 59t35 64t25.5 58.5t-3.5 42q-11 14 -5.5 16.5t17.5 7.5q35 13 62.5 39.5t52 58.5t47.5 66t50.5 61.5t60 45t76.5 17.5z" />
    <glyph glyph-name="braceright" unicode="}" horiz-adv-x="406" 
d="M-60 -106q-19 0 -24.5 3.5t-3.5 8t9 8.5t14 4q21 0 39.5 20.5t36.5 50.5t38 66t44.5 66t55 50.5t70.5 20.5q-20 0 -23.5 12t3 31t21 44t31 50.5t32 50.5t24 44t8 31t-16.5 12q-15 0 -19.5 3.5t-0.5 8t14 8t25 3.5q45 0 58 -17t7 -43.5t-24 -59t-35 -64t-26 -58.5t4 -42
q11 -14 5.5 -16.5t-17.5 -7.5q-35 -13 -62.5 -39.5t-52 -58.5t-47.5 -66t-50.5 -61.5t-60.5 -45t-76 -17.5z" />
    <glyph glyph-name="asciitilde" unicode="~" horiz-adv-x="387" 
d="M68 142q46 54 83.5 60.5t55.5 -27.5t33.5 -30t45.5 33q12 12 21.5 15t12.5 -1t-2 -14t-21 -25q-35 -32 -59.5 -46.5t-42.5 -16.5t-29.5 7.5t-19.5 26.5q-12 26 -26.5 22t-34.5 -24q-5 -5 -14.5 -9.5t-15 -4t-4.5 8t17 25.5z" />
    <glyph glyph-name="underscore" unicode="_" horiz-adv-x="368" 
d="M-17 -41q6 0 30 0.5t57.5 1t71 0.5h70.5t57 -0.5t31 -1.5q10 -1 11.5 -6.5t-4 -12t-16.5 -13t-26 -10.5q-9 -2 -33 -3.5t-55.5 -2t-66.5 -0.5t-65.5 1t-52.5 2t-28 3q-11 3 -12.5 9.5t3 13.5t12.5 12.5t16 6.5z" />
    <glyph glyph-name="endash" unicode="&#x2013;" horiz-adv-x="461" 
d="M117 163q6 0 29.5 0.5t56 1t69 0.5h69t56 -0.5t30.5 -1.5q10 -1 11.5 -6.5t-4 -12t-16.5 -13t-26 -10.5q-9 -2 -32.5 -3.5t-54 -2t-64.5 -0.5t-64 1t-51.5 2t-27.5 3q-11 3 -12.5 9.5t3 13.5t12.5 12.5t16 6.5z" />
    <glyph glyph-name="emdash" unicode="&#x2014;" horiz-adv-x="740" 
d="M117 163q6 0 50 0.5t106.5 1t134.5 0.5h135t106.5 -0.5t50.5 -1.5q10 -1 11.5 -6.5t-4 -12t-16.5 -13t-26 -10.5q-9 -2 -52.5 -3.5t-104.5 -2t-130.5 -0.5t-129.5 1t-102 2t-48 3q-11 3 -12.5 9.5t3 13.5t12.5 12.5t16 6.5z" />
    <glyph glyph-name="minus" unicode="&#x2212;" horiz-adv-x="411" 
d="M117 163q9 1 37.5 1.5t60.5 0.5t60.5 -0.5t38.5 -1.5t11.5 -6.5t-4 -12t-16.5 -13t-26 -10.5q-13 -3 -39.5 -4.5t-55 -1.5t-53 1.5t-33.5 4.5q-11 3 -12.5 9.5t3 13.5t12.5 12.5t16 6.5z" />
    <glyph glyph-name="divide" unicode="&#xf7;" horiz-adv-x="568" 
d="M115 55q2 7 9 17.5t16.5 21.5t20 20t20.5 12q37 7 54.5 3t20 -14t-6.5 -23.5t-24.5 -27t-34 -24.5t-34.5 -15q-22 -2 -32.5 8.5t-8.5 21.5zM252 234q2 7 9 17.5t16.5 21.5t20 20t20.5 12q37 6 54.5 2.5t20 -13.5t-6.5 -23.5t-24.5 -27t-34 -24.5t-34.5 -15
q-22 -2 -32.5 8.5t-8.5 21.5zM164 191q9 1 37.5 1.5t60.5 0.5t60.5 -0.5t38.5 -1.5t11.5 -6.5t-4 -12t-16.5 -13t-26 -10.5q-13 -3 -39.5 -4.5t-55 -1.5t-53 1.5t-33.5 4.5q-11 3 -12.5 9.5t3 13.5t12.5 12.5t16 6.5z" />
    <glyph glyph-name="multiply" unicode="&#xd7;" horiz-adv-x="384" 
d="M211 56q0 5 -3 18t-8 30q-35 -19 -64.5 -34t-39.5 -20q-14 -7 -18.5 -4.5t-3.5 10t6.5 17.5t13.5 17q8 6 34 22t59 35q-7 26 -12 47.5t-3 30.5q2 10 8 13.5t12.5 1t13.5 -10.5t10 -20q1 -6 4 -16t8 -22q38 22 70 40t42 25q11 8 15 6t1.5 -10.5t-11 -21.5t-21.5 -27
q-10 -10 -32 -24.5t-49 -30.5q8 -23 13 -43.5t1 -29.5q-5 -12 -12.5 -16t-14.5 -2.5t-12.5 7t-6.5 12.5z" />
    <glyph glyph-name="dagger" unicode="&#x2020;" horiz-adv-x="500" 
d="M336 467q7 1 24.5 1t39.5 1q35 30 65 55t53 43.5t37 29.5t17 12q15 5 30.5 8t26.5 2t14.5 -6.5t-6.5 -16.5q-3 -4 -44.5 -39t-105.5 -89q11 0 19 -0.5t13 -0.5q10 -1 11.5 -6.5t-4 -12t-16.5 -13t-26 -10.5q-9 -2 -24 -3.5t-32 -2.5q-56 -46 -118 -98t-123 -102t-117 -96
t-100 -81t-72 -56t-32 -22q-22 -2 -23.5 -1.5t0.5 11.5q1 3 23.5 24.5t60.5 56t88 79t105.5 93t113 98.5t110.5 96q-9 1 -16 1.5t-11 2.5q-11 3 -12.5 9.5t3 13.5t12.5 12.5t16 6.5z" />
    <glyph glyph-name="daggerdbl" unicode="&#x2021;" horiz-adv-x="500" 
d="M336 467q7 1 24.5 1t39.5 1q35 30 65 55t53 43.5t37 29.5t17 12q15 5 30.5 8t26.5 2t14.5 -6.5t-6.5 -16.5q-3 -4 -44.5 -39t-105.5 -89q11 0 19 -0.5t13 -0.5q10 -1 11.5 -6.5t-4 -12t-16.5 -13t-26 -10.5q-9 -2 -24 -3.5t-32 -2.5q-67 -57 -142 -118t-147 -121
q14 -1 25.5 -1t17.5 -1q10 -1 11.5 -6.5t-4 -12t-16.5 -13t-26 -10.5q-11 -2 -29 -3.5t-39 -2.5q-43 -35 -80 -65t-65.5 -52.5t-46.5 -35t-21 -13.5q-22 -2 -23.5 -1.5t0.5 11.5q1 2 14 15t35.5 33.5t53.5 48.5t67 60q-21 1 -33 5q-11 3 -12.5 9.5t3 13.5t12.5 12.5t16 6.5
t27 1t42 1q66 59 138 121t138 120q-9 1 -16 1.5t-11 2.5q-11 3 -12.5 9.5t3 13.5t12.5 12.5t16 6.5z" />
    <glyph glyph-name="ellipsis" unicode="&#x2026;" horiz-adv-x="600" 
d="M2 55q2 7 9 17.5t16.5 21.5t20 20t20.5 12q37 7 54.5 3t20 -14t-6.5 -23.5t-24.5 -27t-34 -24.5t-34.5 -15q-22 -2 -32.5 8.5t-8.5 21.5zM202 55q2 7 9 17.5t16.5 21.5t20 20t20.5 12q37 7 54.5 3t20 -14t-6.5 -23.5t-24.5 -27t-34 -24.5t-34.5 -15q-22 -2 -32.5 8.5
t-8.5 21.5zM402 55q2 7 9 17.5t16.5 21.5t20 20t20.5 12q37 7 54.5 3t20 -14t-6.5 -23.5t-24.5 -27t-34 -24.5t-34.5 -15q-22 -2 -32.5 8.5t-8.5 21.5z" />
    <glyph glyph-name="quotedblbase.001" horiz-adv-x="833" 
 />
    <glyph glyph-name="quotedblbase" unicode="&#x201e;" horiz-adv-x="206" 
d="M-49 -66q3 5 11 18.5t18.5 31t22 36.5t22.5 36t20.5 29.5t15.5 15.5q13 9 19 1t6 -23t-4 -34t-11 -32q-6 -12 -19.5 -25.5t-29 -26.5t-29.5 -23.5t-22 -15.5q-20 -13 -25 -7t5 19zM41 -66q3 5 11 18.5t18.5 31t22 36.5t22.5 36t20.5 29.5t15.5 15.5q13 9 19 1t6 -23
t-4 -34t-11 -32q-6 -12 -19.5 -25.5t-29 -26.5t-29.5 -23.5t-22 -15.5q-20 -13 -25 -7t5 19z" />
    <glyph glyph-name="quotesinglbase" unicode="&#x201a;" horiz-adv-x="169" 
d="M-47 -32q4 5 11.5 18.5t18 31t22 36.5t22.5 36t20.5 29.5t15.5 15.5q13 9 22 3t13 -19t3 -30t-8 -30q-6 -12 -23 -27.5t-35.5 -30.5t-36 -27.5t-25.5 -17.5q-20 -13 -25 -7t5 19z" />
    <glyph glyph-name="florin" unicode="&#x192;" horiz-adv-x="215" 
d="M200 346q49 49 93.5 85.5t83.5 57t73 23t61 -15.5q20 -14 27 -29t4.5 -28t-13 -21.5t-24.5 -7.5q-15 1 -24.5 9t-11.5 18.5t4 21t22 16.5q-10 8 -28.5 0.5t-42.5 -26t-52 -45.5t-58 -58h75q10 0 13 -4.5t0.5 -10t-10 -10t-18.5 -4.5h-87l-62 -69q-26 -30 -59 -68.5
t-68 -78.5t-70 -79.5t-65.5 -72.5t-54.5 -56.5t-37 -31.5q-22 -13 -48.5 -21.5t-48.5 -11t-34.5 1t-4.5 14.5q12 17 41.5 46t74 73.5t102 106t126.5 142.5q48 57 93 105h-53q-9 0 -12 4.5t-1 10t8.5 10t17.5 4.5h68z" />
    <glyph glyph-name="Euro" unicode="&#x20ac;" horiz-adv-x="763" 
d="M645 183q9 13 18 19t14.5 4.5t5.5 -10t-8 -23.5q-19 -34 -54.5 -73t-81.5 -75.5t-100 -67.5t-111 -49.5t-114 -21t-108 18.5q-44 18 -67 50.5t-27.5 73.5t7.5 89.5t38 99.5q-20 2 -25 3q-11 3 -12.5 9.5t3 13.5t12.5 12.5t16 6.5h11.5t19.5 1q7 11 14.5 23t15.5 23
q-15 2 -19 3q-11 3 -12.5 9.5t3 13.5t12.5 12.5t16 6.5h13t22 1q21 26 44 51t49 49q56 52 114.5 94.5t118.5 72.5t120 46t120 16q45 0 70 -18t32.5 -44t-0.5 -54.5t-29 -49.5q-11 -11 -20 -13.5t-14 1t-3.5 11.5t12.5 18q12 10 19.5 27t6.5 33.5t-14 28.5t-41 12
q-29 0 -78 -17.5t-107.5 -49.5t-119.5 -77t-114 -100l-34 -36q41 0 74.5 -0.5t41.5 -1.5q10 -1 11.5 -6.5t-4 -12t-16.5 -13t-26 -10.5q-12 -3 -47 -4.5t-77 -1.5q-8 -11 -16.5 -21t-16.5 -21h44t39.5 -0.5t30 -1t17.5 -0.5q10 -1 11.5 -6.5t-4 -12t-16.5 -13t-26 -10.5
q-13 -3 -50.5 -4.5t-81.5 -1.5q-30 -44 -50.5 -85t-28 -76t-1 -62t31.5 -42q33 -20 78.5 -19t96.5 16t104 41.5t100.5 59t86 67.5t60.5 68z" />
    <glyph glyph-name="yen" unicode="&#xa5;" horiz-adv-x="833" 
d="M456 153q4 0 16 0.5t29.5 1t38.5 0.5h44q39 35 75.5 70t68.5 70q21 23 45 51.5t48.5 60t49.5 65t49 65.5q-42 -45 -92.5 -92t-104 -89t-108.5 -76t-106 -53.5t-95.5 -21.5t-77.5 20q-32 22 -36 52t10 64.5t43 72t63 74t69 70.5t62 60.5t41.5 44.5t7.5 24q-20 16 -65 18
t-101.5 -6t-118.5 -23.5t-116.5 -34.5t-94.5 -39.5t-53 -36.5q-11 -15 0 -23.5t28 -8.5q21 0 24.5 -10t-14.5 -11q-19 -1 -36 3t-28.5 13t-14.5 22.5t7 32.5q12 24 52 50t96 48.5t122 39.5t130 23t119 -2t90 -35q39 -30 41.5 -65t-18.5 -71.5t-58 -73.5t-77 -71.5t-77 -66
t-56.5 -56t-16 -41.5t43.5 -23q42 -6 94.5 14t110.5 56.5t117 85t114 100t102 100.5t81 86l13 19q7 10 23 9t31 -9t23.5 -22t0.5 -29q-12 -21 -31.5 -52.5t-44 -67.5t-53 -75t-58 -76t-58.5 -70.5t-55 -57.5q-53 -50 -105 -96q11 0 18.5 -0.5t11.5 -0.5q10 -1 11.5 -6.5
t-4 -12t-16.5 -13t-26 -10.5q-16 -4 -50 -5q-13 -11 -26 -21.5t-26 -21.5q28 0 48.5 -0.5t27.5 -1.5q10 -1 11.5 -6.5t-4 -12t-16.5 -13t-26 -10.5q-11 -3 -40.5 -4t-65.5 -2q-101 -73 -200 -117.5t-201 -44.5q-30 0 -52 9t-36 21q-33 28 -39.5 65.5t7 76t44 74.5t72 60.5
t90 34t98.5 -4.5q36 -10 58.5 -26.5t30.5 -29.5t3 -17.5t-23 9.5q-34 26 -72.5 25t-75.5 -19t-69.5 -48.5t-55 -63.5t-32 -63t0.5 -48q4 -9 16.5 -14.5t29.5 -5.5q54 0 127.5 36t153.5 93q-14 1 -23 1.5t-13 2.5q-11 3 -12.5 9.5t3 13.5t12.5 12.5t16 6.5q6 0 28.5 0.5
t51.5 0.5l53 43q-33 1 -58.5 2.5t-32.5 3.5q-11 3 -12.5 9.5t3 13.5t12.5 12.5t16 6.5z" />
    <glyph glyph-name="sterling" unicode="&#xa3;" horiz-adv-x="802" 
d="M1026 434q-6 -27 -15 -35t-16.5 -2t-11.5 23.5t0 41.5t4.5 50t-2 49.5t-8 41.5t-13.5 27q-12 13 -36 5t-57 -33t-73 -63t-83.5 -84.5t-90 -99t-91.5 -104.5h55t51.5 -0.5t40 -1t22.5 -0.5q10 -1 11.5 -6.5t-4 -12t-16.5 -13t-26 -10.5q-8 -2 -26.5 -3.5t-43 -2
t-52.5 -0.5h-55l-144 -166q71 -27 148.5 -59.5t154.5 -61t150.5 -47.5t137.5 -19q14 0 11.5 -12t-18.5 -26t-44 -26t-65 -12q-73 0 -153 27.5t-160 66.5t-155 81t-137.5 70.5t-108 36t-65.5 -23.5q-8 -12 -15.5 -15t-12 0t-5 12t7.5 21q16 27 45 38t67 8.5t84 -15t98 -31.5
q21 30 47.5 70t57.5 86q-22 2 -28 3q-11 3 -12.5 9.5t3 13.5t12.5 12.5t16 6.5q4 0 15 0.5t26 0.5q43 63 91 130t97 126.5t98.5 106.5t95.5 72.5t87 23t74 -41.5q19 -23 29 -51.5t13 -59.5t1 -62.5t-8 -59.5z" />
    <glyph glyph-name="cent" unicode="&#xa2;" horiz-adv-x="272" 
d="M-48 -84q2 4 22 27.5t52 58.5q-20 4 -35 16.5t-15.5 35t18 57t65.5 84.5q19 20 45.5 38t56 30t59 15.5t54.5 -5.5q35 37 58 61.5t28 28.5q6 5 14.5 7.5t13.5 1.5t4.5 -6.5t-10.5 -15.5q-4 -3 -26.5 -27.5t-57.5 -62.5h1q17 -15 21 -31.5t-1.5 -29.5t-18.5 -20.5t-29 -3.5
q-15 4 -20.5 12t-4.5 17q-38 -42 -78 -85t-78 -83q21 4 47 14t51 22t47.5 25t36.5 24q17 12 26.5 13t11 -4.5t-6 -16t-24.5 -22.5q-16 -12 -41.5 -27.5t-56 -29.5t-63 -24t-62.5 -10q-38 -39 -63 -65t-30 -29q-7 -4 -10 0.5t-1 9.5zM137 162q-20 -19 -36 -38t-26.5 -36
t-15 -30.5t-0.5 -19.5l182 200q-20 -7 -47.5 -27t-56.5 -49z" />
    <glyph glyph-name="exclamdown" unicode="&#xa1;" horiz-adv-x="205" 
d="M340 309q-2 -4 -25 -30.5t-56 -64.5t-72 -81t-73.5 -80t-60.5 -62.5t-32 -27.5q-15 -5 -33 -4t-32 7t-20 16t4 21q4 4 31.5 28.5t67 59t85.5 74t86 73.5t68.5 58t34.5 27q14 8 23.5 2.5t3.5 -16.5zM353 415q2 7 9 17.5t16.5 21.5t20 20t20.5 12q37 6 54.5 2.5t20 -13.5
t-6.5 -23.5t-24.5 -27t-34 -24.5t-34.5 -15q-22 -2 -32.5 8.5t-8.5 21.5z" />
    <glyph glyph-name="onequarter" unicode="&#xbc;" horiz-adv-x="699" 
d="M485 475q-11 -15 -34 -42t-52.5 -59.5t-62.5 -67t-63 -64.5t-53.5 -52t-34.5 -30q-10 -8 -24 -8.5t-23.5 5t-10.5 17t16 28.5q5 5 21.5 23.5t40 44.5t52.5 57.5t59 62.5q-21 -15 -37.5 -19.5t-26 -1.5t-10 10.5t11.5 15.5q6 4 20 12.5t33 21.5t41.5 30t45.5 37
q28 28 37 33q7 2 19 -2.5t22 -13t15 -18.5t-2 -20zM16 -19q1 3 24 20t59 42.5t82.5 56.5t95 63.5t96 63.5t85.5 55t63.5 39t30.5 16q16 3 32 3.5t26.5 -2t13 -8.5t-9.5 -16q-3 -2 -28.5 -18.5t-65.5 -41t-89.5 -55.5t-102 -63t-102.5 -62.5t-90.5 -54t-67 -38t-31.5 -14.5
q-22 1 -24 2t3 12zM639 124q-11 -15 -35.5 -43t-56 -61.5t-67 -69t-67.5 -66.5t-57 -54t-36 -31q-11 -9 -25.5 -10.5t-24 4t-10.5 17t16 29.5l74 85q-33 -9 -50.5 0t-21 27.5t4.5 42.5t25 46q23 32 48 63.5t68 66.5q12 10 29.5 9t31.5 -8t20 -18.5t-5 -21.5
q-26 -23 -55.5 -50t-55.5 -52t-45.5 -46t-24 -32t9 -10t52.5 19q23 25 55 60t63.5 68t56.5 58t33 31q7 6 18 2t20 -13t13.5 -21t-1.5 -21z" />
    <glyph glyph-name="onehalf" unicode="&#xbd;" horiz-adv-x="672" 
d="M459 447q-11 -15 -34 -42t-52.5 -59.5t-62.5 -67t-63 -64.5t-53.5 -52t-34.5 -30q-10 -8 -24 -8.5t-23.5 5t-10.5 17t16 28.5q5 5 21.5 23.5t40 44.5t52.5 57.5t59 62.5q-21 -15 -37.5 -19.5t-26 -1.5t-10 10.5t11.5 15.5q6 4 20 12.5t33 21.5t41.5 30t45.5 37
q28 28 37 33q7 2 19 -2.5t22 -13t15 -18.5t-2 -20zM9 -19q1 3 24 20t59 42.5t82.5 56.5t95 63.5t96 63.5t85.5 55t63.5 39t30.5 16q16 3 32 3.5t26.5 -2t13 -8.5t-9.5 -16q-3 -2 -28.5 -18.5t-65.5 -41t-89.5 -55.5t-102 -63t-102.5 -62.5t-90.5 -54t-67 -38t-31.5 -14.5
q-22 1 -24 2t3 12zM240 -110q20 10 49 26.5t61 37t64 42.5t57 43.5t40 40.5t14 32t-25.5 5.5t-60 -28.5t-74 -50t-67.5 -59q-6 -6 -8.5 5.5t3.5 33.5t22 50.5t48 57.5q29 26 60.5 43t60 21t50 -6.5t30.5 -39.5q11 -37 -2 -69.5t-41 -61.5t-66 -53.5t-78.5 -45.5t-78 -38
t-63.5 -31q22 -14 46 -14.5t48 10t47.5 30.5t46.5 47q5 6 8.5 -1t4 -21t-3.5 -32.5t-15 -36t-30 -31t-49 -18.5q-25 -3 -43.5 5.5t-36 19t-35.5 17t-41 -1.5q-13 -5 -13.5 2.5t8.5 19.5t25.5 26t37.5 23z" />
    <glyph glyph-name="threequarters" unicode="&#xbe;" horiz-adv-x="715" 
d="M252 368q20 10 39.5 20t34.5 19t24.5 16.5t9.5 11.5q2 10 -18.5 4.5t-52 -21.5t-67.5 -41t-65 -54q-7 -8 -13 -0.5t-4 25.5t15 44.5t43 56.5q22 22 51.5 34t58 13.5t50.5 -8.5t30 -32q10 -29 4.5 -51.5t-21.5 -40t-39 -31t-46 -24.5q23 -45 4 -82t-60 -67
q-42 -31 -82 -43t-66.5 -1.5t-32.5 45t21 95.5q11 25 18 32t10.5 4.5t4 -11t-2.5 -15.5q-17 -40 -18 -60.5t7.5 -26.5t24 -1.5t31.5 13.5t31 19.5t22 16.5q29 23 35 42.5t-1 47.5q-2 4 -6 9t-4.5 11t6 13.5t24.5 17.5zM15 -19q1 3 24 20t59 42.5t82.5 56.5t95 63.5t96 63.5
t85.5 55t63.5 39t30.5 16q16 3 32 3.5t26.5 -2t13 -8.5t-9.5 -16q-3 -2 -28.5 -18.5t-65.5 -41t-89.5 -55.5t-102 -63t-102.5 -62.5t-90.5 -54t-67 -38t-31.5 -14.5q-22 1 -24 2t3 12zM662 143q-11 -15 -35.5 -43t-56 -61.5t-67 -69t-67.5 -66.5t-57 -54t-36 -31
q-11 -9 -25.5 -10.5t-24 4t-10.5 17t16 29.5l74 85q-33 -9 -50.5 0t-21 27.5t4.5 42.5t25 46q23 32 48 63.5t68 66.5q12 10 29.5 9t31.5 -8t20 -18.5t-5 -21.5q-25 -23 -55 -50t-56 -52t-45.5 -46t-24 -32t9 -10t52.5 19q23 25 55 60t63.5 68t56.5 58t33 31q7 6 18 2t20 -13
t13.5 -21t-1.5 -21z" />
    <glyph glyph-name="questiondown" unicode="&#xbf;" horiz-adv-x="621" 
d="M662 525q2 7 9 17.5t16.5 21.5t20 20t20.5 12q37 7 54.5 3t20 -14t-6.5 -23.5t-24.5 -27t-34 -24.5t-34.5 -15q-22 -2 -32.5 8.5t-8.5 21.5zM587 109q-13 -24 -46 -48.5t-78.5 -44.5t-98.5 -33.5t-105.5 -16.5t-100 7t-81.5 38q-53 43 -66 77t8 63t73.5 56t131 58
t179 68.5t218.5 86.5q11 4 20 2.5t12.5 -6t0 -11t-16.5 -11.5q-63 -24 -132.5 -56t-135 -67t-122.5 -71t-95 -68t-52.5 -58.5t4.5 -42.5q20 -17 57.5 -20.5t83 1.5t94.5 17.5t92 28.5t75.5 34t45.5 35q12 15 0 23t-28 8q-22 0 -25.5 10t15.5 12q18 0 35.5 -4t28.5 -13
t14.5 -22.5t-5.5 -31.5z" />
    <glyph glyph-name="Scaron" unicode="&#x160;" horiz-adv-x="690" 
d="M643 416q47 16 89 41t73 51t48 48.5t15 34.5q-5 19 -45 16t-100 -22t-133.5 -50.5t-146 -69t-137 -78t-107 -76.5t-56.5 -65t16 -44q15 -7 48 -7.5t75.5 2.5t90.5 7.5t92.5 6.5t81.5 -0.5t58 -13.5q28 -15 24.5 -43.5t-29.5 -64t-70 -74.5t-96.5 -74.5t-110 -65
t-110 -45.5t-95.5 -15t-68 25q-17 16 -27 34t-10.5 40t10.5 50t36 64q10 15 19 21.5t14.5 5.5t5 -10t-9.5 -25q-23 -41 -35 -69.5t-1 -49.5q6 -11 33.5 -7t68.5 18t91 36t100 48t96 53t78.5 52t48 45t5.5 31q-9 9 -42 9t-79 -3.5t-99 -8t-101 -6t-85 3t-52 19.5
q-34 33 -19.5 79.5t62 97.5t119.5 102t153 94.5t162.5 75t148.5 43t111.5 -2t49.5 -59.5q6 -20 -4 -46t-39 -56t-77.5 -63t-117.5 -67q-27 -12 -45.5 -13.5t-23.5 3.5t5.5 15.5t42.5 21.5zM704 809q-6 0 -4.5 7t9.5 15.5t21.5 15.5t31.5 7t28 -8t14 -19t3 -22.5t-7 -19.5
q7 6 18 14t22.5 16.5t22.5 16.5t19 13q23 15 25.5 7t-14.5 -21q-12 -9 -28.5 -21.5t-34.5 -26t-36 -27.5t-33 -25q-8 -9 -23 -11t-27.5 0t-19.5 8t1 13q17 16 24 28.5t7 21.5t-6 13.5t-13 4.5z" />
    <glyph glyph-name="scaron" unicode="&#x161;" horiz-adv-x="363" 
d="M-11 81q-17 -10 -27 -11t-10.5 4.5t8.5 16t29 23.5q16 10 37.5 25t43.5 30.5t42.5 30.5t34.5 26l-2 2q-8 7 -5 20t13.5 25t27 21t35.5 9q13 0 17 -7t2 -16.5t-8.5 -19t-13.5 -15.5l-5 -4q55 -2 77 -23.5t18.5 -52.5t-27.5 -65t-59 -61q39 16 78.5 39.5t67.5 42.5
q19 12 28.5 13.5t10.5 -4t-7.5 -16.5t-26.5 -23q-22 -15 -52 -32.5t-65.5 -32.5t-75.5 -25t-82 -10q-3 0 -4.5 0.5t-3.5 0.5q-10 1 -20 2.5t-20 5.5q-15 6 -23 17.5t-8 25t8 28t23 26.5q9 7 21 12t23.5 5.5t22 -3.5t16.5 -15t-1 -23t-19 -18.5t-25.5 -4.5t-22.5 18
q-11 -5 -12 -17.5t14 -17.5q21 -8 43.5 0.5t42.5 27t35 42t21.5 47t1 42t-26.5 25.5q-12 -10 -36.5 -28.5t-52 -39t-55 -39.5t-46.5 -29zM238 416q-6 0 -4.5 7t9.5 15.5t21.5 15.5t31.5 7t28 -8t14 -19t3 -22.5t-7 -19.5q7 6 18 14t22.5 16.5t22.5 16.5t19 13q23 15 25.5 7
t-14.5 -21q-12 -9 -28.5 -21.5t-34.5 -26t-36 -27.5t-33 -25q-8 -9 -23 -11t-27.5 0t-19.5 8t1 13q17 16 24 28.5t7 21.5t-6 13.5t-13 4.5z" />
    <glyph glyph-name="trademark" unicode="&#x2122;" horiz-adv-x="739" 
d="M323 238q-5 -3 -9 -6t-6 -5q-4 -4 -7.5 0t1.5 9q12 11 31.5 27t41.5 33.5l44 35t39 32.5t25.5 25.5t4.5 14.5q-5 4 -17.5 4t-29 -2.5t-35.5 -6.5t-35 -9q-3 -15 -25 -33.5t-51.5 -37t-59 -35.5t-47.5 -29q-11 -8 -9 -13t19 2q6 2 12 6t11 7q9 5 9 1t-9 -9
q-4 -2 -9.5 -5.5t-12.5 -6.5q-15 -5 -23 -4t-9.5 5.5t2.5 12t13 15.5q19 16 50.5 38t60.5 43t48.5 37t15.5 20q-6 6 -31.5 3.5t-54.5 -8.5t-54 -14t-30 -14q-4 -4 -1.5 -5.5t6.5 -1.5q5 0 5.5 -2.5t-3.5 -2.5q-9 0 -14.5 4t-0.5 12q6 8 31.5 18t56 16.5t58.5 7t39 -8.5
q2 -2 4 -6q17 5 36.5 9t37 5.5t31.5 -0.5t21 -8q15 -12 3 -30.5t-37 -39.5q22 14 43 26t39 19.5t32 10t22 -2.5q11 -8 3.5 -23t-25.5 -32q32 23 57.5 35.5t38.5 1.5q11 -10 5.5 -24t-18.5 -29.5t-30 -31t-30 -28t-17 -20t8 -7.5q10 0 9.5 -4t-11.5 -4q-19 0 -19.5 10t9.5 25
t25.5 32.5t29 33.5t20.5 27t-1 14q-6 1 -28 -11.5t-49.5 -31.5t-55 -40t-44.5 -35q-8 -8 -14.5 -7t3.5 15q12 16 34.5 38.5t43 42t32.5 33.5t3 14q-15 0 -50.5 -19t-76 -44.5t-77.5 -51t-55 -38.5z" />
    <glyph glyph-name="bullet" unicode="&#x2022;" horiz-adv-x="473" 
d="M161 146q0 29 20 49t49 20t49 -20t20 -49t-20 -49t-49 -20t-49 20t-20 49z" />
    <glyph glyph-name="twosuperior" unicode="&#xb2;" horiz-adv-x="320" 
d="M158 343q20 10 49 26.5t61 37t64 42.5t57 43.5t40 40.5t14 32t-25.5 5.5t-60 -28.5t-74 -50t-67.5 -59q-6 -6 -8.5 5.5t3.5 33.5t22 50.5t48 57.5q29 26 60.5 43t60 21t50 -6.5t30.5 -39.5q11 -37 -2 -69.5t-41 -61.5t-66 -53.5t-78.5 -45.5t-78 -38t-63.5 -31
q22 -14 46 -14.5t48 10t47.5 30.5t46.5 47q5 6 8.5 -1t4 -21t-3.5 -32.5t-15 -36t-30 -31t-49 -18.5q-25 -3 -43.5 5.5t-36 19t-35.5 17t-41 -1.5q-13 -5 -13.5 2.5t8.5 19.5t25.5 26t37.5 23z" />
    <glyph glyph-name="threesuperior" unicode="&#xb3;" horiz-adv-x="320" 
d="M340 490q20 10 39.5 20t34.5 19t24.5 16.5t9.5 11.5q2 10 -18.5 4.5t-52 -21.5t-67.5 -41t-65 -54q-7 -8 -13 -0.5t-4 25.5t15 44.5t43 56.5q22 22 51.5 34t58 13.5t50.5 -8.5t30 -32q10 -29 4.5 -51.5t-21.5 -40t-39 -31t-46 -24.5q23 -45 4 -82t-60 -67
q-42 -31 -82 -43t-66.5 -1.5t-32.5 45t21 95.5q11 25 18 32t10.5 4.5t4 -11t-2.5 -15.5q-16 -40 -17.5 -60.5t7 -26.5t24 -1.5t31.5 13.5t31 19.5t22 16.5q29 23 35 42.5t-1 47.5q-2 4 -6 9t-4.5 11t6 13.5t24.5 17.5z" />
    <glyph glyph-name="onesuperior" unicode="&#xb9;" horiz-adv-x="286" 
d="M487 528q-11 -15 -34 -42t-52.5 -59.5t-62.5 -67t-63 -64.5t-53.5 -52t-34.5 -30q-10 -8 -24 -8.5t-23.5 5t-10.5 17t16 28.5q5 5 21.5 23.5t40 44.5t52.5 57.5t59 62.5q-21 -15 -37.5 -19.5t-26 -1.5t-10 10.5t11.5 15.5q6 4 20 12.5t33 21.5t41.5 30t45.5 37
q28 28 37 33q7 2 19 -2.5t22 -13t15 -18.5t-2 -20z" />
    <glyph glyph-name="ordmasculine" unicode="&#xba;" horiz-adv-x="344" 
d="M541 366q10 9 20 10.5t13 -3t-3.5 -15t-29.5 -26.5q-17 -12 -36 -19t-37.5 -9t-35.5 0t-29 8q-42 -29 -82.5 -45.5t-74.5 -16.5q-26 0 -44 11t-22 32t9.5 52t51.5 72q14 15 43 38.5t65 44t75 33.5t74 8q16 -3 25 -19t7 -34q11 -7 9.5 -21.5t-12 -32.5t-28.5 -39t-42 -40
l-12 -10l-12 -10q18 -7 48.5 0.5t59.5 30.5zM266 283q20 0 52 14t64 37q-6 15 -3.5 33.5t10.5 36.5t21.5 35t29.5 30q-14 -3 -30.5 -12t-34 -21t-34.5 -25.5t-30 -25.5q-22 -20 -36 -38.5t-20 -32.5t-3.5 -22.5t14.5 -8.5z" />
    <glyph glyph-name="periodcentered" unicode="&#xb7;" horiz-adv-x="340" 
d="M108 139q0 20 13.5 33.5t33.5 13.5t33.5 -13.5t13.5 -33.5t-13.5 -33.5t-33.5 -13.5t-33.5 13.5t-13.5 33.5z" />
    <glyph glyph-name="mu" unicode="&#xb5;" horiz-adv-x="414" 
d="M348 269q10 9 19.5 11.5t13 -0.5t-1 -10.5t-20.5 -19.5q-27 -21 -69 -58t-88 -75q16 22 36.5 47t42.5 48t44.5 42t41.5 30q14 7 36.5 8.5t39.5 -2.5t22 -14t-16 -25q-17 -11 -40 -31t-47.5 -43t-47 -46.5t-38 -43t-21 -31.5t4.5 -12q11 0 29 7t39 18t43 24.5t43 27.5
q18 12 28 13.5t11 -4t-7 -16.5t-26 -23q-22 -15 -48.5 -31t-54.5 -29.5t-54 -22t-46 -8.5q-12 0 -23.5 4.5t-18.5 13t-8.5 20t4.5 26.5q8 19 31 53q-27 -23 -54.5 -44t-52 -37.5t-46 -26t-36.5 -9.5q-41 0 -50.5 17.5t1.5 44.5q-47 -48 -89.5 -96.5t-77 -88.5t-57.5 -65.5
t-29 -27.5q-15 -5 -30.5 -8t-26.5 -2t-14.5 6.5t6.5 16.5q3 3 23.5 23t52.5 50.5t72 69t82.5 78.5t84 78.5t75.5 69.5q31 33 62 61t50 41q16 12 41.5 15.5t46 1t30 -9.5t-6.5 -17q-20 -13 -45 -33.5t-50 -43.5t-48 -47t-38.5 -43t-21 -31t4.5 -12q6 0 24 12t42.5 31
t54.5 43.5t59.5 49t57.5 47t49 38.5z" />
    <glyph glyph-name="mu" unicode="&#x3bc;" horiz-adv-x="414" 
d="M348 269q10 9 19.5 11.5t13 -0.5t-1 -10.5t-20.5 -19.5q-27 -21 -69 -58t-88 -75q16 22 36.5 47t42.5 48t44.5 42t41.5 30q14 7 36.5 8.5t39.5 -2.5t22 -14t-16 -25q-17 -11 -40 -31t-47.5 -43t-47 -46.5t-38 -43t-21 -31.5t4.5 -12q11 0 29 7t39 18t43 24.5t43 27.5
q18 12 28 13.5t11 -4t-7 -16.5t-26 -23q-22 -15 -48.5 -31t-54.5 -29.5t-54 -22t-46 -8.5q-12 0 -23.5 4.5t-18.5 13t-8.5 20t4.5 26.5q8 19 31 53q-27 -23 -54.5 -44t-52 -37.5t-46 -26t-36.5 -9.5q-41 0 -50.5 17.5t1.5 44.5q-47 -48 -89.5 -96.5t-77 -88.5t-57.5 -65.5
t-29 -27.5q-15 -5 -30.5 -8t-26.5 -2t-14.5 6.5t6.5 16.5q3 3 23.5 23t52.5 50.5t72 69t82.5 78.5t84 78.5t75.5 69.5q31 33 62 61t50 41q16 12 41.5 15.5t46 1t30 -9.5t-6.5 -17q-20 -13 -45 -33.5t-50 -43.5t-48 -47t-38.5 -43t-21 -31t4.5 -12q6 0 24 12t42.5 31
t54.5 43.5t59.5 49t57.5 47t49 38.5z" />
    <glyph glyph-name="Ydieresis" unicode="&#x178;" horiz-adv-x="833" 
d="M404 239q42 -6 94.5 14t110.5 56.5t117 85t114 100t102 100.5t81 86l13 19q7 10 23 9t31 -9t23.5 -22t0.5 -29q-12 -21 -31.5 -52.5t-44 -67.5t-53 -75t-58 -76t-58.5 -70.5t-55 -57.5q-87 -82 -172 -154.5t-169 -127t-168 -86t-169 -31.5q-30 0 -52 9t-36 21
q-33 28 -39.5 65.5t7 76t44 74.5t72 60.5t90 34t98.5 -4.5q36 -10 58.5 -26.5t30.5 -29.5t3 -17.5t-23 9.5q-34 26 -72.5 25t-75.5 -19t-69.5 -48.5t-55 -63.5t-32 -63t0.5 -48q4 -9 16.5 -14.5t29.5 -5.5q56 0 132 38t158 97.5t162 132t145 141.5q21 23 45 51.5t48.5 60
t49.5 65t49 65.5q-42 -45 -92.5 -92t-104 -89t-108.5 -76t-106 -53.5t-95.5 -21.5t-77.5 20q-32 22 -36 52t10 64.5t43 72t63 74t69 70.5t62 60.5t41.5 44.5t7.5 24q-20 16 -65 18t-101.5 -6t-118.5 -23.5t-116.5 -34.5t-94.5 -39.5t-53 -36.5q-11 -15 0 -23.5t28 -8.5
q21 0 24.5 -10t-14.5 -11q-19 -1 -36 3t-28.5 13t-14.5 22.5t7 32.5q12 24 52 50t96 48.5t122 39.5t130 23t119 -2t90 -35q39 -30 41.5 -65t-18.5 -71.5t-58 -73.5t-77 -71.5t-77 -66t-56.5 -56t-16 -41.5t43.5 -23zM883 731q13 22 37 37t46 15t28 -15t-7 -37
q-14 -22 -38 -37t-46 -15t-28 15t8 37zM756 731q13 22 37 37t46 15t28 -15t-7 -37q-14 -22 -38 -37t-46 -15t-28 15t8 37z" />
    <glyph glyph-name="currency" unicode="&#xa4;" horiz-adv-x="490" 
d="M334 223q6 7 17 15t23.5 16.5t24.5 16l20 12.5q9 6 13 3t4 -11.5t-4.5 -21t-13.5 -25.5q-14 -19 -31.5 -29t-33.5 -17q6 -29 -2.5 -57.5t-25.5 -52.5q16 -14 33 -33t28 -30q7 -7 5.5 -15t-9.5 -13t-20.5 -6t-26.5 5q-18 9 -25 27t-12 35q-17 -14 -35.5 -22t-37 -7
t-35 11.5t-29.5 33.5q-3 -6 -7 -10q-6 -7 -17 -15t-23.5 -16.5t-24.5 -16l-20 -12.5q-9 -6 -13 -3t-4 11.5t4.5 21t13.5 25.5q16 21 35.5 31t36.5 18q2 1 3 1t2 1q-5 26 0.5 54t19.5 52q-17 8 -35.5 18.5t-32.5 21.5q-8 6 -7.5 15t7.5 16t19.5 10.5t27.5 -1.5
q20 -8 27.5 -22.5t13.5 -28.5q14 16 31.5 26t37 10.5t39 -9t38.5 -33.5v-1zM184 83q1 -10 11 -7.5t24.5 13.5t30.5 27t30 32t23 30t9 20q0 11 -10 8.5t-24.5 -13.5t-31.5 -28t-31 -33.5t-23 -30t-8 -18.5z" />
    <glyph glyph-name="section" unicode="&#xa7;" horiz-adv-x="380" 
d="M35 -18q-11 -5 -12 -17.5t14 -17.5q21 -8 43.5 -1.5t41.5 22t32.5 38t18.5 46t-1.5 45.5t-27.5 37q-17 12 -19 25t3.5 26t15.5 24t18 20q-14 19 -10.5 45.5t20 53.5t44 52.5t59.5 42.5t67 22.5t68 -6.5q15 -6 23 -17.5t8 -25t-8 -28t-23 -26.5q-9 -7 -21 -12t-23.5 -5.5
t-22 3.5t-16.5 15t1 23t19 18.5t25.5 4.5t22.5 -18q11 5 12 17.5t-14 17.5q-22 8 -44 1.5t-41.5 -22.5t-33.5 -38.5t-18.5 -46t2 -45.5t28.5 -36q16 -11 17 -24t-6.5 -25t-19 -22t-18.5 -16q20 -17 19.5 -43.5t-15.5 -55t-42.5 -55.5t-60.5 -45.5t-69.5 -25t-70.5 6.5
q-15 6 -23 17.5t-8 25t8 28t23 26.5q9 7 21 12t23.5 5.5t22 -3.5t16.5 -15t-1 -23t-19 -18.5t-25.5 -4.5t-22.5 18zM190 178q12 -12 27.5 -20t28.5 -6q14 3 11.5 9.5t-13.5 18.5q-12 13 -30 22.5t-31 7.5q-14 -3 -9 -11t16 -21z" />
    <glyph glyph-name="brokenbar" unicode="&#xa6;" horiz-adv-x="525" 
d="M338 351q-11 -14 -24 -17.5t-22.5 0.5t-11.5 15t11 28q43 58 85 108t75.5 87.5t55.5 59.5t26 24q14 8 29 13.5t26 6t15 -4t-4 -17.5q-2 -3 -24 -29t-57.5 -67t-82 -95t-97.5 -112zM205 274q16 18 27.5 18t16.5 -8.5t3 -22t-12 -23.5q-59 -61 -111.5 -119.5t-93 -105
t-66.5 -76t-30 -30.5q-21 -6 -22.5 -5.5t-1.5 11.5q0 3 25 35t65.5 82.5t92.5 114t107 129.5z" />
    <glyph glyph-name="ordfeminine" unicode="&#xaa;" horiz-adv-x="409" 
d="M583 394q18 12 28 13.5t11 -4t-7.5 -16.5t-27.5 -23q-21 -15 -47.5 -31t-54 -29.5t-54 -22t-47.5 -8.5q-12 0 -22.5 4.5t-17.5 13t-9 20t4 26.5q6 16 28 46q-32 -25 -66 -48t-64 -38.5t-53.5 -20.5t-36.5 7q-17 16 -11 40.5t23 50.5t40 50t41 39q54 46 114 76t114 30
q30 0 56.5 -9t43.5 -24q9 -9 6 -14.5t-11 -7t-18 0.5t-15 9q-4 4 -15 10.5t-25 6.5q-17 0 -46 -16t-61.5 -40.5t-64.5 -53t-56 -53t-36 -40.5t-4 -16q9 0 33.5 16.5t57.5 41t70 53t69 53.5q12 13 33.5 16.5t40 0t28.5 -12.5t-1 -19q-26 -24 -52.5 -51t-46 -50t-28 -38
t2.5 -15t28.5 7t38.5 18t43.5 24.5t43.5 27.5z" />
    <glyph glyph-name="logicalnot" unicode="&#xac;" horiz-adv-x="381" 
d="M311 152q-13 -14 -34 -35t-37 -33q-9 -6 -17 -7t-13 3t-4.5 12.5t9.5 20.5l31 40q-18 -2 -42.5 -2.5t-48 0t-42.5 2t-26 3.5q-11 3 -12.5 9.5t3 13.5t12.5 12.5t16 6.5q6 -2 28 -0.5t50 3t57 1t49.5 -5t28 -15t-7.5 -29.5z" />
    <glyph glyph-name="paragraph" unicode="&#xb6;" horiz-adv-x="628" 
d="M127 -143q0 4 15.5 25.5t41 54.5t58 74.5t67.5 84.5t69 84.5t62.5 75t48.5 56t26 27.5h-40h-21t-8 -0.5l-1 -0.5q-2 -3 -21 -25.5t-48.5 -57t-66.5 -77.5t-75.5 -87.5t-76.5 -87t-68.5 -76t-51 -54.5t-24.5 -22q-21 -6 -22.5 -5.5t-1.5 11.5q1 3 12.5 19.5t31 42t45 58.5
t54.5 69.5t59 73.5t58 72q-36 61 -32 96t37.5 52.5t91.5 21t129 0.5h27.5t40.5 -1.5t33.5 -6.5t6.5 -16q-2 -3 -21 -25.5t-48.5 -57t-66.5 -77.5t-75.5 -87.5t-76.5 -87t-68.5 -76t-51 -54.5t-24.5 -22q-21 -6 -22.5 -5.5t-1.5 11.5z" />
    <glyph glyph-name="Thorn" unicode="&#xde;" horiz-adv-x="852" 
d="M208 328q-8 -14 -16 -19.5t-13.5 -3t-6.5 11.5t7 24q15 27 42 53.5t63 51t79.5 46.5t90.5 40q36 35 70 65.5t63.5 55.5t53.5 42.5t41 26.5q21 11 49 15t50.5 2.5t33 -6.5t-2.5 -11q-17 -8 -65 -47t-113 -96q57 8 110.5 6.5t100.5 -15.5q46 -14 65.5 -49.5t7 -81t-61 -96
t-138 -94t-223.5 -75t-319 -39.5q-48 -54 -69.5 -87t-1.5 -33q10 0 28 7q6 2 11.5 0t7 -5.5t-1.5 -8.5t-12 -8q-14 -6 -29.5 -8.5t-30.5 -2.5q-21 0 -29 10.5t-4 29.5t17.5 45.5t35.5 58.5h-38q-28 0 -39.5 4.5t-9 9.5t17.5 9.5t41 4.5h24t24 1q47 63 112 136.5t135 145.5
q-60 -32 -102.5 -62.5t-54.5 -53.5zM584 535q-48 -43 -99 -90.5t-100.5 -95.5t-95.5 -94.5t-83 -86.5q115 12 214.5 41.5t178.5 68t135.5 81.5t86 82t30 69.5t-32.5 44.5q-38 16 -101 9t-133 -29z" />
    <glyph glyph-name="thorn" unicode="&#xfe;" horiz-adv-x="382" 
d="M382 121q19 12 28.5 13.5t10.5 -4t-7.5 -16.5t-26.5 -23q-22 -15 -51 -31.5t-66.5 -30t-83 -22.5t-100.5 -9h-15t-15 2q-9 2 -12 8t-1.5 12t6 11t12.5 5q19 -1 47.5 15t59 40t60 52.5t49.5 53t27.5 40.5t-5.5 16q-6 0 -23.5 -10.5t-42 -28.5t-54 -42t-59.5 -50
t-59.5 -53.5t-53.5 -52.5q-48 -54 -95 -106.5t-86 -94.5t-66.5 -69.5t-35.5 -30.5q-23 -10 -43.5 -11t-34.5 3.5t-20 11.5t2 14q13 11 46.5 45t81.5 83.5t105.5 111.5t119 128t122.5 133t115 127.5t97.5 110t69.5 81.5q7 9 26.5 9.5t38.5 -3.5t31.5 -11.5t6.5 -14.5
q-7 -7 -32 -32.5t-61 -61.5l-79.5 -79.5t-87 -88t-84 -86t-70.5 -72.5q35 31 73.5 63.5t74 58t65.5 42t49 16.5q25 0 40.5 -13t15.5 -38t-19.5 -60t-64.5 -78q-20 -19 -40.5 -34.5t-41.5 -28.5q48 14 88 37.5t68 42.5z" />
    <glyph glyph-name="germandbls" unicode="&#xdf;" horiz-adv-x="405" 
d="M573 573q31 -25 38 -48.5t-3.5 -46.5t-35.5 -45.5t-58 -45.5t-71 -46.5t-74 -48.5q22 -3 34.5 -17t10.5 -38.5t-21.5 -58t-61.5 -74.5q-20 -19 -40.5 -34.5t-41.5 -28.5q48 14 88 37.5t68 42.5q19 12 28.5 13.5t10.5 -4t-7.5 -16.5t-26.5 -23q-21 -15 -50 -31
t-65.5 -29.5t-81.5 -22.5t-98 -10h-11q-6 0 -12.5 0.5t-12.5 1.5q-9 2 -12 8t-1.5 12t6 11t12.5 5q19 -1 47.5 15t59 40t60 52.5t49.5 53t27.5 40.5t-5.5 16q-6 0 -21.5 -9t-37.5 -25q-13 -10 -20 -10t-8 5.5t3.5 14t14.5 15.5q26 20 61.5 48t72.5 59t71.5 63t59.5 59.5
t36.5 48.5t2.5 30q-12 12 -31 5t-45 -29.5t-58.5 -58t-72.5 -80.5q-27 -30 -59.5 -68.5t-67.5 -78.5t-70 -79.5t-65.5 -72.5t-54.5 -56.5t-37 -31.5q-22 -13 -46 -21.5t-43 -11t-28.5 1t-1.5 14.5q12 17 39 46t68 73.5t96 106t124 142.5t123 135.5t97.5 82t79.5 28.5t69 -26
z" />
    <glyph glyph-name="eth" unicode="&#xf0;" horiz-adv-x="399" 
d="M314 360q8 6 35 19t62 27q-1 27 -11.5 46t-28.5 21q-15 1 -17.5 6t4 9.5t19 6.5t27.5 -2q61 -16 82 -56q31 13 54.5 24t31.5 16q11 8 15 7.5t1.5 -7t-11 -18t-21.5 -25.5q-8 -8 -23.5 -16.5t-36.5 -18.5q2 -50 -42 -117t-136 -144q-91 -77 -164 -107t-132 -30
q-25 0 -37 15.5t-9 42t22.5 60.5t58.5 71q48 48 106.5 77t116.5 29q42 0 80 -16q19 18 30.5 39.5t16.5 44.5q-32 -11 -57.5 -20t-33.5 -14q-14 -7 -18.5 -6t-3.5 6.5t6.5 14t13.5 15.5zM337 257q-16 4 -32 1q-17 -2 -46.5 -20t-62.5 -44.5t-65.5 -56t-56 -55t-34.5 -42.5
t-1 -17q11 0 42.5 22t71.5 53t80.5 65.5t69.5 60.5z" />
    <glyph glyph-name="Agrave" unicode="&#xc0;" 
d="M14 -15q12 21 53.5 75t101.5 125q-56 -2 -97.5 -4.5t-52.5 -6.5q-15 -4 -15 2.5t10 16t27 19.5t36 13q20 3 54.5 4t76.5 0q51 58 109.5 119.5t119.5 117.5t121 103t115 76t101.5 36.5t80.5 -14.5q32 -22 38 -53.5t-7.5 -70t-43 -83.5t-68 -92.5t-83 -97.5t-88.5 -99
t-83.5 -96t-67.5 -90q-21 -32 -26 -49.5t2 -22.5t22 1t34 20q7 6 14 6t10 -4.5t1.5 -11.5t-9.5 -13q-44 -34 -76.5 -38.5t-48.5 14t-12 56.5t33 89q22 38 50.5 80t60.5 86q-22 -2 -52.5 -3t-65.5 -2.5t-74 -3t-77 -2.5q-42 -55 -77 -109.5t-58 -105.5q-7 -15 -25.5 -22.5
t-36 -6t-28 11.5t0.5 30zM800 652q-18 7 -51 -5.5t-76 -39.5t-93 -68t-103 -90t-106 -105.5t-101 -115.5q36 -1 71.5 -2t68 -1.5t59.5 0t45 2.5q4 0 7.5 0.5t6.5 0.5q37 50 75 99.5t72.5 95t63 85t46 70t22.5 50t-7 24.5zM923 746q15 -6 13 -13.5t-25 -7.5q-9 0 -26.5 1.5
t-37 4.5t-38 7.5t-30.5 11.5q-13 7 -26.5 20.5t-21.5 27t-7 23t17 9.5q10 0 36.5 -11.5t56 -26.5t55 -29t34.5 -17z" />
    <glyph glyph-name="Aacute" unicode="&#xc1;" 
d="M14 -15q12 21 53.5 75t101.5 125q-56 -2 -97.5 -4.5t-52.5 -6.5q-15 -4 -15 2.5t10 16t27 19.5t36 13q20 3 54.5 4t76.5 0q51 58 109.5 119.5t119.5 117.5t121 103t115 76t101.5 36.5t80.5 -14.5q32 -22 38 -53.5t-7.5 -70t-43 -83.5t-68 -92.5t-83 -97.5t-88.5 -99
t-83.5 -96t-67.5 -90q-21 -32 -26 -49.5t2 -22.5t22 1t34 20q7 6 14 6t10 -4.5t1.5 -11.5t-9.5 -13q-44 -34 -76.5 -38.5t-48.5 14t-12 56.5t33 89q22 38 50.5 80t60.5 86q-22 -2 -52.5 -3t-65.5 -2.5t-74 -3t-77 -2.5q-42 -55 -77 -109.5t-58 -105.5q-7 -15 -25.5 -22.5
t-36 -6t-28 11.5t0.5 30zM800 652q-18 7 -51 -5.5t-76 -39.5t-93 -68t-103 -90t-106 -105.5t-101 -115.5q36 -1 71.5 -2t68 -1.5t59.5 0t45 2.5q4 0 7.5 0.5t6.5 0.5q37 50 75 99.5t72.5 95t63 85t46 70t22.5 50t-7 24.5zM241 918q9 3 34.5 17t55 29t56 26.5t36.5 11.5
q16 0 17 -9.5t-7 -23t-21.5 -27t-26.5 -20.5q-12 -7 -30.5 -11.5t-38 -7.5t-37 -4.5t-26.5 -1.5q-23 0 -25 7.5t13 13.5z" />
    <glyph glyph-name="Acircumflex" unicode="&#xc2;" 
d="M14 -15q12 21 53.5 75t101.5 125q-56 -2 -97.5 -4.5t-52.5 -6.5q-15 -4 -15 2.5t10 16t27 19.5t36 13q20 3 54.5 4t76.5 0q51 58 109.5 119.5t119.5 117.5t121 103t115 76t101.5 36.5t80.5 -14.5q32 -22 38 -53.5t-7.5 -70t-43 -83.5t-68 -92.5t-83 -97.5t-88.5 -99
t-83.5 -96t-67.5 -90q-21 -32 -26 -49.5t2 -22.5t22 1t34 20q7 6 14 6t10 -4.5t1.5 -11.5t-9.5 -13q-44 -34 -76.5 -38.5t-48.5 14t-12 56.5t33 89q22 38 50.5 80t60.5 86q-22 -2 -52.5 -3t-65.5 -2.5t-74 -3t-77 -2.5q-42 -55 -77 -109.5t-58 -105.5q-7 -15 -25.5 -22.5
t-36 -6t-28 11.5t0.5 30zM800 652q-18 7 -51 -5.5t-76 -39.5t-93 -68t-103 -90t-106 -105.5t-101 -115.5q36 -1 71.5 -2t68 -1.5t59.5 0t45 2.5q4 0 7.5 0.5t6.5 0.5q37 50 75 99.5t72.5 95t63 85t46 70t22.5 50t-7 24.5zM971 783q6 0 4.5 -7t-9.5 -15.5t-21.5 -15.5
t-31.5 -7t-28 8t-14 19t-3 22.5t7 19.5q-8 -6 -18.5 -14t-22 -16.5t-22.5 -16.5t-19 -13q-23 -15 -25.5 -7t14.5 21q12 9 28.5 21.5t34.5 26t36 27.5t33 25q8 9 23 11t27.5 0t19.5 -8t-1 -13q-17 -16 -24 -28.5t-7 -21.5t5.5 -13.5t13.5 -4.5z" />
    <glyph glyph-name="Atilde" unicode="&#xc3;" 
d="M14 -15q12 21 53.5 75t101.5 125q-56 -2 -97.5 -4.5t-52.5 -6.5q-15 -4 -15 2.5t10 16t27 19.5t36 13q20 3 54.5 4t76.5 0q51 58 109.5 119.5t119.5 117.5t121 103t115 76t101.5 36.5t80.5 -14.5q32 -22 38 -53.5t-7.5 -70t-43 -83.5t-68 -92.5t-83 -97.5t-88.5 -99
t-83.5 -96t-67.5 -90q-21 -32 -26 -49.5t2 -22.5t22 1t34 20q7 6 14 6t10 -4.5t1.5 -11.5t-9.5 -13q-44 -34 -76.5 -38.5t-48.5 14t-12 56.5t33 89q22 38 50.5 80t60.5 86q-22 -2 -52.5 -3t-65.5 -2.5t-74 -3t-77 -2.5q-42 -55 -77 -109.5t-58 -105.5q-7 -15 -25.5 -22.5
t-36 -6t-28 11.5t0.5 30zM800 652q-18 7 -51 -5.5t-76 -39.5t-93 -68t-103 -90t-106 -105.5t-101 -115.5q36 -1 71.5 -2t68 -1.5t59.5 0t45 2.5q4 0 7.5 0.5t6.5 0.5q37 50 75 99.5t72.5 95t63 85t46 70t22.5 50t-7 24.5zM757 766q46 54 83.5 60.5t55.5 -27.5t33.5 -30
t45.5 33q12 12 21.5 15t12.5 -1t-2 -14t-21 -25q-35 -32 -59.5 -46.5t-42.5 -16.5t-29.5 7.5t-19.5 26.5q-12 26 -26.5 22t-34.5 -24q-5 -5 -14.5 -9.5t-15 -4t-4.5 8t17 25.5z" />
    <glyph glyph-name="Adieresis" unicode="&#xc4;" 
d="M14 -15q12 21 53.5 75t101.5 125q-56 -2 -97.5 -4.5t-52.5 -6.5q-15 -4 -15 2.5t10 16t27 19.5t36 13q20 3 54.5 4t76.5 0q51 58 109.5 119.5t119.5 117.5t121 103t115 76t101.5 36.5t80.5 -14.5q32 -22 38 -53.5t-7.5 -70t-43 -83.5t-68 -92.5t-83 -97.5t-88.5 -99
t-83.5 -96t-67.5 -90q-21 -32 -26 -49.5t2 -22.5t22 1t34 20q7 6 14 6t10 -4.5t1.5 -11.5t-9.5 -13q-44 -34 -76.5 -38.5t-48.5 14t-12 56.5t33 89q22 38 50.5 80t60.5 86q-22 -2 -52.5 -3t-65.5 -2.5t-74 -3t-77 -2.5q-42 -55 -77 -109.5t-58 -105.5q-7 -15 -25.5 -22.5
t-36 -6t-28 11.5t0.5 30zM800 652q-18 7 -51 -5.5t-76 -39.5t-93 -68t-103 -90t-106 -105.5t-101 -115.5q36 -1 71.5 -2t68 -1.5t59.5 0t45 2.5q4 0 7.5 0.5t6.5 0.5q37 50 75 99.5t72.5 95t63 85t46 70t22.5 50t-7 24.5zM766 783q13 22 37 37t46 15t28 -15t-7 -37
q-14 -22 -38 -37t-46 -15t-28 15t8 37zM893 783q13 22 37 37t46 15t28 -15t-7 -37q-14 -22 -38 -37t-46 -15t-28 15t8 37z" />
    <glyph glyph-name="Aring" unicode="&#xc5;" 
d="M14 -15q12 21 53.5 75t101.5 125q-56 -2 -97.5 -4.5t-52.5 -6.5q-15 -4 -15 2.5t10 16t27 19.5t36 13q20 3 54.5 4t76.5 0q51 58 109.5 119.5t119.5 117.5t121 103t115 76t101.5 36.5t80.5 -14.5q32 -22 38 -53.5t-7.5 -70t-43 -83.5t-68 -92.5t-83 -97.5t-88.5 -99
t-83.5 -96t-67.5 -90q-21 -32 -26 -49.5t2 -22.5t22 1t34 20q7 6 14 6t10 -4.5t1.5 -11.5t-9.5 -13q-44 -34 -76.5 -38.5t-48.5 14t-12 56.5t33 89q22 38 50.5 80t60.5 86q-22 -2 -52.5 -3t-65.5 -2.5t-74 -3t-77 -2.5q-42 -55 -77 -109.5t-58 -105.5q-7 -15 -25.5 -22.5
t-36 -6t-28 11.5t0.5 30zM800 652q-18 7 -51 -5.5t-76 -39.5t-93 -68t-103 -90t-106 -105.5t-101 -115.5q36 -1 71.5 -2t68 -1.5t59.5 0t45 2.5q4 0 7.5 0.5t6.5 0.5q37 50 75 99.5t72.5 95t63 85t46 70t22.5 50t-7 24.5zM808 779q0 34 24 58t58 24t58 -24t24 -58t-24 -58
t-58 -24t-58 24t-24 58zM833 779q0 -24 16.5 -40.5t40.5 -16.5t40.5 16.5t16.5 40.5t-16.5 40.5t-40.5 16.5t-40.5 -16.5t-16.5 -40.5z" />
    <glyph glyph-name="AE" unicode="&#xc6;" horiz-adv-x="1157" 
d="M14 -15q7 13 25 38t45 59t61.5 75t74.5 86q-64 -2 -110.5 -4.5t-57.5 -6.5q-15 -4 -15 2.5t10 16t27 19.5t36 13q20 4 61.5 5.5t92.5 3.5q50 55 105 109.5t110.5 103t110 87.5t103 62.5t90 28t72.5 -15.5q21 -14 32 -36q38 13 80.5 21.5t90.5 10.5q89 4 134.5 -6
t61.5 -24t9 -28t-23.5 -18t-36 6.5t-27.5 44.5q-75 8 -148.5 -10.5t-133.5 -51.5q-4 -27 -18.5 -58t-37 -64.5t-51 -69.5t-60.5 -73q21 -3 49.5 -4.5t58.5 -2.5t57.5 -1t45.5 1h5q26 1 53 1.5t56 0.5q28 0 39.5 -5.5t8.5 -12.5t-18.5 -12.5t-41.5 -5.5q-38 0 -88 -0.5
t-101.5 -2.5t-98.5 -5.5t-78 -10.5q-63 -70 -122.5 -138t-99.5 -128q-49 -73 -24 -80q43 -9 99.5 -6t118.5 15.5t125.5 33t120 46.5t102 56.5t71.5 63.5q10 13 19 18t14 3t4.5 -10.5t-9.5 -22.5q-20 -34 -63 -68.5t-101 -64t-126.5 -53.5t-138.5 -38t-137 -17t-122 10
q-16 3 -29.5 13t-18 29t3.5 48t35 71q32 50 73.5 106.5t85.5 114.5q-53 -2 -125.5 -4t-145.5 -4q-57 -69 -104.5 -138.5t-76.5 -134.5q-7 -15 -25.5 -22.5t-36 -6t-28 11.5t0.5 30zM800 652q-24 9 -75.5 -16t-117 -75t-139 -119.5t-142.5 -147.5q37 1 75 1.5t72.5 1t65 1.5
t52.5 3q49 65 94 125.5t76 108.5t43 79.5t-4 37.5z" />
    <glyph glyph-name="Ccedilla" unicode="&#xc7;" 
d="M645 183q9 13 18 19t14.5 4.5t5.5 -10t-8 -23.5q-18 -32 -50 -68t-73.5 -70.5t-90.5 -64.5t-101.5 -50.5t-106 -28.5t-103.5 2q-8 -8 -17.5 -14.5t-10.5 -14.5q0 -5 13.5 -10.5t27.5 -14.5t21 -24t-8 -39q-14 -24 -39 -26.5t-49.5 6.5t-44.5 24t-23 26t-0.5 18t8 9t12 0
t9.5 -9q3 -8 10 -13t14 -7.5t13.5 -0.5t9.5 9t0.5 11.5t-8 8.5t-11.5 7.5t-10 8.5q-3 4 0.5 10.5t10.5 14t16 15t17 15.5q-4 2 -5 2q-47 19 -70 54t-25.5 80.5t13.5 98t46.5 107t74 109t95.5 102.5q56 52 114.5 94.5t118.5 72.5t120 46t120 16q45 0 70 -18t32.5 -44
t-0.5 -54.5t-29 -49.5q-11 -11 -20 -13.5t-14 1t-3.5 11.5t12.5 18q12 10 19.5 27t6.5 33.5t-14 28.5t-41 12q-29 0 -78 -17.5t-107.5 -49.5t-119.5 -77t-114 -100q-62 -64 -113.5 -132.5t-82 -130t-33 -110t34.5 -70.5q33 -20 78.5 -19t96.5 16t104 41.5t100.5 59t86 67.5
t60.5 68z" />
    <glyph glyph-name="Egrave" unicode="&#xc8;" horiz-adv-x="864" 
d="M636 304q26 1 53 1.5t56 0.5q28 0 39.5 -4t9.5 -8.5t-17.5 -8.5t-41.5 -4q-135 0 -240.5 -24.5t-183 -62t-126 -83t-68.5 -87t-11.5 -74.5t45.5 -46q40 -15 93.5 -14.5t112 12.5t118 33.5t113.5 49.5t98.5 61t71.5 68q10 13 19 18t14 3t4.5 -10.5t-9.5 -22.5
q-20 -36 -62.5 -72.5t-98 -68.5t-120.5 -57t-132 -38.5t-131.5 -13t-118.5 19.5q-41 15 -70.5 46t-37.5 71t8.5 85t67.5 86t139 75t223 53q-65 16 -93 49t-24.5 73.5t35.5 83.5t86.5 79.5t129.5 61t164 28.5t134.5 -6t61.5 -24t9 -28t-23.5 -18t-36 6.5t-27.5 44.5
q-62 7 -122.5 -4.5t-114 -34.5t-97.5 -55t-71 -66t-35 -67t9.5 -58t64 -39t128.5 -10h5zM872 740q15 -6 13 -13.5t-25 -7.5q-9 0 -26.5 1.5t-37 4.5t-38 7.5t-30.5 11.5q-13 7 -26.5 20.5t-21.5 27t-7 23t17 9.5q10 0 36.5 -11.5t56 -26.5t55 -29t34.5 -17z" />
    <glyph glyph-name="Eacute" unicode="&#xc9;" horiz-adv-x="864" 
d="M636 304q26 1 53 1.5t56 0.5q28 0 39.5 -4t9.5 -8.5t-17.5 -8.5t-41.5 -4q-135 0 -240.5 -24.5t-183 -62t-126 -83t-68.5 -87t-11.5 -74.5t45.5 -46q40 -15 93.5 -14.5t112 12.5t118 33.5t113.5 49.5t98.5 61t71.5 68q10 13 19 18t14 3t4.5 -10.5t-9.5 -22.5
q-20 -36 -62.5 -72.5t-98 -68.5t-120.5 -57t-132 -38.5t-131.5 -13t-118.5 19.5q-41 15 -70.5 46t-37.5 71t8.5 85t67.5 86t139 75t223 53q-65 16 -93 49t-24.5 73.5t35.5 83.5t86.5 79.5t129.5 61t164 28.5t134.5 -6t61.5 -24t9 -28t-23.5 -18t-36 6.5t-27.5 44.5
q-62 7 -122.5 -4.5t-114 -34.5t-97.5 -55t-71 -66t-35 -67t9.5 -58t64 -39t128.5 -10h5zM752 723q9 3 34.5 17t55 29t56 26.5t36.5 11.5q16 0 17 -9.5t-7 -23t-21.5 -27t-26.5 -20.5q-12 -7 -30.5 -11.5t-38 -7.5t-37 -4.5t-26.5 -1.5q-23 0 -25 7.5t13 13.5z" />
    <glyph glyph-name="Ecircumflex" unicode="&#xca;" horiz-adv-x="864" 
d="M636 304q26 1 53 1.5t56 0.5q28 0 39.5 -4t9.5 -8.5t-17.5 -8.5t-41.5 -4q-135 0 -240.5 -24.5t-183 -62t-126 -83t-68.5 -87t-11.5 -74.5t45.5 -46q40 -15 93.5 -14.5t112 12.5t118 33.5t113.5 49.5t98.5 61t71.5 68q10 13 19 18t14 3t4.5 -10.5t-9.5 -22.5
q-20 -36 -62.5 -72.5t-98 -68.5t-120.5 -57t-132 -38.5t-131.5 -13t-118.5 19.5q-41 15 -70.5 46t-37.5 71t8.5 85t67.5 86t139 75t223 53q-65 16 -93 49t-24.5 73.5t35.5 83.5t86.5 79.5t129.5 61t164 28.5t134.5 -6t61.5 -24t9 -28t-23.5 -18t-36 6.5t-27.5 44.5
q-62 7 -122.5 -4.5t-114 -34.5t-97.5 -55t-71 -66t-35 -67t9.5 -58t64 -39t128.5 -10h5zM911 750q6 0 4.5 -7t-9.5 -15.5t-21.5 -15.5t-31.5 -7t-28 8t-14 19t-3 22.5t7 19.5q-8 -6 -18.5 -14t-22 -16.5t-22.5 -16.5t-19 -13q-23 -15 -25.5 -7t14.5 21q12 9 28.5 21.5
t34.5 26t36 27.5t33 25q8 9 23 11t27.5 0t19.5 -8t-1 -13q-17 -16 -24 -28.5t-7 -21.5t5.5 -13.5t13.5 -4.5z" />
    <glyph glyph-name="Edieresis" unicode="&#xcb;" horiz-adv-x="864" 
d="M636 304q26 1 53 1.5t56 0.5q28 0 39.5 -4t9.5 -8.5t-17.5 -8.5t-41.5 -4q-135 0 -240.5 -24.5t-183 -62t-126 -83t-68.5 -87t-11.5 -74.5t45.5 -46q40 -15 93.5 -14.5t112 12.5t118 33.5t113.5 49.5t98.5 61t71.5 68q10 13 19 18t14 3t4.5 -10.5t-9.5 -22.5
q-20 -36 -62.5 -72.5t-98 -68.5t-120.5 -57t-132 -38.5t-131.5 -13t-118.5 19.5q-41 15 -70.5 46t-37.5 71t8.5 85t67.5 86t139 75t223 53q-65 16 -93 49t-24.5 73.5t35.5 83.5t86.5 79.5t129.5 61t164 28.5t134.5 -6t61.5 -24t9 -28t-23.5 -18t-36 6.5t-27.5 44.5
q-62 7 -122.5 -4.5t-114 -34.5t-97.5 -55t-71 -66t-35 -67t9.5 -58t64 -39t128.5 -10h5zM737 753q13 22 37 37t46 15t28 -15t-7 -37q-14 -22 -38 -37t-46 -15t-28 15t8 37zM864 753q13 22 37 37t46 15t28 -15t-7 -37q-14 -22 -38 -37t-46 -15t-28 15t8 37z" />
    <glyph glyph-name="Igrave" unicode="&#xcc;" horiz-adv-x="507" 
d="M17 561q9 18 37.5 38.5t69 41t91 40t104.5 34.5t108.5 24.5t103 10.5t89 -7t65.5 -29q40 -33 43.5 -76t-19.5 -93t-67 -104.5t-100.5 -109.5t-119.5 -109t-123.5 -102.5t-114 -89.5t-89.5 -71q-9 -8 -18.5 -6.5t-15 7.5t-5.5 16t11 21q51 51 120.5 118t141.5 139
t139.5 143.5t116.5 132t71 104.5t3 60q-15 12 -47 15t-75 -1.5t-93 -15t-100.5 -24.5t-99 -30.5t-88.5 -33.5t-67.5 -33t-36.5 -28q-6 -8 -5.5 -13.5t5 -9.5t12.5 -6t16 -2q21 0 25 -10t-15 -12q-19 0 -36 4t-28.5 13t-14.5 22.5t6 31.5zM811 775q15 -6 13 -13.5t-25 -7.5
q-9 0 -26.5 1.5t-37 4.5t-38 7.5t-30.5 11.5q-13 7 -26.5 20.5t-21.5 27t-7 23t17 9.5q10 0 36.5 -11.5t56 -26.5t55 -29t34.5 -17z" />
    <glyph glyph-name="Iacute" unicode="&#xcd;" horiz-adv-x="507" 
d="M17 561q9 18 37.5 38.5t69 41t91 40t104.5 34.5t108.5 24.5t103 10.5t89 -7t65.5 -29q40 -33 43.5 -76t-19.5 -93t-67 -104.5t-100.5 -109.5t-119.5 -109t-123.5 -102.5t-114 -89.5t-89.5 -71q-9 -8 -18.5 -6.5t-15 7.5t-5.5 16t11 21q51 51 120.5 118t141.5 139
t139.5 143.5t116.5 132t71 104.5t3 60q-15 12 -47 15t-75 -1.5t-93 -15t-100.5 -24.5t-99 -30.5t-88.5 -33.5t-67.5 -33t-36.5 -28q-6 -8 -5.5 -13.5t5 -9.5t12.5 -6t16 -2q21 0 25 -10t-15 -12q-19 0 -36 4t-28.5 13t-14.5 22.5t6 31.5zM698 782q9 3 34.5 17t55 29t56 26.5
t36.5 11.5q16 0 17 -9.5t-7 -23t-21.5 -27t-26.5 -20.5q-12 -7 -30.5 -11.5t-38 -7.5t-37 -4.5t-26.5 -1.5q-23 0 -25 7.5t13 13.5z" />
    <glyph glyph-name="Icircumflex" unicode="&#xce;" horiz-adv-x="507" 
d="M17 561q9 18 37.5 38.5t69 41t91 40t104.5 34.5t108.5 24.5t103 10.5t89 -7t65.5 -29q40 -33 43.5 -76t-19.5 -93t-67 -104.5t-100.5 -109.5t-119.5 -109t-123.5 -102.5t-114 -89.5t-89.5 -71q-9 -8 -18.5 -6.5t-15 7.5t-5.5 16t11 21q51 51 120.5 118t141.5 139
t139.5 143.5t116.5 132t71 104.5t3 60q-15 12 -47 15t-75 -1.5t-93 -15t-100.5 -24.5t-99 -30.5t-88.5 -33.5t-67.5 -33t-36.5 -28q-6 -8 -5.5 -13.5t5 -9.5t12.5 -6t16 -2q21 0 25 -10t-15 -12q-19 0 -36 4t-28.5 13t-14.5 22.5t6 31.5zM846 816q6 0 4.5 -7t-9.5 -15.5
t-21.5 -15.5t-31.5 -7t-28 8t-14 19t-3 22.5t7 19.5q-8 -6 -18.5 -14t-22 -16.5t-22.5 -16.5t-19 -13q-23 -15 -25.5 -7t14.5 21q12 9 28.5 21.5t34.5 26t36 27.5t33 25q8 9 23 11t27.5 0t19.5 -8t-1 -13q-17 -16 -24 -28.5t-7 -21.5t5.5 -13.5t13.5 -4.5z" />
    <glyph glyph-name="Idieresis" unicode="&#xcf;" horiz-adv-x="507" 
d="M17 561q9 18 37.5 38.5t69 41t91 40t104.5 34.5t108.5 24.5t103 10.5t89 -7t65.5 -29q40 -33 43.5 -76t-19.5 -93t-67 -104.5t-100.5 -109.5t-119.5 -109t-123.5 -102.5t-114 -89.5t-89.5 -71q-9 -8 -18.5 -6.5t-15 7.5t-5.5 16t11 21q51 51 120.5 118t141.5 139
t139.5 143.5t116.5 132t71 104.5t3 60q-15 12 -47 15t-75 -1.5t-93 -15t-100.5 -24.5t-99 -30.5t-88.5 -33.5t-67.5 -33t-36.5 -28q-6 -8 -5.5 -13.5t5 -9.5t12.5 -6t16 -2q21 0 25 -10t-15 -12q-19 0 -36 4t-28.5 13t-14.5 22.5t6 31.5zM655 817q13 22 37 37t46 15t28 -15
t-7 -37q-14 -22 -38 -37t-46 -15t-28 15t8 37zM782 817q13 22 37 37t46 15t28 -15t-7 -37q-14 -22 -38 -37t-46 -15t-28 15t8 37z" />
    <glyph glyph-name="Eth" unicode="&#xd0;" horiz-adv-x="1057" 
d="M434 415q-8 -14 -16.5 -19.5t-14 -3t-6.5 11.5t7 24q18 31 64 68.5t109.5 73.5t138.5 66t150 45.5t145 13t123 -32.5q64 -36 78 -93.5t-13 -125.5t-89.5 -142t-150.5 -143t-197 -128t-228.5 -97t-244 -49.5t-245.5 13.5q-31 6 -40 13t-4 12t20.5 6.5t33.5 -3.5
q63 -18 138 -13t155.5 28t163.5 60t162.5 84t152.5 100.5t134 108t106.5 107t70 98.5t24.5 82t-30 57q-27 19 -69.5 22.5t-94.5 -4t-109.5 -24.5t-114.5 -39t-109.5 -47t-94.5 -49t-70 -45.5t-35 -35.5zM250 247q6 0 29 1t54 2q33 33 67.5 64.5t67.5 58t62.5 47.5t52.5 33
q21 11 49 15t50.5 2.5t33.5 -6.5t-2 -11q-14 -6 -42 -25t-63.5 -46t-76.5 -60.5t-81 -68.5q29 1 50.5 1t28.5 -1q10 -1 11.5 -6.5t-4 -12t-16.5 -13t-26 -10.5q-11 -2 -38.5 -4t-61.5 -4q-41 -37 -75 -70.5t-55.5 -59.5t-26.5 -41.5t12 -15.5q10 0 27 7q7 2 12 0t7 -5.5
t-0.5 -8.5t-11.5 -8q-15 -6 -30.5 -8.5t-29.5 -2.5q-36 0 -45 17.5t2 47t39 67.5t66 79q-20 1 -35 1.5t-20 2.5q-11 3 -12.5 9.5t3 13.5t12.5 12.5t16 6.5z" />
    <glyph glyph-name="Ntilde" unicode="&#xd1;" horiz-adv-x="1082" 
d="M85 -58q-12 -9 -21.5 -16.5t-17.5 -14.5q-9 -8 -18.5 -7t-15 7.5t-5.5 16.5t11 21q38 38 96.5 87.5t127.5 105t143.5 114t145 115.5t131.5 109t104 94t62 71.5t5 41.5q-15 12 -52.5 15.5t-88 -0.5t-111 -14t-122.5 -23.5t-121 -29.5t-106.5 -32.5t-80.5 -32t-42 -27.5
q-13 -15 -1 -23t29 -8q21 0 25 -10t-15 -12q-20 0 -37 4t-28.5 13t-14 22.5t6.5 31.5t42.5 38.5t82.5 40.5t109.5 38.5t125.5 33t130 23.5t122 9.5t102 -8t70 -29.5q35 -29 34.5 -66t-27.5 -80t-75.5 -90t-108.5 -95q96 59 186.5 108t168 79.5t137.5 39t96 -14.5
q32 -21 31.5 -52t-23.5 -69t-65 -81t-93 -87.5t-106.5 -88.5t-106 -84.5t-92 -75t-64.5 -60t-22.5 -40t33.5 -14.5q20 0 29.5 -5t8 -11t-14 -11t-35.5 -5q-50 0 -65 18.5t-4.5 50t43 73.5t76.5 89.5t95.5 97t101 97t92.5 89.5t71 73.5t35 50t-15 18.5q-33 0 -89.5 -21
t-127.5 -56.5t-153 -82.5t-167 -99t-169 -105.5t-158.5 -103t-136 -91t-101.5 -68.5zM1003 693q46 54 83.5 60.5t55.5 -27.5t33.5 -30t45.5 33q12 12 21.5 15t12.5 -1t-2 -14t-21 -25q-35 -32 -59.5 -46.5t-42.5 -16.5t-29.5 7.5t-19.5 26.5q-12 26 -26.5 22t-34.5 -24
q-5 -5 -14.5 -9.5t-15 -4t-4.5 8t17 25.5z" />
    <glyph glyph-name="Ograve" unicode="&#xd2;" horiz-adv-x="807" 
d="M847 535q-8 -8 -16 -12q29 -41 27 -92t-25 -106t-62.5 -112t-85.5 -110q-31 -35 -72.5 -71.5t-89 -68t-99 -56.5t-104.5 -38.5t-105 -13t-99 20.5q-51 21 -75.5 58.5t-27.5 86t14.5 105t50.5 115.5t79.5 117.5t102.5 110.5q50 46 100.5 85t104.5 69q-24 1 -49 2t-52 1
q-17 0 -25.5 4.5t-8.5 10.5t8.5 10.5t25.5 4.5q42 0 79.5 -1.5t70.5 -5.5q64 31 127.5 48t126.5 17q49 0 75.5 -19.5t35 -47.5t-0.5 -59t-31 -53zM789 669q-23 0 -56 -13t-75 -32q54 -14 92.5 -34t61.5 -45q3 2 4.5 4t5.5 4q12 11 19.5 30.5t6 38.5t-15 33t-43.5 14z
M627 163q34 41 68 84.5t59 87t35.5 85t-2 77t-53 63t-117.5 44.5q-69 -35 -142.5 -86.5t-137.5 -116.5q-44 -46 -85 -95.5t-74 -98.5t-56 -95t-32.5 -84.5t-2.5 -68t34 -45.5q31 -19 71 -19.5t85 14t92.5 40.5t93.5 60t88 73.5t76 80.5zM868 761q15 -6 13 -13.5t-25 -7.5
q-9 0 -26.5 1.5t-37 4.5t-38 7.5t-30.5 11.5q-13 7 -26.5 20.5t-21.5 27t-7 23t17 9.5q10 0 36.5 -11.5t56 -26.5t55 -29t34.5 -17z" />
    <glyph glyph-name="Oacute" unicode="&#xd3;" horiz-adv-x="807" 
d="M847 535q-8 -8 -16 -12q29 -41 27 -92t-25 -106t-62.5 -112t-85.5 -110q-31 -35 -72.5 -71.5t-89 -68t-99 -56.5t-104.5 -38.5t-105 -13t-99 20.5q-51 21 -75.5 58.5t-27.5 86t14.5 105t50.5 115.5t79.5 117.5t102.5 110.5q50 46 100.5 85t104.5 69q-24 1 -49 2t-52 1
q-17 0 -25.5 4.5t-8.5 10.5t8.5 10.5t25.5 4.5q42 0 79.5 -1.5t70.5 -5.5q64 31 127.5 48t126.5 17q49 0 75.5 -19.5t35 -47.5t-0.5 -59t-31 -53zM789 669q-23 0 -56 -13t-75 -32q54 -14 92.5 -34t61.5 -45q3 2 4.5 4t5.5 4q12 11 19.5 30.5t6 38.5t-15 33t-43.5 14z
M627 163q34 41 68 84.5t59 87t35.5 85t-2 77t-53 63t-117.5 44.5q-69 -35 -142.5 -86.5t-137.5 -116.5q-44 -46 -85 -95.5t-74 -98.5t-56 -95t-32.5 -84.5t-2.5 -68t34 -45.5q31 -19 71 -19.5t85 14t92.5 40.5t93.5 60t88 73.5t76 80.5zM734 758q9 3 34.5 17t55 29t56 26.5
t36.5 11.5q16 0 17 -9.5t-7 -23t-21.5 -27t-26.5 -20.5q-12 -7 -30.5 -11.5t-38 -7.5t-37 -4.5t-26.5 -1.5q-23 0 -25 7.5t13 13.5z" />
    <glyph glyph-name="Ocircumflex" unicode="&#xd4;" horiz-adv-x="807" 
d="M847 535q-8 -8 -16 -12q29 -41 27 -92t-25 -106t-62.5 -112t-85.5 -110q-31 -35 -72.5 -71.5t-89 -68t-99 -56.5t-104.5 -38.5t-105 -13t-99 20.5q-51 21 -75.5 58.5t-27.5 86t14.5 105t50.5 115.5t79.5 117.5t102.5 110.5q50 46 100.5 85t104.5 69q-24 1 -49 2t-52 1
q-17 0 -25.5 4.5t-8.5 10.5t8.5 10.5t25.5 4.5q42 0 79.5 -1.5t70.5 -5.5q64 31 127.5 48t126.5 17q49 0 75.5 -19.5t35 -47.5t-0.5 -59t-31 -53zM789 669q-23 0 -56 -13t-75 -32q54 -14 92.5 -34t61.5 -45q3 2 4.5 4t5.5 4q12 11 19.5 30.5t6 38.5t-15 33t-43.5 14z
M627 163q34 41 68 84.5t59 87t35.5 85t-2 77t-53 63t-117.5 44.5q-69 -35 -142.5 -86.5t-137.5 -116.5q-44 -46 -85 -95.5t-74 -98.5t-56 -95t-32.5 -84.5t-2.5 -68t34 -45.5q31 -19 71 -19.5t85 14t92.5 40.5t93.5 60t88 73.5t76 80.5zM899 776q6 0 4.5 -7t-9.5 -15.5
t-21.5 -15.5t-31.5 -7t-28 8t-14 19t-3 22.5t7 19.5q-8 -6 -18.5 -14t-22 -16.5t-22.5 -16.5t-19 -13q-23 -15 -25.5 -7t14.5 21q12 9 28.5 21.5t34.5 26t36 27.5t33 25q8 9 23 11t27.5 0t19.5 -8t-1 -13q-17 -16 -24 -28.5t-7 -21.5t5.5 -13.5t13.5 -4.5z" />
    <glyph glyph-name="Otilde" unicode="&#xd5;" horiz-adv-x="807" 
d="M847 535q-8 -8 -16 -12q29 -41 27 -92t-25 -106t-62.5 -112t-85.5 -110q-31 -35 -72.5 -71.5t-89 -68t-99 -56.5t-104.5 -38.5t-105 -13t-99 20.5q-51 21 -75.5 58.5t-27.5 86t14.5 105t50.5 115.5t79.5 117.5t102.5 110.5q50 46 100.5 85t104.5 69q-24 1 -49 2t-52 1
q-17 0 -25.5 4.5t-8.5 10.5t8.5 10.5t25.5 4.5q42 0 79.5 -1.5t70.5 -5.5q64 31 127.5 48t126.5 17q49 0 75.5 -19.5t35 -47.5t-0.5 -59t-31 -53zM789 669q-23 0 -56 -13t-75 -32q54 -14 92.5 -34t61.5 -45q3 2 4.5 4t5.5 4q12 11 19.5 30.5t6 38.5t-15 33t-43.5 14z
M627 163q34 41 68 84.5t59 87t35.5 85t-2 77t-53 63t-117.5 44.5q-69 -35 -142.5 -86.5t-137.5 -116.5q-44 -46 -85 -95.5t-74 -98.5t-56 -95t-32.5 -84.5t-2.5 -68t34 -45.5q31 -19 71 -19.5t85 14t92.5 40.5t93.5 60t88 73.5t76 80.5zM728 777q46 54 83.5 60.5t55.5 -27.5
t33.5 -30t45.5 33q12 12 21.5 15t12.5 -1t-2 -14t-21 -25q-35 -32 -59.5 -46.5t-42.5 -16.5t-29.5 7.5t-19.5 26.5q-12 26 -26.5 22t-34.5 -24q-5 -5 -14.5 -9.5t-15 -4t-4.5 8t17 25.5z" />
    <glyph glyph-name="Odieresis" unicode="&#xd6;" horiz-adv-x="807" 
d="M847 535q-8 -8 -16 -12q29 -41 27 -92t-25 -106t-62.5 -112t-85.5 -110q-31 -35 -72.5 -71.5t-89 -68t-99 -56.5t-104.5 -38.5t-105 -13t-99 20.5q-51 21 -75.5 58.5t-27.5 86t14.5 105t50.5 115.5t79.5 117.5t102.5 110.5q50 46 100.5 85t104.5 69q-24 1 -49 2t-52 1
q-17 0 -25.5 4.5t-8.5 10.5t8.5 10.5t25.5 4.5q42 0 79.5 -1.5t70.5 -5.5q64 31 127.5 48t126.5 17q49 0 75.5 -19.5t35 -47.5t-0.5 -59t-31 -53zM789 669q-23 0 -56 -13t-75 -32q54 -14 92.5 -34t61.5 -45q3 2 4.5 4t5.5 4q12 11 19.5 30.5t6 38.5t-15 33t-43.5 14z
M627 163q34 41 68 84.5t59 87t35.5 85t-2 77t-53 63t-117.5 44.5q-69 -35 -142.5 -86.5t-137.5 -116.5q-44 -46 -85 -95.5t-74 -98.5t-56 -95t-32.5 -84.5t-2.5 -68t34 -45.5q31 -19 71 -19.5t85 14t92.5 40.5t93.5 60t88 73.5t76 80.5zM688 783q13 22 37 37t46 15t28 -15
t-7 -37q-14 -22 -38 -37t-46 -15t-28 15t8 37zM815 783q13 22 37 37t46 15t28 -15t-7 -37q-14 -22 -38 -37t-46 -15t-28 15t8 37z" />
    <glyph glyph-name="Oslash" unicode="&#xd8;" horiz-adv-x="807" 
d="M-44 -72q1 2 18 15t46 35q-14 48 -1.5 109t45 126.5t83 131t113.5 124.5q50 46 100.5 85t104.5 69q-24 1 -49 2t-52 1q-17 0 -25.5 4.5t-8.5 10.5t8.5 10.5t25.5 4.5q42 0 79.5 -1.5t70.5 -5.5q64 31 127.5 48t126.5 17q38 0 62.5 -12.5t37 -31.5t14.5 -43t-6 -46
q35 23 56.5 37t25.5 15q16 3 32 3.5t26.5 -2t13 -8.5t-9.5 -16l-173 -118q16 -41 8.5 -89t-31 -98.5t-60.5 -102t-79 -99.5q-31 -35 -72.5 -71.5t-89 -68t-99 -56.5t-104.5 -38.5t-105 -13t-99 20.5q-30 12 -50.5 30t-32.5 41q-24 -15 -39 -24t-17 -9q-22 1 -24 2t3 12z
M627 163q30 35 59.5 72.5t53.5 75t39 74.5t15 70q-55 -38 -118 -80t-128 -86t-130.5 -88t-125.5 -84t-113.5 -75.5t-94.5 -61.5q3 -46 37 -66q31 -19 71 -19.5t85 14t92.5 40.5t93.5 60t88 73.5t76 80.5zM90 29q44 32 98.5 71t114.5 81.5t123 87.5t125 88t120 83.5t108 74.5
q-17 29 -56 52t-106 37q-69 -35 -142.5 -86.5t-137.5 -116.5q-44 -46 -84.5 -95t-73.5 -97.5t-56 -94.5t-33 -85zM789 669q-23 0 -56 -13t-75 -32q54 -14 92.5 -34t61.5 -45q3 2 4.5 4t5.5 4q12 11 19.5 30.5t6 38.5t-15 33t-43.5 14z" />
    <glyph glyph-name="Ugrave" unicode="&#xd9;" horiz-adv-x="1053" 
d="M192 -53q29 -5 76 11t105.5 47t126 73t139 91t143.5 100.5t139 101t126 93.5t105 77q53 47 100 89t82 77q10 10 20.5 3.5t16 -24t2.5 -41t-21 -47.5q-45 -57 -109 -118t-133 -120.5t-136 -115t-117 -103t-76.5 -83.5t-15.5 -56q7 -12 28.5 -7.5t48.5 19.5t54.5 37.5
t46.5 48.5q11 15 23 20t19 1.5t5.5 -15t-17.5 -30.5q-22 -27 -53 -54t-65 -44t-68 -18.5t-62 22.5q-30 26 -22 64t41 85t86 100.5t114 109.5q-84 -59 -168 -120t-164 -115t-154 -98.5t-137 -71t-113.5 -32.5t-83.5 17q-26 18 -28.5 48t24 74t83.5 103t151 136
q90 73 171 141.5t139.5 123t87.5 92t16 48.5q-20 16 -77.5 16.5t-134 -10t-161.5 -29t-159 -40t-127 -43.5t-66 -38q-11 -15 0.5 -23t27.5 -8q21 0 25 -10t-15 -12q-18 0 -35 4t-28.5 13t-14.5 22.5t7 31.5q9 18 42 38t81.5 40t109 38.5t125.5 32.5t129.5 23t122 10
t103 -7.5t71.5 -28.5q33 -26 31 -62t-28.5 -79.5t-73.5 -92t-103.5 -98.5t-118.5 -100t-119.5 -96t-105.5 -86t-76.5 -71t-33 -50.5t25.5 -24.5zM1168 695q15 -6 13 -13.5t-25 -7.5q-9 0 -26.5 1.5t-37 4.5t-38 7.5t-30.5 11.5q-13 7 -26.5 20.5t-21.5 27t-7 23t17 9.5
q10 0 36.5 -11.5t56 -26.5t55 -29t34.5 -17z" />
    <glyph glyph-name="Uacute" unicode="&#xda;" horiz-adv-x="1053" 
d="M192 -53q29 -5 76 11t105.5 47t126 73t139 91t143.5 100.5t139 101t126 93.5t105 77q53 47 100 89t82 77q10 10 20.5 3.5t16 -24t2.5 -41t-21 -47.5q-45 -57 -109 -118t-133 -120.5t-136 -115t-117 -103t-76.5 -83.5t-15.5 -56q7 -12 28.5 -7.5t48.5 19.5t54.5 37.5
t46.5 48.5q11 15 23 20t19 1.5t5.5 -15t-17.5 -30.5q-22 -27 -53 -54t-65 -44t-68 -18.5t-62 22.5q-30 26 -22 64t41 85t86 100.5t114 109.5q-84 -59 -168 -120t-164 -115t-154 -98.5t-137 -71t-113.5 -32.5t-83.5 17q-26 18 -28.5 48t24 74t83.5 103t151 136
q90 73 171 141.5t139.5 123t87.5 92t16 48.5q-20 16 -77.5 16.5t-134 -10t-161.5 -29t-159 -40t-127 -43.5t-66 -38q-11 -15 0.5 -23t27.5 -8q21 0 25 -10t-15 -12q-18 0 -35 4t-28.5 13t-14.5 22.5t7 31.5q9 18 42 38t81.5 40t109 38.5t125.5 32.5t129.5 23t122 10
t103 -7.5t71.5 -28.5q33 -26 31 -62t-28.5 -79.5t-73.5 -92t-103.5 -98.5t-118.5 -100t-119.5 -96t-105.5 -86t-76.5 -71t-33 -50.5t25.5 -24.5zM1017 698q9 3 34.5 17t55 29t56 26.5t36.5 11.5q16 0 17 -9.5t-7 -23t-21.5 -27t-26.5 -20.5q-12 -7 -30.5 -11.5t-38 -7.5
t-37 -4.5t-26.5 -1.5q-23 0 -25 7.5t13 13.5z" />
    <glyph glyph-name="Ucircumflex" unicode="&#xdb;" horiz-adv-x="1053" 
d="M192 -53q29 -5 76 11t105.5 47t126 73t139 91t143.5 100.5t139 101t126 93.5t105 77q53 47 100 89t82 77q10 10 20.5 3.5t16 -24t2.5 -41t-21 -47.5q-45 -57 -109 -118t-133 -120.5t-136 -115t-117 -103t-76.5 -83.5t-15.5 -56q7 -12 28.5 -7.5t48.5 19.5t54.5 37.5
t46.5 48.5q11 15 23 20t19 1.5t5.5 -15t-17.5 -30.5q-22 -27 -53 -54t-65 -44t-68 -18.5t-62 22.5q-30 26 -22 64t41 85t86 100.5t114 109.5q-84 -59 -168 -120t-164 -115t-154 -98.5t-137 -71t-113.5 -32.5t-83.5 17q-26 18 -28.5 48t24 74t83.5 103t151 136
q90 73 171 141.5t139.5 123t87.5 92t16 48.5q-20 16 -77.5 16.5t-134 -10t-161.5 -29t-159 -40t-127 -43.5t-66 -38q-11 -15 0.5 -23t27.5 -8q21 0 25 -10t-15 -12q-18 0 -35 4t-28.5 13t-14.5 22.5t7 31.5q9 18 42 38t81.5 40t109 38.5t125.5 32.5t129.5 23t122 10
t103 -7.5t71.5 -28.5q33 -26 31 -62t-28.5 -79.5t-73.5 -92t-103.5 -98.5t-118.5 -100t-119.5 -96t-105.5 -86t-76.5 -71t-33 -50.5t25.5 -24.5zM1206 726q6 0 4.5 -7t-9.5 -15.5t-21.5 -15.5t-31.5 -7t-28 8t-14 19t-3 22.5t7 19.5q-8 -6 -18.5 -14t-22 -16.5t-22.5 -16.5
t-19 -13q-23 -15 -25.5 -7t14.5 21q12 9 28.5 21.5t34.5 26t36 27.5t33 25q8 9 23 11t27.5 0t19.5 -8t-1 -13q-17 -16 -24 -28.5t-7 -21.5t5.5 -13.5t13.5 -4.5z" />
    <glyph glyph-name="Udieresis" unicode="&#xdc;" horiz-adv-x="1053" 
d="M192 -53q29 -5 76 11t105.5 47t126 73t139 91t143.5 100.5t139 101t126 93.5t105 77q53 47 100 89t82 77q10 10 20.5 3.5t16 -24t2.5 -41t-21 -47.5q-45 -57 -109 -118t-133 -120.5t-136 -115t-117 -103t-76.5 -83.5t-15.5 -56q7 -12 28.5 -7.5t48.5 19.5t54.5 37.5
t46.5 48.5q11 15 23 20t19 1.5t5.5 -15t-17.5 -30.5q-22 -27 -53 -54t-65 -44t-68 -18.5t-62 22.5q-30 26 -22 64t41 85t86 100.5t114 109.5q-84 -59 -168 -120t-164 -115t-154 -98.5t-137 -71t-113.5 -32.5t-83.5 17q-26 18 -28.5 48t24 74t83.5 103t151 136
q90 73 171 141.5t139.5 123t87.5 92t16 48.5q-20 16 -77.5 16.5t-134 -10t-161.5 -29t-159 -40t-127 -43.5t-66 -38q-11 -15 0.5 -23t27.5 -8q21 0 25 -10t-15 -12q-18 0 -35 4t-28.5 13t-14.5 22.5t7 31.5q9 18 42 38t81.5 40t109 38.5t125.5 32.5t129.5 23t122 10
t103 -7.5t71.5 -28.5q33 -26 31 -62t-28.5 -79.5t-73.5 -92t-103.5 -98.5t-118.5 -100t-119.5 -96t-105.5 -86t-76.5 -71t-33 -50.5t25.5 -24.5zM1108 730q13 22 37 37t46 15t28 -15t-7 -37q-14 -22 -38 -37t-46 -15t-28 15t8 37zM981 730q13 22 37 37t46 15t28 -15t-7 -37
q-14 -22 -38 -37t-46 -15t-28 15t8 37z" />
    <glyph glyph-name="Yacute" unicode="&#xdd;" horiz-adv-x="833" 
d="M404 239q42 -6 94.5 14t110.5 56.5t117 85t114 100t102 100.5t81 86l13 19q7 10 23 9t31 -9t23.5 -22t0.5 -29q-12 -21 -31.5 -52.5t-44 -67.5t-53 -75t-58 -76t-58.5 -70.5t-55 -57.5q-87 -82 -172 -154.5t-169 -127t-168 -86t-169 -31.5q-30 0 -52 9t-36 21
q-33 28 -39.5 65.5t7 76t44 74.5t72 60.5t90 34t98.5 -4.5q36 -10 58.5 -26.5t30.5 -29.5t3 -17.5t-23 9.5q-34 26 -72.5 25t-75.5 -19t-69.5 -48.5t-55 -63.5t-32 -63t0.5 -48q4 -9 16.5 -14.5t29.5 -5.5q56 0 132 38t158 97.5t162 132t145 141.5q21 23 45 51.5t48.5 60
t49.5 65t49 65.5q-42 -45 -92.5 -92t-104 -89t-108.5 -76t-106 -53.5t-95.5 -21.5t-77.5 20q-32 22 -36 52t10 64.5t43 72t63 74t69 70.5t62 60.5t41.5 44.5t7.5 24q-20 16 -65 18t-101.5 -6t-118.5 -23.5t-116.5 -34.5t-94.5 -39.5t-53 -36.5q-11 -15 0 -23.5t28 -8.5
q21 0 24.5 -10t-14.5 -11q-19 -1 -36 3t-28.5 13t-14.5 22.5t7 32.5q12 24 52 50t96 48.5t122 39.5t130 23t119 -2t90 -35q39 -30 41.5 -65t-18.5 -71.5t-58 -73.5t-77 -71.5t-77 -66t-56.5 -56t-16 -41.5t43.5 -23zM781 708q9 3 34.5 17t55 29t56 26.5t36.5 11.5
q16 0 17 -9.5t-7 -23t-21.5 -27t-26.5 -20.5q-12 -7 -30.5 -11.5t-38 -7.5t-37 -4.5t-26.5 -1.5q-23 0 -25 7.5t13 13.5z" />
    <glyph glyph-name="agrave" unicode="&#xe0;" horiz-adv-x="409" 
d="M409 121q18 12 28 13.5t11 -4t-7.5 -16.5t-27.5 -23q-21 -15 -47.5 -31t-54 -29.5t-54 -22t-47.5 -8.5q-12 0 -22.5 4.5t-17.5 13t-9 20t4 26.5q6 16 28 46q-32 -25 -66 -48t-64 -38.5t-53.5 -20.5t-36.5 7q-17 16 -11 40.5t23 50.5t40 50t41 39q54 46 114 76t114 30
q30 0 56.5 -9t43.5 -24q9 -9 6 -14.5t-11 -7t-18 0.5t-15 9q-4 4 -15 10.5t-25 6.5q-18 0 -46.5 -16t-61 -40.5t-64.5 -53t-56 -53t-36 -40.5t-4 -16q9 0 33.5 16.5t57.5 41t70 53t69 53.5q12 13 33.5 16.5t40 0t28.5 -12.5t-1 -19q-26 -24 -52.5 -51t-46 -50t-28 -38
t2.5 -15t28.5 7t38.5 18t43.5 24.5t43.5 27.5zM472 458q15 -6 13 -13.5t-25 -7.5q-9 0 -26.5 1.5t-37 4.5t-38 7.5t-30.5 11.5q-13 7 -26.5 20.5t-21.5 27t-7 23t17 9.5q10 0 36.5 -11.5t56 -26.5t55 -29t34.5 -17z" />
    <glyph glyph-name="aacute" unicode="&#xe1;" horiz-adv-x="409" 
d="M409 121q18 12 28 13.5t11 -4t-7.5 -16.5t-27.5 -23q-21 -15 -47.5 -31t-54 -29.5t-54 -22t-47.5 -8.5q-12 0 -22.5 4.5t-17.5 13t-9 20t4 26.5q6 16 28 46q-32 -25 -66 -48t-64 -38.5t-53.5 -20.5t-36.5 7q-17 16 -11 40.5t23 50.5t40 50t41 39q54 46 114 76t114 30
q30 0 56.5 -9t43.5 -24q9 -9 6 -14.5t-11 -7t-18 0.5t-15 9q-4 4 -15 10.5t-25 6.5q-18 0 -46.5 -16t-61 -40.5t-64.5 -53t-56 -53t-36 -40.5t-4 -16q9 0 33.5 16.5t57.5 41t70 53t69 53.5q12 13 33.5 16.5t40 0t28.5 -12.5t-1 -19q-26 -24 -52.5 -51t-46 -50t-28 -38
t2.5 -15t28.5 7t38.5 18t43.5 24.5t43.5 27.5zM347 458q9 3 34.5 17t55 29t56 26.5t36.5 11.5q16 0 17 -9.5t-7 -23t-21.5 -27t-26.5 -20.5q-12 -7 -30.5 -11.5t-38 -7.5t-37 -4.5t-26.5 -1.5q-23 0 -25 7.5t13 13.5z" />
    <glyph glyph-name="acircumflex" unicode="&#xe2;" horiz-adv-x="409" 
d="M409 121q18 12 28 13.5t11 -4t-7.5 -16.5t-27.5 -23q-21 -15 -47.5 -31t-54 -29.5t-54 -22t-47.5 -8.5q-12 0 -22.5 4.5t-17.5 13t-9 20t4 26.5q6 16 28 46q-32 -25 -66 -48t-64 -38.5t-53.5 -20.5t-36.5 7q-17 16 -11 40.5t23 50.5t40 50t41 39q54 46 114 76t114 30
q30 0 56.5 -9t43.5 -24q9 -9 6 -14.5t-11 -7t-18 0.5t-15 9q-4 4 -15 10.5t-25 6.5q-18 0 -46.5 -16t-61 -40.5t-64.5 -53t-56 -53t-36 -40.5t-4 -16q9 0 33.5 16.5t57.5 41t70 53t69 53.5q12 13 33.5 16.5t40 0t28.5 -12.5t-1 -19q-26 -24 -52.5 -51t-46 -50t-28 -38
t2.5 -15t28.5 7t38.5 18t43.5 24.5t43.5 27.5zM474 443q6 0 4.5 -7t-9.5 -15.5t-21.5 -15.5t-31.5 -7t-28 8t-14 19t-3 22.5t7 19.5q-8 -6 -18.5 -14t-22 -16.5t-22.5 -16.5t-19 -13q-23 -15 -25.5 -7t14.5 21q12 9 28.5 21.5t34.5 26t36 27.5t33 25q8 9 23 11t27.5 0
t19.5 -8t-1 -13q-17 -16 -24 -28.5t-7 -21.5t5.5 -13.5t13.5 -4.5z" />
    <glyph glyph-name="atilde" unicode="&#xe3;" horiz-adv-x="409" 
d="M409 121q18 12 28 13.5t11 -4t-7.5 -16.5t-27.5 -23q-21 -15 -47.5 -31t-54 -29.5t-54 -22t-47.5 -8.5q-12 0 -22.5 4.5t-17.5 13t-9 20t4 26.5q6 16 28 46q-32 -25 -66 -48t-64 -38.5t-53.5 -20.5t-36.5 7q-17 16 -11 40.5t23 50.5t40 50t41 39q54 46 114 76t114 30
q30 0 56.5 -9t43.5 -24q9 -9 6 -14.5t-11 -7t-18 0.5t-15 9q-4 4 -15 10.5t-25 6.5q-18 0 -46.5 -16t-61 -40.5t-64.5 -53t-56 -53t-36 -40.5t-4 -16q9 0 33.5 16.5t57.5 41t70 53t69 53.5q12 13 33.5 16.5t40 0t28.5 -12.5t-1 -19q-26 -24 -52.5 -51t-46 -50t-28 -38
t2.5 -15t28.5 7t38.5 18t43.5 24.5t43.5 27.5zM291 470q46 54 83.5 60.5t55.5 -27.5t33.5 -30t45.5 33q12 12 21.5 15t12.5 -1t-2 -14t-21 -25q-35 -32 -59.5 -46.5t-42.5 -16.5t-29.5 7.5t-19.5 26.5q-12 26 -26.5 22t-34.5 -24q-5 -5 -14.5 -9.5t-15 -4t-4.5 8t17 25.5z
" />
    <glyph glyph-name="adieresis" unicode="&#xe4;" horiz-adv-x="409" 
d="M409 121q18 12 28 13.5t11 -4t-7.5 -16.5t-27.5 -23q-21 -15 -47.5 -31t-54 -29.5t-54 -22t-47.5 -8.5q-12 0 -22.5 4.5t-17.5 13t-9 20t4 26.5q6 16 28 46q-32 -25 -66 -48t-64 -38.5t-53.5 -20.5t-36.5 7q-17 16 -11 40.5t23 50.5t40 50t41 39q54 46 114 76t114 30
q30 0 56.5 -9t43.5 -24q9 -9 6 -14.5t-11 -7t-18 0.5t-15 9q-4 4 -15 10.5t-25 6.5q-18 0 -46.5 -16t-61 -40.5t-64.5 -53t-56 -53t-36 -40.5t-4 -16q9 0 33.5 16.5t57.5 41t70 53t69 53.5q12 13 33.5 16.5t40 0t28.5 -12.5t-1 -19q-26 -24 -52.5 -51t-46 -50t-28 -38
t2.5 -15t28.5 7t38.5 18t43.5 24.5t43.5 27.5zM292 470q13 22 37 37t46 15t28 -15t-7 -37q-14 -22 -38 -37t-46 -15t-28 15t8 37zM419 470q13 22 37 37t46 15t28 -15t-7 -37q-14 -22 -38 -37t-46 -15t-28 15t8 37z" />
    <glyph glyph-name="aring" unicode="&#xe5;" horiz-adv-x="409" 
d="M409 121q18 12 28 13.5t11 -4t-7.5 -16.5t-27.5 -23q-21 -15 -47.5 -31t-54 -29.5t-54 -22t-47.5 -8.5q-12 0 -22.5 4.5t-17.5 13t-9 20t4 26.5q6 16 28 46q-32 -25 -66 -48t-64 -38.5t-53.5 -20.5t-36.5 7q-17 16 -11 40.5t23 50.5t40 50t41 39q54 46 114 76t114 30
q30 0 56.5 -9t43.5 -24q9 -9 6 -14.5t-11 -7t-18 0.5t-15 9q-4 4 -15 10.5t-25 6.5q-18 0 -46.5 -16t-61 -40.5t-64.5 -53t-56 -53t-36 -40.5t-4 -16q9 0 33.5 16.5t57.5 41t70 53t69 53.5q12 13 33.5 16.5t40 0t28.5 -12.5t-1 -19q-26 -24 -52.5 -51t-46 -50t-28 -38
t2.5 -15t28.5 7t38.5 18t43.5 24.5t43.5 27.5zM335 470q0 34 24 58t58 24t58 -24t24 -58t-24 -58t-58 -24t-58 24t-24 58zM360 470q0 -24 16.5 -40.5t40.5 -16.5t40.5 16.5t16.5 40.5t-16.5 40.5t-40.5 16.5t-40.5 -16.5t-16.5 -40.5z" />
    <glyph glyph-name="ae" unicode="&#xe6;" horiz-adv-x="480" 
d="M459 294q34 0 51.5 -13.5t21 -30.5t-4.5 -32t-24 -18q-15 -3 -24 2.5t-12 14t-0.5 18.5t10.5 18q-20 7 -38.5 -4t-29 -27t-11 -30.5t15.5 -14.5q12 0 15 -5t-1 -12t-15 -13t-27 -7q-32 -2 -60.5 -18.5t-45.5 -35t-20 -34.5t15 -18q19 -2 50 5t65 19.5t67 29t56 33.5
q16 12 25.5 13.5t10.5 -4t-6 -16.5t-23 -23q-20 -15 -51.5 -32t-67 -31t-72 -22t-67.5 -6q-35 2 -56 13t-28 27t-1.5 35.5t22.5 37.5l-6 -3q-32 -25 -66 -48t-64 -38.5t-53.5 -20.5t-36.5 7q-17 16 -11 40.5t23 50.5t40 50t41 39q54 46 114 76t114 30q45 0 80 -19
q17 8 38 12.5t47 4.5zM278 213q7 8 18.5 12t24.5 5q8 15 25 29q-6 3 -14 6t-16 3q-18 0 -46.5 -16t-61 -40.5t-64.5 -53t-56 -53t-36 -40.5t-4 -16q9 0 33.5 16.5t57.5 41t70 53t69 53.5z" />
    <glyph glyph-name="ccedilla" unicode="&#xe7;" horiz-adv-x="272" 
d="M299 260q17 -15 21 -31.5t-1.5 -29.5t-18.5 -20.5t-29 -3.5t-21 13t-3 18.5t9 17.5t16 12q-14 14 -52.5 -8t-82.5 -66q-23 -22 -41 -44.5t-28 -41t-10.5 -30.5t11.5 -12q20 0 48 9t57 22.5t55.5 28.5t42.5 27q17 12 26.5 13t11 -4.5t-6 -16t-24.5 -22.5
q-16 -12 -40.5 -27t-54 -29t-61.5 -24t-62 -11v-1q-7 -10 -19 -17t-14 -17q0 -5 13.5 -10.5t27.5 -14.5t21 -24t-8 -39q-14 -24 -39 -26.5t-49.5 6.5t-44.5 24t-23 26t-0.5 18t8 9t12 0t9.5 -9q3 -8 10 -13t14 -7.5t13.5 -0.5t9.5 9t0.5 11.5t-8 8.5t-11.5 7.5t-10 8.5
q-3 4 1 10.5t11 14t16 15.5t17 16q-18 5 -31 18t-11.5 35.5t20 56t63.5 80.5q22 22 53 42.5t64 31.5t65.5 10.5t57.5 -19.5z" />
    <glyph glyph-name="egrave" unicode="&#xe8;" horiz-adv-x="270" 
d="M249 294q34 0 51.5 -13.5t21 -30.5t-4.5 -32t-24 -18q-15 -3 -24 2.5t-12 14t-0.5 18.5t10.5 18q-20 7 -38.5 -4t-29 -27t-11 -30.5t15.5 -14.5q12 0 15 -5t-1 -12t-15 -13t-27 -7q-32 -2 -60.5 -18.5t-45.5 -35t-20 -34.5t15 -18q19 -2 50 5t65 19.5t67 29t56 33.5
q16 12 25.5 13.5t10.5 -4t-6 -16.5t-23 -23q-20 -15 -51.5 -32t-67 -31t-72 -22t-67.5 -6q-52 4 -73 25.5t-13.5 48.5t41.5 54.5t91 43.5q-3 22 5.5 44t28 39t49 28t68.5 11zM383 412q15 -6 13 -13.5t-25 -7.5q-9 0 -26.5 1.5t-37 4.5t-38 7.5t-30.5 11.5q-13 7 -26.5 20.5
t-21.5 27t-7 23t17 9.5q10 0 36.5 -11.5t56 -26.5t55 -29t34.5 -17z" />
    <glyph glyph-name="eacute" unicode="&#xe9;" horiz-adv-x="270" 
d="M249 294q34 0 51.5 -13.5t21 -30.5t-4.5 -32t-24 -18q-15 -3 -24 2.5t-12 14t-0.5 18.5t10.5 18q-20 7 -38.5 -4t-29 -27t-11 -30.5t15.5 -14.5q12 0 15 -5t-1 -12t-15 -13t-27 -7q-32 -2 -60.5 -18.5t-45.5 -35t-20 -34.5t15 -18q19 -2 50 5t65 19.5t67 29t56 33.5
q16 12 25.5 13.5t10.5 -4t-6 -16.5t-23 -23q-20 -15 -51.5 -32t-67 -31t-72 -22t-67.5 -6q-52 4 -73 25.5t-13.5 48.5t41.5 54.5t91 43.5q-3 22 5.5 44t28 39t49 28t68.5 11zM271 418q9 3 34.5 17t55 29t56 26.5t36.5 11.5q16 0 17 -9.5t-7 -23t-21.5 -27t-26.5 -20.5
q-12 -7 -30.5 -11.5t-38 -7.5t-37 -4.5t-26.5 -1.5q-23 0 -25 7.5t13 13.5z" />
    <glyph glyph-name="ecircumflex" unicode="&#xea;" horiz-adv-x="270" 
d="M249 294q34 0 51.5 -13.5t21 -30.5t-4.5 -32t-24 -18q-15 -3 -24 2.5t-12 14t-0.5 18.5t10.5 18q-20 7 -38.5 -4t-29 -27t-11 -30.5t15.5 -14.5q12 0 15 -5t-1 -12t-15 -13t-27 -7q-32 -2 -60.5 -18.5t-45.5 -35t-20 -34.5t15 -18q19 -2 50 5t65 19.5t67 29t56 33.5
q16 12 25.5 13.5t10.5 -4t-6 -16.5t-23 -23q-20 -15 -51.5 -32t-67 -31t-72 -22t-67.5 -6q-52 4 -73 25.5t-13.5 48.5t41.5 54.5t91 43.5q-3 22 5.5 44t28 39t49 28t68.5 11zM423 416q6 0 4.5 -7t-9.5 -15.5t-21.5 -15.5t-31.5 -7t-28 8t-14 19t-3 22.5t7 19.5
q-8 -6 -18.5 -14t-22 -16.5t-22.5 -16.5t-19 -13q-23 -15 -25.5 -7t14.5 21q12 9 28.5 21.5t34.5 26t36 27.5t33 25q8 9 23 11t27.5 0t19.5 -8t-1 -13q-17 -16 -24 -28.5t-7 -21.5t5.5 -13.5t13.5 -4.5z" />
    <glyph glyph-name="edieresis" unicode="&#xeb;" horiz-adv-x="270" 
d="M249 294q34 0 51.5 -13.5t21 -30.5t-4.5 -32t-24 -18q-15 -3 -24 2.5t-12 14t-0.5 18.5t10.5 18q-20 7 -38.5 -4t-29 -27t-11 -30.5t15.5 -14.5q12 0 15 -5t-1 -12t-15 -13t-27 -7q-32 -2 -60.5 -18.5t-45.5 -35t-20 -34.5t15 -18q19 -2 50 5t65 19.5t67 29t56 33.5
q16 12 25.5 13.5t10.5 -4t-6 -16.5t-23 -23q-20 -15 -51.5 -32t-67 -31t-72 -22t-67.5 -6q-52 4 -73 25.5t-13.5 48.5t41.5 54.5t91 43.5q-3 22 5.5 44t28 39t49 28t68.5 11zM237 448q13 22 37 37t46 15t28 -15t-7 -37q-14 -22 -38 -37t-46 -15t-28 15t8 37zM364 448
q13 22 37 37t46 15t28 -15t-7 -37q-14 -22 -38 -37t-46 -15t-28 15t8 37z" />
    <glyph glyph-name="igrave" unicode="&#xec;" horiz-adv-x="213" 
d="M201 114q19 12 28 13t9 -6t-9 -18.5t-28 -23.5q-19 -11 -44.5 -25t-53 -26t-54 -20t-46.5 -8q-26 0 -43.5 17.5t-6.5 46.5q5 14 30.5 40.5t58 56.5t65 58.5t51.5 46.5q9 8 29 9t38 -3.5t28 -13t1 -18.5q-14 -15 -39.5 -36.5t-54 -44.5t-57 -45.5t-49 -40t-29 -28.5
t1.5 -11q11 0 32 7.5t46 19t50.5 25.5t45.5 28zM385 417q15 -6 13 -13.5t-25 -7.5q-9 0 -26.5 1.5t-37 4.5t-38 7.5t-30.5 11.5q-13 7 -26.5 20.5t-21.5 27t-7 23t17 9.5q10 0 36.5 -11.5t56 -26.5t55 -29t34.5 -17z" />
    <glyph glyph-name="iacute" unicode="&#xed;" horiz-adv-x="213" 
d="M201 114q19 12 28 13t9 -6t-9 -18.5t-28 -23.5q-19 -11 -44.5 -25t-53 -26t-54 -20t-46.5 -8q-26 0 -43.5 17.5t-6.5 46.5q5 14 30.5 40.5t58 56.5t65 58.5t51.5 46.5q9 8 29 9t38 -3.5t28 -13t1 -18.5q-14 -15 -39.5 -36.5t-54 -44.5t-57 -45.5t-49 -40t-29 -28.5
t1.5 -11q11 0 32 7.5t46 19t50.5 25.5t45.5 28zM235 404q9 3 34.5 17t55 29t56 26.5t36.5 11.5q16 0 17 -9.5t-7 -23t-21.5 -27t-26.5 -20.5q-12 -7 -30.5 -11.5t-38 -7.5t-37 -4.5t-26.5 -1.5q-23 0 -25 7.5t13 13.5z" />
    <glyph glyph-name="icircumflex" unicode="&#xee;" horiz-adv-x="213" 
d="M201 114q19 12 28 13t9 -6t-9 -18.5t-28 -23.5q-19 -11 -44.5 -25t-53 -26t-54 -20t-46.5 -8q-26 0 -43.5 17.5t-6.5 46.5q5 14 30.5 40.5t58 56.5t65 58.5t51.5 46.5q9 8 29 9t38 -3.5t28 -13t1 -18.5q-14 -15 -39.5 -36.5t-54 -44.5t-57 -45.5t-49 -40t-29 -28.5
t1.5 -11q11 0 32 7.5t46 19t50.5 25.5t45.5 28zM420 422q6 0 4.5 -7t-9.5 -15.5t-21.5 -15.5t-31.5 -7t-28 8t-14 19t-3 22.5t7 19.5q-8 -6 -18.5 -14t-22 -16.5t-22.5 -16.5t-19 -13q-23 -15 -25.5 -7t14.5 21q12 9 28.5 21.5t34.5 26t36 27.5t33 25q8 9 23 11t27.5 0
t19.5 -8t-1 -13q-17 -16 -24 -28.5t-7 -21.5t5.5 -13.5t13.5 -4.5z" />
    <glyph glyph-name="idieresis" unicode="&#xef;" horiz-adv-x="213" 
d="M201 114q19 12 28 13t9 -6t-9 -18.5t-28 -23.5q-19 -11 -44.5 -25t-53 -26t-54 -20t-46.5 -8q-26 0 -43.5 17.5t-6.5 46.5q5 14 30.5 40.5t58 56.5t65 58.5t51.5 46.5q9 8 29 9t38 -3.5t28 -13t1 -18.5q-14 -15 -39.5 -36.5t-54 -44.5t-57 -45.5t-49 -40t-29 -28.5
t1.5 -11q11 0 32 7.5t46 19t50.5 25.5t45.5 28zM202 434q13 22 37 37t46 15t28 -15t-7 -37q-14 -22 -38 -37t-46 -15t-28 15t8 37zM329 434q13 22 37 37t46 15t28 -15t-7 -37q-14 -22 -38 -37t-46 -15t-28 15t8 37z" />
    <glyph glyph-name="ntilde" unicode="&#xf1;" horiz-adv-x="390" 
d="M390 121q19 13 29 14.5t10.5 -5t-8.5 -18.5t-27 -25q-20 -13 -47 -28t-56.5 -28t-58 -22t-49.5 -9q-12 0 -23 4.5t-18 13t-8.5 20t6.5 26.5q6 10 22.5 28.5t38 40.5t44 44t39.5 40q32 30 -3 13q-32 -17 -76.5 -48.5t-88.5 -65t-79.5 -62.5t-48.5 -41q-9 -9 -23 -10t-25 3
t-16 12t3 18q6 7 23.5 27.5t40 47t47.5 56t47.5 54.5t40 42.5t24.5 20.5q11 4 26.5 5t29.5 -1t23.5 -7t8.5 -12t-13 -18.5t-31 -27t-42 -34.5t-45 -40q-14 -13 -9.5 -13t21.5 13q45 35 82 62t72 49q45 26 79.5 31t50.5 -6.5t10 -38t-43 -63.5q-25 -26 -56.5 -52.5t-57 -48
t-39.5 -35t-5 -13.5q12 0 33 7.5t45.5 20t51 28t48.5 31.5zM272 440q46 54 83.5 60.5t55.5 -27.5t33.5 -30t45.5 33q12 12 21.5 15t12.5 -1t-2 -14t-21 -25q-35 -32 -59.5 -46.5t-42.5 -16.5t-29.5 7.5t-19.5 26.5q-12 26 -26.5 22t-34.5 -24q-5 -5 -14.5 -9.5t-15 -4
t-4.5 8t17 25.5z" />
    <glyph glyph-name="ograve" unicode="&#xf2;" horiz-adv-x="344" 
d="M337 116q10 9 20 10.5t13 -3t-3.5 -15t-29.5 -26.5q-17 -12 -36 -19t-37.5 -9t-35.5 0t-29 8q-42 -29 -82.5 -45.5t-74.5 -16.5q-26 0 -44 11t-22 32t9.5 52t51.5 72q14 15 43 38.5t65 44t75 33.5t74 8q16 -3 25 -19t7 -34q11 -7 9.5 -21.5t-12 -32.5t-28.5 -39t-42 -40
l-12 -10l-12 -10q18 -7 48.5 0.5t59.5 30.5zM62 33q20 0 52 14t64 37q-6 15 -3.5 33.5t10.5 36.5t21.5 35t29.5 30q-14 -3 -30.5 -12t-34 -21t-34.5 -25.5t-30 -25.5q-22 -20 -36 -38.5t-20 -32.5t-3.5 -22.5t14.5 -8.5zM398 417q15 -6 13 -13.5t-25 -7.5q-9 0 -26.5 1.5
t-37 4.5t-38 7.5t-30.5 11.5q-13 7 -26.5 20.5t-21.5 27t-7 23t17 9.5q10 0 36.5 -11.5t56 -26.5t55 -29t34.5 -17z" />
    <glyph glyph-name="oacute" unicode="&#xf3;" horiz-adv-x="344" 
d="M337 116q10 9 20 10.5t13 -3t-3.5 -15t-29.5 -26.5q-17 -12 -36 -19t-37.5 -9t-35.5 0t-29 8q-42 -29 -82.5 -45.5t-74.5 -16.5q-26 0 -44 11t-22 32t9.5 52t51.5 72q14 15 43 38.5t65 44t75 33.5t74 8q16 -3 25 -19t7 -34q11 -7 9.5 -21.5t-12 -32.5t-28.5 -39t-42 -40
l-12 -10l-12 -10q18 -7 48.5 0.5t59.5 30.5zM62 33q20 0 52 14t64 37q-6 15 -3.5 33.5t10.5 36.5t21.5 35t29.5 30q-14 -3 -30.5 -12t-34 -21t-34.5 -25.5t-30 -25.5q-22 -20 -36 -38.5t-20 -32.5t-3.5 -22.5t14.5 -8.5zM270 418q9 3 34.5 17t55 29t56 26.5t36.5 11.5
q16 0 17 -9.5t-7 -23t-21.5 -27t-26.5 -20.5q-12 -7 -30.5 -11.5t-38 -7.5t-37 -4.5t-26.5 -1.5q-23 0 -25 7.5t13 13.5z" />
    <glyph glyph-name="ocircumflex" unicode="&#xf4;" horiz-adv-x="344" 
d="M337 116q10 9 20 10.5t13 -3t-3.5 -15t-29.5 -26.5q-17 -12 -36 -19t-37.5 -9t-35.5 0t-29 8q-42 -29 -82.5 -45.5t-74.5 -16.5q-26 0 -44 11t-22 32t9.5 52t51.5 72q14 15 43 38.5t65 44t75 33.5t74 8q16 -3 25 -19t7 -34q11 -7 9.5 -21.5t-12 -32.5t-28.5 -39t-42 -40
l-12 -10l-12 -10q18 -7 48.5 0.5t59.5 30.5zM62 33q20 0 52 14t64 37q-6 15 -3.5 33.5t10.5 36.5t21.5 35t29.5 30q-14 -3 -30.5 -12t-34 -21t-34.5 -25.5t-30 -25.5q-22 -20 -36 -38.5t-20 -32.5t-3.5 -22.5t14.5 -8.5zM429 432q6 0 4.5 -7t-9.5 -15.5t-21.5 -15.5
t-31.5 -7t-28 8t-14 19t-3 22.5t7 19.5q-8 -6 -18.5 -14t-22 -16.5t-22.5 -16.5t-19 -13q-23 -15 -25.5 -7t14.5 21q12 9 28.5 21.5t34.5 26t36 27.5t33 25q8 9 23 11t27.5 0t19.5 -8t-1 -13q-17 -16 -24 -28.5t-7 -21.5t5.5 -13.5t13.5 -4.5z" />
    <glyph glyph-name="otilde" unicode="&#xf5;" horiz-adv-x="344" 
d="M337 116q10 9 20 10.5t13 -3t-3.5 -15t-29.5 -26.5q-17 -12 -36 -19t-37.5 -9t-35.5 0t-29 8q-42 -29 -82.5 -45.5t-74.5 -16.5q-26 0 -44 11t-22 32t9.5 52t51.5 72q14 15 43 38.5t65 44t75 33.5t74 8q16 -3 25 -19t7 -34q11 -7 9.5 -21.5t-12 -32.5t-28.5 -39t-42 -40
l-12 -10l-12 -10q18 -7 48.5 0.5t59.5 30.5zM62 33q20 0 52 14t64 37q-6 15 -3.5 33.5t10.5 36.5t21.5 35t29.5 30q-14 -3 -30.5 -12t-34 -21t-34.5 -25.5t-30 -25.5q-22 -20 -36 -38.5t-20 -32.5t-3.5 -22.5t14.5 -8.5zM222 424q46 54 83.5 60.5t55.5 -27.5t33.5 -30
t45.5 33q12 12 21.5 15t12.5 -1t-2 -14t-21 -25q-35 -32 -59.5 -46.5t-42.5 -16.5t-29.5 7.5t-19.5 26.5q-12 26 -26.5 22t-34.5 -24q-5 -5 -14.5 -9.5t-15 -4t-4.5 8t17 25.5z" />
    <glyph glyph-name="odieresis" unicode="&#xf6;" horiz-adv-x="344" 
d="M337 116q10 9 20 10.5t13 -3t-3.5 -15t-29.5 -26.5q-17 -12 -36 -19t-37.5 -9t-35.5 0t-29 8q-42 -29 -82.5 -45.5t-74.5 -16.5q-26 0 -44 11t-22 32t9.5 52t51.5 72q14 15 43 38.5t65 44t75 33.5t74 8q16 -3 25 -19t7 -34q11 -7 9.5 -21.5t-12 -32.5t-28.5 -39t-42 -40
l-12 -10l-12 -10q18 -7 48.5 0.5t59.5 30.5zM62 33q20 0 52 14t64 37q-6 15 -3.5 33.5t10.5 36.5t21.5 35t29.5 30q-14 -3 -30.5 -12t-34 -21t-34.5 -25.5t-30 -25.5q-22 -20 -36 -38.5t-20 -32.5t-3.5 -22.5t14.5 -8.5zM219 438q13 22 37 37t46 15t28 -15t-7 -37
q-14 -22 -38 -37t-46 -15t-28 15t8 37zM346 438q13 22 37 37t46 15t28 -15t-7 -37q-14 -22 -38 -37t-46 -15t-28 15t8 37z" />
    <glyph glyph-name="oslash" unicode="&#xf8;" horiz-adv-x="344" 
d="M337 116q10 9 20 10.5t13 -3t-3.5 -15t-29.5 -26.5q-17 -12 -36 -19t-37.5 -9t-35.5 0t-29 8q-42 -29 -82.5 -45.5t-74.5 -16.5q-16 0 -31 5q-28 -18 -46 -29.5t-22 -11.5q-18 2 -19.5 2.5t2.5 9.5q2 2 17.5 15t41.5 32q-15 20 -5.5 56t57.5 88q14 15 43 38.5t65 44
t75 33.5t74 8q21 -5 29 -28q26 17 43.5 27.5t21.5 11.5q26 5 36 1.5t-10 -19.5l-80 -57q7 -20 -16.5 -54.5t-64.5 -67.5l-12 -10l-12 -10q18 -7 48.5 0.5t59.5 30.5zM57 76q32 23 68 49t72 51q15 24 39 43q-14 -3 -30.5 -12t-34 -21t-34.5 -25.5t-30 -25.5q-35 -33 -50 -59z
M62 33q20 0 52 14t64 37q-6 13 -4 31l-119 -81q2 -1 7 -1z" />
    <glyph glyph-name="ugrave" unicode="&#xf9;" horiz-adv-x="414" 
d="M348 269q10 9 19.5 11.5t13 -0.5t-1 -10.5t-20.5 -19.5q-27 -21 -69 -58t-88 -75q16 22 36.5 47t42.5 48t44.5 42t41.5 30q14 7 36.5 8.5t39.5 -2.5t22 -14t-16 -25q-17 -11 -40 -31t-47.5 -43t-47 -46.5t-38 -43t-21 -31.5t4.5 -12q11 0 29 7t39 18t43 24.5t43 27.5
q18 12 28 13.5t11 -4t-7 -16.5t-26 -23q-22 -15 -48.5 -31t-54.5 -29.5t-54 -22t-46 -8.5q-12 0 -23.5 4.5t-18.5 13t-8.5 20t4.5 26.5q8 19 31 53q-27 -23 -54.5 -44t-52 -37.5t-46 -26t-36.5 -9.5q-40 0 -50 16.5t-0.5 42.5t33 57.5t51.5 61t56 54t45 36.5
q16 12 41.5 15.5t46 1t30 -9.5t-6.5 -17q-20 -13 -45 -33.5t-50 -43.5t-48 -47t-38.5 -43t-21 -31t4.5 -12q6 0 24 12t42.5 31t54.5 43.5t59.5 49t57.5 47t49 38.5zM461 437q15 -6 13 -13.5t-25 -7.5q-9 0 -26.5 1.5t-37 4.5t-38 7.5t-30.5 11.5q-13 7 -26.5 20.5t-21.5 27
t-7 23t17 9.5q10 0 36.5 -11.5t56 -26.5t55 -29t34.5 -17z" />
    <glyph glyph-name="uacute" unicode="&#xfa;" horiz-adv-x="414" 
d="M348 269q10 9 19.5 11.5t13 -0.5t-1 -10.5t-20.5 -19.5q-27 -21 -69 -58t-88 -75q16 22 36.5 47t42.5 48t44.5 42t41.5 30q14 7 36.5 8.5t39.5 -2.5t22 -14t-16 -25q-17 -11 -40 -31t-47.5 -43t-47 -46.5t-38 -43t-21 -31.5t4.5 -12q11 0 29 7t39 18t43 24.5t43 27.5
q18 12 28 13.5t11 -4t-7 -16.5t-26 -23q-22 -15 -48.5 -31t-54.5 -29.5t-54 -22t-46 -8.5q-12 0 -23.5 4.5t-18.5 13t-8.5 20t4.5 26.5q8 19 31 53q-27 -23 -54.5 -44t-52 -37.5t-46 -26t-36.5 -9.5q-40 0 -50 16.5t-0.5 42.5t33 57.5t51.5 61t56 54t45 36.5
q16 12 41.5 15.5t46 1t30 -9.5t-6.5 -17q-20 -13 -45 -33.5t-50 -43.5t-48 -47t-38.5 -43t-21 -31t4.5 -12q6 0 24 12t42.5 31t54.5 43.5t59.5 49t57.5 47t49 38.5zM343 431q9 3 34.5 17t55 29t56 26.5t36.5 11.5q16 0 17 -9.5t-7 -23t-21.5 -27t-26.5 -20.5
q-12 -7 -30.5 -11.5t-38 -7.5t-37 -4.5t-26.5 -1.5q-23 0 -25 7.5t13 13.5z" />
    <glyph glyph-name="ucircumflex" unicode="&#xfb;" horiz-adv-x="414" 
d="M348 269q10 9 19.5 11.5t13 -0.5t-1 -10.5t-20.5 -19.5q-27 -21 -69 -58t-88 -75q16 22 36.5 47t42.5 48t44.5 42t41.5 30q14 7 36.5 8.5t39.5 -2.5t22 -14t-16 -25q-17 -11 -40 -31t-47.5 -43t-47 -46.5t-38 -43t-21 -31.5t4.5 -12q11 0 29 7t39 18t43 24.5t43 27.5
q18 12 28 13.5t11 -4t-7 -16.5t-26 -23q-22 -15 -48.5 -31t-54.5 -29.5t-54 -22t-46 -8.5q-12 0 -23.5 4.5t-18.5 13t-8.5 20t4.5 26.5q8 19 31 53q-27 -23 -54.5 -44t-52 -37.5t-46 -26t-36.5 -9.5q-40 0 -50 16.5t-0.5 42.5t33 57.5t51.5 61t56 54t45 36.5
q16 12 41.5 15.5t46 1t30 -9.5t-6.5 -17q-20 -13 -45 -33.5t-50 -43.5t-48 -47t-38.5 -43t-21 -31t4.5 -12q6 0 24 12t42.5 31t54.5 43.5t59.5 49t57.5 47t49 38.5zM504 437q6 0 4.5 -7t-9.5 -15.5t-21.5 -15.5t-31.5 -7t-28 8t-14 19t-3 22.5t7 19.5q-8 -6 -18.5 -14
t-22 -16.5t-22.5 -16.5t-19 -13q-23 -15 -25.5 -7t14.5 21q12 9 28.5 21.5t34.5 26t36 27.5t33 25q8 9 23 11t27.5 0t19.5 -8t-1 -13q-17 -16 -24 -28.5t-7 -21.5t5.5 -13.5t13.5 -4.5z" />
    <glyph glyph-name="udieresis" unicode="&#xfc;" horiz-adv-x="414" 
d="M348 269q10 9 19.5 11.5t13 -0.5t-1 -10.5t-20.5 -19.5q-27 -21 -69 -58t-88 -75q16 22 36.5 47t42.5 48t44.5 42t41.5 30q14 7 36.5 8.5t39.5 -2.5t22 -14t-16 -25q-17 -11 -40 -31t-47.5 -43t-47 -46.5t-38 -43t-21 -31.5t4.5 -12q11 0 29 7t39 18t43 24.5t43 27.5
q18 12 28 13.5t11 -4t-7 -16.5t-26 -23q-22 -15 -48.5 -31t-54.5 -29.5t-54 -22t-46 -8.5q-12 0 -23.5 4.5t-18.5 13t-8.5 20t4.5 26.5q8 19 31 53q-27 -23 -54.5 -44t-52 -37.5t-46 -26t-36.5 -9.5q-40 0 -50 16.5t-0.5 42.5t33 57.5t51.5 61t56 54t45 36.5
q16 12 41.5 15.5t46 1t30 -9.5t-6.5 -17q-20 -13 -45 -33.5t-50 -43.5t-48 -47t-38.5 -43t-21 -31t4.5 -12q6 0 24 12t42.5 31t54.5 43.5t59.5 49t57.5 47t49 38.5zM435 443q13 22 37 37t46 15t28 -15t-7 -37q-14 -22 -38 -37t-46 -15t-28 15t8 37zM308 443q13 22 37 37
t46 15t28 -15t-7 -37q-14 -22 -38 -37t-46 -15t-28 15t8 37z" />
    <glyph glyph-name="yacute" unicode="&#xfd;" horiz-adv-x="382" 
d="M375 116q18 12 30.5 15.5t16.5 -0.5t-3 -14.5t-29 -25.5q-19 -14 -63.5 -44.5t-99 -71.5t-111.5 -88.5t-100 -95.5h-1q-26 -29 -48 -48.5t-37 -27.5q-26 -11 -50 -13.5t-39.5 1t-20 11.5t7.5 19q15 12 44 38.5t67 63t82.5 80.5t91 91t91.5 94.5t84 90.5
q-38 -31 -79.5 -65t-80 -62t-71.5 -46t-52 -18q-40 0 -48.5 17.5t3.5 44.5t39.5 59.5t59 63.5t61 56t47.5 37q17 12 42 15.5t45.5 1t30 -9.5t-5.5 -17q-20 -13 -47.5 -34t-56 -45.5t-55 -49.5t-45 -45t-25.5 -33t3 -13q6 0 25 12.5t46.5 32.5t60 45.5t65.5 52t63.5 50.5
t53.5 42h1q12 10 30.5 11t34.5 -3t25 -12.5t0 -17.5q-26 -28 -64.5 -66t-81 -79.5t-85 -82.5t-78.5 -75q33 25 67 49t64.5 45t55.5 37.5t39 26.5zM332 428q9 3 34.5 17t55 29t56 26.5t36.5 11.5q16 0 17 -9.5t-7 -23t-21.5 -27t-26.5 -20.5q-12 -7 -30.5 -11.5t-38 -7.5
t-37 -4.5t-26.5 -1.5q-23 0 -25 7.5t13 13.5z" />
    <glyph glyph-name="ydieresis" unicode="&#xff;" horiz-adv-x="382" 
d="M375 116q18 12 30.5 15.5t16.5 -0.5t-3 -14.5t-29 -25.5q-19 -14 -63.5 -44.5t-99 -71.5t-111.5 -88.5t-100 -95.5h-1q-26 -29 -48 -48.5t-37 -27.5q-26 -11 -50 -13.5t-39.5 1t-20 11.5t7.5 19q15 12 44 38.5t67 63t82.5 80.5t91 91t91.5 94.5t84 90.5
q-38 -31 -79.5 -65t-80 -62t-71.5 -46t-52 -18q-40 0 -48.5 17.5t3.5 44.5t39.5 59.5t59 63.5t61 56t47.5 37q17 12 42 15.5t45.5 1t30 -9.5t-5.5 -17q-20 -13 -47.5 -34t-56 -45.5t-55 -49.5t-45 -45t-25.5 -33t3 -13q6 0 25 12.5t46.5 32.5t60 45.5t65.5 52t63.5 50.5
t53.5 42h1q12 10 30.5 11t34.5 -3t25 -12.5t0 -17.5q-26 -28 -64.5 -66t-81 -79.5t-85 -82.5t-78.5 -75q33 25 67 49t64.5 45t55.5 37.5t39 26.5zM438 429q13 22 37 37t46 15t28 -15t-7 -37q-14 -22 -38 -37t-46 -15t-28 15t8 37zM311 429q13 22 37 37t46 15t28 -15t-7 -37
q-14 -22 -38 -37t-46 -15t-28 15t8 37z" />
    <glyph glyph-name="Aogonek" unicode="&#x104;" 
d="M14 -15q12 21 53.5 75t101.5 125q-56 -2 -97.5 -4.5t-52.5 -6.5q-15 -4 -15 2.5t10 16t27 19.5t36 13q20 3 54.5 4t76.5 0q51 58 109.5 119.5t119.5 117.5t121 103t115 76t101.5 36.5t80.5 -14.5q32 -22 38 -53.5t-7.5 -70t-43 -83.5t-68 -92.5t-83 -97.5t-88.5 -99
t-83.5 -96t-67.5 -90q-21 -32 -26 -49.5t2 -22.5t22 1t34 20q7 6 14 6t10 -4.5t1.5 -11.5t-9.5 -13q-38 -29 -69 -37q-14 -8 -30.5 -17t-30 -19.5t-21.5 -21t-4 -19.5q4 -8 10 -7.5t12.5 5.5t12 12.5t8.5 12.5q4 6 12.5 3t17 -10.5t13 -18t0.5 -19.5q-3 -10 -16 -21.5
t-30.5 -16t-37 2.5t-36.5 35q-9 15 -5.5 30t15 28t28.5 25t35 21q-23 15 -22 55.5t34 97.5q22 38 50.5 80t60.5 86q-22 -2 -52.5 -3t-65.5 -2.5t-74 -3t-77 -2.5q-42 -55 -77 -109.5t-58 -105.5q-7 -15 -25.5 -22.5t-36 -6t-28 11.5t0.5 30zM800 652q-18 7 -51 -5.5
t-76 -39.5t-93 -68t-103 -90t-106 -105.5t-101 -115.5q36 -1 71.5 -2t68 -1.5t59.5 0t45 2.5q4 0 7.5 0.5t6.5 0.5q37 50 75 99.5t72.5 95t63 85t46 70t22.5 50t-7 24.5z" />
    <glyph glyph-name="Lcaron" unicode="&#x13d;" horiz-adv-x="802" 
d="M262 561q9 18 37.5 38.5t69 41t91 40t104.5 34.5t108.5 24.5t103.5 10.5t89 -7t66 -29q38 -32 43 -71.5t-14.5 -84t-59 -92.5t-91 -97t-110.5 -97.5t-117.5 -93t-112 -84t-93.5 -70.5q69 -27 142.5 -58t146 -57.5t142 -43.5t130.5 -17q14 0 11.5 -12t-18.5 -26t-44 -26
t-65 -12q-73 0 -153 27.5t-160 66.5t-155 81t-137.5 70.5t-108 36t-65.5 -23.5q-8 -12 -15.5 -15t-12 0t-5 12t7.5 21q17 29 48 39t73 6.5t92.5 -18.5t106.5 -36q39 39 87 85t99.5 95.5t104 100.5t99.5 99.5t85.5 93t63.5 80.5t33.5 62.5t-5.5 38.5q-15 12 -47 15t-75 -1.5
t-93 -15t-100.5 -24.5t-99 -30.5t-88.5 -33.5t-67.5 -33t-36.5 -28q-6 -8 -5.5 -13.5t5 -9.5t12.5 -6t16 -2q21 0 25 -10t-15 -12q-19 0 -36.5 4t-28.5 13t-14 22.5t6 31.5zM963 466q3 5 11 18.5t18.5 31t22 36.5t22.5 36t20.5 29.5t15.5 15.5q13 9 19 1t6 -23t-4 -34
t-11 -32q-6 -12 -19.5 -25.5t-29 -26.5t-29.5 -23.5t-22 -15.5q-20 -13 -25 -7t5 19z" />
    <glyph glyph-name="Sacute" unicode="&#x15a;" horiz-adv-x="690" 
d="M643 416q47 16 89 41t73 51t48 48.5t15 34.5q-5 19 -45 16t-100 -22t-133.5 -50.5t-146 -69t-137 -78t-107 -76.5t-56.5 -65t16 -44q15 -7 48 -7.5t75.5 2.5t90.5 7.5t92.5 6.5t81.5 -0.5t58 -13.5q28 -15 24.5 -43.5t-29.5 -64t-70 -74.5t-96.5 -74.5t-110 -65
t-110 -45.5t-95.5 -15t-68 25q-17 16 -27 34t-10.5 40t10.5 50t36 64q10 15 19 21.5t14.5 5.5t5 -10t-9.5 -25q-23 -41 -35 -69.5t-1 -49.5q6 -11 33.5 -7t68.5 18t91 36t100 48t96 53t78.5 52t48 45t5.5 31q-9 9 -42 9t-79 -3.5t-99 -8t-101 -6t-85 3t-52 19.5
q-34 33 -19.5 79.5t62 97.5t119.5 102t153 94.5t162.5 75t148.5 43t111.5 -2t49.5 -59.5q6 -20 -4 -46t-39 -56t-77.5 -63t-117.5 -67q-27 -12 -45.5 -13.5t-23.5 3.5t5.5 15.5t42.5 21.5zM731 746q9 3 34.5 17t55 29t56 26.5t36.5 11.5q16 0 17 -9.5t-7 -23t-21.5 -27
t-26.5 -20.5q-12 -7 -30.5 -11.5t-38 -7.5t-37 -4.5t-26.5 -1.5q-23 0 -25 7.5t13 13.5z" />
    <glyph glyph-name="Scommaaccent" unicode="&#x218;" horiz-adv-x="690" 
d="M643 416q47 16 89 41t73 51t48 48.5t15 34.5q-5 19 -45 16t-100 -22t-133.5 -50.5t-146 -69t-137 -78t-107 -76.5t-56.5 -65t16 -44q15 -7 48 -7.5t75.5 2.5t90.5 7.5t92.5 6.5t81.5 -0.5t58 -13.5q28 -15 24.5 -43.5t-29.5 -64t-70 -74.5t-96.5 -74.5t-110 -65
t-110 -45.5t-95.5 -15t-68 25q-17 16 -27 34t-10.5 40t10.5 50t36 64q10 15 19 21.5t14.5 5.5t5 -10t-9.5 -25q-23 -41 -35 -69.5t-1 -49.5q6 -11 33.5 -7t68.5 18t91 36t100 48t96 53t78.5 52t48 45t5.5 31q-9 9 -42 9t-79 -3.5t-99 -8t-101 -6t-85 3t-52 19.5
q-34 33 -19.5 79.5t62 97.5t119.5 102t153 94.5t162.5 75t148.5 43t111.5 -2t49.5 -59.5q6 -20 -4 -46t-39 -56t-77.5 -63t-117.5 -67q-27 -12 -45.5 -13.5t-23.5 3.5t5.5 15.5t42.5 21.5zM-27 -394q3 5 11 18.5t18.5 31t22 36.5t22.5 36t20.5 29.5t15.5 15.5q13 9 19 1
t6 -23t-4 -34t-11 -32q-6 -12 -19.5 -25.5t-29 -26.5t-29.5 -23.5t-22 -15.5q-20 -13 -25 -7t5 19z" />
    <glyph glyph-name="Tcaron" unicode="&#x164;" horiz-adv-x="620" 
d="M98 561q12 18 48.5 38t88.5 40t115.5 38.5t130.5 32.5t133.5 23t124 10t102 -7.5t67.5 -28.5q35 -32 30.5 -70.5t-38 -81.5t-90.5 -89.5t-126.5 -93.5t-147 -93.5t-151 -90.5t-138.5 -83t-110 -72q-25 -17 -35.5 -32t-6 -23.5t25 -7.5t57.5 15q27 11 54 27t50 30
q19 12 28.5 12.5t9.5 -6t-9.5 -17.5t-28.5 -22t-43.5 -26t-53.5 -26q-67 -24 -102 -20.5t-42.5 24t11 53t58.5 66.5q42 35 99 78t122 89.5t133 94.5t132 94t119.5 87.5t95 75t58 56.5t9.5 32q-13 12 -49.5 15.5t-88 -0.5t-113.5 -14t-126 -23.5t-126 -29.5t-112.5 -32.5
t-86 -32t-46.5 -27.5q-15 -15 -4 -23t27 -8q21 0 23.5 -10t-16.5 -12q-20 0 -36.5 4t-26.5 13t-10.5 22.5t11.5 31.5zM655 881q-6 0 -4.5 7t9.5 15.5t21.5 15.5t31.5 7t28 -8t14 -19t3 -22.5t-7 -19.5q7 6 18 14t22.5 16.5t22.5 16.5t19 13q23 15 25.5 7t-14.5 -21
q-12 -9 -28.5 -21.5t-34.5 -26t-36 -27.5t-33 -25q-8 -9 -23 -11t-27.5 0t-19.5 8t1 13q17 16 24 28.5t7 21.5t-6 13.5t-13 4.5z" />
    <glyph glyph-name="Zacute" unicode="&#x179;" horiz-adv-x="898" 
d="M1253 690q25 -27 -6 -77.5t-103.5 -115t-179.5 -137.5t-233.5 -146.5t-265.5 -141.5t-276 -121q53 1 114.5 -7.5t128 -22t136 -28t139 -24.5t137.5 -12.5t131 8.5q15 3 9 -9t-26.5 -29t-53 -34t-72.5 -24q-79 -14 -160.5 -2.5t-160.5 33.5t-151.5 48t-134.5 42
t-109.5 14.5t-75.5 -34.5q-11 -13 -20 -18t-13.5 -2.5t-2.5 11t13 22.5q17 22 40 35.5t50 21.5q56 19 136.5 59t173.5 92t192 112.5t192.5 121.5t175.5 119t140.5 104.5t87.5 78t16 40.5q-14 9 -52.5 6.5t-93.5 -14t-120.5 -29t-133.5 -39t-134 -45t-120 -46t-92 -42
t-51 -32.5q-9 -8 -12.5 -21t7.5 -21q8 -6 5 -15t-17 -5q-12 3 -23.5 15t-17.5 29t-3.5 38t18.5 43q21 30 66.5 57t107 51t134 43t146.5 33.5t144 23.5t127 11.5t96 -2t51 -16.5zM944 755q9 3 34.5 17t55 29t56 26.5t36.5 11.5q16 0 17 -9.5t-7 -23t-21.5 -27t-26.5 -20.5
q-12 -7 -30.5 -11.5t-38 -7.5t-37 -4.5t-26.5 -1.5q-23 0 -25 7.5t13 13.5z" />
    <glyph glyph-name="uni00AD" unicode="&#xad;" horiz-adv-x="482" 
d="M120 166q9 0 38 2t62 3.5t62 1.5t38 -5q14 -6 11 -15t-15.5 -17.5t-30.5 -15.5t-33 -9q-13 -2 -34.5 -0.5t-43 4t-40.5 6t-28 7.5q-11 4 -13 11t1 13t10.5 10t15.5 4z" />
    <glyph glyph-name="Zdotaccent" unicode="&#x17b;" horiz-adv-x="898" 
d="M1253 690q25 -27 -6 -77.5t-103.5 -115t-179.5 -137.5t-233.5 -146.5t-265.5 -141.5t-276 -121q53 1 114.5 -7.5t128 -22t136 -28t139 -24.5t137.5 -12.5t131 8.5q15 3 9 -9t-26.5 -29t-53 -34t-72.5 -24q-79 -14 -160.5 -2.5t-160.5 33.5t-151.5 48t-134.5 42
t-109.5 14.5t-75.5 -34.5q-11 -13 -20 -18t-13.5 -2.5t-2.5 11t13 22.5q17 22 40 35.5t50 21.5q56 19 136.5 59t173.5 92t192 112.5t192.5 121.5t175.5 119t140.5 104.5t87.5 78t16 40.5q-14 9 -52.5 6.5t-93.5 -14t-120.5 -29t-133.5 -39t-134 -45t-120 -46t-92 -42
t-51 -32.5q-9 -8 -12.5 -21t7.5 -21q8 -6 5 -15t-17 -5q-12 3 -23.5 15t-17.5 29t-3.5 38t18.5 43q21 30 66.5 57t107 51t134 43t146.5 33.5t144 23.5t127 11.5t96 -2t51 -16.5zM957 805q13 22 37 37t46 15t28 -15t-7 -37q-14 -22 -38 -37t-46 -15t-28 15t8 37z" />
    <glyph glyph-name="aogonek" unicode="&#x105;" horiz-adv-x="409" 
d="M409 121q18 12 28 13.5t11 -4t-7.5 -16.5t-27.5 -23q-28 -20 -65 -41t-73 -35q-13 -7 -31 -17t-33.5 -21t-25 -22.5t-5.5 -21.5q4 -8 10 -7.5t12.5 5.5t12 12.5t8.5 12.5q4 6 12.5 3t17 -10.5t13 -18t0.5 -19.5q-3 -10 -16 -21.5t-30.5 -16t-37 2.5t-36.5 35
q-8 13 -6.5 25.5t9 24t20 21.5t27.5 19q-19 5 -30.5 21.5t-0.5 41.5q6 16 28 46q-32 -25 -66 -48t-64 -38.5t-53.5 -20.5t-36.5 7q-17 16 -11 40.5t23 50.5t40 50t41 39q54 46 114 76t114 30q30 0 56.5 -9t43.5 -24q9 -9 6 -14.5t-11 -7t-18 0.5t-15 9q-4 4 -15 10.5
t-25 6.5q-18 0 -46.5 -16t-61 -40.5t-64.5 -53t-56 -53t-36 -40.5t-4 -16q9 0 33.5 16.5t57.5 41t70 53t69 53.5q12 13 33.5 16.5t40 0t28.5 -12.5t-1 -19q-26 -24 -52.5 -51t-46 -50t-28 -38t2.5 -15t28.5 7t38.5 18t43.5 24.5t43.5 27.5z" />
    <glyph glyph-name="lcaron" unicode="&#x13e;" horiz-adv-x="224" 
d="M208 114q19 12 28 13t9 -6t-9 -18.5t-28 -23.5q-19 -11 -44.5 -25t-53 -26t-54 -20t-47.5 -8q-31 0 -47.5 17.5t-1.5 46.5q13 27 50 69t85 90t102.5 98t102.5 93t84 75t49 44q9 8 30.5 8.5t42.5 -4t34 -13t4 -18.5q-13 -14 -50.5 -47t-88 -76t-108 -92t-110 -94.5
t-94 -84t-59.5 -59.5q-6 -8 -5 -13.5t13 -3.5q14 2 34.5 9.5t43.5 19t46 24.5t42 25zM527 434q3 5 11 18.5t18.5 31t22 36.5t22.5 36t20.5 29.5t15.5 15.5q13 9 19 1t6 -23t-4 -34t-11 -32q-6 -12 -19.5 -25.5t-29 -26.5t-29.5 -23.5t-22 -15.5q-20 -13 -25 -7t5 19z" />
    <glyph glyph-name="sacute" unicode="&#x15b;" horiz-adv-x="363" 
d="M-11 81q-17 -10 -27 -11t-10.5 4.5t8.5 16t29 23.5q16 10 37.5 25t43.5 30.5t42.5 30.5t34.5 26l-2 2q-8 7 -5 20t13.5 25t27 21t35.5 9q13 0 17 -7t2 -16.5t-8.5 -19t-13.5 -15.5l-5 -4q55 -2 77 -23.5t18.5 -52.5t-27.5 -65t-59 -61q39 16 78.5 39.5t67.5 42.5
q19 12 28.5 13.5t10.5 -4t-7.5 -16.5t-26.5 -23q-22 -15 -52 -32.5t-65.5 -32.5t-75.5 -25t-82 -10q-3 0 -4.5 0.5t-3.5 0.5q-10 1 -20 2.5t-20 5.5q-15 6 -23 17.5t-8 25t8 28t23 26.5q9 7 21 12t23.5 5.5t22 -3.5t16.5 -15t-1 -23t-19 -18.5t-25.5 -4.5t-22.5 18
q-11 -5 -12 -17.5t14 -17.5q21 -8 43.5 0.5t42.5 27t35 42t21.5 47t1 42t-26.5 25.5q-12 -10 -36.5 -28.5t-52 -39t-55 -39.5t-46.5 -29zM236 418q9 3 34.5 17t55 29t56 26.5t36.5 11.5q16 0 17 -9.5t-7 -23t-21.5 -27t-26.5 -20.5q-12 -7 -30.5 -11.5t-38 -7.5t-37 -4.5
t-26.5 -1.5q-23 0 -25 7.5t13 13.5z" />
    <glyph glyph-name="scommaaccent" unicode="&#x219;" horiz-adv-x="363" 
d="M-11 81q-17 -10 -27 -11t-10.5 4.5t8.5 16t29 23.5q16 10 37.5 25t43.5 30.5t42.5 30.5t34.5 26l-2 2q-8 7 -5 20t13.5 25t27 21t35.5 9q13 0 17 -7t2 -16.5t-8.5 -19t-13.5 -15.5l-5 -4q55 -2 77 -23.5t18.5 -52.5t-27.5 -65t-59 -61q39 16 78.5 39.5t67.5 42.5
q19 12 28.5 13.5t10.5 -4t-7.5 -16.5t-26.5 -23q-22 -15 -52 -32.5t-65.5 -32.5t-75.5 -25t-82 -10q-3 0 -4.5 0.5t-3.5 0.5q-10 1 -20 2.5t-20 5.5q-15 6 -23 17.5t-8 25t8 28t23 26.5q9 7 21 12t23.5 5.5t22 -3.5t16.5 -15t-1 -23t-19 -18.5t-25.5 -4.5t-22.5 18
q-11 -5 -12 -17.5t14 -17.5q21 -8 43.5 0.5t42.5 27t35 42t21.5 47t1 42t-26.5 25.5q-12 -10 -36.5 -28.5t-52 -39t-55 -39.5t-46.5 -29zM-31 -233q3 5 11 18.5t18.5 31t22 36.5t22.5 36t20.5 29.5t15.5 15.5q13 9 19 1t6 -23t-4 -34t-11 -32q-6 -12 -19.5 -25.5t-29 -26.5
t-29.5 -23.5t-22 -15.5q-20 -13 -25 -7t5 19z" />
    <glyph glyph-name="tcaron" unicode="&#x165;" horiz-adv-x="220" 
d="M228 346l34 31q17 16 43.5 22.5t49 5.5t35 -8.5t2.5 -17.5q-6 -7 -14.5 -15t-19.5 -18h64q10 0 13 -4.5t0 -10t-10.5 -10t-17.5 -4.5h-82q-34 -30 -75.5 -66t-82.5 -72t-76 -69t-56 -57q-8 -8 -6 -13.5t14 -3.5q14 2 34.5 9.5t43.5 19t46 24.5t42 25q18 12 27.5 13
t9.5 -6t-9.5 -18.5t-27.5 -23.5q-19 -11 -44.5 -25t-53 -26t-54 -20t-47.5 -8q-31 0 -47.5 17.5t-2.5 46.5q13 25 40 57.5t60.5 67t69 68t65.5 60.5h-43q-9 0 -12 4.5t-1 10t8 10t17 4.5h64zM430 395q4 5 11.5 18.5t18 31t22 36.5t22.5 36t20.5 29.5t15.5 15.5q13 9 19 1
t6 -23t-4 -34t-11 -32q-6 -12 -19.5 -25.5t-29 -26.5t-29.5 -23.5t-22 -15.5q-20 -13 -25 -7t5 19z" />
    <glyph glyph-name="zacute" unicode="&#x17a;" horiz-adv-x="411" 
d="M140 119q19 12 53.5 35t68.5 46.5t58.5 42t24.5 20.5q-1 2 -17.5 -6t-41 -18t-53 -18.5t-52.5 -8.5q-17 -13 -43 -31.5t-53 -37.5t-51 -35t-37 -24q-14 -9 -25.5 -11.5t-15.5 1t1 12.5t25 23t48 33t53 37q29 21 60 44q-9 14 -9.5 28t6 25.5t18.5 19t26 7.5t23 -7
t12.5 -17t1.5 -20.5t-9 -17.5q13 3 33 11.5t42.5 18t44.5 17.5t38 10q13 2 27.5 0.5t26.5 -5.5t19 -10.5t4 -14.5q-5 -16 -33 -41.5t-65.5 -53t-77.5 -55t-68 -47.5l-13 -9q6 -18 26 -22t49 4t66 27t77 48q16 11 26 13t12.5 -2t-2 -12.5t-16.5 -18.5q-45 -36 -88.5 -60
t-80 -33t-63.5 -1t-39 36q-47 -27 -84.5 -39t-51.5 3q-17 19 -1 47t58 55q18 11 36 15.5t26 -3.5zM327 423q9 3 34.5 17t55 29t56 26.5t36.5 11.5q16 0 17 -9.5t-7 -23t-21.5 -27t-26.5 -20.5q-12 -7 -30.5 -11.5t-38 -7.5t-37 -4.5t-26.5 -1.5q-23 0 -25 7.5t13 13.5z" />
    <glyph glyph-name="zdotaccent" unicode="&#x17c;" horiz-adv-x="411" 
d="M140 119q19 12 53.5 35t68.5 46.5t58.5 42t24.5 20.5q-1 2 -17.5 -6t-41 -18t-53 -18.5t-52.5 -8.5q-17 -13 -43 -31.5t-53 -37.5t-51 -35t-37 -24q-14 -9 -25.5 -11.5t-15.5 1t1 12.5t25 23t48 33t53 37q29 21 60 44q-9 14 -9.5 28t6 25.5t18.5 19t26 7.5t23 -7
t12.5 -17t1.5 -20.5t-9 -17.5q13 3 33 11.5t42.5 18t44.5 17.5t38 10q13 2 27.5 0.5t26.5 -5.5t19 -10.5t4 -14.5q-5 -16 -33 -41.5t-65.5 -53t-77.5 -55t-68 -47.5l-13 -9q6 -18 26 -22t49 4t66 27t77 48q16 11 26 13t12.5 -2t-2 -12.5t-16.5 -18.5q-45 -36 -88.5 -60
t-80 -33t-63.5 -1t-39 36q-47 -27 -84.5 -39t-51.5 3q-17 19 -1 47t58 55q18 11 36 15.5t26 -3.5zM366 443q13 22 37 37t46 15t28 -15t-7 -37q-14 -22 -38 -37t-46 -15t-28 15t8 37z" />
    <glyph glyph-name="Racute" unicode="&#x154;" horiz-adv-x="707" 
d="M261 561q13 24 65.5 50.5t127.5 50.5t162.5 42t169.5 24.5t149 -1t101 -35.5q49 -40 42.5 -86t-55 -94.5t-131 -96.5t-186.5 -93.5t-222 -85.5t-236 -71q45 -25 96 -63.5t105 -83t110 -91t112.5 -88t112 -74.5t108.5 -49q13 -5 7 -15.5t-25.5 -19.5t-50 -11.5t-65.5 8.5
q-54 17 -110.5 58.5t-111.5 94t-107 109t-98.5 103t-86 76t-68.5 28.5q-2 0 -8 -2q-28 -27 -49.5 -51t-33.5 -41.5t-12.5 -27.5t13.5 -10q10 0 27 7q7 2 12 0t6.5 -5.5t-1.5 -8.5t-12 -8q-14 -6 -29 -8.5t-29 -2.5q-36 0 -45.5 16.5t0.5 44.5t36 64.5t61.5 76.5t77.5 80
t83.5 75.5t79.5 63t66 42.5q20 11 47.5 15t50 2.5t34 -6.5t-1.5 -11q-18 -8 -57 -35.5t-87 -65.5t-101 -83t-99 -88q57 19 124.5 47.5t138.5 63t142.5 73t136 77.5t118.5 75.5t90.5 67.5t51.5 54t2 34q-15 12 -51.5 16t-86.5 1t-109.5 -11.5t-120 -20.5t-118.5 -26.5
t-105.5 -30t-80 -30.5t-41.5 -27q-12 -15 0 -23t28 -8q22 0 25.5 -10t-15.5 -12q-18 0 -35.5 4t-28.5 13t-14.5 22.5t5.5 31.5zM748 808q9 3 34.5 17t55 29t56 26.5t36.5 11.5q16 0 17 -9.5t-7 -23t-21.5 -27t-26.5 -20.5q-12 -7 -30.5 -11.5t-38 -7.5t-37 -4.5t-26.5 -1.5
q-23 0 -25 7.5t13 13.5z" />
    <glyph glyph-name="Abreve" unicode="&#x102;" 
d="M14 -15q12 21 53.5 75t101.5 125q-56 -2 -97.5 -4.5t-52.5 -6.5q-15 -4 -15 2.5t10 16t27 19.5t36 13q20 3 54.5 4t76.5 0q51 58 109.5 119.5t119.5 117.5t121 103t115 76t101.5 36.5t80.5 -14.5q32 -22 38 -53.5t-7.5 -70t-43 -83.5t-68 -92.5t-83 -97.5t-88.5 -99
t-83.5 -96t-67.5 -90q-21 -32 -26 -49.5t2 -22.5t22 1t34 20q7 6 14 6t10 -4.5t1.5 -11.5t-9.5 -13q-44 -34 -76.5 -38.5t-48.5 14t-12 56.5t33 89q22 38 50.5 80t60.5 86q-22 -2 -52.5 -3t-65.5 -2.5t-74 -3t-77 -2.5q-42 -55 -77 -109.5t-58 -105.5q-7 -15 -25.5 -22.5
t-36 -6t-28 11.5t0.5 30zM800 652q-18 7 -51 -5.5t-76 -39.5t-93 -68t-103 -90t-106 -105.5t-101 -115.5q36 -1 71.5 -2t68 -1.5t59.5 0t45 2.5q4 0 7.5 0.5t6.5 0.5q37 50 75 99.5t72.5 95t63 85t46 70t22.5 50t-7 24.5zM807 822q12 24 24 32.5t20.5 6t10.5 -14.5t-7 -28
q-13 -25 -10 -41t26 -16q12 0 26.5 4.5t28 12t25 18t17.5 22.5q9 17 21.5 26t22 9.5t13 -7t-5.5 -24.5q-12 -22 -32 -41t-44 -33.5t-49.5 -23t-47.5 -8.5q-44 0 -53 31t14 75z" />
    <glyph glyph-name="Lacute" unicode="&#x139;" horiz-adv-x="802" 
d="M262 561q9 18 37.5 38.5t69 41t91 40t104.5 34.5t108.5 24.5t103.5 10.5t89 -7t66 -29q38 -32 43 -71.5t-14.5 -84t-59 -92.5t-91 -97t-110.5 -97.5t-117.5 -93t-112 -84t-93.5 -70.5q69 -27 142.5 -58t146 -57.5t142 -43.5t130.5 -17q14 0 11.5 -12t-18.5 -26t-44 -26
t-65 -12q-73 0 -153 27.5t-160 66.5t-155 81t-137.5 70.5t-108 36t-65.5 -23.5q-8 -12 -15.5 -15t-12 0t-5 12t7.5 21q17 29 48 39t73 6.5t92.5 -18.5t106.5 -36q39 39 87 85t99.5 95.5t104 100.5t99.5 99.5t85.5 93t63.5 80.5t33.5 62.5t-5.5 38.5q-15 12 -47 15t-75 -1.5
t-93 -15t-100.5 -24.5t-99 -30.5t-88.5 -33.5t-67.5 -33t-36.5 -28q-6 -8 -5.5 -13.5t5 -9.5t12.5 -6t16 -2q21 0 25 -10t-15 -12q-19 0 -36.5 4t-28.5 13t-14 22.5t6 31.5zM813 823q9 3 34.5 17t55 29t56 26.5t36.5 11.5q16 0 17 -9.5t-7 -23t-21.5 -27t-26.5 -20.5
q-12 -7 -30.5 -11.5t-38 -7.5t-37 -4.5t-26.5 -1.5q-23 0 -25 7.5t13 13.5z" />
    <glyph glyph-name="Cacute" unicode="&#x106;" 
d="M645 183q9 13 18 19t14.5 4.5t5.5 -10t-8 -23.5q-19 -34 -54.5 -73t-81.5 -75.5t-100 -67.5t-111 -49.5t-114 -21t-108 18.5q-47 19 -70 54t-25.5 80.5t13.5 98t46.5 107t74 109t95.5 102.5q56 52 114.5 94.5t118.5 72.5t120 46t120 16q45 0 70 -18t32.5 -44t-0.5 -54.5
t-29 -49.5q-11 -11 -20 -13.5t-14 1t-3.5 11.5t12.5 18q12 10 19.5 27t6.5 33.5t-14 28.5t-41 12q-29 0 -78 -17.5t-107.5 -49.5t-119.5 -77t-114 -100q-62 -64 -113.5 -132.5t-82 -130t-33 -110t34.5 -70.5q33 -20 78.5 -19t96.5 16t104 41.5t100.5 59t86 67.5t60.5 68z
M723 745q9 3 34.5 17t55 29t56 26.5t36.5 11.5q16 0 17 -9.5t-7 -23t-21.5 -27t-26.5 -20.5q-12 -7 -30.5 -11.5t-38 -7.5t-37 -4.5t-26.5 -1.5q-23 0 -25 7.5t13 13.5z" />
    <glyph glyph-name="Ccaron" unicode="&#x10c;" 
d="M645 183q9 13 18 19t14.5 4.5t5.5 -10t-8 -23.5q-19 -34 -54.5 -73t-81.5 -75.5t-100 -67.5t-111 -49.5t-114 -21t-108 18.5q-47 19 -70 54t-25.5 80.5t13.5 98t46.5 107t74 109t95.5 102.5q56 52 114.5 94.5t118.5 72.5t120 46t120 16q45 0 70 -18t32.5 -44t-0.5 -54.5
t-29 -49.5q-11 -11 -20 -13.5t-14 1t-3.5 11.5t12.5 18q12 10 19.5 27t6.5 33.5t-14 28.5t-41 12q-29 0 -78 -17.5t-107.5 -49.5t-119.5 -77t-114 -100q-62 -64 -113.5 -132.5t-82 -130t-33 -110t34.5 -70.5q33 -20 78.5 -19t96.5 16t104 41.5t100.5 59t86 67.5t60.5 68z
M757 797q-6 0 -4.5 7t9.5 15.5t21.5 15.5t31.5 7t28 -8t14 -19t3 -22.5t-7 -19.5q7 6 18 14t22.5 16.5t22.5 16.5t19 13q23 15 25.5 7t-14.5 -21q-12 -9 -28.5 -21.5t-34.5 -26t-36 -27.5t-33 -25q-8 -9 -23 -11t-27.5 0t-19.5 8t1 13q17 16 24 28.5t7 21.5t-6 13.5t-13 4.5
z" />
    <glyph glyph-name="Eogonek" unicode="&#x118;" horiz-adv-x="864" 
d="M636 304q26 1 53 1.5t56 0.5q28 0 39.5 -4t9.5 -8.5t-17.5 -8.5t-41.5 -4q-135 0 -240.5 -24.5t-183 -62t-126 -83t-68.5 -87t-11.5 -74.5t45.5 -46q40 -15 93.5 -14.5t112 12.5t118 33.5t113.5 49.5t98.5 61t71.5 68q10 13 19 18t14 3t4.5 -10.5t-9.5 -22.5
q-19 -34 -56.5 -67.5t-87.5 -64t-109 -55t-121 -40.5q-14 -8 -28.5 -16.5t-26.5 -18t-18 -19t-3 -18.5q4 -8 10 -7.5t12.5 5.5t12 12.5t8.5 12.5q4 6 12.5 3t17 -10.5t13 -18t0.5 -19.5q-3 -10 -16 -21.5t-30.5 -16t-37 2.5t-36.5 35q-13 22 -2 41.5t34 36.5
q-57 -8 -111 -5.5t-100 18.5q-41 15 -70.5 46t-37.5 71t8.5 85t67.5 86t139 75t223 53q-65 16 -93 49t-24.5 73.5t35.5 83.5t86.5 79.5t129.5 61t164 28.5t134.5 -6t61.5 -24t9 -28t-23.5 -18t-36 6.5t-27.5 44.5q-62 7 -122.5 -4.5t-114 -34.5t-97.5 -55t-71 -66t-35 -67
t9.5 -58t64 -39t128.5 -10h5z" />
    <glyph glyph-name="Ecaron" unicode="&#x11a;" horiz-adv-x="864" 
d="M636 304q26 1 53 1.5t56 0.5q28 0 39.5 -4t9.5 -8.5t-17.5 -8.5t-41.5 -4q-135 0 -240.5 -24.5t-183 -62t-126 -83t-68.5 -87t-11.5 -74.5t45.5 -46q40 -15 93.5 -14.5t112 12.5t118 33.5t113.5 49.5t98.5 61t71.5 68q10 13 19 18t14 3t4.5 -10.5t-9.5 -22.5
q-20 -36 -62.5 -72.5t-98 -68.5t-120.5 -57t-132 -38.5t-131.5 -13t-118.5 19.5q-41 15 -70.5 46t-37.5 71t8.5 85t67.5 86t139 75t223 53q-65 16 -93 49t-24.5 73.5t35.5 83.5t86.5 79.5t129.5 61t164 28.5t134.5 -6t61.5 -24t9 -28t-23.5 -18t-36 6.5t-27.5 44.5
q-62 7 -122.5 -4.5t-114 -34.5t-97.5 -55t-71 -66t-35 -67t9.5 -58t64 -39t128.5 -10h5zM839 787q-6 0 -4.5 7t9.5 15.5t21.5 15.5t31.5 7t28 -8t14 -19t3 -22.5t-7 -19.5q7 6 18 14t22.5 16.5t22.5 16.5t19 13q23 15 25.5 7t-14.5 -21q-12 -9 -28.5 -21.5t-34.5 -26
t-36 -27.5t-33 -25q-8 -9 -23 -11t-27.5 0t-19.5 8t1 13q17 16 24 28.5t7 21.5t-6 13.5t-13 4.5z" />
    <glyph glyph-name="Dcaron" unicode="&#x10e;" horiz-adv-x="1057" 
d="M284 1q-15 -6 -30.5 -8.5t-29.5 -2.5q-35 0 -44.5 16.5t0.5 44.5t36 64.5t62 76.5t77.5 80t83 75.5t79.5 63t65 42.5q21 11 49 15t50.5 2.5t33.5 -6.5t-2 -11q-16 -7 -48.5 -29.5t-73.5 -54.5t-87.5 -71t-90.5 -78t-82 -76t-62.5 -65.5t-31 -45.5t11.5 -17q10 0 27 7
q7 2 12 0t7 -5.5t-0.5 -8.5t-11.5 -8zM434 415q-8 -14 -16.5 -19.5t-14 -3t-6.5 11.5t7 24q18 31 64 68.5t109.5 73.5t138.5 66t150 45.5t145 13t123 -32.5q64 -36 78 -93.5t-13 -125.5t-89.5 -142t-150.5 -143t-197 -128t-228.5 -97t-244 -49.5t-245.5 13.5q-31 6 -40 13
t-4 12t20.5 6.5t33.5 -3.5q63 -18 138 -13t155.5 28t163.5 60t162.5 84t152.5 100.5t134 108t106.5 107t70 98.5t24.5 82t-30 57q-27 19 -69.5 22.5t-94.5 -4t-109.5 -24.5t-114.5 -39t-109.5 -47t-94.5 -49t-70 -45.5t-35 -35.5zM1114 791q-6 0 -4.5 7t9.5 15.5t21.5 15.5
t31.5 7t28 -8t14 -19t3 -22.5t-7 -19.5q7 6 18 14t22.5 16.5t22.5 16.5t19 13q23 15 25.5 7t-14.5 -21q-12 -9 -28.5 -21.5t-34.5 -26t-36 -27.5t-33 -25q-8 -9 -23 -11t-27.5 0t-19.5 8t1 13q17 16 24 28.5t7 21.5t-6 13.5t-13 4.5z" />
    <glyph glyph-name="Dcroat" unicode="&#x110;" horiz-adv-x="1057" 
d="M434 415q-8 -14 -16.5 -19.5t-14 -3t-6.5 11.5t7 24q18 31 64 68.5t109.5 73.5t138.5 66t150 45.5t145 13t123 -32.5q64 -36 78 -93.5t-13 -125.5t-89.5 -142t-150.5 -143t-197 -128t-228.5 -97t-244 -49.5t-245.5 13.5q-31 6 -40 13t-4 12t20.5 6.5t33.5 -3.5
q63 -18 138 -13t155.5 28t163.5 60t162.5 84t152.5 100.5t134 108t106.5 107t70 98.5t24.5 82t-30 57q-27 19 -69.5 22.5t-94.5 -4t-109.5 -24.5t-114.5 -39t-109.5 -47t-94.5 -49t-70 -45.5t-35 -35.5zM294 259q6 0 19 0.5t30 0.5q32 31 65.5 61t65 55.5t59.5 45t50 31.5
q21 11 49 15t50.5 2.5t33.5 -6.5t-2 -11q-14 -6 -40.5 -24.5t-61 -44.5t-74 -58t-79.5 -66q6 -1 10.5 -1h7.5q21 -2 19 -13t-31 -19q-8 -2 -21 -3t-29 -2q-44 -39 -82.5 -76.5t-63 -66t-31 -46t11.5 -17.5q10 0 27 7q7 2 12 0t7 -5.5t-0.5 -8.5t-11.5 -8q-15 -6 -30.5 -8.5
t-29.5 -2.5q-39 0 -46.5 20t7.5 53t48 75.5t75 86.5q-6 0 -10 2q-23 7 -21.5 18.5t17.5 13.5z" />
    <glyph glyph-name="Nacute" unicode="&#x143;" horiz-adv-x="1082" 
d="M85 -58q-12 -9 -21.5 -16.5t-17.5 -14.5q-9 -8 -18.5 -7t-15 7.5t-5.5 16.5t11 21q38 38 96.5 87.5t127.5 105t143.5 114t145 115.5t131.5 109t104 94t62 71.5t5 41.5q-15 12 -52.5 15.5t-88 -0.5t-111 -14t-122.5 -23.5t-121 -29.5t-106.5 -32.5t-80.5 -32t-42 -27.5
q-13 -15 -1 -23t29 -8q21 0 25 -10t-15 -12q-20 0 -37 4t-28.5 13t-14 22.5t6.5 31.5t42.5 38.5t82.5 40.5t109.5 38.5t125.5 33t130 23.5t122 9.5t102 -8t70 -29.5q35 -29 34.5 -66t-27.5 -80t-75.5 -90t-108.5 -95q96 59 186.5 108t168 79.5t137.5 39t96 -14.5
q32 -21 31.5 -52t-23.5 -69t-65 -81t-93 -87.5t-106.5 -88.5t-106 -84.5t-92 -75t-64.5 -60t-22.5 -40t33.5 -14.5q20 0 29.5 -5t8 -11t-14 -11t-35.5 -5q-50 0 -65 18.5t-4.5 50t43 73.5t76.5 89.5t95.5 97t101 97t92.5 89.5t71 73.5t35 50t-15 18.5q-33 0 -89.5 -21
t-127.5 -56.5t-153 -82.5t-167 -99t-169 -105.5t-158.5 -103t-136 -91t-101.5 -68.5zM1110 661q9 3 34.5 17t55 29t56 26.5t36.5 11.5q16 0 17 -9.5t-7 -23t-21.5 -27t-26.5 -20.5q-12 -7 -30.5 -11.5t-38 -7.5t-37 -4.5t-26.5 -1.5q-23 0 -25 7.5t13 13.5z" />
    <glyph glyph-name="Ncaron" unicode="&#x147;" horiz-adv-x="1082" 
d="M85 -58q-12 -9 -21.5 -16.5t-17.5 -14.5q-9 -8 -18.5 -7t-15 7.5t-5.5 16.5t11 21q38 38 96.5 87.5t127.5 105t143.5 114t145 115.5t131.5 109t104 94t62 71.5t5 41.5q-15 12 -52.5 15.5t-88 -0.5t-111 -14t-122.5 -23.5t-121 -29.5t-106.5 -32.5t-80.5 -32t-42 -27.5
q-13 -15 -1 -23t29 -8q21 0 25 -10t-15 -12q-20 0 -37 4t-28.5 13t-14 22.5t6.5 31.5t42.5 38.5t82.5 40.5t109.5 38.5t125.5 33t130 23.5t122 9.5t102 -8t70 -29.5q35 -29 34.5 -66t-27.5 -80t-75.5 -90t-108.5 -95q96 59 186.5 108t168 79.5t137.5 39t96 -14.5
q32 -21 31.5 -52t-23.5 -69t-65 -81t-93 -87.5t-106.5 -88.5t-106 -84.5t-92 -75t-64.5 -60t-22.5 -40t33.5 -14.5q20 0 29.5 -5t8 -11t-14 -11t-35.5 -5q-50 0 -65 18.5t-4.5 50t43 73.5t76.5 89.5t95.5 97t101 97t92.5 89.5t71 73.5t35 50t-15 18.5q-33 0 -89.5 -21
t-127.5 -56.5t-153 -82.5t-167 -99t-169 -105.5t-158.5 -103t-136 -91t-101.5 -68.5zM1148 729q-6 0 -4.5 7t9.5 15.5t21.5 15.5t31.5 7t28 -8t14 -19t3 -22.5t-7 -19.5q7 6 18 14t22.5 16.5t22.5 16.5t19 13q23 15 25.5 7t-14.5 -21q-12 -9 -28.5 -21.5t-34.5 -26
t-36 -27.5t-33 -25q-8 -9 -23 -11t-27.5 0t-19.5 8t1 13q17 16 24 28.5t7 21.5t-6 13.5t-13 4.5z" />
    <glyph glyph-name="Ohungarumlaut" unicode="&#x150;" horiz-adv-x="807" 
d="M847 535q-8 -8 -16 -12q29 -41 27 -92t-25 -106t-62.5 -112t-85.5 -110q-31 -35 -72.5 -71.5t-89 -68t-99 -56.5t-104.5 -38.5t-105 -13t-99 20.5q-51 21 -75.5 58.5t-27.5 86t14.5 105t50.5 115.5t79.5 117.5t102.5 110.5q50 46 100.5 85t104.5 69q-24 1 -49 2t-52 1
q-17 0 -25.5 4.5t-8.5 10.5t8.5 10.5t25.5 4.5q42 0 79.5 -1.5t70.5 -5.5q64 31 127.5 48t126.5 17q49 0 75.5 -19.5t35 -47.5t-0.5 -59t-31 -53zM789 669q-23 0 -56 -13t-75 -32q54 -14 92.5 -34t61.5 -45q3 2 4.5 4t5.5 4q12 11 19.5 30.5t6 38.5t-15 33t-43.5 14z
M627 163q34 41 68 84.5t59 87t35.5 85t-2 77t-53 63t-117.5 44.5q-69 -35 -142.5 -86.5t-137.5 -116.5q-44 -46 -85 -95.5t-74 -98.5t-56 -95t-32.5 -84.5t-2.5 -68t34 -45.5q31 -19 71 -19.5t85 14t92.5 40.5t93.5 60t88 73.5t76 80.5zM640 756q9 3 34.5 17t55 29t56 26.5
t36.5 11.5q16 0 17 -9.5t-7 -23t-21.5 -27t-26.5 -20.5q-12 -7 -30.5 -11.5t-38 -7.5t-37 -4.5t-26.5 -1.5q-23 0 -25 7.5t13 13.5zM821 756q9 3 34.5 17t55 29t56 26.5t36.5 11.5q16 0 17 -9.5t-7 -23t-21.5 -27t-26.5 -20.5q-12 -7 -30.5 -11.5t-38 -7.5t-37 -4.5
t-26.5 -1.5q-23 0 -25 7.5t13 13.5z" />
    <glyph glyph-name="Rcaron" unicode="&#x158;" horiz-adv-x="707" 
d="M261 561q13 24 65.5 50.5t127.5 50.5t162.5 42t169.5 24.5t149 -1t101 -35.5q49 -40 42.5 -86t-55 -94.5t-131 -96.5t-186.5 -93.5t-222 -85.5t-236 -71q45 -25 96 -63.5t105 -83t110 -91t112.5 -88t112 -74.5t108.5 -49q13 -5 7 -15.5t-25.5 -19.5t-50 -11.5t-65.5 8.5
q-54 17 -110.5 58.5t-111.5 94t-107 109t-98.5 103t-86 76t-68.5 28.5q-2 0 -8 -2q-28 -27 -49.5 -51t-33.5 -41.5t-12.5 -27.5t13.5 -10q10 0 27 7q7 2 12 0t6.5 -5.5t-1.5 -8.5t-12 -8q-14 -6 -29 -8.5t-29 -2.5q-36 0 -45.5 16.5t0.5 44.5t36 64.5t61.5 76.5t77.5 80
t83.5 75.5t79.5 63t66 42.5q20 11 47.5 15t50 2.5t34 -6.5t-1.5 -11q-18 -8 -57 -35.5t-87 -65.5t-101 -83t-99 -88q57 19 124.5 47.5t138.5 63t142.5 73t136 77.5t118.5 75.5t90.5 67.5t51.5 54t2 34q-15 12 -51.5 16t-86.5 1t-109.5 -11.5t-120 -20.5t-118.5 -26.5
t-105.5 -30t-80 -30.5t-41.5 -27q-12 -15 0 -23t28 -8q22 0 25.5 -10t-15.5 -12q-18 0 -35.5 4t-28.5 13t-14.5 22.5t5.5 31.5zM861 849q-6 0 -4.5 7t9.5 15.5t21.5 15.5t31.5 7t28 -8t14 -19t3 -22.5t-7 -19.5q7 6 18 14t22.5 16.5t22.5 16.5t19 13q23 15 25.5 7t-14.5 -21
q-12 -9 -28.5 -21.5t-34.5 -26t-36 -27.5t-33 -25q-8 -9 -23 -11t-27.5 0t-19.5 8t1 13q17 16 24 28.5t7 21.5t-6 13.5t-13 4.5z" />
    <glyph glyph-name="Uring" unicode="&#x16e;" horiz-adv-x="1053" 
d="M192 -53q29 -5 76 11t105.5 47t126 73t139 91t143.5 100.5t139 101t126 93.5t105 77q53 47 100 89t82 77q10 10 20.5 3.5t16 -24t2.5 -41t-21 -47.5q-45 -57 -109 -118t-133 -120.5t-136 -115t-117 -103t-76.5 -83.5t-15.5 -56q7 -12 28.5 -7.5t48.5 19.5t54.5 37.5
t46.5 48.5q11 15 23 20t19 1.5t5.5 -15t-17.5 -30.5q-22 -27 -53 -54t-65 -44t-68 -18.5t-62 22.5q-30 26 -22 64t41 85t86 100.5t114 109.5q-84 -59 -168 -120t-164 -115t-154 -98.5t-137 -71t-113.5 -32.5t-83.5 17q-26 18 -28.5 48t24 74t83.5 103t151 136
q90 73 171 141.5t139.5 123t87.5 92t16 48.5q-20 16 -77.5 16.5t-134 -10t-161.5 -29t-159 -40t-127 -43.5t-66 -38q-11 -15 0.5 -23t27.5 -8q21 0 25 -10t-15 -12q-18 0 -35 4t-28.5 13t-14.5 22.5t7 31.5q9 18 42 38t81.5 40t109 38.5t125.5 32.5t129.5 23t122 10
t103 -7.5t71.5 -28.5q33 -26 31 -62t-28.5 -79.5t-73.5 -92t-103.5 -98.5t-118.5 -100t-119.5 -96t-105.5 -86t-76.5 -71t-33 -50.5t25.5 -24.5zM989 725q0 34 24 58t58 24t58 -24t24 -58t-24 -58t-58 -24t-58 24t-24 58zM1014 725q0 -24 16.5 -40.5t40.5 -16.5t40.5 16.5
t16.5 40.5t-16.5 40.5t-40.5 16.5t-40.5 -16.5t-16.5 -40.5z" />
    <glyph glyph-name="Uhungarumlaut" unicode="&#x170;" horiz-adv-x="1053" 
d="M192 -53q29 -5 76 11t105.5 47t126 73t139 91t143.5 100.5t139 101t126 93.5t105 77q53 47 100 89t82 77q10 10 20.5 3.5t16 -24t2.5 -41t-21 -47.5q-45 -57 -109 -118t-133 -120.5t-136 -115t-117 -103t-76.5 -83.5t-15.5 -56q7 -12 28.5 -7.5t48.5 19.5t54.5 37.5
t46.5 48.5q11 15 23 20t19 1.5t5.5 -15t-17.5 -30.5q-22 -27 -53 -54t-65 -44t-68 -18.5t-62 22.5q-30 26 -22 64t41 85t86 100.5t114 109.5q-84 -59 -168 -120t-164 -115t-154 -98.5t-137 -71t-113.5 -32.5t-83.5 17q-26 18 -28.5 48t24 74t83.5 103t151 136
q90 73 171 141.5t139.5 123t87.5 92t16 48.5q-20 16 -77.5 16.5t-134 -10t-161.5 -29t-159 -40t-127 -43.5t-66 -38q-11 -15 0.5 -23t27.5 -8q21 0 25 -10t-15 -12q-18 0 -35 4t-28.5 13t-14.5 22.5t7 31.5q9 18 42 38t81.5 40t109 38.5t125.5 32.5t129.5 23t122 10
t103 -7.5t71.5 -28.5q33 -26 31 -62t-28.5 -79.5t-73.5 -92t-103.5 -98.5t-118.5 -100t-119.5 -96t-105.5 -86t-76.5 -71t-33 -50.5t25.5 -24.5zM1091 698q9 3 34.5 17t55 29t56 26.5t36.5 11.5q16 0 17 -9.5t-7 -23t-21.5 -27t-26.5 -20.5q-12 -7 -30.5 -11.5t-38 -7.5
t-37 -4.5t-26.5 -1.5q-23 0 -25 7.5t13 13.5zM910 698q9 3 34.5 17t55 29t56 26.5t36.5 11.5q16 0 17 -9.5t-7 -23t-21.5 -27t-26.5 -20.5q-12 -7 -30.5 -11.5t-38 -7.5t-37 -4.5t-26.5 -1.5q-23 0 -25 7.5t13 13.5z" />
    <glyph glyph-name="Tcommaaccent" unicode="&#x162;" horiz-adv-x="620" 
d="M98 561q12 18 48.5 38t88.5 40t115.5 38.5t130.5 32.5t133.5 23t124 10t102 -7.5t67.5 -28.5q35 -32 30.5 -70.5t-38 -81.5t-90.5 -89.5t-126.5 -93.5t-147 -93.5t-151 -90.5t-138.5 -83t-110 -72q-25 -17 -35.5 -32t-6 -23.5t25 -7.5t57.5 15q27 11 54 27t50 30
q19 12 28.5 12.5t9.5 -6t-9.5 -17.5t-28.5 -22t-43.5 -26t-53.5 -26q-67 -24 -102 -20.5t-42.5 24t11 53t58.5 66.5q42 35 99 78t122 89.5t133 94.5t132 94t119.5 87.5t95 75t58 56.5t9.5 32q-13 12 -49.5 15.5t-88 -0.5t-113.5 -14t-126 -23.5t-126 -29.5t-112.5 -32.5
t-86 -32t-46.5 -27.5q-15 -15 -4 -23t27 -8q21 0 23.5 -10t-16.5 -12q-20 0 -36.5 4t-26.5 13t-10.5 22.5t11.5 31.5zM-89 -263q3 5 11 18.5t18.5 31t22 36.5t22.5 36t20.5 29.5t15.5 15.5q13 9 19 1t6 -23t-4 -34t-11 -32q-6 -12 -19.5 -25.5t-29 -26.5t-29.5 -23.5
t-22 -15.5q-20 -13 -25 -7t5 19z" />
    <glyph glyph-name="racute" unicode="&#x155;" horiz-adv-x="307" 
d="M-11 81q-17 -10 -27 -11t-10.5 4.5t8.5 16t29 23.5q15 10 35.5 24t42 29t41.5 30t35 26q-2 1 -6 5q-8 7 -5.5 20t13 25t27 21t36.5 9q13 0 16 -7.5t0 -17.5t-9 -19.5t-12 -13.5q11 0 35 3t48 5q31 1 39.5 -17.5t-15.5 -43.5q-14 -15 -37 -33t-49 -36.5t-50.5 -36
t-42.5 -31t-25 -21.5t3 -8q11 0 34 8.5t50 22t54.5 28.5t48.5 29q18 12 27.5 13t9.5 -5.5t-9.5 -18t-27.5 -22.5q-19 -12 -44.5 -26t-53 -26.5t-54 -20.5t-47.5 -8q-12 0 -24 6t-18.5 16.5t-4.5 24.5t17 31q10 10 27.5 26t37.5 34t41.5 37t39.5 37q5 4 3 6.5t-8 2.5
q-8 -2 -15 -3t-14 -1q-13 -10 -37 -29t-52 -39t-55 -39t-46 -29zM297 421q9 3 34.5 17t55 29t56 26.5t36.5 11.5q16 0 17 -9.5t-7 -23t-21.5 -27t-26.5 -20.5q-12 -7 -30.5 -11.5t-38 -7.5t-37 -4.5t-26.5 -1.5q-23 0 -25 7.5t13 13.5z" />
    <glyph glyph-name="abreve" unicode="&#x103;" horiz-adv-x="409" 
d="M409 121q18 12 28 13.5t11 -4t-7.5 -16.5t-27.5 -23q-21 -15 -47.5 -31t-54 -29.5t-54 -22t-47.5 -8.5q-12 0 -22.5 4.5t-17.5 13t-9 20t4 26.5q6 16 28 46q-32 -25 -66 -48t-64 -38.5t-53.5 -20.5t-36.5 7q-17 16 -11 40.5t23 50.5t40 50t41 39q54 46 114 76t114 30
q30 0 56.5 -9t43.5 -24q9 -9 6 -14.5t-11 -7t-18 0.5t-15 9q-4 4 -15 10.5t-25 6.5q-18 0 -46.5 -16t-61 -40.5t-64.5 -53t-56 -53t-36 -40.5t-4 -16q9 0 33.5 16.5t57.5 41t70 53t69 53.5q12 13 33.5 16.5t40 0t28.5 -12.5t-1 -19q-26 -24 -52.5 -51t-46 -50t-28 -38
t2.5 -15t28.5 7t38.5 18t43.5 24.5t43.5 27.5zM313 488q12 24 24 32.5t20.5 6t10.5 -14.5t-7 -28q-13 -25 -10 -41t26 -16q12 0 26.5 4.5t28 12t25 18t17.5 22.5q9 17 21.5 26t22 9.5t13 -7t-5.5 -24.5q-12 -22 -32 -41t-44 -33.5t-49.5 -23t-47.5 -8.5q-44 0 -53 31t14 75z
" />
    </font>
</defs>
</svg>
