<?xml version="1.0" encoding="utf-8"?>
<!-- Generator: Adobe Illustrator 16.0.0, SVG Export Plug-In . SVG Version: 6.00 Build 0)  -->
<!DOCTYPE svg PUBLIC "-//W3C//DTD SVG 1.1//EN" "http://www.w3.org/Graphics/SVG/1.1/DTD/svg11.dtd">
<svg version="1.1" id="Ebene_1" xmlns="http://www.w3.org/2000/svg" xmlns:xlink="http://www.w3.org/1999/xlink" x="0px" y="0px"
	 width="73.167px" height="21.834px" viewBox="0 0 73.167 21.834" enable-background="new 0 0 73.167 21.834" xml:space="preserve">
<g>
	<g>
		<path fill="#005140" d="M60.085,18.468l-10.561,0.023c-0.158,0-0.262-0.129-0.226-0.283l0.401-1.651h-0.377l-1.012,1.854
			c-0.029,0.055-0.141,0.121-0.202,0.121l-14.895,0.019c-0.141,0-0.245-0.116-0.229-0.257l0.154-1.378
			c-1.522,1.31-3.607,1.598-4.855,1.598h-6.103c-0.172,0-0.273-0.141-0.219-0.304l0.223-0.668c-1.005,0.763-2.35,1.309-4.151,1.309
			c-2.132,0-3.385-0.794-3.929-2.006c-1.294,1.26-3.271,1.99-5.265,1.99c-0.622,0-1.228-0.066-1.804-0.192l-0.724,2.233
			c-0.07,0.218-0.296,0.245-0.415,0.051l-4.182-6.78c-0.078-0.126-0.028-0.278,0.109-0.335l6.085-2.498
			c-0.021-0.051-0.04-0.1-0.059-0.148C7.545,10.359,7.469,9.01,7.675,8.138c0.317-1.344,1.992-4.664,6.452-4.466
			c0.903,0.04,2.095,0.411,2.879,0.838l0.247-0.558c0.026-0.078,0.137-0.157,0.219-0.157L31.74,3.757
			c0.951,0,1.994,0.205,2.788,0.743l0.056-0.495c0.012-0.107,0.12-0.205,0.229-0.205L60.19,3.813c0.106,0,0.216,0.096,0.229,0.203
			l0.31,2.501c1.016-1.075,1.82-1.738,2.847-2.257c0.799-0.403,1.8-0.493,2.471-0.513c0.12-0.004,0.237-0.005,0.348-0.005
			l0.833-2.607c0.069-0.219,0.296-0.247,0.416-0.052l4.117,6.663c0.078,0.127,0.028,0.279-0.11,0.335l-7.161,2.882
			c-0.209,0.085-0.372-0.066-0.307-0.281l0.205-0.664c-0.482,0.483-0.994,1.081-1.508,1.75c-0.688,0.895-1.556,2.711-1.786,3.396
			l-0.064,0.188"/>
		<polygon fill="#005140" points="56.061,11.864 56.055,11.92 56.065,11.89 		"/>
		<path fill="#FFED00" d="M66.332,7.638L65.858,9.17l4.345-1.749l-2.487-4.023l-0.49,1.537c0,0-2.014-0.207-3.129,0.355
			c-0.913,0.462-1.641,1.062-2.693,2.196c-0.536,0.578-1.473,1.964-1.473,1.964l-0.59-4.512h-3.172l1.08,7.062l-1.892,5.392h3.746
			c0,0,0.819-2.368,0.896-2.597c0.261-0.776,1.185-2.713,1.964-3.73C63.319,9.302,64.967,7.586,66.332,7.638"/>
		<path fill="#FFFFFF" d="M23.128,5.04l-2.623,7.838c-0.105,0.313-0.232,0.742-0.447,1.09c-0.193,0.33-0.496,0.594-0.975,0.594
			c-0.462,0-0.587-0.264-0.571-0.611c0.012-0.33,0.172-0.759,0.282-1.088l2.617-7.822h-3.366l-2.723,8.135
			c-0.502,1.502-1.183,4.522,2.712,4.522s5.235-3.021,5.738-4.522l2.722-8.135H23.128z"/>
		<path fill="#FFED00" d="M43.026,17.396l6.672-12.442h-3.284l-3.642,7.723c0.172-0.907,1.348-7.723,1.348-7.723h-2.888
			c0,0-3.348,6.849-3.756,7.772l1.478-7.772h-3.317l-1.392,12.442h3.268l3.613-7.789c-0.171,0.858-1.353,7.789-1.353,7.789H43.026z"
			/>
		<path fill-rule="evenodd" clip-rule="evenodd" fill="#FFED00" d="M51.122,4.954h4.597l-1.478,12.46h-3.557l0.468-2.012h-2.514
			l-1.077,1.976h-3.125L51.122,4.954z M49.967,12.854h1.688l0.754-4.561L49.967,12.854z"/>
		<path fill="#FFFFFF" d="M5.831,18.62L3.27,14.466l4.506-1.85l-0.503,1.555c0.55,0.338,1.216,0.445,1.817,0.408
			c0.54-0.032,1.165-0.269,1.356-0.724c0.131-0.308-0.04-0.962-0.462-1.4c-0.489-0.512-0.856-1.179-1.055-1.701
			c-0.22-0.577-0.288-1.69-0.132-2.351c0.246-1.041,1.584-3.742,5.277-3.578c0.808,0.036,1.993,0.435,2.575,0.813l-1.372,2.612
			c-1.562-0.922-2.501-0.585-2.856,0.263c-0.352,0.838,0.238,1.663,0.778,2.294c0.689,0.806,1.237,1.646,1.237,2.649
			c0,2.334-2.505,4.224-5.596,4.224c-0.922,0-1.792-0.168-2.554-0.466L5.831,18.62z"/>
		<path fill-rule="evenodd" clip-rule="evenodd" fill="#FFFFFF" d="M29.25,9.852L30,7.687h0.567c0.474,0,1.349,0.076,0.921,1.142
			c-0.338,0.842-1.255,1.023-1.772,1.023H29.25z M28.627,12.472c1.169-0.056,1.876,0.395,1.694,1.197
			c-0.18,0.796-0.825,1.07-1.544,1.07l-0.917-0.002L28.627,12.472z M23.463,17.437h4.821c1.706,0,4.447-0.57,5.3-3.13
			c0.497-1.485-0.4-2.881-1.3-3.359c0.969-0.346,1.916-1.538,2.188-2.491c0.771-2.709-0.845-3.469-2.732-3.469h-4.123L23.463,17.437
			z"/>
	</g>
</g>
</svg>
